<svg width="40" height="40" viewBox="0 0 40 40" fill="none" xmlns="http://www.w3.org/2000/svg">
<path d="M33.75 9.99996H30.6125C29.8447 7.79381 28.4093 5.88135 26.5054 4.528C24.6014 3.17464 22.3234 2.44751 19.9875 2.44751C17.6516 2.44751 15.3736 3.17464 13.4696 4.528C11.5657 5.88135 10.1303 7.79381 9.3625 9.99996H6.25C5.25544 9.99996 4.30161 10.395 3.59835 11.0983C2.89509 11.8016 2.5 12.7554 2.5 13.75V33.75C2.5 34.7445 2.89509 35.6983 3.59835 36.4016C4.30161 37.1049 5.25544 37.5 6.25 37.5H33.75C34.7446 37.5 35.6984 37.1049 36.4017 36.4016C37.1049 35.6983 37.5 34.7445 37.5 33.75V13.75C37.5 12.7554 37.1049 11.8016 36.4017 11.0983C35.6984 10.395 34.7446 9.99996 33.75 9.99996ZM33.75 12.5C34.0815 12.5 34.3995 12.6317 34.6339 12.8661C34.8683 13.1005 35 13.4184 35 13.75V15.2125C34.5984 15.0712 34.1757 14.9993 33.75 15H31.175C31.2249 14.5852 31.2499 14.1677 31.25 13.75C31.2503 13.3322 31.2253 12.9147 31.175 12.5H33.75ZM20 4.99996C22.3206 4.99996 24.5462 5.92183 26.1872 7.56278C27.8281 9.20372 28.75 11.4293 28.75 13.75C28.7519 14.1682 28.7227 14.586 28.6625 15H23.5375C23.2825 14.2785 22.8129 13.6523 22.1918 13.2054C21.5706 12.7585 20.8276 12.5123 20.0625 12.5H20C19.7528 12.5 19.5111 12.4266 19.3055 12.2893C19.1 12.1519 18.9398 11.9567 18.8452 11.7283C18.7505 11.4999 18.7258 11.2486 18.774 11.0061C18.8222 10.7636 18.9413 10.5409 19.1161 10.3661C19.2909 10.1913 19.5137 10.0722 19.7561 10.024C19.9986 9.97575 20.2499 10.0005 20.4784 10.0951C20.7068 10.1897 20.902 10.3499 21.0393 10.5555C21.1767 10.7611 21.25 11.0027 21.25 11.25C21.25 11.5815 21.3817 11.8994 21.6161 12.1338C21.8505 12.3683 22.1685 12.5 22.5 12.5C22.8315 12.5 23.1495 12.3683 23.3839 12.1338C23.6183 11.8994 23.75 11.5815 23.75 11.25C23.7504 10.4741 23.5102 9.7173 23.0624 9.08373C22.6147 8.45017 21.9814 7.97107 21.25 7.71246V7.49996C21.25 7.16844 21.1183 6.8505 20.8839 6.61608C20.6495 6.38166 20.3315 6.24996 20 6.24996C19.6685 6.24996 19.3505 6.38166 19.1161 6.61608C18.8817 6.8505 18.75 7.16844 18.75 7.49996V7.71246C17.9146 8.00634 17.2101 8.5864 16.7614 9.3499C16.3127 10.1134 16.1487 11.0111 16.2984 11.8839C16.4481 12.7568 16.9019 13.5485 17.5794 14.1188C18.2569 14.6891 19.1144 15.0013 20 15H11.3375C11.2773 14.586 11.2481 14.1682 11.25 13.75C11.25 11.4293 12.1719 9.20372 13.8128 7.56278C15.4538 5.92183 17.6794 4.99996 20 4.99996ZM6.25 12.5H8.75V15H6.25C5.91848 15 5.60054 14.8683 5.36612 14.6338C5.1317 14.3994 5 14.0815 5 13.75C5 13.4184 5.1317 13.1005 5.36612 12.8661C5.60054 12.6317 5.91848 12.5 6.25 12.5ZM33.75 35H6.25C5.91848 35 5.60054 34.8683 5.36612 34.6338C5.1317 34.3994 5 34.0815 5 33.75V17.2875C5.40158 17.4287 5.82429 17.5006 6.25 17.5H33.75C34.0815 17.5 34.3995 17.6317 34.6339 17.8661C34.8683 18.1005 35 18.4184 35 18.75V21.25H31.25C29.9239 21.25 28.6521 21.7767 27.7145 22.7144C26.7768 23.6521 26.25 24.9239 26.25 26.25C26.25 27.576 26.7768 28.8478 27.7145 29.7855C28.6521 30.7232 29.9239 31.25 31.25 31.25H35V33.75C35 34.0815 34.8683 34.3994 34.6339 34.6338C34.3995 34.8683 34.0815 35 33.75 35ZM35 28.75H31.25C30.587 28.75 29.9511 28.4866 29.4822 28.0177C29.0134 27.5489 28.75 26.913 28.75 26.25C28.75 25.5869 29.0134 24.951 29.4822 24.4822C29.9511 24.0134 30.587 23.75 31.25 23.75H35V28.75Z" fill="#757786"/>
<path d="M21.25 25H18.75C18.4185 25 18.1005 25.1317 17.8661 25.3661C17.6317 25.6005 17.5 25.9185 17.5 26.25C17.5 26.5815 17.6317 26.8995 17.8661 27.1339C18.1005 27.3683 18.4185 27.5 18.75 27.5H21.25C21.5815 27.5 21.8995 27.3683 22.1339 27.1339C22.3683 26.8995 22.5 26.5815 22.5 26.25C22.5 25.9185 22.3683 25.6005 22.1339 25.3661C21.8995 25.1317 21.5815 25 21.25 25Z" fill="#757786"/>
</svg>
