<svg width="23" height="21" viewBox="0 0 23 21" fill="none" xmlns="http://www.w3.org/2000/svg">
<path d="M13.4587 11.6184C13.3439 11.6184 12.7008 11.6641 11.2769 11.6641C10.1516 11.6641 9.34781 11.6413 9.07222 11.6184C4.70869 11.4355 1.4705 10.6809 1.4705 9.76633C1.4705 8.85173 4.73166 8.09718 9.07222 7.91426V10.8638C9.34781 10.8867 10.1746 10.9324 11.2999 10.9324C12.6549 10.9324 13.3209 10.8867 13.4587 10.8638V7.91426C17.7993 8.09718 21.0604 8.85173 21.0604 9.76633C21.0604 10.6581 17.7993 11.4126 13.4587 11.6184ZM13.4587 7.59415V4.96467H19.5217V0.94043H2.98625V4.96467H9.04925V7.59415C4.11158 7.8228 0.414062 8.78313 0.414062 9.94925C0.414062 11.1154 4.13454 12.0757 9.04925 12.3043V20.7644H13.4357V12.3043C18.3964 12.0986 22.0939 11.1382 22.0939 9.97211C22.0939 8.806 18.3964 7.8228 13.4587 7.59415Z" fill="#7B808F"/>
</svg>
