<svg width="18" height="23" viewBox="0 0 18 23" fill="none" xmlns="http://www.w3.org/2000/svg">
<path d="M13.9649 9.388C13.4074 11.6084 10.0067 10.4702 8.90279 10.1985L9.8782 6.31315C10.9652 6.57971 14.5225 7.09006 13.9481 9.388H13.9649ZM13.3572 15.6664C12.7551 18.0858 8.66315 16.7766 7.3361 16.4485L8.41187 12.1579C9.73891 12.4908 13.987 13.1402 13.3572 15.6664ZM17.8172 9.42157C18.1684 7.05689 16.3621 5.78602 13.9147 4.94238L14.7176 1.73965L12.7386 1.25129L11.9583 4.37089C11.4453 4.24341 10.9158 4.12112 10.3916 4.00442L11.1719 0.851643L9.21508 0.363281L8.41227 3.56601L7.16349 3.28866L4.45963 2.61686L3.94101 4.6986C3.94101 4.6986 5.39049 5.0315 5.36279 5.05388C5.91633 5.12062 6.32014 5.61018 6.27719 6.16408L5.36279 9.81082C5.43143 9.8264 5.49887 9.84839 5.56349 9.87756L5.35717 9.82201L4.0803 14.9342C3.96068 15.3083 3.55927 15.5141 3.18315 15.395H3.18275C3.18275 15.4226 1.75535 15.0453 1.75535 15.0453L0.785156 17.2657L3.33288 17.8932L4.72656 18.2541L3.91813 21.49L5.87498 21.9783L6.67779 18.7756C7.20524 18.9199 7.72426 19.0529 8.23324 19.1752L7.44167 22.3892L9.39852 22.8719L10.207 19.6416C13.5519 20.2695 16.055 20.0189 17.1143 17.0108C17.9673 14.5905 17.0698 13.1974 15.3136 12.287C16.5957 11.9929 17.5438 11.1768 17.8168 9.42277L17.8172 9.42157Z" fill="#7B808F"/>
</svg>
