<svg width="18" height="24" viewBox="0 0 18 24" fill="none" xmlns="http://www.w3.org/2000/svg">
<path fill-rule="evenodd" clip-rule="evenodd" d="M6.90732 19.8119L8.76523 13.5744L11.6601 12.7571L12.265 10.6923L9.41333 11.5526L12.4378 1.31451V1.15105C12.4356 1.0855 12.4204 1.02104 12.3931 0.961349C12.3659 0.901654 12.327 0.847897 12.2789 0.803151C12.2307 0.758405 12.1742 0.723547 12.1125 0.700572C12.0508 0.677597 11.9852 0.666955 11.9193 0.669254H8.07391C7.92833 0.664786 7.78544 0.708945 7.66799 0.794697C7.55054 0.88045 7.46528 1.00286 7.42581 1.14244L3.83962 13.2733L0.98795 14.1336L0.339844 16.1124L3.19151 15.2521L0.642294 23.8986H15.8512C15.9971 23.9046 16.1407 23.861 16.2585 23.775C16.3763 23.689 16.4612 23.5657 16.4993 23.4254L17.3634 20.4572V20.2937C17.3612 20.2282 17.346 20.1637 17.3187 20.104C17.2915 20.0443 17.2527 19.9906 17.2045 19.9458C17.1563 19.9011 17.0998 19.8662 17.0381 19.8432C16.9764 19.8203 16.9108 19.8096 16.8449 19.8119H6.90732Z" fill="#7B808F"/>
</svg>
