<svg width="40" height="40" viewBox="0 0 40 40" fill="none" xmlns="http://www.w3.org/2000/svg">
<g clip-path="url(#clip0_111_16715)">
<path d="M17.0766 36.9701C8.96023 35.582 2.78265 28.5121 2.78265 19.9999C2.78265 11.4878 8.96023 4.41791 17.0766 3.02979" stroke="#757786" stroke-width="2.5" stroke-miterlimit="10" stroke-linecap="round" stroke-linejoin="round"/>
<path d="M17.0766 3.02979L15.3111 6.16353" stroke="#757786" stroke-width="2.5" stroke-miterlimit="10" stroke-linecap="round" stroke-linejoin="round"/>
<path d="M17.0766 3.02984L13.9969 1.17188" stroke="#757786" stroke-width="2.5" stroke-miterlimit="10" stroke-linecap="round" stroke-linejoin="round"/>
<path d="M22.9234 3.02979C31.0398 4.41791 37.2173 11.4878 37.2173 19.9999C37.2173 28.5121 31.0398 35.582 22.9234 36.9701" stroke="#757786" stroke-width="2.5" stroke-miterlimit="10" stroke-linecap="round" stroke-linejoin="round"/>
<path d="M22.9234 36.9701L24.6889 33.8363" stroke="#757786" stroke-width="2.5" stroke-miterlimit="10" stroke-linecap="round" stroke-linejoin="round"/>
<path d="M22.9234 36.9701L26.0031 38.8281" stroke="#757786" stroke-width="2.5" stroke-miterlimit="10" stroke-linecap="round" stroke-linejoin="round"/>
<path d="M25.7887 29.1407H14.2113C13.0792 29.1407 12.1615 28.2229 12.1615 27.0908V19.6869C12.1615 18.5548 13.0792 17.6371 14.2113 17.6371H25.7887C26.9209 17.6371 27.8386 18.5548 27.8386 19.6869V27.0908C27.8385 28.2229 26.9208 29.1407 25.7887 29.1407Z" stroke="#757786" stroke-width="2.5" stroke-miterlimit="10" stroke-linecap="round" stroke-linejoin="round"/>
<path d="M26.0156 17.637V15.7812C26.0156 12.4589 23.3223 9.76562 20 9.76562C16.6777 9.76562 13.9844 12.4589 13.9844 15.7812V17.637" stroke="#757786" stroke-width="2.5" stroke-miterlimit="10" stroke-linecap="round" stroke-linejoin="round"/>
<path d="M20 22.5781V24.1995" stroke="#757786" stroke-width="2.5" stroke-miterlimit="10" stroke-linecap="round" stroke-linejoin="round"/>
</g>
<defs>
<clipPath id="clip0_111_16715">
<rect width="40" height="40" fill="white"/>
</clipPath>
</defs>
</svg>
