<svg width="40" height="40" viewBox="0 0 40 40" fill="none" xmlns="http://www.w3.org/2000/svg">
<path d="M30 11.6667H31.25C31.25 11.3351 31.1183 11.0172 30.8838 10.7828C30.6495 10.5484 30.3315 10.4167 30 10.4167V11.6667ZM10 11.6667V10.4167C9.66848 10.4167 9.35053 10.5484 9.11611 10.7828C8.88169 11.0172 8.75 11.3351 8.75 11.6667H10ZM28.75 11.6667V18.3333H31.25V11.6667H28.75ZM28.75 18.3333V31.6667H31.25V18.3333H28.75ZM26.6667 33.75H13.3333V36.25H26.6667V33.75ZM11.25 31.6667V11.6667H8.75V31.6667H11.25ZM10 12.9167H30V10.4167H10V12.9167ZM10 6.25H30V3.75H10V6.25ZM4.58333 11.6667C4.58333 8.67513 7.00845 6.25 10 6.25V3.75C5.62775 3.75 2.08333 7.29442 2.08333 11.6667H4.58333ZM10 17.0833C7.00845 17.0833 4.58333 14.6582 4.58333 11.6667H2.08333C2.08333 16.0389 5.62775 19.5833 10 19.5833V17.0833ZM35.4167 11.6667C35.4167 14.6582 32.9915 17.0833 30 17.0833V19.5833C34.3723 19.5833 37.9167 16.0389 37.9167 11.6667H35.4167ZM37.9167 11.6667C37.9167 7.29442 34.3723 3.75 30 3.75V6.25C32.9915 6.25 35.4167 8.67513 35.4167 11.6667H37.9167ZM28.75 31.6667C28.75 32.8173 27.8173 33.75 26.6667 33.75V36.25C29.198 36.25 31.25 34.198 31.25 31.6667H28.75ZM13.3333 33.75C12.1827 33.75 11.25 32.8173 11.25 31.6667H8.75C8.75 34.198 10.802 36.25 13.3333 36.25V33.75Z" fill="#757786"/>
<path d="M24.2172 25.8839C24.7053 25.3957 24.7053 24.6044 24.2172 24.1162C23.729 23.628 22.9377 23.628 22.4495 24.1162L24.2172 25.8839ZM17.5505 24.1162C17.0623 23.628 16.2709 23.628 15.7828 24.1162C15.2946 24.6044 15.2946 25.3957 15.7828 25.8839L17.5505 24.1162ZM21.25 18.3334C21.25 17.643 20.6903 17.0834 20 17.0834C19.3097 17.0834 18.75 17.643 18.75 18.3334H21.25ZM18.75 26.6667C18.75 27.357 19.3097 27.9167 20 27.9167C20.6903 27.9167 21.25 27.357 21.25 26.6667H18.75ZM22.4495 24.1162L20.2947 26.271L22.0623 28.0387L24.2172 25.8839L22.4495 24.1162ZM19.7053 26.271L17.5505 24.1162L15.7828 25.8839L17.9377 28.0387L19.7053 26.271ZM20.2947 26.271C20.1318 26.4337 19.8682 26.4337 19.7053 26.271L17.9377 28.0387C19.0767 29.1777 20.9233 29.1777 22.0623 28.0387L20.2947 26.271ZM18.75 18.3334V26.6667H21.25V18.3334H18.75Z" fill="#757786"/>
</svg>
