<svg width="30" height="30" viewBox="0 0 30 30" fill="none" xmlns="http://www.w3.org/2000/svg">
<path d="M13.7025 20.2011V24.102C13.7025 26.2473 11.947 28.0028 9.80167 28.0028H5.90084C3.7555 28.0028 2 26.2473 2 24.102V20.2011C2 18.0558 3.7555 16.3003 5.90084 16.3003H9.80167C11.947 16.3003 13.7025 18.0558 13.7025 20.2011Z" fill="#A0A0B0"/>
<path d="M13.7025 5.89815V9.79899C13.7025 11.9443 11.947 13.6998 9.80167 13.6998H5.90084C3.7555 13.6998 2 11.9443 2 9.79899V5.89815C2 3.75282 3.7555 1.99731 5.90084 1.99731H9.80167C11.947 1.99731 13.7025 3.75282 13.7025 5.89815Z" fill="#A0A0B0"/>
<path d="M27.9994 20.2011V24.102C27.9994 26.2473 26.2439 28.0028 24.0985 28.0028H20.1977C18.0524 28.0028 16.2969 26.2473 16.2969 24.102V20.2011C16.2969 18.0558 18.0524 16.3003 20.1977 16.3003H24.0985C26.2439 16.3003 27.9994 18.0558 27.9994 20.2011Z" fill="#A0A0B0"/>
<path d="M27.9994 5.89815V9.79899C27.9994 11.9443 26.2439 13.6998 24.0985 13.6998H20.1977C18.0524 13.6998 16.2969 11.9443 16.2969 9.79899V5.89815C16.2969 3.75282 18.0524 1.99731 20.1977 1.99731H24.0985C26.2439 1.99731 27.9994 3.75282 27.9994 5.89815Z" fill="#A0A0B0"/>
</svg>
