<svg width="47" height="47" viewBox="0 0 47 47" fill="none" xmlns="http://www.w3.org/2000/svg">
<g filter="url(#filter0_f_862_85331)">
<path d="M28.8 4L19.2 4C11.2 4 8 7.2 8 15.2L8 24.8C8 32.8 11.2 36 19.2 36L28.8 36C36.8 36 40 32.8 40 24.8L40 15.2C40 7.2 36.8 4 28.8 4Z" fill="#C1B6FF"/>
<path d="M19.2 4.5L28.8 4.5C32.7507 4.5 35.3861 5.2932 37.0464 6.95355C38.7068 8.61391 39.5 11.2493 39.5 15.2L39.5 24.8C39.5 28.7507 38.7068 31.3861 37.0464 33.0464C35.3861 34.7068 32.7507 35.5 28.8 35.5L19.2 35.5C15.2493 35.5 12.6139 34.7068 10.9536 33.0464C9.2932 31.3861 8.5 28.7507 8.5 24.8L8.5 15.2C8.5 11.2493 9.2932 8.6139 10.9536 6.95355C12.6139 5.2932 15.2493 4.5 19.2 4.5Z" stroke="#C1B6FF"/>
</g>
<path d="M19.2 4.7L28.8 4.7C32.731 4.7 35.3005 5.49048 36.905 7.09497C38.5095 8.69947 39.3 11.269 39.3 15.2L39.3 24.8C39.3 28.731 38.5095 31.3005 36.905 32.905C35.3005 34.5095 32.731 35.3 28.8 35.3L19.2 35.3C15.269 35.3 12.6995 34.5095 11.095 32.905C9.49048 31.3005 8.7 28.731 8.7 24.8L8.7 15.2C8.7 11.269 9.49048 8.69947 11.095 7.09497C12.6995 5.49048 15.269 4.7 19.2 4.7Z" fill="#EEEEEE" stroke="#B6A5FB" stroke-width="1.4"/>
<g filter="url(#filter1_d_862_85331)">
<path d="M21.1207 11.1113C18.7918 11.1113 16.8984 13.0047 16.8984 15.3335C16.8984 17.5864 18.636 19.4156 20.9176 19.5425C20.9815 19.5461 21.0459 19.541 21.1098 19.5403C21.1292 19.54 21.1478 19.5406 21.1654 19.5418C21.1949 19.5439 21.2244 19.5469 21.254 19.5469V19.5469C21.2629 19.5469 21.2629 19.5469 21.2718 19.5469C23.5473 19.4669 25.334 17.618 25.3429 15.3335C25.3429 13.0047 23.4495 11.1113 21.1207 11.1113Z" fill="url(#paint0_radial_862_85331)"/>
<path d="M17.3984 15.3335C17.3984 13.2808 19.0679 11.6113 21.1207 11.6113C23.1731 11.6113 24.8424 13.2803 24.8429 15.3326C24.8345 17.3466 23.2641 18.9721 21.2627 19.0469H21.2627H21.2627H21.2626H21.2626H21.2626H21.2626H21.2625H21.2625H21.2625H21.2625H21.2624H21.2624H21.2624H21.2624H21.2623H21.2623H21.2623H21.2623H21.2622H21.2622H21.2622H21.2621H21.2621H21.2621H21.2621H21.262H21.262H21.262H21.262H21.2619H21.2619H21.2619H21.2619H21.2618H21.2618H21.2618H21.2617H21.2617H21.2617H21.2617H21.2616H21.2616H21.2616H21.2616H21.2615H21.2615H21.2615H21.2615H21.2614H21.2614H21.2614H21.2613H21.2613H21.2613H21.2613H21.2612H21.2612H21.2612H21.2611H21.2611H21.2611H21.2611H21.261H21.261H21.261H21.261H21.2609H21.2609H21.2609H21.2608H21.2608H21.2608H21.2608H21.2607H21.2607H21.2607H21.2606H21.2606H21.2606H21.2606H21.2605H21.2605H21.2605H21.2604H21.2604H21.2604H21.2603H21.2603H21.2603H21.2603H21.2602H21.2602H21.2602H21.2601H21.2601H21.2601H21.2601H21.26H21.26H21.26H21.2599H21.2599H21.2599H21.2598H21.2598H21.2598H21.2597H21.2597H21.2597H21.2597H21.2596H21.2596H21.2596H21.2595H21.2595H21.2595H21.2594H21.2594H21.2594H21.2593H21.2593H21.2593H21.2592H21.2592H21.2592H21.2591H21.2591H21.2591H21.259H21.259H21.259H21.2589H21.2589H21.2589H21.2588H21.2588H21.2588H21.2587H21.2587H21.2587H21.2586H21.2586H21.2586H21.2585H21.2585H21.2585H21.2584H21.2584H21.2583H21.2583H21.2583H21.2582H21.2582H21.2582H21.2581H21.2581H21.2581H21.258H21.258H21.2579H21.2579H21.2579H21.2578H21.2578H21.2578H21.2577H21.2577H21.2576H21.2576H21.2576H21.2575H21.2575H21.2575H21.2574H21.2574H21.2573H21.2573H21.2573H21.2572H21.2572H21.2571H21.2571H21.2571H21.257H21.257H21.2569H21.2569H21.2569H21.2568H21.2568H21.2567H21.2567H21.2567H21.2566H21.2566H21.2565H21.2565H21.2564H21.2564H21.2564H21.2563H21.2563H21.2562H21.2562H21.2561H21.2561H21.2561H21.256H21.256H21.2559H21.2559H21.2558H21.2558H21.2557H21.2557H21.2556H21.2556H21.2556H21.2555H21.2555H21.2554H21.2554H21.2553H21.2553H21.2552H21.2552H21.2551H21.2551H21.255H21.255H21.2549H21.2549H21.2548H21.2548H21.2547H21.2547H21.2546H21.2546H21.2545H21.2545H21.2544H21.2544H21.2543C21.254 19.0469 21.2511 19.0468 21.2437 19.0463L21.2263 19.045L21.2007 19.043C21.1682 19.0407 21.1358 19.0399 21.1042 19.0403C21.0501 19.0409 21.0216 19.0422 21.0017 19.0431C20.9802 19.0441 20.9686 19.0446 20.9454 19.0433C18.9251 18.9309 17.3984 17.3174 17.3984 15.3335Z" stroke="white" stroke-opacity="0.12"/>
</g>
<g filter="url(#filter2_d_862_85331)">
<path d="M25.6366 21.9119C23.1566 20.2585 19.1122 20.2585 16.6144 21.9119C15.4855 22.6674 14.8633 23.6897 14.8633 24.783C14.8633 25.8763 15.4855 26.8896 16.6055 27.6363C17.8499 28.4719 19.4855 28.8896 21.1211 28.8896C22.7566 28.8896 24.3922 28.4719 25.6366 27.6363C26.7566 26.8808 27.3788 25.8674 27.3788 24.7652C27.3699 23.6719 26.7566 22.6585 25.6366 21.9119Z" fill="url(#paint1_radial_862_85331)"/>
<path d="M16.8842 27.2212L16.8829 27.2203C15.8639 26.541 15.3633 25.6681 15.3633 24.783C15.3633 23.8975 15.8643 23.016 16.8914 22.3281C18.0419 21.567 19.5756 21.1719 21.1322 21.1719C22.6893 21.1719 24.2183 21.5673 25.3593 22.3279C26.3746 23.0048 26.8708 23.8774 26.8788 24.7672C26.8781 25.6609 26.377 26.5336 25.3575 27.2215C24.2122 27.9903 22.6794 28.3896 21.1211 28.3896C19.5626 28.3896 18.0296 27.9902 16.8842 27.2212Z" stroke="white" stroke-opacity="0.12"/>
</g>
<g filter="url(#filter3_d_862_85331)">
<path d="M30.8907 15.8581C31.0329 17.5825 29.8063 19.0936 28.1085 19.2981C28.0996 19.2981 28.0996 19.2981 28.0907 19.2981H28.0641V19.2981C27.9627 19.2981 27.8613 19.3196 27.7599 19.3204C27.7085 19.3208 27.6573 19.3201 27.6065 19.3182C26.4874 19.2772 26.4603 17.889 26.8081 16.8245C26.9736 16.3181 27.0429 15.7689 26.9974 15.2003C26.971 14.8948 26.911 14.6005 26.8221 14.3202C26.6332 13.724 26.8189 13.0068 27.4418 12.9514V12.9514C29.1841 12.8003 30.7396 14.0981 30.8907 15.8581Z" fill="url(#paint2_radial_862_85331)"/>
<path d="M27.4958 15.1604L27.4958 15.1604L27.4955 15.1573C27.4659 14.8143 27.3985 14.4839 27.2988 14.1691C27.2327 13.9605 27.2409 13.7507 27.294 13.6131C27.3392 13.496 27.3983 13.4574 27.4857 13.4495C28.9526 13.3226 30.2647 14.4165 30.3925 15.9001C30.5116 17.3499 29.4897 18.6128 28.0772 18.7981H28.0641C27.9852 18.7981 27.9109 18.8061 27.8635 18.8113L27.8582 18.8118C27.8023 18.8179 27.7772 18.8203 27.756 18.8204C27.712 18.8208 27.6682 18.8201 27.6248 18.8185C27.4566 18.8124 27.3682 18.7607 27.312 18.7052C27.2473 18.6413 27.1844 18.5304 27.1463 18.3512C27.0679 17.9824 27.1253 17.4638 27.2834 16.9798C27.4693 16.4108 27.5466 15.7953 27.4958 15.1604Z" stroke="white" stroke-opacity="0.12"/>
</g>
<g filter="url(#filter4_d_862_85331)">
<path d="M32.6658 24.0802C32.5947 24.9425 32.0436 25.6891 31.1191 26.1958C30.8769 26.329 30.6175 26.4431 30.3459 26.538C29.5347 26.8215 29.004 25.6825 29.0836 24.8269V24.8269C29.1725 23.7247 28.648 22.6669 27.5991 21.8225V21.8225C27.019 21.3636 27.1333 20.4146 27.8718 20.4563C29.2191 20.5325 30.5532 20.9701 31.5102 21.7425C32.328 22.4002 32.7458 23.2269 32.6658 24.0802Z" fill="url(#paint3_radial_862_85331)"/>
<path d="M32.168 24.0336L32.1679 24.0336L32.1675 24.0391C32.1135 24.6935 31.6955 25.3097 30.8788 25.7573L30.8782 25.7577C30.6623 25.8764 30.4286 25.9795 30.1809 26.066C30.1052 26.0925 30.0592 26.0832 30.0166 26.0622C29.9607 26.0346 29.8832 25.9694 29.8039 25.8433C29.6414 25.585 29.5513 25.1973 29.5814 24.8732L29.5815 24.8732L29.582 24.8671C29.6872 23.5621 29.0578 22.3549 27.9127 21.433L27.5991 21.8225L27.9093 21.4303C27.7608 21.3128 27.7161 21.142 27.7341 21.0341C27.7424 20.9846 27.7595 20.9689 27.7611 20.9676C27.7622 20.9666 27.7653 20.964 27.7742 20.9612C27.7836 20.9583 27.8052 20.9534 27.8436 20.9556C29.1115 21.0272 30.3382 21.4391 31.1962 22.1316L31.1969 22.1321C31.9221 22.7154 32.2282 23.391 32.168 24.0336Z" stroke="white" stroke-opacity="0.12"/>
</g>
<defs>
<filter id="filter0_f_862_85331" x="4" y="0" width="40" height="40" filterUnits="userSpaceOnUse" color-interpolation-filters="sRGB">
<feFlood flood-opacity="0" result="BackgroundImageFix"/>
<feBlend mode="normal" in="SourceGraphic" in2="BackgroundImageFix" result="shape"/>
<feGaussianBlur stdDeviation="2" result="effect1_foregroundBlur_862_85331"/>
</filter>
<filter id="filter1_d_862_85331" x="2.89844" y="1.11133" width="36.4453" height="36.4355" filterUnits="userSpaceOnUse" color-interpolation-filters="sRGB">
<feFlood flood-opacity="0" result="BackgroundImageFix"/>
<feColorMatrix in="SourceAlpha" type="matrix" values="0 0 0 0 0 0 0 0 0 0 0 0 0 0 0 0 0 0 127 0" result="hardAlpha"/>
<feMorphology radius="2" operator="dilate" in="SourceAlpha" result="effect1_dropShadow_862_85331"/>
<feOffset dy="4"/>
<feGaussianBlur stdDeviation="6"/>
<feComposite in2="hardAlpha" operator="out"/>
<feColorMatrix type="matrix" values="0 0 0 0 0.755625 0 0 0 0 0.7125 0 0 0 0 1 0 0 0 0.44 0"/>
<feBlend mode="normal" in2="BackgroundImageFix" result="effect1_dropShadow_862_85331"/>
<feBlend mode="normal" in="SourceGraphic" in2="effect1_dropShadow_862_85331" result="shape"/>
</filter>
<filter id="filter2_d_862_85331" x="0.863281" y="10.6719" width="40.5156" height="36.2178" filterUnits="userSpaceOnUse" color-interpolation-filters="sRGB">
<feFlood flood-opacity="0" result="BackgroundImageFix"/>
<feColorMatrix in="SourceAlpha" type="matrix" values="0 0 0 0 0 0 0 0 0 0 0 0 0 0 0 0 0 0 127 0" result="hardAlpha"/>
<feMorphology radius="2" operator="dilate" in="SourceAlpha" result="effect1_dropShadow_862_85331"/>
<feOffset dy="4"/>
<feGaussianBlur stdDeviation="6"/>
<feComposite in2="hardAlpha" operator="out"/>
<feColorMatrix type="matrix" values="0 0 0 0 0.755625 0 0 0 0 0.7125 0 0 0 0 1 0 0 0 0.44 0"/>
<feBlend mode="normal" in2="BackgroundImageFix" result="effect1_dropShadow_862_85331"/>
<feBlend mode="normal" in="SourceGraphic" in2="effect1_dropShadow_862_85331" result="shape"/>
</filter>
<filter id="filter3_d_862_85331" x="12.6133" y="2.93945" width="32.2891" height="34.3809" filterUnits="userSpaceOnUse" color-interpolation-filters="sRGB">
<feFlood flood-opacity="0" result="BackgroundImageFix"/>
<feColorMatrix in="SourceAlpha" type="matrix" values="0 0 0 0 0 0 0 0 0 0 0 0 0 0 0 0 0 0 127 0" result="hardAlpha"/>
<feMorphology radius="2" operator="dilate" in="SourceAlpha" result="effect1_dropShadow_862_85331"/>
<feOffset dy="4"/>
<feGaussianBlur stdDeviation="6"/>
<feComposite in2="hardAlpha" operator="out"/>
<feColorMatrix type="matrix" values="0 0 0 0 0.755625 0 0 0 0 0.7125 0 0 0 0 1 0 0 0 0.44 0"/>
<feBlend mode="normal" in2="BackgroundImageFix" result="effect1_dropShadow_862_85331"/>
<feBlend mode="normal" in="SourceGraphic" in2="effect1_dropShadow_862_85331" result="shape"/>
</filter>
<filter id="filter4_d_862_85331" x="13.2305" y="10.4551" width="33.4453" height="34.127" filterUnits="userSpaceOnUse" color-interpolation-filters="sRGB">
<feFlood flood-opacity="0" result="BackgroundImageFix"/>
<feColorMatrix in="SourceAlpha" type="matrix" values="0 0 0 0 0 0 0 0 0 0 0 0 0 0 0 0 0 0 127 0" result="hardAlpha"/>
<feMorphology radius="2" operator="dilate" in="SourceAlpha" result="effect1_dropShadow_862_85331"/>
<feOffset dy="4"/>
<feGaussianBlur stdDeviation="6"/>
<feComposite in2="hardAlpha" operator="out"/>
<feColorMatrix type="matrix" values="0 0 0 0 0.755625 0 0 0 0 0.7125 0 0 0 0 1 0 0 0 0.44 0"/>
<feBlend mode="normal" in2="BackgroundImageFix" result="effect1_dropShadow_862_85331"/>
<feBlend mode="normal" in="SourceGraphic" in2="effect1_dropShadow_862_85331" result="shape"/>
</filter>
<radialGradient id="paint0_radial_862_85331" cx="0" cy="0" r="1" gradientUnits="userSpaceOnUse" gradientTransform="translate(21.1207 8.44007) rotate(90) scale(17.0117 17.0296)">
<stop stop-color="#AAA8FF"/>
<stop offset="1" stop-color="#B477F1"/>
</radialGradient>
<radialGradient id="paint1_radial_862_85331" cx="0" cy="0" r="1" gradientUnits="userSpaceOnUse" gradientTransform="translate(21.1211 18.0696) rotate(90) scale(16.5725 25.2397)">
<stop stop-color="#AAA8FF"/>
<stop offset="1" stop-color="#B477F1"/>
</radialGradient>
<radialGradient id="paint2_radial_862_85331" cx="0" cy="0" r="1" gradientUnits="userSpaceOnUse" gradientTransform="translate(28.283 10.9188) rotate(90) scale(12.8685 10.563)">
<stop stop-color="#AAA8FF"/>
<stop offset="1" stop-color="#B477F1"/>
</radialGradient>
<radialGradient id="paint3_radial_862_85331" cx="0" cy="0" r="1" gradientUnits="userSpaceOnUse" gradientTransform="translate(29.1151 18.4028) rotate(90) scale(13.0012 14.3603)">
<stop stop-color="#AAA8FF"/>
<stop offset="1" stop-color="#B477F1"/>
</radialGradient>
</defs>
</svg>
