<svg width="20" height="20" viewBox="0 0 20 20" fill="none" xmlns="http://www.w3.org/2000/svg">
<path d="M17.0711 2.92891C15.1824 1.04016 12.6711 0 10 0C7.32891 0 4.81766 1.04016 2.92891 2.92891C1.04016 4.81766 0 7.32891 0 10C0 12.6711 1.0402 15.1823 2.92891 17.0711C4.81762 18.9599 7.32891 20 10 20C12.6711 20 15.1824 18.9599 17.0711 17.0711C18.9599 15.1824 20 12.6711 20 10C20 7.32891 18.9598 4.8177 17.0711 2.92891ZM13.125 11.875C13.125 12.8784 12.5306 13.7451 11.6756 14.1427C11.6067 14.1747 11.5625 14.2435 11.5625 14.3195V14.9824C11.5625 15.3189 11.3039 15.6085 10.9677 15.6243C10.6088 15.6412 10.3125 15.3552 10.3125 15V14.5703C10.3125 14.4625 10.225 14.375 10.1172 14.375H9.25782C9.14997 14.375 9.06251 14.4625 9.06251 14.5703V14.9824C9.06251 15.3189 8.80387 15.6085 8.4677 15.6243C8.10876 15.6412 7.81251 15.3552 7.81251 15V14.5703C7.81251 14.4625 7.72505 14.375 7.61719 14.375H6.58016C6.24364 14.375 5.95407 14.1164 5.93821 13.7802C5.92129 13.4213 6.20727 13.125 6.56251 13.125H6.99219C7.10005 13.125 7.18751 13.0375 7.18751 12.9297V10V7.07032C7.18751 6.96247 7.10005 6.87501 6.99219 6.87501H6.58016C6.24364 6.87501 5.95407 6.61637 5.93821 6.28024C5.92129 5.92133 6.20727 5.625 6.56251 5.625H7.61719C7.72505 5.625 7.81251 5.53754 7.81251 5.42969V5.01766C7.81251 4.6811 8.07114 4.39153 8.40731 4.37571C8.76626 4.35883 9.06251 4.64481 9.06251 5V5.42969C9.06251 5.53754 9.14997 5.625 9.25782 5.625H10.1172C10.225 5.625 10.3125 5.53754 10.3125 5.42969V5.01766C10.3125 4.6811 10.5711 4.39153 10.9073 4.37571C11.2663 4.35883 11.5625 4.64481 11.5625 5V5.68051C11.5625 5.75649 11.6067 5.82528 11.6756 5.85731C12.5306 6.25497 13.125 7.12165 13.125 8.12501C13.125 8.80016 12.8556 9.41333 12.4191 9.86352C12.3451 9.93981 12.3451 10.0602 12.4191 10.1365C12.8556 10.5867 13.125 11.1999 13.125 11.875Z" fill="white"/>
<path d="M13.125 11.875C13.125 12.8784 12.5306 13.7451 11.6756 14.1427C11.6067 14.1747 11.5625 14.2435 11.5625 14.3195V14.9824C11.5625 15.3189 11.3039 15.6085 10.9677 15.6243C10.6088 15.6412 10.3125 15.3552 10.3125 15V14.5703C10.3125 14.4625 10.225 14.375 10.1172 14.375H9.25782C9.14997 14.375 9.06251 14.4625 9.06251 14.5703V14.9824C9.06251 15.3189 8.80387 15.6085 8.4677 15.6243C8.10876 15.6412 7.81251 15.3552 7.81251 15V14.5703C7.81251 14.4625 7.72505 14.375 7.61719 14.375H6.58016C6.24364 14.375 5.95407 14.1164 5.93821 13.7802C5.92129 13.4213 6.20727 13.125 6.56251 13.125H6.99219C7.10005 13.125 7.18751 13.0375 7.18751 12.9297V10V7.07032C7.18751 6.96247 7.10005 6.87501 6.99219 6.87501H6.58016C6.24364 6.87501 5.95407 6.61637 5.93821 6.28024C5.92129 5.92133 6.20727 5.625 6.56251 5.625H7.61719C7.72505 5.625 7.81251 5.53754 7.81251 5.42969V5.01766C7.81251 4.6811 8.07114 4.39153 8.40731 4.37571C8.76626 4.35883 9.06251 4.64481 9.06251 5V5.42969C9.06251 5.53754 9.14997 5.625 9.25782 5.625H10.1172C10.225 5.625 10.3125 5.53754 10.3125 5.42969V5.01766C10.3125 4.6811 10.5711 4.39153 10.9073 4.37571C11.2663 4.35883 11.5625 4.64481 11.5625 5V5.68051C11.5625 5.75649 11.6067 5.82528 11.6756 5.85731C12.5306 6.25497 13.125 7.12165 13.125 8.12501C13.125 8.80016 12.8556 9.41333 12.4191 9.86352C12.3451 9.93981 12.3451 10.0602 12.4191 10.1365C12.8556 10.5867 13.125 11.1999 13.125 11.875Z" fill="white"/>
<path d="M10.5356 7.22217H8.78689C8.69102 7.22217 8.61328 7.29991 8.61328 7.39578V9.27078C8.61328 9.36665 8.69102 9.44439 8.78689 9.44439H10.5577C11.164 9.44439 11.6584 8.95634 11.6687 8.35252C11.6793 7.73092 11.1573 7.22217 10.5356 7.22217Z" fill="#FFB41A"/>
<path d="M10.5356 10.5552H8.78689C8.69102 10.5552 8.61328 10.6329 8.61328 10.7288V12.6038C8.61328 12.6997 8.69102 12.7774 8.78689 12.7774H10.5577C11.164 12.7774 11.6584 12.2893 11.6687 11.6855C11.6793 11.0639 11.1573 10.5552 10.5356 10.5552Z" fill="#FFB41A"/>
<path d="M16.2837 3.71431C14.6048 2.03542 12.3726 1.11084 9.99827 1.11084C7.62397 1.11084 5.39174 2.03542 3.71285 3.71431C2.03396 5.39321 1.10938 7.62543 1.10938 9.99974C1.10938 12.374 2.03399 14.6062 3.71285 16.2852C5.39171 17.9641 7.62397 18.8886 9.99827 18.8886C12.3726 18.8886 14.6048 17.9641 16.2837 16.2852C17.9626 14.6063 18.8872 12.374 18.8872 9.99974C18.8872 7.62543 17.9626 5.39324 16.2837 3.71431ZM12.7761 11.6664C12.7761 12.5583 12.2477 13.3287 11.4877 13.6821C11.4265 13.7106 11.3872 13.7718 11.3872 13.8393V14.4285C11.3872 14.7277 11.1573 14.9851 10.8584 14.9991C10.5394 15.0141 10.2761 14.7599 10.2761 14.4442V14.0622C10.2761 13.9664 10.1983 13.8886 10.1024 13.8886H9.33855C9.24268 13.8886 9.16494 13.9664 9.16494 14.0622V14.4285C9.16494 14.7277 8.93504 14.9851 8.63622 14.9991C8.31716 15.0141 8.05383 14.7599 8.05383 14.4442V14.0622C8.05383 13.9664 7.97608 13.8886 7.88022 13.8886H6.95841C6.65928 13.8886 6.40188 13.6587 6.38778 13.3599C6.37275 13.0409 6.62695 12.7775 6.94271 12.7775H7.32466C7.42053 12.7775 7.49827 12.6998 7.49827 12.6039V9.99974V7.39557C7.49827 7.2997 7.42053 7.22196 7.32466 7.22196H6.95841C6.65928 7.22196 6.40188 6.99206 6.38778 6.69328C6.37275 6.37425 6.62695 6.11085 6.94271 6.11085H7.88022C7.97608 6.11085 8.05383 6.0331 8.05383 5.93723V5.57098C8.05383 5.27182 8.28372 5.01442 8.58254 5.00036C8.90161 4.98536 9.16494 5.23956 9.16494 5.55529V5.93723C9.16494 6.0331 9.24268 6.11085 9.33855 6.11085H10.1024C10.1983 6.11085 10.2761 6.0331 10.2761 5.93723V5.57098C10.2761 5.27182 10.5059 5.01442 10.8048 5.00036C11.1238 4.98536 11.3872 5.23956 11.3872 5.55529V6.16019C11.3872 6.22772 11.4265 6.28887 11.4877 6.31734C12.2477 6.67081 12.7761 7.44119 12.7761 8.33307C12.7761 8.93321 12.5366 9.47824 12.1486 9.87842C12.0828 9.94623 12.0828 10.0532 12.1486 10.121C12.5366 10.5212 12.7761 11.0663 12.7761 11.6664Z" fill="#FFB41A"/>
</svg>
