<svg width="78" height="74" viewBox="0 0 78 74" fill="none" xmlns="http://www.w3.org/2000/svg">
<g filter="url(#filter0_d_1_781)">
<path fill-rule="evenodd" clip-rule="evenodd" d="M57.9866 26.0335C57.9934 26.6531 57.9209 27.3376 57.4387 27.7268C57.1903 27.9273 56.8803 28.0422 56.4852 28.037C55.6832 28.0271 55.0397 27.4312 55.0001 26.6267C54.9308 25.3555 54.406 24.4021 53.2279 23.8459C52.8022 23.6473 52.3467 23.5877 51.8913 23.5777C51.276 23.5735 50.6625 23.5747 50.0493 23.5759C49.2318 23.5775 48.4147 23.5792 47.5945 23.5678C47.2578 23.5678 47.1786 23.687 47.1885 24.0048C47.2034 24.5786 47.2015 25.158 47.1997 25.7346V25.7347V25.7347V25.7348C47.1991 25.9266 47.1984 26.1181 47.1984 26.3089C47.1984 27.3816 46.6341 28.037 45.7035 28.037C44.753 28.037 44.1887 27.3915 44.1887 26.2891C44.1887 26.0982 44.188 25.9067 44.1874 25.7149V25.7148V25.7148V25.7147C44.1856 25.1381 44.1837 24.5587 44.1986 23.9849C44.2085 23.687 44.1293 23.5678 43.8124 23.5678C40.9017 23.5777 37.981 23.5777 35.0703 23.5678C34.7831 23.5678 34.6841 23.6572 34.6841 23.9452C34.7039 24.7894 34.694 25.6336 34.6841 26.4678C34.6742 27.3915 34.0505 28.0271 33.1594 28.0172C32.2882 28.0072 31.6744 27.3816 31.6744 26.4678L31.6742 26.4581V26.458V26.458V26.4579C31.6644 25.627 31.6546 24.806 31.6744 23.975C31.6843 23.6473 31.5853 23.5479 31.2585 23.5479C30.4269 23.5529 29.5928 23.5529 28.7586 23.5529C27.9245 23.5529 27.0904 23.5529 26.2588 23.5579C24.3579 23.5777 23.1698 24.7099 23.0411 26.597C22.9916 27.322 22.4668 27.9179 21.8035 28.0172C21.0709 28.1264 20.3877 27.749 20.1204 27.0836C19.9521 26.6565 19.9917 26.1997 20.0511 25.7627C20.4471 23.0017 22.4371 20.9955 25.2093 20.5784C25.4322 20.5453 25.6621 20.5467 25.8873 20.5481C25.9321 20.5483 25.9768 20.5486 26.0211 20.5486C28.4931 20.5486 30.9659 20.5502 33.439 20.5518C39.623 20.5559 45.8092 20.56 51.9903 20.5387C54.8714 20.5287 57.3366 22.5945 57.8811 25.2363C57.8942 25.2933 57.9093 25.3502 57.9245 25.4081C57.9245 25.4081 57.9245 25.4081 57.9245 25.4081L57.9246 25.4082L57.9246 25.4082L57.9246 25.4083L57.9246 25.4084L57.9246 25.4085C57.964 25.5576 57.9821 25.7112 57.9844 25.8654C57.9853 25.9214 57.986 25.9775 57.9866 26.0335ZM57.9906 48.3765C57.9906 48.3769 57.9905 48.3772 57.9904 48.3775C57.7726 49.45 57.3865 50.4429 56.6639 51.287C55.4857 52.6675 54.0006 53.4521 52.1789 53.4521C43.407 53.462 34.645 53.462 25.8731 53.4521C22.6456 53.4521 19.9823 50.7209 20.0219 47.4931C20.0318 46.639 20.6556 45.9935 21.4674 45.9736C22.3287 45.9537 22.9723 46.5496 23.0317 47.4137C23.1307 48.9034 23.9227 49.9661 25.2098 50.3038C25.5365 50.3932 25.8632 50.4229 26.1999 50.4229C26.6144 50.4229 27.0296 50.4223 27.445 50.4217H27.446H27.4469H27.4478H27.4482C28.6987 50.4198 29.9519 50.418 31.1996 50.4329C31.566 50.4329 31.665 50.3137 31.6551 49.9661C31.6402 49.355 31.6421 48.7383 31.6439 48.1244C31.6446 47.9202 31.6452 47.7163 31.6452 47.513C31.6551 46.5993 32.259 45.9736 33.1402 45.9637C34.0411 45.9637 34.6549 46.5794 34.6648 47.5229C34.6747 48.3671 34.6747 49.2113 34.6648 50.0455C34.6549 50.3435 34.7638 50.4229 35.051 50.4229C37.9617 50.413 40.8824 50.413 43.7932 50.4229C44.1199 50.4229 44.1892 50.3038 44.1793 50.0058C44.1694 49.1716 44.1694 48.3472 44.1793 47.513C44.1892 46.5794 44.7931 45.9537 45.6941 45.9537C46.5752 45.9537 47.1791 46.5794 47.189 47.4931C47.1989 48.3373 47.1989 49.1815 47.189 50.0158C47.189 50.2938 47.2583 50.413 47.5653 50.413C48.1888 50.4088 48.8124 50.41 49.4367 50.4112H49.437C50.2697 50.4128 51.1039 50.4144 51.9413 50.4031C53.6739 50.3832 54.8323 49.2709 55.0006 47.5031C55.0798 46.6589 55.5154 46.1027 56.1986 45.9637C56.951 45.8246 57.545 46.1524 57.9608 46.9469L57.9609 46.9469C57.9841 46.9936 57.9998 47.0443 57.9988 47.0964C57.9906 47.5342 57.9906 47.9554 57.9906 48.3765ZM27.2295 33.5343C27.2408 33.5334 27.2521 33.5324 27.2634 33.5316C27.4172 33.5208 27.504 33.6753 27.4167 33.8024C27.4065 33.8172 27.3964 33.832 27.387 33.8471C27.1345 34.289 26.8796 34.7285 26.6247 35.1679L26.6247 35.1679L26.6247 35.1679C26.3697 35.6074 26.1148 36.0469 25.8623 36.4889C25.5183 37.0866 25.1717 37.6843 24.8249 38.2824L24.8246 38.283L24.8246 38.283L24.8246 38.283C24.2033 39.3545 23.5812 40.4274 22.9713 41.5044C22.4664 42.3982 22.902 43.4609 23.8624 43.7489C24.5554 43.9575 25.2386 43.6496 25.6643 42.9246C26.2138 41.9761 26.7608 41.0276 27.3078 40.0791C27.8548 39.1307 28.4018 38.1822 28.9513 37.2338C29.1274 36.9313 29.3039 36.6292 29.4803 36.3272C30.1668 35.1522 30.8519 33.9795 31.5056 32.7943C32.0997 31.7118 31.3868 30.52 30.1591 30.52C27.981 30.5101 25.8128 30.5101 23.6347 30.52C22.7238 30.52 22.1001 31.1358 22.1001 32.0197C22.1001 32.9135 22.7238 33.5392 23.6545 33.5392H27.1395C27.169 33.5392 27.1992 33.5368 27.2295 33.5343H27.2295H27.2295ZM37.8917 33.5392C37.6937 33.5392 37.4957 33.5403 37.2977 33.5414H37.2975C36.9016 33.5436 36.5056 33.5458 36.1096 33.5392C35.2284 33.5293 34.6245 32.9036 34.6245 32.0296C34.6245 31.1556 35.2383 30.5299 36.1195 30.52C38.3075 30.5101 40.4955 30.5101 42.6737 30.52C43.9013 30.52 44.6241 31.7019 44.03 32.7844C43.535 33.6782 43.0224 34.5632 42.5098 35.4482L42.5098 35.4483C42.2534 35.8908 41.9971 36.3333 41.743 36.7769C40.5648 38.8228 39.3768 40.8687 38.1887 42.9146C37.7333 43.6992 36.9808 43.9972 36.2482 43.6992C35.3671 43.3417 35.0106 42.3485 35.4859 41.5143C36.0814 40.4672 36.6846 39.424 37.2884 38.3798L37.2892 38.3783C37.6587 37.7393 38.0284 37.0999 38.3966 36.4591C38.608 36.0974 38.8159 35.7339 39.024 35.3701C39.313 34.865 39.6022 34.3593 39.9015 33.857C40.0797 33.5591 39.9906 33.5193 39.6936 33.5293C39.2482 33.5442 38.7973 33.5423 38.345 33.5405C38.194 33.5398 38.0428 33.5392 37.8917 33.5392ZM55.168 30.51H51.98H48.693C48.3267 30.51 47.9999 30.5895 47.7227 30.8179C47.2079 31.235 47.0198 31.8905 47.2277 32.5261C47.4257 33.132 47.9603 33.5292 48.6336 33.5292C49.2227 33.5342 49.8142 33.5342 50.407 33.5342C50.9998 33.5342 51.5938 33.5342 52.1879 33.5392C52.2162 33.5392 52.2486 33.5344 52.2821 33.5296C52.3771 33.5157 52.4806 33.5007 52.5245 33.5888C52.5601 33.6675 52.5034 33.7461 52.4467 33.8248C52.4246 33.8554 52.4025 33.886 52.3859 33.9166L52.3856 33.917C52.1679 34.3042 51.9502 34.6914 51.7226 35.0786C51.3595 35.7071 50.9956 36.3365 50.6313 36.9665C49.7638 38.4669 48.8943 39.9707 48.0296 41.4745C47.6237 42.1896 47.7722 43.004 48.3861 43.4807C49.1385 44.0667 50.1484 43.8482 50.6731 42.9742C51.2926 41.9328 51.898 40.8771 52.5012 39.8253C52.6114 39.6333 52.7214 39.4415 52.8314 39.2498C53.1721 38.6593 53.5135 38.0695 53.8549 37.4799C54.7535 35.9275 55.6517 34.376 56.5342 32.8141C57.1679 31.7018 56.4451 30.5199 55.168 30.51Z" fill="url(#paint0_linear_1_781)"/>
</g>
<defs>
<filter id="filter0_d_1_781" x="0" y="0.538635" width="77.998" height="72.9209" filterUnits="userSpaceOnUse" color-interpolation-filters="sRGB">
<feFlood flood-opacity="0" result="BackgroundImageFix"/>
<feColorMatrix in="SourceAlpha" type="matrix" values="0 0 0 0 0 0 0 0 0 0 0 0 0 0 0 0 0 0 127 0" result="hardAlpha"/>
<feOffset/>
<feGaussianBlur stdDeviation="10"/>
<feComposite in2="hardAlpha" operator="out"/>
<feColorMatrix type="matrix" values="0 0 0 0 0.454902 0 0 0 0 0.345098 0 0 0 0 0.862745 0 0 0 1 0"/>
<feBlend mode="normal" in2="BackgroundImageFix" result="effect1_dropShadow_1_781"/>
<feBlend mode="normal" in="SourceGraphic" in2="effect1_dropShadow_1_781" result="shape"/>
</filter>
<linearGradient id="paint0_linear_1_781" x1="58.0005" y1="36.9991" x2="20" y2="36.9991" gradientUnits="userSpaceOnUse">
<stop stop-color="#7458DC"/>
<stop offset="1" stop-color="#9787D2"/>
</linearGradient>
</defs>
</svg>
