<svg width="16" height="17" viewBox="0 0 16 17" fill="none" xmlns="http://www.w3.org/2000/svg">
<path d="M15.7606 9.93636C14.6921 14.2226 10.3508 16.8311 6.06404 15.7623C1.77909 14.6937 -0.829432 10.3522 0.239615 6.06626C1.30772 1.77955 5.64899 -0.829164 9.93441 0.239414C14.2208 1.30799 16.8292 5.65 15.7605 9.93644L15.7606 9.93636H15.7606Z" fill="#FFB41A"/>
<path d="M11.5256 6.86068C11.6849 5.79594 10.8742 5.2236 9.76577 4.84179L10.1254 3.3995L9.2474 3.18073L8.89735 4.58505C8.66653 4.52748 8.4295 4.47324 8.19392 4.41946L8.54651 3.00588L7.66909 2.78711L7.3093 4.22893C7.1183 4.18544 6.9307 4.14246 6.74869 4.09718L6.74971 4.09264L5.53898 3.7903L5.30542 4.72802C5.30542 4.72802 5.9568 4.87734 5.94308 4.88653C6.2986 4.97526 6.3629 5.21061 6.35222 5.39716L5.94261 7.04027C5.96709 7.04648 5.99884 7.05548 6.03388 7.06956C6.00459 7.06228 5.97342 7.05434 5.94108 7.0466L5.36694 9.34836C5.32349 9.45638 5.21321 9.61848 4.96464 9.55692C4.97344 9.56967 4.32652 9.39768 4.32652 9.39768L3.89062 10.4027L5.03316 10.6875C5.24571 10.7408 5.45399 10.7966 5.65911 10.849L5.2958 12.3078L6.17275 12.5266L6.53255 11.0833C6.77212 11.1483 7.00461 11.2083 7.23222 11.2648L6.87364 12.7014L7.75165 12.9201L8.11492 11.464C9.61204 11.7474 10.7378 11.6332 11.2116 10.279C11.5934 9.18876 11.1926 8.55991 10.4049 8.14983C10.9786 8.01753 11.4107 7.64022 11.5259 6.8608L11.5257 6.8606L11.5256 6.86068ZM9.51967 9.67354C9.24834 10.7638 7.4127 10.1744 6.81756 10.0266L7.29968 8.09394C7.89478 8.24251 9.80324 8.53653 9.51971 9.67354H9.51967ZM9.79119 6.84488C9.54368 7.83658 8.01586 7.33275 7.52025 7.20921L7.95736 5.45637C8.45297 5.57991 10.049 5.81049 9.79127 6.84488H9.79119Z" fill="#F3F3F3"/>
</svg>
