<svg width="82" height="82" viewBox="0 0 82 82" fill="none" xmlns="http://www.w3.org/2000/svg">
<path d="M48.7906 49.5701C47.4004 55.1603 37.992 52.1351 34.9473 51.3813L37.4144 41.4833C40.469 42.2372 50.2494 43.7449 48.7906 49.5701Z" fill="url(#paint0_linear_1_883)"/>
<path d="M50.1796 35.0805C48.9069 40.1617 41.0845 37.5771 38.5488 36.9505L40.7908 27.9728C43.3265 28.5994 51.5013 29.7742 50.1796 35.0805Z" fill="url(#paint1_linear_1_883)"/>
<path d="M50.9146 1.22592C28.9551 -4.24682 6.7019 9.11684 1.22916 31.0861C-4.25337 53.0456 9.12008 75.2988 31.0796 80.7715C53.0488 86.2442 75.2922 72.8806 80.765 50.9211C86.2475 28.9518 72.874 6.69866 50.9146 1.22592ZM59.0698 35.1588C58.4824 39.1533 56.2698 41.0819 53.323 41.7672C57.3565 43.8721 59.4125 47.0931 57.4544 52.6736C55.0265 59.6148 49.26 60.2022 41.5845 58.7435L39.7243 66.2036L35.2208 65.0876L37.0614 57.7253C35.8964 57.4316 34.7019 57.1281 33.4782 56.7952L31.6376 64.1869L27.1439 63.061L29.004 55.591C27.9565 55.3267 26.8893 55.033 25.7928 54.7589L19.9481 53.3099L22.1802 48.1603C22.1802 48.1603 25.4991 49.0414 25.4502 48.9728C26.7229 49.2861 27.2907 48.454 27.5159 47.9057L32.5579 27.6595C32.6166 26.7001 32.2838 25.4959 30.4628 25.0455C30.5313 24.9966 27.1928 24.2329 27.1928 24.2329L28.3873 19.4259L34.5943 20.9728V20.9924C35.5243 21.2274 36.4838 21.4427 37.4628 21.6679L39.3034 14.2763L43.7971 15.4022L41.9859 22.6469C43.1901 22.9211 44.4041 23.1952 45.5887 23.4987L47.3803 16.3029L51.8838 17.4287L50.0432 24.8204C55.2418 26.612 59.1579 29.2162 59.1579 33.8372C59.1775 34.2581 59.1384 34.6987 59.0698 35.1588Z" fill="url(#paint2_linear_1_883)"/>
<defs>
<linearGradient id="paint0_linear_1_883" x1="48.938" y1="47.1794" x2="34.9473" y2="47.1794" gradientUnits="userSpaceOnUse">
<stop stop-color="#7458DC"/>
<stop offset="1" stop-color="#9787D2"/>
</linearGradient>
<linearGradient id="paint1_linear_1_883" x1="50.3232" y1="33.0684" x2="38.5488" y2="33.0684" gradientUnits="userSpaceOnUse">
<stop stop-color="#7458DC"/>
<stop offset="1" stop-color="#9787D2"/>
</linearGradient>
<linearGradient id="paint2_linear_1_883" x1="81.9941" y1="40.9987" x2="1.00185e-07" y2="40.9987" gradientUnits="userSpaceOnUse">
<stop stop-color="#7458DC"/>
<stop offset="1" stop-color="#9787D2"/>
</linearGradient>
</defs>
</svg>
