<svg width="20" height="20" viewBox="0 0 20 20" fill="none" xmlns="http://www.w3.org/2000/svg">
<g clip-path="url(#clip0_340_406)">
<path d="M7.34375 8.98438C7.82916 8.98438 8.22266 8.59088 8.22266 8.10547C8.22266 7.62006 7.82916 7.22656 7.34375 7.22656C6.85834 7.22656 6.46484 7.62006 6.46484 8.10547C6.46484 8.59088 6.85834 8.98438 7.34375 8.98438Z" fill="white"/>
<path d="M4.54801 7.71926C4.68383 7.71926 4.79434 7.60875 4.79434 7.47289C4.79434 7.33707 4.68383 7.22656 4.54801 7.22656H4.16016V7.71984H4.3068C4.40723 7.71953 4.49895 7.71926 4.54801 7.71926Z" fill="white"/>
<path d="M4.66687 8.30566H4.30719C4.25895 8.30582 4.20875 8.30602 4.16016 8.30621V8.98305C4.34816 8.98227 4.57359 8.98148 4.66687 8.98148C4.8532 8.98148 5.00477 8.82988 5.00477 8.64359C5.00477 8.4573 4.8532 8.30566 4.66687 8.30566Z" fill="white"/>
<path d="M18.1055 8.10547C18.1055 3.63609 14.4694 0 10 0C5.53062 0 1.89453 3.63609 1.89453 8.10547C1.89453 12.5748 5.53062 16.2109 10 16.2109C14.4694 16.2109 18.1055 12.5748 18.1055 8.10547ZM4.66687 9.56754C4.49437 9.56754 3.86852 9.57031 3.86848 9.57031C3.86805 9.57031 3.86762 9.57031 3.86719 9.57031C3.78973 9.57031 3.71539 9.53965 3.66047 9.48496C3.60523 9.42996 3.57422 9.35527 3.57422 9.27734V6.93359C3.57422 6.77176 3.70539 6.64062 3.86719 6.64062H4.54801C5.00691 6.64062 5.38027 7.01398 5.38027 7.47289C5.38027 7.63941 5.33059 7.79437 5.24602 7.92461C5.45605 8.0941 5.59074 8.3534 5.59074 8.64367C5.59074 9.15309 5.17629 9.56754 4.66687 9.56754ZM7.34375 9.57031C6.53602 9.57031 5.87891 8.9132 5.87891 8.10547C5.87891 7.29773 6.53602 6.64062 7.34375 6.64062C8.15148 6.64062 8.80859 7.29773 8.80859 8.10547C8.80859 8.9132 8.15148 9.57031 7.34375 9.57031ZM11.1979 9.52977C11.0617 9.57234 10.9182 9.51937 10.8321 9.39508L9.7843 7.87777V9.27734C9.7843 9.43918 9.65312 9.57031 9.49133 9.57031C9.32953 9.57031 9.19836 9.43918 9.19836 9.27734V6.93797C9.19836 6.80977 9.28172 6.69641 9.40414 6.65828C9.5266 6.62008 9.65957 6.66598 9.73238 6.77148L10.8327 8.36473L10.8188 6.93641C10.8173 6.77461 10.9471 6.64219 11.1089 6.64062H11.1118C11.2723 6.64062 11.4032 6.76992 11.4047 6.93078L11.4266 9.19559C11.4266 9.35629 11.3369 9.48637 11.1979 9.52977ZM14.076 8.54465C14.076 8.81934 13.9714 9.19945 13.4731 9.45043C13.3152 9.53 13.141 9.57031 12.9554 9.57031C12.9548 9.57031 12.9543 9.57031 12.9538 9.57031C12.7384 9.57004 12.5402 9.51293 12.3644 9.40066C12.0307 9.18746 11.8615 8.90004 11.8615 8.54633V6.93359C11.8615 6.77176 11.9927 6.64062 12.1545 6.64062C12.3162 6.64062 12.4474 6.77176 12.4474 6.93359V8.54633C12.4474 8.67363 12.487 8.78363 12.6798 8.90688C12.7613 8.95887 12.8511 8.98422 12.9545 8.98434H12.9554C13.0499 8.98434 13.133 8.96562 13.2095 8.92707C13.4582 8.80184 13.49 8.65691 13.49 8.54461V6.93359C13.49 6.77176 13.6212 6.64062 13.783 6.64062C13.9448 6.64062 14.076 6.77176 14.076 6.93359V8.54465H14.076ZM14.4719 9.12668C14.3632 9.0068 14.3723 8.82152 14.4922 8.71285C14.6121 8.60418 14.7974 8.61332 14.9061 8.7332C15.0486 8.89047 15.2727 8.98438 15.5057 8.98438C15.7322 8.98438 15.8917 8.84887 15.9151 8.71789C15.9462 8.54367 15.7106 8.43672 15.6078 8.39879C15.2443 8.26473 14.9216 8.12105 14.908 8.115C14.8939 8.10871 14.8803 8.10129 14.8674 8.09289C14.6202 7.93176 14.4929 7.64922 14.5351 7.35547C14.58 7.04238 14.8089 6.78734 15.1325 6.68988C15.7728 6.49703 16.2999 6.93168 16.322 6.95027C16.4459 7.05438 16.4619 7.23918 16.3578 7.36305C16.2541 7.48637 16.0703 7.50277 15.9465 7.4C15.9372 7.39262 15.6314 7.1516 15.3015 7.25094C15.1511 7.29625 15.1211 7.39734 15.1151 7.43871C15.1108 7.46852 15.1087 7.53996 15.1725 7.59121C15.2547 7.62723 15.5227 7.74289 15.8106 7.8491C16.402 8.06723 16.5503 8.49414 16.492 8.8209C16.4144 9.25516 15.9996 9.57031 15.5057 9.57031C15.1101 9.57031 14.7236 9.40445 14.4719 9.12668Z" fill="white"/>
<path d="M2.42231 17.949C2.26137 18.2278 2.48774 18.5707 2.80731 18.5321L4.33434 18.3482L4.93852 19.7626C5.06496 20.0586 5.47508 20.0832 5.63602 19.8045L7.27094 16.9727C6.06254 16.6 4.95903 15.9864 4.01606 15.1885L2.42231 17.949Z" fill="white"/>
<path d="M15.9844 15.1885C15.0414 15.9864 13.9379 16.6 12.7295 16.9727L14.3644 19.8045C14.5254 20.0832 14.9355 20.0586 15.0619 19.7626L15.6661 18.3482L17.1931 18.5321C17.5127 18.5707 17.7391 18.2278 17.5781 17.949L15.9844 15.1885Z" fill="white"/>
</g>
<defs>
<clipPath id="clip0_340_406">
<rect width="20" height="20" fill="white"/>
</clipPath>
</defs>
</svg>
