<svg width="20" height="21" viewBox="0 0 20 21" fill="none" xmlns="http://www.w3.org/2000/svg">
<path d="M19.0006 5.21094H1C0.447715 5.21094 0 5.65865 0 6.21094V8.42159C0 8.97388 0.447715 9.42159 0.999999 9.42159H19.0006C19.5529 9.42159 20.0006 8.97388 20.0006 8.42159V6.21094C20.0006 5.65865 19.5529 5.21094 19.0006 5.21094Z" fill="#757786"/>
<path d="M10.0007 6.26332H5.00052C4.26378 6.26332 3.55722 5.98605 3.03627 5.49252C2.51532 4.99899 2.22266 4.32962 2.22266 3.63166C2.22266 2.9337 2.51532 2.26433 3.03627 1.77079C3.55722 1.27726 4.26378 1 5.00052 1C8.88952 1 10.0007 6.26332 10.0007 6.26332Z" stroke="#757786" stroke-width="2" stroke-linecap="round" stroke-linejoin="round"/>
<path d="M10 6.26332H15.0001C15.7369 6.26332 16.4434 5.98605 16.9644 5.49252C17.4853 4.99899 17.778 4.32962 17.778 3.63166C17.778 2.9337 17.4853 2.26433 16.9644 1.77079C16.4434 1.27726 15.7369 1 15.0001 1C11.1111 1 10 6.26332 10 6.26332Z" stroke="#757786" stroke-width="2" stroke-linecap="round" stroke-linejoin="round"/>
<rect x="11.1133" y="11.5254" width="7.77801" height="9.47397" rx="1" fill="#757786"/>
<rect x="1.11328" y="11.5254" width="7.77801" height="9.47397" rx="1" fill="#757786"/>
</svg>
