<svg width="393" height="29" viewBox="0 0 393 29" fill="none" xmlns="http://www.w3.org/2000/svg">
<path d="M18.444 1.4V11.394H8.184V1.4H0.66V28H8.184V17.626H18.444V28H25.968V1.4H18.444ZM31.2752 28H38.7992V1.4H31.2752V28ZM61.9742 21.426C60.6442 22.034 59.3142 22.3 57.9082 22.3C53.4242 22.3 50.3842 19.184 50.3842 14.7C50.3842 10.102 53.4242 7.1 57.9842 7.1C60.5302 7.1 62.6202 8.05 64.4442 10.064L69.2322 5.732C66.6102 2.578 62.5822 0.867998 57.6042 0.867998C48.9782 0.867998 42.7842 6.606 42.7842 14.7C42.7842 22.794 48.9782 28.532 57.4522 28.532C61.3282 28.532 65.5462 27.354 68.6242 25.15V14.13H61.9742V21.426ZM91.1784 1.4V11.394H80.9184V1.4H73.3944V28H80.9184V17.626H91.1784V28H98.7024V1.4H91.1784ZM131.522 28H139.578L133.84 19.64C137.146 18.044 139.046 15.156 139.046 11.242C139.046 5.162 134.486 1.4 127.228 1.4H115.068V28H122.592V20.932H126.696L131.522 28ZM131.446 11.242C131.446 13.674 129.888 15.118 126.772 15.118H122.592V7.328H126.772C129.888 7.328 131.446 8.772 131.446 11.242ZM156.611 28.532C165.123 28.532 171.393 22.68 171.393 14.7C171.393 6.72 165.123 0.867998 156.611 0.867998C148.099 0.867998 141.829 6.72 141.829 14.7C141.829 22.68 148.099 28.532 156.611 28.532ZM156.611 22.3C152.583 22.3 149.429 19.298 149.429 14.7C149.429 10.102 152.583 7.1 156.611 7.1C160.639 7.1 163.793 10.102 163.793 14.7C163.793 19.298 160.639 22.3 156.611 22.3ZM175.334 28H195.55V22.034H182.858V1.4H175.334V28ZM198.527 28H218.743V22.034H206.051V1.4H198.527V28ZM229.169 22.186V17.322H240.987V11.698H229.169V7.214H242.583V1.4H221.721V28H243.077V22.186H229.169ZM263.706 28H271.762L266.024 19.64C269.33 18.044 271.23 15.156 271.23 11.242C271.23 5.162 266.67 1.4 259.412 1.4H247.252V28H254.776V20.932H258.88L263.706 28ZM263.63 11.242C263.63 13.674 262.072 15.118 258.956 15.118H254.776V7.328H258.956C262.072 7.328 263.63 8.772 263.63 11.242ZM299.701 28.532C304.603 28.532 308.555 26.746 311.139 23.516L306.351 19.184C304.679 21.198 302.627 22.3 300.081 22.3C295.711 22.3 292.671 19.26 292.671 14.7C292.671 10.14 295.711 7.1 300.081 7.1C302.627 7.1 304.679 8.202 306.351 10.216L311.139 5.884C308.555 2.654 304.603 0.867998 299.701 0.867998C291.265 0.867998 285.071 6.606 285.071 14.7C285.071 22.794 291.265 28.532 299.701 28.532ZM314.494 28H334.71V22.034H322.018V1.4H314.494V28ZM349.702 28.532C357.568 28.532 362.204 24.086 362.204 16.144V1.4H354.794V15.916C354.794 20.476 352.894 22.3 349.778 22.3C346.624 22.3 344.724 20.476 344.724 15.916V1.4H337.2V16.144C337.2 24.086 341.836 28.532 349.702 28.532ZM387.745 14.13C390.025 12.952 391.317 10.9 391.317 8.354C391.317 4.25 387.897 1.4 380.905 1.4H367.301V28H381.665C388.809 28 392.609 25.302 392.609 20.704C392.609 17.474 390.747 15.194 387.745 14.13ZM379.917 6.834C382.425 6.834 383.717 7.708 383.717 9.38C383.717 11.09 382.425 11.964 379.917 11.964H374.749V6.834H379.917ZM381.057 22.566H374.749V17.17H381.057C383.641 17.17 385.009 18.044 385.009 19.868C385.009 21.692 383.641 22.566 381.057 22.566Z" fill="white"/>
</svg>
