<svg width="10" height="10" viewBox="0 0 10 10" fill="none" xmlns="http://www.w3.org/2000/svg">
<path d="M0.27955 0.27955C0.458599 0.100554 0.701411 0 0.954587 0C1.20776 0 1.45057 0.100554 1.62962 0.27955L5.00576 3.65569L8.3819 0.27955C8.56198 0.105627 8.80316 0.00938937 9.05351 0.0115648C9.30385 0.0137402 9.54332 0.114155 9.72035 0.291181C9.89737 0.468206 9.99779 0.70768 9.99996 0.958023C10.0021 1.20837 9.9059 1.44955 9.73198 1.62962L6.35584 5.00576L9.73198 8.3819C9.9059 8.56198 10.0021 8.80316 9.99996 9.05351C9.99779 9.30385 9.89737 9.54332 9.72035 9.72035C9.54332 9.89737 9.30385 9.99779 9.05351 9.99996C8.80316 10.0021 8.56198 9.9059 8.3819 9.73198L5.00576 6.35584L1.62962 9.73198C1.44955 9.9059 1.20837 10.0021 0.958023 9.99996C0.70768 9.99779 0.468206 9.89737 0.291181 9.72035C0.114155 9.54332 0.0137402 9.30385 0.0115648 9.05351C0.00938937 8.80316 0.105627 8.56198 0.27955 8.3819L3.65569 5.00576L0.27955 1.62962C0.100554 1.45057 0 1.20776 0 0.954587C0 0.701411 0.100554 0.458599 0.27955 0.27955Z" fill="#858DA0"/>
</svg>
