<svg width="81" height="23" viewBox="0 0 81 23" fill="none" xmlns="http://www.w3.org/2000/svg">
<path d="M31.3648 6.32905V8.9811H33.9007V10.9666H31.3367V14.9943C31.3367 15.8878 31.8271 16.3132 32.5276 16.3132C32.8779 16.3132 33.2982 16.1998 33.6345 16.0296L34.2649 18.0009C33.6064 18.2704 33.074 18.3838 32.3735 18.398C30.37 18.4689 29.067 17.3202 29.067 14.9943V10.9666H27.3438V8.9811H29.067V6.57015L31.3648 6.32905ZM75.2036 8.85346L75.3717 9.9313C76.0863 8.78255 77.039 8.61237 77.9637 8.61237C78.9164 8.61237 79.8271 8.99528 80.3315 9.50584L79.3087 11.5055C78.8464 11.1084 78.412 10.8957 77.6695 10.8957C76.4786 10.8957 75.3717 11.5339 75.3717 13.2641V18.1853H73.088V8.85346H75.2036ZM69.6134 12.4273C69.4593 11.2219 68.5346 10.612 67.2176 10.612C65.9847 10.612 64.976 11.2219 64.6397 12.4273H69.6134ZM64.6117 14.3419C64.7658 15.4907 65.7465 16.3274 67.3577 16.3274C68.1984 16.3274 69.3052 16.0012 69.8236 15.4623L71.2807 16.9231C70.314 17.9442 68.7168 18.4405 67.3157 18.4405C64.1353 18.4405 62.2439 16.4551 62.2439 13.4626C62.2439 10.6262 64.1493 8.584 67.1476 8.584C70.2299 8.584 72.1633 10.5128 71.7991 14.3561H64.6117V14.3419ZM54.5521 4.93921V10.1157C55.3788 9.03783 56.3875 8.71164 57.4243 8.71164C60.0443 8.71164 61.1931 10.5128 61.1931 13.2499V18.1711H58.9094V13.2783C58.9094 11.5764 58.0268 10.8531 56.8218 10.8531C55.4768 10.8531 54.5381 12.0019 54.5381 13.4059V18.1711H52.2544V4.93921H54.5521ZM48.4996 6.2156V8.86764H51.0355V10.8531H48.4716V14.8808C48.4716 15.7743 48.962 16.1998 49.6625 16.1998C50.0127 16.1998 50.4331 16.0863 50.7693 15.9161L51.3998 17.8874C50.7413 18.1569 50.2089 18.2704 49.5084 18.2845C47.5049 18.3555 46.2019 17.2067 46.2019 14.8808V10.8531H44.4786V8.86764H46.2019V6.47087L48.4996 6.2156ZM42.1949 12.4273C42.0408 11.2219 41.1161 10.612 39.7991 10.612C38.5662 10.612 37.5574 11.2219 37.2212 12.4273H42.1949ZM37.1931 14.3419C37.3472 15.4907 38.328 16.3274 39.9392 16.3274C40.7798 16.3274 41.8867 16.0012 42.405 15.4623L43.8621 16.9231C42.8954 17.9442 41.2982 18.4405 39.8972 18.4405C36.7168 18.4405 34.8254 16.4551 34.8254 13.4626C34.8254 10.6262 36.7308 8.584 39.715 8.584C42.7973 8.584 44.7168 10.5128 44.3665 14.3561H37.1931V14.3419Z" fill="#757786"/>
<path fill-rule="evenodd" clip-rule="evenodd" d="M22.8711 11.25C22.8711 17.4632 17.8265 22.5 11.6035 22.5C5.38061 22.5 0.335938 17.4632 0.335938 11.25C0.335938 5.0368 5.38061 0 11.6035 0C17.8265 0 22.8711 5.0368 22.8711 11.25ZM12.7062 12.2963C12.7566 12.2941 12.7889 12.2927 12.805 12.2927C15.5457 12.1624 17.6049 11.6846 17.6049 11.1199C17.6049 10.5408 15.5457 10.063 12.805 9.94716V11.8149C12.718 11.8294 12.2974 11.8584 11.4418 11.8584C10.7313 11.8584 10.2092 11.8294 10.0352 11.8149V9.94716C7.29444 10.063 5.23524 10.5408 5.23524 11.1199C5.23524 11.6991 7.27994 12.1769 10.0352 12.2927C10.2092 12.3072 10.7168 12.3217 11.4273 12.3217C12.1276 12.3217 12.5287 12.3041 12.7062 12.2963ZM12.805 8.0794V9.74446C15.9228 9.88925 18.2575 10.5118 18.2575 11.2502C18.2575 11.9887 15.9228 12.5968 12.7905 12.7271V18.0842H10.0207V12.7271C6.9174 12.5823 4.56817 11.9742 4.56817 11.2358C4.56817 10.4974 6.9029 9.88925 10.0207 9.74446V8.0794H6.19233V5.53114H16.6334V8.0794H12.805Z" fill="#757786"/>
</svg>
