<svg width="88" height="22" viewBox="0 0 88 22" fill="none" xmlns="http://www.w3.org/2000/svg">
<path d="M26.2235 5.8779H26.9277C27.1069 5.8779 27.2527 6.02373 27.2527 6.2029V12.5071C27.2527 14.4987 28.3319 15.7571 30.3402 15.7571C32.3485 15.7571 33.4277 14.4987 33.4277 12.5071V6.2029C33.4277 6.02373 33.5735 5.8779 33.7527 5.8779H34.4569C34.636 5.8779 34.7819 6.02373 34.7819 6.2029V12.5237C34.7819 15.2362 33.2944 16.9654 30.3402 16.9654C27.386 16.9654 25.8985 15.2196 25.8985 12.5404V6.2029C25.8944 6.02373 26.0402 5.8779 26.2235 5.8779ZM36.8569 14.4654C36.961 14.3321 37.161 14.3196 37.2819 14.4362C38.011 15.1446 39.1027 15.7571 40.486 15.7571C42.4277 15.7571 43.0485 14.7112 43.0485 13.8779C43.0485 12.5696 41.7277 12.2112 40.2902 11.8196C38.5444 11.3612 36.5985 10.8737 36.5985 8.73206C36.5985 6.93623 38.1985 5.71123 40.3402 5.71123C41.8777 5.71123 43.0944 6.18206 43.9902 7.01123C44.1194 7.1279 44.1319 7.3279 44.0194 7.46123L43.5944 7.98206C43.4902 8.11123 43.2985 8.11957 43.1777 8.00706C42.3819 7.26123 41.3319 6.91956 40.2402 6.91956C38.9319 6.91956 38.0027 7.62373 38.0027 8.64873C38.0027 9.74456 39.261 10.0696 40.6485 10.4446C42.4277 10.9196 44.4527 11.4737 44.4527 13.7612C44.4527 15.3446 43.3735 16.9612 40.436 16.9612C38.6777 16.9612 37.3527 16.3404 36.4527 15.4404C36.336 15.3237 36.3235 15.1362 36.4277 15.0071L36.8569 14.4654ZM46.0652 6.2029C46.0652 6.02373 46.211 5.8779 46.3902 5.8779H49.786C53.1652 5.8779 55.3735 8.24456 55.3735 11.3321C55.3735 14.4362 53.1694 16.7696 49.786 16.7696H46.3902C46.211 16.7696 46.0652 16.6237 46.0652 16.4446V6.2029ZM49.7902 15.5612C52.436 15.5612 53.9694 13.6654 53.9694 11.3321C53.9694 8.9779 52.4819 7.08623 49.7902 7.08623H47.4235V15.5612H49.7902ZM68.9277 12.8196C68.9277 10.5321 70.4319 8.68623 72.8319 8.68623C75.2319 8.68623 76.736 10.5321 76.736 12.8196C76.736 15.1071 75.2319 16.9696 72.8319 16.9696C70.4319 16.9696 68.9277 15.1029 68.9277 12.8196ZM75.4444 12.8196C75.4444 11.2196 74.5152 9.78206 72.8319 9.78206C71.1485 9.78206 70.2027 11.2196 70.2027 12.8196C70.2027 14.4362 71.1485 15.8737 72.8319 15.8737C74.5152 15.8737 75.4444 14.4362 75.4444 12.8196ZM77.911 6.7279C77.911 6.26956 78.286 5.91123 78.7277 5.91123C79.186 5.91123 79.561 6.26956 79.561 6.7279C79.561 7.18623 79.186 7.56123 78.7277 7.56123C78.286 7.56123 77.911 7.18206 77.911 6.7279ZM78.4485 8.88206H79.0194C79.1985 8.88206 79.3444 9.0279 79.3444 9.20706V16.4446C79.3444 16.6237 79.1985 16.7696 79.0194 16.7696H78.4485C78.2694 16.7696 78.1235 16.6237 78.1235 16.4446V9.20706C78.1235 9.0279 78.2694 8.88206 78.4485 8.88206ZM86.4027 11.6112C86.4027 10.2237 85.6985 9.78206 84.6402 9.78206C83.6777 9.78206 82.761 10.3696 82.3027 11.0071V16.4446C82.3027 16.6237 82.1569 16.7696 81.9777 16.7696H81.4069C81.2277 16.7696 81.0819 16.6237 81.0819 16.4446V9.20706C81.0819 9.0279 81.2277 8.88206 81.4069 8.88206H81.9777C82.1569 8.88206 82.3027 9.0279 82.3027 9.20706V10.0237C82.8569 9.36956 83.936 8.68623 85.111 8.68623C86.761 8.68623 87.6277 9.51956 87.6277 11.2321V16.4404C87.6277 16.6196 87.4819 16.7654 87.3027 16.7654H86.7319C86.5527 16.7654 86.4069 16.6196 86.4069 16.4404L86.4027 11.6112ZM58.4694 11.3321C58.4694 7.98206 60.936 5.69873 64.0235 5.69873C65.8527 5.69873 67.136 6.49456 68.0027 7.58623C68.111 7.72373 68.0735 7.9279 67.9194 8.0154L67.311 8.3529C67.1735 8.43206 66.9985 8.39456 66.8985 8.27373C66.2527 7.47373 65.2069 6.91123 64.0235 6.91123C61.686 6.91123 59.8735 8.7404 59.8735 11.3362C59.8735 13.9154 61.686 15.7612 64.0235 15.7612C65.211 15.7612 66.2569 15.2112 66.8985 14.3987C66.9985 14.2737 67.1694 14.2404 67.311 14.3154L67.9277 14.6529C68.086 14.7404 68.1235 14.9487 68.011 15.0862C67.111 16.1862 65.8527 16.9696 64.0235 16.9696C60.936 16.9654 58.4694 14.6821 58.4694 11.3321Z" fill="#757786"/>
<path d="M11.4492 21.957C17.3172 21.957 22.0742 17.2001 22.0742 11.332C22.0742 5.464 17.3172 0.707031 11.4492 0.707031C5.58119 0.707031 0.824219 5.464 0.824219 11.332C0.824219 17.2001 5.58119 21.957 11.4492 21.957Z" fill="#757786"/>
<path d="M9.45573 18.7198C9.45573 18.9698 9.2599 19.1114 9.01823 19.0364C5.80573 18.0114 3.47656 14.9989 3.47656 11.4447C3.47656 7.89058 5.80573 4.87808 9.01823 3.85308C9.2599 3.77808 9.45573 3.91975 9.45573 4.16975V4.78641C9.45573 4.95308 9.32656 5.14891 9.16823 5.20308C6.62656 6.13641 4.80573 8.57808 4.80573 11.4406C4.80573 14.3031 6.62656 16.7448 9.16823 17.6781C9.32656 17.7364 9.45573 17.9281 9.45573 18.0947V18.7198Z" fill="#272A33"/>
<path d="M12.1096 16.423C12.1096 16.6064 11.9596 16.7564 11.7763 16.7564H11.1138C10.9304 16.7564 10.7804 16.6064 10.7804 16.423V15.373C9.33044 15.1772 8.62211 14.3647 8.43044 13.2605C8.39711 13.073 8.54711 12.9022 8.73877 12.9022H9.49711C9.65544 12.9022 9.78877 13.0147 9.82211 13.173C9.96377 13.8314 10.3429 14.3355 11.5054 14.3355C12.3638 14.3355 12.9721 13.8564 12.9721 13.1397C12.9721 12.423 12.6138 12.1522 11.3554 11.9439C9.49711 11.6939 8.61794 11.1314 8.61794 9.67305C8.61794 8.54805 9.46794 7.67305 10.7846 7.48555V6.45638C10.7846 6.27305 10.9346 6.12305 11.1179 6.12305H11.7804C11.9638 6.12305 12.1138 6.27305 12.1138 6.45638V7.51471C13.1846 7.70638 13.8638 8.31471 14.0846 9.32305C14.1263 9.51471 13.9763 9.69388 13.7804 9.69388H13.0804C12.9304 9.69388 12.8054 9.59388 12.7596 9.44805C12.5721 8.80638 12.1138 8.53138 11.3179 8.53138C10.4388 8.53138 9.98461 8.95638 9.98461 9.55221C9.98461 10.1814 10.2429 10.498 11.5929 10.6939C13.4179 10.9439 14.3596 11.4647 14.3596 13.0189C14.3596 14.198 13.4846 15.1522 12.1138 15.373V16.423H12.1096Z" fill="#272A33"/>
<path d="M13.8828 19.0364C13.6411 19.1114 13.4453 18.9698 13.4453 18.7198V18.1031C13.4453 17.9198 13.5578 17.7489 13.7328 17.6864C16.2745 16.7531 18.0953 14.3114 18.0953 11.4489C18.0953 8.58644 16.2745 6.14478 13.7328 5.21144C13.5745 5.15311 13.4453 4.96144 13.4453 4.79478V4.17811C13.4453 3.92811 13.6411 3.78228 13.8828 3.86144C17.0953 4.88644 19.4245 7.89894 19.4245 11.4531C19.4203 14.9989 17.0953 18.0073 13.8828 19.0364Z" fill="#272A33"/>
</svg>
