<svg width="27" height="27" viewBox="0 0 27 27" fill="none" xmlns="http://www.w3.org/2000/svg">
<path d="M14.0293 9.52344H12.1719V13.1854H15.0941V14.7186H12.1719V18.3803H14.1203C14.6209 18.3803 18.2304 18.4369 18.2248 14.12C18.2192 9.80307 14.724 9.52344 14.0293 9.52344Z" fill="#757786"/>
<path d="M13.7148 0.956543C6.53507 0.956543 0.714844 6.77677 0.714844 13.9565C0.714844 21.1363 6.53507 26.9565 13.7148 26.9565C20.8946 26.9565 26.7148 21.1363 26.7148 13.9565C26.7148 6.77677 20.8946 0.956543 13.7148 0.956543ZM14.2256 20.9778H9.51766V14.7189H7.85808V13.1856H9.51753V6.92627H13.5582C14.5141 6.92627 20.8455 6.72776 20.8455 14.0695C20.8455 21.5327 14.2257 20.9778 14.2257 20.9778H14.2256Z" fill="#757786"/>
</svg>
