<svg width="79" height="22" viewBox="0 0 79 22" fill="none" xmlns="http://www.w3.org/2000/svg">
<path d="M22.375 2.53465H25.9402C26.8462 2.53465 27.5085 2.77848 27.9372 3.19789C28.356 3.55877 28.5411 4.04645 28.5411 4.52438C28.5411 4.7097 28.5411 4.94378 28.4827 5.1291C28.3658 5.43146 28.1807 5.73382 27.9372 5.97766C27.8203 6.09471 27.6936 6.16298 27.5767 6.2215C27.9956 6.33855 28.3658 6.58239 28.6677 6.88475C28.9113 7.18711 29.0282 7.54799 29.0282 8.09419C29.0282 8.39655 28.9697 8.75744 28.8431 9.00128C28.7262 9.24512 28.4827 9.48896 28.2391 9.66452C27.9372 9.84984 27.6352 9.96688 27.3332 10.0839C26.9728 10.201 26.5442 10.201 26.1253 10.201H22.4334V2.51514H22.375V2.53465ZM25.6383 5.6753C25.9402 5.6753 26.2422 5.61678 26.5442 5.48998C26.7877 5.37294 26.9046 5.1291 26.9046 4.88526C26.9046 4.64142 26.7877 4.39758 26.6026 4.28054C26.3591 4.09522 26.0571 4.0367 25.7552 4.09522H24.0602V5.72407H25.6285V5.6753H25.6383ZM26.0571 8.76719C26.3591 8.76719 26.6611 8.70867 26.963 8.58187C27.2066 8.46483 27.3235 8.22099 27.265 7.91863C27.265 7.67479 27.1481 7.43095 26.963 7.31391C26.778 7.19686 26.4175 7.07007 25.9987 7.07007H24.0018V8.76719H26.0571Z" fill="#757786"/>
<path d="M31.1328 2.53516H32.8278V10.2795H31.1328V2.53516Z" fill="#757786"/>
<path d="M35.4258 2.53516H36.9941L40.6178 7.31442V2.53516H42.303V10.2795H40.8613L37.0525 5.37345V10.2795H35.4258V2.53516Z" fill="#757786"/>
<path d="M47.4467 2.47803H49.015L52.3367 10.2809H50.5833L49.8625 8.52526H46.5992L45.8784 10.2809H44.125L47.4467 2.47803ZM49.2585 7.07197L48.2357 4.53604L47.2129 7.07197H49.2585Z" fill="#757786"/>
<path d="M54.1484 2.53516H55.7168L59.3404 7.31442V2.53516H61.0354V10.2795H59.584L55.8336 5.37345V10.2795H54.1484V2.53516Z" fill="#757786"/>
<path d="M67.195 10.3984C66.6495 10.3984 66.104 10.2813 65.6267 10.096C64.6624 9.6766 63.9318 8.94508 63.5129 7.97947C63.3278 7.49179 63.2109 6.95534 63.2109 6.40914C63.2109 5.38501 63.6298 4.35114 64.3604 3.57085C64.7208 3.20996 65.1494 2.9076 65.6267 2.72228C66.1722 2.47844 66.7177 2.41992 67.2535 2.41992C67.5555 2.41992 67.9159 2.41992 68.2179 2.47844C68.5198 2.53697 68.7634 2.59549 69.0069 2.72228C69.2504 2.83933 69.4939 2.96612 69.6693 3.08317C69.8544 3.20021 70.0881 3.38553 70.2732 3.57085L69.2504 4.83881C68.9484 4.59497 68.6465 4.35113 68.3445 4.17557C68.0425 4 67.6821 3.93173 67.3217 3.93173C67.0197 3.93173 66.7177 3.99025 66.4158 4.11705C66.1138 4.23409 65.8703 4.41941 65.6949 4.66325C65.5196 4.90709 65.3345 5.15093 65.2079 5.45329C65.091 5.75565 65.0228 6.05801 65.0228 6.36037C65.0228 6.66273 65.0812 7.02362 65.2079 7.32598C65.3345 7.62834 65.4514 7.87218 65.6949 8.11602C66.1138 8.6037 66.7177 8.83779 67.3217 8.83779C67.6821 8.83779 68.1107 8.77927 68.4711 8.59395C68.7731 8.40863 69.1335 8.17454 69.377 7.9307L70.4583 9.01335C70.2732 9.19867 70.0394 9.43276 69.8544 9.61808C69.6108 9.80339 69.3673 9.92044 69.1335 10.0375C68.89 10.1545 68.588 10.2813 68.286 10.3398C67.8574 10.3984 67.497 10.3984 67.195 10.3984Z" fill="#757786"/>
<path d="M72.3984 2.53516H78.1944V4.04696H74.0252V5.61729H77.7073V7.1291H74.0252V8.7677H78.2528V10.2795H72.3984V2.53516Z" fill="#757786"/>
<path d="M24.5489 17.8984C24.13 17.8984 23.7014 17.8399 23.341 17.6546C22.9806 17.5375 22.6202 17.2937 22.25 16.9913L22.8539 16.3281C23.0975 16.5719 23.341 16.689 23.643 16.8743C23.9449 16.9913 24.2469 17.0596 24.5489 17.0596C24.7924 17.0596 25.0359 17.0011 25.2697 16.8743C25.4548 16.7572 25.5133 16.5719 25.5133 16.3866C25.5133 16.3281 25.5133 16.2013 25.4548 16.1428C25.3964 16.0842 25.3379 15.9574 25.2697 15.8989C25.1528 15.8404 25.0262 15.7819 24.9093 15.7136C24.7242 15.6551 24.4904 15.5966 24.3054 15.5283C24.0618 15.4698 23.7599 15.4112 23.5163 15.2844C23.3313 15.2259 23.0975 15.0991 22.9708 14.9821C22.8539 14.865 22.7273 14.7382 22.6104 14.5627C22.4935 14.3188 22.4935 14.075 22.4935 13.8994C22.4935 13.6556 22.552 13.48 22.6104 13.2362C22.6689 13.0509 22.8539 12.8753 22.9708 12.7485C23.1559 12.6315 23.3313 12.5047 23.5748 12.4461C23.8183 12.3876 24.0618 12.3291 24.2956 12.3291C24.656 12.3291 25.0165 12.3876 25.3866 12.5144C25.6886 12.6315 25.9906 12.8168 26.2925 13.0021L25.8055 13.7239C25.562 13.5385 25.3184 13.4215 25.0847 13.3045C24.8411 13.1874 24.5976 13.1874 24.3638 13.1874C24.1203 13.1874 23.8768 13.2459 23.7014 13.3727C23.5845 13.4898 23.4579 13.6751 23.4579 13.8604C23.4579 13.9775 23.4579 14.0457 23.5163 14.1628C23.5748 14.2213 23.6332 14.3481 23.7014 14.4066C23.8183 14.4651 23.9449 14.5237 24.1203 14.5919C24.3054 14.6505 24.4807 14.709 24.7827 14.7773C25.0262 14.8358 25.2697 14.8943 25.5717 15.0211C25.7568 15.0796 25.9321 15.2064 26.1172 15.3235C26.2341 15.4405 26.3607 15.6258 26.4192 15.7429C26.4776 15.9282 26.5361 16.1037 26.5361 16.3476C26.5361 16.5914 26.4776 16.8353 26.4192 17.0108C26.3023 17.1961 26.1757 17.3717 26.0003 17.557C25.8152 17.6741 25.6399 17.8009 25.3964 17.8594C25.0944 17.8399 24.7924 17.8984 24.5489 17.8984Z" fill="#757786"/>
<path d="M27.5664 12.3975H28.599L30.2257 14.9334L31.9207 12.3975H32.9435V17.84H31.9791V13.9093L30.2842 16.4452H30.2257L28.5405 13.9093V17.84H27.5664V12.3975Z" fill="#757786"/>
<path d="M36.207 12.3384H37.1129L39.4702 17.7809H38.4474L37.9019 16.4544H35.3692L34.8237 17.7809H33.8594L36.207 12.3384ZM37.6 15.6644L36.6356 13.4893L35.7297 15.6644H37.6Z" fill="#757786"/>
<path d="M40.4374 12.3965H42.8531C43.1551 12.3965 43.4571 12.455 43.7591 12.5135C44.0026 12.572 44.2461 12.7574 44.4215 12.9329C44.5383 13.05 44.665 13.2353 44.7819 13.4791C44.8403 13.6644 44.8988 13.8985 44.8988 14.1424C44.8988 14.3277 44.8403 14.5618 44.7819 14.7471C44.7234 14.9324 44.5968 15.0495 44.5383 15.2348C44.4215 15.3518 44.2948 15.4786 44.1195 15.5957C43.9344 15.7127 43.7591 15.781 43.574 15.8395L45.0254 17.8975H43.8759L42.5512 16.0248H41.3433V17.8975H40.3789L40.4374 12.3965ZM42.7947 15.0592C43.0967 15.0592 43.3986 15.0007 43.5837 14.8154C43.7688 14.6301 43.8857 14.396 43.8857 14.1521C43.8857 13.9083 43.7688 13.6644 43.5837 13.4889C43.3402 13.3036 43.0382 13.245 42.7362 13.245H41.3433V15.0592H42.7947Z" fill="#757786"/>
<path d="M47.3823 13.246H45.6289V12.3975H50.0416V13.246H48.2882V17.84H47.3239L47.3823 13.246Z" fill="#757786"/>
<path d="M55.9063 17.8978C55.5459 17.8978 55.1855 17.8393 54.8153 17.654C54.1529 17.3516 53.6074 16.864 53.3639 16.2007C53.247 15.8398 53.1203 15.4789 53.1788 15.1083C53.1788 14.7474 53.2372 14.3865 53.3639 14.0159C53.6074 13.3527 54.1529 12.8065 54.8153 12.5041C55.1757 12.3871 55.5361 12.2603 55.9647 12.2603C56.2083 12.2603 56.4518 12.2603 56.6271 12.3188C56.8122 12.3773 56.9875 12.4358 57.1726 12.5041C57.3577 12.5626 57.4746 12.6894 57.6597 12.7479C57.7766 12.865 57.9617 12.9918 58.0786 13.1088L57.4746 13.8306C57.2895 13.6453 57.0557 13.4697 56.8122 13.3429C56.5687 13.2259 56.2667 13.1576 55.9647 13.1576C55.7212 13.1576 55.4777 13.2161 55.2439 13.2746C55.0004 13.3917 54.825 13.5185 54.6399 13.694C54.4549 13.8794 54.338 14.0549 54.2795 14.2988C54.2211 14.5426 54.1626 14.7864 54.1626 15.0205C54.1626 15.2644 54.2211 15.5082 54.2795 15.7423C54.338 15.9764 54.4646 16.1617 54.6399 16.347C54.825 16.5323 55.0004 16.6494 55.2439 16.7664C55.4874 16.8835 55.731 16.9517 55.9647 16.8835C56.2667 16.8835 56.5687 16.8249 56.8122 16.6981C57.0557 16.5811 57.2993 16.3958 57.533 16.1519L58.137 16.7567C58.0201 16.8737 57.835 17.059 57.7181 17.1761C57.5331 17.2931 57.4162 17.4199 57.2311 17.4784C57.046 17.5369 56.8707 17.6637 56.6271 17.6637C56.3836 17.8978 56.1401 17.8978 55.9063 17.8978Z" fill="#757786"/>
<path d="M59.1016 12.3975H60.0075V14.631H62.6083V12.3975H63.5727V17.84H62.6083V15.5381H60.0075V17.84H59.1016V12.3975Z" fill="#757786"/>
<path d="M66.8906 12.3384H67.7965L70.1538 17.7809H69.131L68.5855 16.4544H66.0528L65.5073 17.7809H64.543L66.8906 12.3384ZM68.2251 15.6644L67.3192 13.4893L66.4133 15.6644H68.2251Z" fill="#757786"/>
<path d="M71.1172 12.3975H72.0913V17.84H71.1172V12.3975Z" fill="#757786"/>
<path d="M73.5352 12.3975H74.3826L77.2855 16.1428V12.3975H78.2498V17.84H77.4608L74.5093 13.9678V17.84H73.5352V12.3975Z" fill="#757786"/>
<path d="M11.7477 17.4784V19.8388L9.69231 21.0483L7.69539 19.8388V17.4784L9.69231 18.6879L11.7477 17.4784ZM0.75 9.31468L2.74692 10.5241V14.5719L6.18552 16.6299V18.9902L0.75 15.7813V9.31468ZM18.6346 9.31468V15.7911L13.1406 19V16.6396L16.5792 14.5816V10.5339L18.6346 9.31468ZM13.1309 6.10575L15.1863 7.3152V9.67556L11.7477 11.7336V15.8398L9.75076 17.0493L7.76357 15.8398V11.7238L4.19834 9.66581V7.30544L6.25371 6.096L9.69231 8.15401L13.1309 6.10575ZM4.19834 11.3629L6.19526 12.5724V14.9328L4.19834 13.7233V11.3629ZM15.1863 11.3629V13.7233L13.1894 14.9328V12.5724L15.1863 11.3629ZM2.74692 4.04774L4.80229 5.25719L2.74692 6.46663V8.827L0.75 7.61756V5.25719L2.74692 4.04774ZM16.6377 4.04774L18.6931 5.25719V7.61756L16.6377 8.827V6.46663L14.6408 5.25719L16.6377 4.04774ZM9.69231 4.04774L11.7477 5.25719L9.69231 6.46663L7.69539 5.25719L9.69231 4.04774ZM9.69231 0L15.1863 3.20893L13.1894 4.41838L9.75076 2.36037L6.24397 4.41838L4.24705 3.20893L9.69231 0Z" fill="#757786"/>
</svg>
