<svg width="79" height="15" viewBox="0 0 79 15" fill="none" xmlns="http://www.w3.org/2000/svg">
<path d="M26.9028 8.01242H29.8584C30.274 8.01242 30.6108 8.35224 30.6108 8.76717C30.6108 9.18567 30.274 9.52191 29.8584 9.52191H26.2938C26.2365 9.52191 26.1827 9.54337 26.1433 9.57914L25.0685 10.5056C24.9037 10.6487 25.0041 10.9169 25.219 10.9169H29.6793C29.6793 10.9169 29.6829 10.9169 29.6829 10.9134C29.6829 10.9098 29.6865 10.9098 29.6865 10.9098C29.7438 10.9134 29.7975 10.9169 29.8548 10.9169C31.0371 10.9169 31.9972 9.95472 31.9972 8.76717C31.9972 7.64042 31.1338 6.71398 30.0304 6.62455C30.0304 6.62455 30.0268 6.62455 30.0268 6.62098C30.0268 6.6174 30.0268 6.6174 30.0232 6.6174H26.8419C26.4263 6.6174 26.0896 6.27759 26.0896 5.86266C26.0896 5.44415 26.4263 5.10791 26.8419 5.10791H30.3994C30.4567 5.10791 30.514 5.08645 30.557 5.04711L31.5566 4.12067C31.7142 3.97401 31.6103 3.71289 31.3989 3.71289H26.9028C26.8849 3.71289 26.8634 3.71289 26.8455 3.71289C25.6632 3.71289 24.7031 4.6751 24.7031 5.86266C24.7031 7.05021 25.6632 8.01242 26.8455 8.01242C26.8634 8.01242 26.8813 8.01242 26.9028 8.01242Z" fill="#757786"/>
<path d="M44.1079 3.70914C43.9789 3.70914 43.875 3.81288 43.875 3.94522V10.6843C43.875 10.813 43.9789 10.9203 44.1079 10.9203H49.5175C49.582 10.9203 49.6429 10.8917 49.6895 10.8452L50.3666 10.1191C50.5063 9.96886 50.4024 9.72205 50.1946 9.72205H45.4728C45.3438 9.72205 45.24 9.61832 45.24 9.48597V3.94165C45.24 3.81288 45.1361 3.70557 45.0071 3.70557H44.1079V3.70914Z" fill="#757786"/>
<path fill-rule="evenodd" clip-rule="evenodd" d="M35.443 3.70898C35.443 3.71256 35.443 3.71256 35.443 3.70898C34.7516 3.74118 34.1963 4.29561 34.1641 4.98597V9.518C34.1641 9.53589 34.1641 9.55735 34.1641 9.57524C34.1641 10.2942 34.7301 10.8808 35.443 10.9095H40.3511C41.0605 10.8773 41.6301 10.2906 41.6301 9.57524C41.6301 9.55735 41.6301 9.53589 41.6301 9.518V4.98954C41.6014 4.29919 41.0461 3.74118 40.3547 3.71256H35.443V3.70898ZM36.3602 4.98954C36.3566 4.98954 36.3566 4.98954 36.3602 4.98954C35.9267 5.00743 35.5792 5.35797 35.5613 5.79437V8.64522C35.5613 8.65595 35.5613 8.67026 35.5613 8.68099C35.5613 9.13169 35.9159 9.5037 36.3602 9.52158H39.4376C39.8818 9.5037 40.2365 9.13169 40.2365 8.68099C40.2365 8.67026 40.2365 8.65595 40.2365 8.64522V5.79437C40.2186 5.35797 39.8711 5.01101 39.4376 4.98954H36.3602Z" fill="#757786"/>
<path fill-rule="evenodd" clip-rule="evenodd" d="M58.2299 10.6838C58.2299 10.8126 58.3338 10.9199 58.4628 10.9199H59.3799C59.5089 10.9199 59.6128 10.8161 59.6128 10.6838V5.10727C59.6128 5.08938 59.6128 5.06792 59.6128 5.05004C59.6128 4.33106 59.0503 3.74444 58.3482 3.71582H53.6371C53.6192 3.71582 53.5977 3.71582 53.5798 3.71582C52.8489 3.71582 52.2578 4.31318 52.2578 5.05361C52.2578 5.0715 52.2578 5.09296 52.2578 5.11084V10.6874C52.2578 10.8161 52.3617 10.9234 52.4907 10.9234H53.4078C53.5368 10.9234 53.6407 10.8197 53.6407 10.6874V8.3659C53.6407 8.23713 53.7446 8.12982 53.8735 8.12982H58.0078C58.1368 8.12982 58.2407 8.23355 58.2407 8.3659V10.6838H58.2299ZM53.6335 6.84568V5.68674C53.6335 5.23604 53.9953 4.87119 54.4396 4.87119H57.4274C57.8717 4.87119 58.2335 5.23604 58.2335 5.68674V6.84568C58.2335 6.97445 58.1296 7.08176 58.0006 7.08176H53.8664C53.7374 7.08176 53.6335 6.97803 53.6335 6.84568Z" fill="#757786"/>
<path fill-rule="evenodd" clip-rule="evenodd" d="M77.5898 10.9205C77.4608 10.9205 77.3569 10.8168 77.3569 10.6844V8.36297C77.3569 8.2342 77.253 8.12689 77.1241 8.12689H72.9432C72.8142 8.12689 72.7103 8.23062 72.7103 8.36297V10.6844C72.7103 10.8132 72.6065 10.9205 72.4775 10.9205H71.5532C71.4242 10.9205 71.3203 10.8168 71.3203 10.6844V5.10791C71.3203 5.09003 71.3203 5.06857 71.3203 5.05068C71.3203 4.31382 71.9186 3.71289 72.6566 3.71289C72.6745 3.71289 72.696 3.71289 72.7139 3.71289H77.4751C78.1845 3.74508 78.7541 4.33171 78.7541 5.04711C78.7541 5.06499 78.7541 5.08645 78.7541 5.10434V10.6809C78.7541 10.8096 78.6502 10.9169 78.5212 10.9169H77.5898V10.9205ZM72.7103 5.68738V6.84633C72.7103 6.9751 72.8142 7.08241 72.9432 7.08241H77.1241C77.253 7.08241 77.3569 6.97868 77.3569 6.84633V5.68738C77.3569 5.23669 76.9915 4.87183 76.5437 4.87183H73.5236C73.0722 4.87183 72.7103 5.23669 72.7103 5.68738Z" fill="#757786"/>
<path d="M63.0674 3.70898C63.1355 3.70898 63.1999 3.7376 63.2429 3.79126L67.3557 8.68814C67.4954 8.85269 67.7641 8.75253 67.7641 8.53434V3.94507C67.7641 3.81629 67.868 3.70898 67.997 3.70898H68.9141C69.0431 3.70898 69.147 3.81272 69.147 3.94507V10.6841C69.147 10.8129 69.0431 10.9202 68.9141 10.9202H67.7749C67.7713 10.9202 67.7677 10.9166 67.7677 10.913C67.7677 10.9095 67.7677 10.9095 67.7641 10.9059L63.5797 6.04475C63.44 5.88021 63.1713 5.98395 63.1713 6.19856V10.6877C63.1713 10.8164 63.0674 10.9238 62.9384 10.9238H62.0141C61.8851 10.9238 61.7812 10.82 61.7812 10.6877V3.94507C61.7812 3.81629 61.8851 3.70898 62.0141 3.70898H63.0674Z" fill="#757786"/>
<path d="M3.3752 11.1669C3.48984 11.0524 3.64389 10.988 3.80511 10.988H18.7264C18.9987 10.988 19.1349 11.3171 18.9414 11.5067L15.993 14.4506C15.8783 14.565 15.7243 14.6294 15.5631 14.6294H0.641713C0.369439 14.6294 0.233302 14.3003 0.42676 14.1107L3.3752 11.1669Z" fill="#757786"/>
<path d="M3.3752 0.178849C3.48984 0.0643857 3.64389 0 3.80511 0H18.7264C18.9987 0 19.1349 0.329082 18.9414 0.518662L15.993 3.45894C15.8783 3.57341 15.7243 3.63779 15.5631 3.63779H0.641713C0.369439 3.63779 0.233302 3.30871 0.42676 3.11913L3.3752 0.178849Z" fill="#757786"/>
<path d="M15.993 5.6371C15.8783 5.52264 15.7243 5.45825 15.5631 5.45825H0.641713C0.369439 5.45825 0.233302 5.78733 0.42676 5.97691L3.3752 8.91719C3.48984 9.03166 3.64389 9.09604 3.80511 9.09604H18.7264C18.9987 9.09604 19.1349 8.76696 18.9414 8.57738L15.993 5.6371Z" fill="#757786"/>
</svg>
