<svg width="99" height="25" viewBox="0 0 99 25" fill="none" xmlns="http://www.w3.org/2000/svg">
<path d="M27.9949 14.385C27.9934 14.4719 27.958 14.5547 27.8963 14.6153C27.8346 14.6759 27.7517 14.7094 27.6657 14.7084H21.6036C21.759 16.2235 22.8837 17.6093 24.4746 17.6093C25.5627 17.6093 26.3673 17.1936 26.9708 16.3159C26.9989 16.2698 27.0378 16.2314 27.084 16.204C27.1302 16.1766 27.1824 16.1611 27.236 16.1588C27.2759 16.1577 27.3156 16.1648 27.3528 16.1797C27.3899 16.1946 27.4236 16.217 27.4519 16.2456C27.4801 16.2741 27.5023 16.3082 27.517 16.3457C27.5318 16.3832 27.5388 16.4234 27.5377 16.4637C27.5379 16.5195 27.522 16.574 27.492 16.6208C26.8794 17.6925 25.6633 18.2191 24.4746 18.2191C22.4356 18.2191 20.9727 16.3713 20.9727 14.4035C20.9727 12.4356 22.4265 10.5879 24.4746 10.5879C26.5228 10.5879 27.9857 12.4172 27.9949 14.385ZM27.3457 14.0986C27.2177 12.5835 26.0656 11.1976 24.4746 11.1976C22.8837 11.1976 21.759 12.5835 21.6036 14.0986H27.3457Z" fill="#757786"/>
<path d="M35.3659 10.7356C35.4452 10.7379 35.5207 10.7708 35.5768 10.8274C35.6329 10.8841 35.6654 10.9603 35.6677 11.0405C35.6688 11.0808 35.6618 11.121 35.647 11.1585C35.6323 11.196 35.6101 11.23 35.5818 11.2586C35.5536 11.2871 35.5199 11.3095 35.4827 11.3245C35.4456 11.3394 35.4059 11.3465 35.3659 11.3453H33.7384V17.8032C33.7377 17.8838 33.7057 17.961 33.6492 18.018C33.5928 18.075 33.5165 18.1074 33.4367 18.1081C33.3574 18.1058 33.2819 18.0729 33.2259 18.0162C33.1698 17.9595 33.1372 17.8833 33.1349 17.8032V11.3453H31.5714C31.5315 11.3465 31.4917 11.3394 31.4546 11.3245C31.4175 11.3095 31.3837 11.2871 31.3555 11.2586C31.3273 11.23 31.3051 11.196 31.2903 11.1585C31.2755 11.121 31.2685 11.0808 31.2696 11.0405C31.2704 10.9598 31.3024 10.8827 31.3588 10.8257C31.4152 10.7686 31.4916 10.7363 31.5714 10.7356H33.1349V8.3797C33.1351 8.30163 33.1628 8.22618 33.2131 8.16691C33.2634 8.10764 33.3329 8.06844 33.4092 8.05634C33.4519 8.05062 33.4953 8.05426 33.5364 8.06704C33.5776 8.07981 33.6155 8.10141 33.6476 8.13036C33.6797 8.1593 33.7053 8.19491 33.7225 8.23476C33.7398 8.2746 33.7483 8.31774 33.7475 8.36122V10.7356H35.3659Z" fill="#757786"/>
<path d="M45.2884 13.8579V17.7659C45.2861 17.846 45.2536 17.9222 45.1975 17.9789C45.1414 18.0355 45.066 18.0684 44.9867 18.0707C44.9467 18.0719 44.907 18.0648 44.8699 18.0499C44.8328 18.0349 44.799 18.0125 44.7708 17.984C44.7425 17.9554 44.7204 17.9214 44.7056 17.8839C44.6908 17.8464 44.6838 17.8062 44.6849 17.7659V13.8579C44.6849 12.5367 43.9443 11.2248 42.4905 11.2248C40.6252 11.2248 39.8206 12.8693 39.9303 14.56C39.9303 14.6062 39.9486 14.8002 39.9486 14.8279V17.7566C39.9484 17.8347 39.9207 17.9101 39.8705 17.9694C39.8202 18.0287 39.7506 18.0679 39.6743 18.08C39.6316 18.0857 39.5882 18.082 39.5471 18.0693C39.506 18.0565 39.468 18.0349 39.4359 18.006C39.4038 17.977 39.3782 17.9414 39.361 17.9016C39.3437 17.8617 39.3352 17.8186 39.336 17.7751V4.92402C39.3367 4.84338 39.3687 4.76626 39.4252 4.70924C39.4816 4.65222 39.5579 4.61986 39.6377 4.61914C39.717 4.62146 39.7924 4.65433 39.8485 4.71101C39.9046 4.76769 39.9372 4.84389 39.9395 4.92402V12.1857C40.4606 11.2433 41.3933 10.6058 42.4814 10.6058C44.2735 10.6058 45.2884 12.1857 45.2884 13.8579Z" fill="#757786"/>
<path d="M56.1785 14.385C56.177 14.4719 56.1416 14.5547 56.0799 14.6153C56.0182 14.6759 55.9353 14.7094 55.8493 14.7084H49.7872C49.9426 16.2235 51.0672 17.6093 52.6582 17.6093C53.7463 17.6093 54.5509 17.1936 55.1544 16.3159C55.1825 16.2698 55.2214 16.2314 55.2676 16.204C55.3138 16.1766 55.366 16.1611 55.4196 16.1588C55.4595 16.1577 55.4992 16.1648 55.5364 16.1797C55.5735 16.1946 55.6072 16.217 55.6355 16.2456C55.6637 16.2741 55.6859 16.3082 55.7006 16.3457C55.7154 16.3832 55.7224 16.4234 55.7213 16.4637C55.7215 16.5195 55.7056 16.574 55.6756 16.6208C55.063 17.6925 53.8469 18.2191 52.6582 18.2191C50.6192 18.2191 49.1562 16.3713 49.1562 14.4035C49.1562 12.4356 50.6101 10.5879 52.6582 10.5879C54.6881 10.5879 56.1693 12.4172 56.1785 14.385ZM55.5201 14.0986C55.3921 12.5835 54.24 11.1976 52.6491 11.1976C51.0581 11.1976 49.9335 12.5835 49.778 14.0986H55.5201Z" fill="#757786"/>
<path d="M63.6283 11.0218C63.6341 11.1038 63.6075 11.1848 63.5544 11.2471C63.5013 11.3094 63.426 11.348 63.3448 11.3543C61.5618 11.6223 60.7572 13.0912 60.7572 14.8004V17.7291C60.757 17.8071 60.7293 17.8826 60.6791 17.9419C60.6288 18.0011 60.5592 18.0403 60.4829 18.0524C60.4402 18.0581 60.3968 18.0545 60.3557 18.0417C60.3146 18.029 60.2766 18.0074 60.2445 17.9784C60.2124 17.9495 60.1868 17.9138 60.1696 17.874C60.1523 17.8342 60.1438 17.791 60.1446 17.7475V11.0679C60.1447 10.9899 60.1724 10.9144 60.2227 10.8552C60.273 10.7959 60.3426 10.7567 60.4189 10.7446C60.4615 10.7389 60.5049 10.7425 60.5461 10.7553C60.5872 10.7681 60.6251 10.7897 60.6573 10.8186C60.6894 10.8476 60.7149 10.8832 60.7322 10.923C60.7494 10.9629 60.758 11.006 60.7572 11.0495V12.4076C61.2601 11.5484 62.2567 10.7354 63.2991 10.7354C63.4545 10.7354 63.6283 10.8462 63.6283 11.0218Z" fill="#757786"/>
<path d="M73.5925 14.385C73.5911 14.4719 73.5557 14.5547 73.494 14.6153C73.4323 14.6759 73.3494 14.7094 73.2634 14.7084H67.2012C67.3567 16.2235 68.4813 17.6093 70.0723 17.6093C71.1604 17.6093 71.965 17.1936 72.5685 16.3159C72.5966 16.2698 72.6354 16.2314 72.6817 16.204C72.7279 16.1766 72.7801 16.1611 72.8336 16.1588C72.8736 16.1577 72.9133 16.1648 72.9504 16.1797C72.9875 16.1946 73.0213 16.217 73.0495 16.2456C73.0778 16.2741 73.0999 16.3082 73.1147 16.3457C73.1295 16.3832 73.1365 16.4234 73.1354 16.4637C73.1356 16.5195 73.1197 16.574 73.0896 16.6208C72.477 17.6925 71.2609 18.2191 70.0723 18.2191C68.0333 18.2191 66.5703 16.3713 66.5703 14.4035C66.5703 12.4356 68.0241 10.5879 70.0723 10.5879C72.1204 10.5879 73.5834 12.4172 73.5925 14.385ZM72.9433 14.0986C72.8153 12.5835 71.6633 11.1976 70.0723 11.1976C68.4813 11.1976 67.3567 12.5835 67.2012 14.0986H72.9433Z" fill="#757786"/>
<path d="M83.3937 11.0962V17.8035C83.3914 17.8836 83.3589 17.9598 83.3028 18.0165C83.2467 18.0732 83.1713 18.106 83.092 18.1084C83.0521 18.1095 83.0123 18.1024 82.9752 18.0875C82.9381 18.0726 82.9044 18.0502 82.8761 18.0216C82.8479 17.9931 82.8257 17.959 82.8109 17.9215C82.7962 17.884 82.7891 17.8438 82.7903 17.8035V16.5285C82.2874 17.5356 81.4005 18.2654 80.2667 18.2654C78.4654 18.2654 77.4688 16.6856 77.4688 15.0134V11.0869C77.4695 11.0063 77.5015 10.9292 77.5579 10.8721C77.6144 10.8151 77.6907 10.7828 77.7705 10.782C77.8498 10.7844 77.9252 10.8172 77.9813 10.8739C78.0374 10.9306 78.0699 11.0068 78.0722 11.0869V15.0134C78.0722 16.3345 78.8129 17.6464 80.2667 17.6464C82.3057 17.6464 82.7903 15.7155 82.7903 13.5814V11.0777C82.791 11.0283 82.8033 10.9797 82.8264 10.9361C82.8494 10.8925 82.8825 10.8551 82.9228 10.8271C82.9631 10.799 83.0094 10.7812 83.058 10.7749C83.1065 10.7687 83.1558 10.7743 83.2017 10.7913C83.2592 10.8183 83.3078 10.8613 83.3419 10.9154C83.3759 10.9694 83.3939 11.0321 83.3937 11.0962Z" fill="#757786"/>
<path d="M98.7506 13.831V17.7575C98.7483 17.8376 98.7157 17.9138 98.6596 17.9705C98.6035 18.0272 98.5281 18.06 98.4488 18.0623C98.4089 18.0635 98.3692 18.0564 98.332 18.0415C98.2949 18.0266 98.2612 18.0041 98.2329 17.9756C98.2047 17.9471 98.1825 17.913 98.1677 17.8755C98.153 17.838 98.146 17.7978 98.1471 17.7575V13.831C98.1471 12.5099 97.4065 11.2164 95.9527 11.2164C94.1239 11.2164 93.429 13.1935 93.429 14.7272V17.7575C93.4267 17.8376 93.3942 17.9138 93.3381 17.9705C93.282 18.0272 93.2066 18.06 93.1273 18.0623C93.0874 18.0635 93.0476 18.0564 93.0105 18.0415C92.9734 18.0266 92.9397 18.0041 92.9114 17.9756C92.8832 17.9471 92.861 17.913 92.8462 17.8755C92.8315 17.838 92.8244 17.7978 92.8256 17.7575V13.831C92.8256 12.5099 92.0849 11.2164 90.6311 11.2164C88.7841 11.2164 88.0252 12.6854 88.0892 14.644C88.0892 14.6902 88.1075 14.7734 88.0892 14.8011V17.7482C88.0891 17.8263 88.0614 17.9017 88.0111 17.961C87.9608 18.0203 87.8912 18.0595 87.8149 18.0716C87.7723 18.0773 87.7289 18.0737 87.6877 18.0609C87.6466 18.0481 87.6087 18.0265 87.5765 17.9976C87.5444 17.9686 87.5189 17.933 87.5016 17.8932C87.4844 17.8533 87.4758 17.8102 87.4766 17.7667V11.0686C87.4768 10.9906 87.5045 10.9151 87.5548 10.8558C87.605 10.7966 87.6746 10.7574 87.7509 10.7453C87.7936 10.7395 87.837 10.7432 87.8781 10.756C87.9192 10.7687 87.9572 10.7903 87.9893 10.8193C88.0214 10.8482 88.047 10.8838 88.0642 10.9237C88.0815 10.9635 88.09 11.0067 88.0892 11.0501V12.168C88.6104 11.2257 89.543 10.6067 90.6311 10.6067C91.8655 10.6067 92.8256 11.4012 93.2187 12.5561C93.7216 11.4105 94.7 10.6067 95.9527 10.6067C97.7356 10.6067 98.7506 12.168 98.7506 13.831Z" fill="#757786"/>
<path opacity="0.6" d="M7.58912 9.24854L0 12.7315L7.58912 17.2678L15.1874 12.7315L7.58912 9.24854Z" fill="#757786"/>
<path d="M0 12.731L7.58912 17.2672V0L0 12.731Z" fill="#757786"/>
<path d="M7.58594 0V17.2672L15.1842 12.731L7.58594 0Z" fill="#757786"/>
<path d="M0 14.1907L7.58912 25V18.7177L0 14.1907Z" fill="#757786"/>
<path d="M7.58594 18.7177V25L15.1842 14.1907L7.58594 18.7177Z" fill="#757786"/>
</svg>
