<svg width="75" height="16" viewBox="0 0 75 16" fill="none" xmlns="http://www.w3.org/2000/svg">
<path d="M15.4303 9.72138C14.3896 13.9183 10.1436 16.4766 5.94652 15.4359C1.74965 14.3953 -0.808738 10.1491 0.232023 5.95223C1.27278 1.75519 5.5188 -0.803379 9.71567 0.237383C9.72272 0.239144 9.72994 0.240906 9.73699 0.242844C13.9228 1.29329 16.4693 5.53262 15.4303 9.72138Z" fill="#757786"/>
<path d="M9.6083 6.6978C9.36361 7.67655 7.87117 7.17485 7.38673 7.05506L7.8148 5.34242C8.29185 5.45992 9.85299 5.68487 9.6009 6.6978H9.6083ZM9.34159 9.4653C9.07735 10.5318 7.28156 9.95467 6.69917 9.81004L7.17128 7.91878C7.75367 8.06552 9.61799 8.35178 9.34159 9.4653ZM11.2989 6.7126C11.4531 5.67025 10.6603 5.11006 9.58628 4.73818L9.9386 3.32643L9.07013 3.11116L8.72767 4.48627C8.50254 4.43008 8.27018 4.37617 8.04011 4.32473L8.38257 2.935L7.52378 2.71973L7.17146 4.13148L6.62342 4.00923L5.4368 3.7131L5.2092 4.63072C5.2092 4.63072 5.84532 4.77747 5.83316 4.78733C6.07609 4.81675 6.25331 5.03255 6.23446 5.27671L5.83316 6.88418C5.86329 6.89105 5.89288 6.90074 5.92124 6.9136L5.8307 6.88911L5.27033 9.14257C5.21783 9.30746 5.04167 9.39818 4.87661 9.34568H4.87643C4.87643 9.35784 4.25 9.19154 4.25 9.19154L3.82422 10.1703L4.94231 10.4469L5.55395 10.6059L5.19916 12.0323L6.05794 12.2476L6.41027 10.8358C6.64174 10.8994 6.86952 10.9581 7.09289 11.012L6.7455 12.4287L7.60429 12.6415L7.95908 11.2176C9.42703 11.4943 10.5256 11.3839 10.9905 10.0579C11.3648 8.99107 10.9709 8.37697 10.2002 7.97568C10.7629 7.84602 11.179 7.4863 11.2987 6.71313L11.2989 6.7126Z" fill="#272A33"/>
<path d="M20.3867 13.2119C20.844 13.2133 21.294 13.0969 21.6933 12.8742C22.1043 12.6551 22.4658 12.3533 22.7552 11.9885C23.0568 11.6027 23.2939 11.1706 23.4574 10.7088C23.6299 10.2318 23.7174 9.72851 23.7167 9.22134C23.7442 8.70678 23.6343 8.19415 23.3986 7.73613C23.1882 7.38134 22.7966 7.20042 22.229 7.20042C21.9817 7.20888 21.7358 7.24252 21.495 7.30066C21.196 7.36742 20.9194 7.51082 20.6924 7.71657L19.3956 13.1385L19.6037 13.1776C19.6655 13.1927 19.7288 13.2026 19.792 13.207C19.8732 13.217 19.955 13.2211 20.0367 13.2191L20.3865 13.2118L20.3867 13.2119ZM22.9631 4.73663C23.5294 4.72359 24.0918 4.83915 24.6072 5.07433C25.0546 5.28766 25.4478 5.59964 25.7572 5.98702C26.0739 6.38761 26.3068 6.84757 26.4423 7.33994C26.5906 7.88287 26.6637 8.44341 26.66 9.00625C26.6593 10.7573 25.9806 12.4398 24.7663 13.7015C24.1775 14.3054 23.4771 14.7887 22.7038 15.1254C21.8929 15.4823 21.0158 15.6643 20.1299 15.6588H19.5035C19.1629 15.6477 18.8229 15.6185 18.4856 15.5707C18.0736 15.511 17.6652 15.4294 17.2623 15.326C16.8399 15.2258 16.4298 15.0798 16.0391 14.8906L19.4767 0.489376L22.5473 0L21.3241 5.11115C21.5788 4.99594 21.8432 4.90345 22.1143 4.83475C22.3937 4.76675 22.6807 4.73293 22.9682 4.73451L22.9633 4.73698L22.9631 4.73663Z" fill="#757786"/>
<path d="M31.257 3.6868C30.8568 3.69068 30.4666 3.56243 30.1461 3.32232C29.8065 3.05368 29.6229 2.63353 29.6567 2.20176C29.6553 1.93241 29.7128 1.66588 29.8255 1.42119C29.9335 1.18284 30.0852 0.967046 30.2733 0.785072C30.4613 0.606444 30.679 0.462344 30.9168 0.35929C31.1642 0.253064 31.4307 0.198983 31.6997 0.200216C32.0971 0.198983 32.4836 0.327933 32.8007 0.56716C33.1396 0.836335 33.323 1.25613 33.2901 1.68772C33.2922 1.95778 33.2355 2.22501 33.1238 2.47058C33.0158 2.7077 32.8648 2.92244 32.6784 3.10424C32.491 3.28357 32.2733 3.42767 32.0349 3.53002C31.7876 3.63624 31.5211 3.68962 31.2521 3.68663H31.257V3.6868ZM29.8306 15.3797H26.8945L29.3754 4.95657H32.3286L29.8304 15.3797H29.8306Z" fill="#757786"/>
<path d="M34.9009 2.36032L37.9714 1.88574L37.2081 4.95641H40.4967L39.9043 7.3737H36.6428L35.7719 11.0095C35.6965 11.2878 35.6498 11.5732 35.6323 11.8612C35.6144 12.0941 35.6489 12.3281 35.7326 12.546C35.8145 12.7415 35.9662 12.8995 36.1584 12.9888C36.4349 13.1111 36.7369 13.1668 37.0392 13.1504C37.3489 13.1514 37.6579 13.121 37.9616 13.0598C38.2672 13.0001 38.5683 12.9184 38.8619 12.8151L39.0821 15.0758C38.6606 15.2273 38.2298 15.3526 37.7926 15.4502C37.2523 15.5648 36.7008 15.6182 36.1485 15.6092C35.2358 15.6092 34.5312 15.4722 34.0272 15.203C33.5558 14.9633 33.1781 14.5722 32.9556 14.0921C32.7384 13.5829 32.6436 13.0297 32.6792 12.4773C32.7121 11.8292 32.8046 11.1855 32.9556 10.5541L34.9008 2.35046V2.36032H34.9009Z" fill="#757786"/>
<path d="M40.3864 11.2182C40.3803 10.3536 40.5275 9.49424 40.8219 8.68108C41.098 7.91213 41.522 7.20485 42.0697 6.59903C42.6219 5.99814 43.2935 5.51986 44.0416 5.19432C44.8576 4.84199 45.7389 4.66601 46.6277 4.67834C47.1642 4.672 47.6998 4.72855 48.223 4.84693C48.6628 4.95121 49.0907 5.10042 49.5001 5.29226L48.48 7.58483C48.2158 7.47719 47.9416 7.38453 47.6579 7.29856C47.3194 7.20432 46.9691 7.16063 46.618 7.16891C45.7308 7.13685 44.8775 7.5119 44.3009 8.18677C43.7284 8.86024 43.4411 9.76553 43.4397 10.9026C43.4127 11.4794 43.5649 12.0502 43.8751 12.5373C44.1653 12.9532 44.7006 13.1609 45.4801 13.1609C45.8538 13.1612 46.2262 13.121 46.591 13.0411C46.9164 12.9717 47.2352 12.8727 47.5428 12.7449L47.7606 15.1037C47.3603 15.2552 46.952 15.3844 46.5373 15.4901C46.0107 15.6088 45.472 15.6648 44.9323 15.6567C44.2158 15.6775 43.5027 15.5568 42.833 15.3018C42.3006 15.0872 41.8213 14.7592 41.4286 14.3404C41.056 13.9346 40.7807 13.4491 40.6237 12.9211C40.4576 12.3655 40.3752 11.7882 40.379 11.2085L40.3864 11.2183V11.2182Z" fill="#757786"/>
<path d="M54.8723 7.17784C54.4583 7.17203 54.0537 7.30362 53.7223 7.55219C53.3864 7.8122 53.1045 8.13581 52.8929 8.50398C52.6602 8.89594 52.4855 9.31979 52.3743 9.76195C52.2667 10.1858 52.2107 10.6209 52.208 11.0583C52.1816 11.5923 52.2903 12.1239 52.5237 12.6047C52.7367 12.9741 53.1182 13.1601 53.6737 13.1601C54.0884 13.1672 54.4935 13.0345 54.8237 12.7833C55.1603 12.5233 55.4427 12.1997 55.6555 11.8318C55.8849 11.4394 56.0554 11.0157 56.1621 10.5739C56.2685 10.1492 56.3246 9.71298 56.3283 9.27469C56.3557 8.7411 56.2467 8.20891 56.0126 7.72835C55.7998 7.3614 55.4156 7.17538 54.8626 7.17538L54.8725 7.17784H54.8723ZM53.4043 15.6581C52.7809 15.6725 52.161 15.5644 51.5791 15.3399C51.0896 15.1469 50.6523 14.8421 50.3019 14.4493C49.9574 14.0536 49.6979 13.5915 49.5386 13.0914C49.3656 12.5307 49.2829 11.9458 49.294 11.3592C49.2959 10.5513 49.4254 9.74856 49.6783 8.98103C49.9237 8.20856 50.3069 7.48683 50.8084 6.85001C51.3122 6.21336 51.9388 5.68417 52.6507 5.29397C53.417 4.88193 54.2763 4.67371 55.1464 4.68956C55.7661 4.67829 56.3827 4.78645 56.9619 5.00771C57.452 5.19761 57.8917 5.49832 58.2463 5.88605C58.5888 6.28277 58.8477 6.74466 59.0073 7.2439C59.1815 7.80515 59.2642 8.39089 59.252 8.97856C59.2495 9.78573 59.1232 10.588 58.8777 11.3567C58.6365 12.1303 58.2604 12.8548 57.7668 13.4976C57.2704 14.1369 56.6462 14.6661 55.9342 15.0514C55.1561 15.4655 54.2857 15.6745 53.4043 15.6581Z" fill="#757786"/>
<path d="M63.8911 3.68636C63.4915 3.69059 63.1017 3.56235 62.7828 3.32189C62.443 3.05324 62.2595 2.63309 62.2935 2.20132C62.2921 1.93197 62.3495 1.66544 62.462 1.42075C62.567 1.18364 62.7145 0.968193 62.8975 0.784633C63.0867 0.606534 63.3052 0.462434 63.5435 0.358851C63.7901 0.252802 64.0558 0.19872 64.3242 0.199777C64.7245 0.196254 65.1154 0.325556 65.4351 0.566721C65.7741 0.835896 65.9573 1.25569 65.9245 1.68728C65.925 1.95769 65.8665 2.22493 65.7529 2.47014C65.6469 2.70743 65.4964 2.92253 65.3102 3.1038C65.1228 3.28313 64.9051 3.42723 64.6667 3.52958C64.4215 3.63475 64.1576 3.68812 63.8909 3.68619L63.8911 3.68636ZM62.4673 15.3793H59.5312L62.0074 4.95613H64.963L62.4673 15.3793Z" fill="#757786"/>
<path d="M67.0762 5.43089C67.2988 5.3673 67.546 5.28891 67.8102 5.20347C68.0745 5.11785 68.3827 5.03946 68.7226 4.95878C69.0955 4.87968 69.472 4.82014 69.8507 4.78015C70.3212 4.73047 70.7942 4.70669 71.2674 4.70916C72.8137 4.70916 73.8804 5.15837 74.4677 6.05732C74.8193 6.59567 74.9973 7.2524 75.0015 8.02769V8.08353C74.9988 8.5877 74.9236 9.14138 74.776 9.74438L73.4278 15.3717H70.4821L71.7909 9.86153C71.8692 9.51925 71.9329 9.18648 71.9794 8.86111C72.0303 8.57942 72.0303 8.29105 71.9794 8.00972C71.9308 7.77454 71.8008 7.56421 71.6125 7.41517C71.3514 7.24394 71.0407 7.16397 70.7292 7.18757C70.3371 7.18828 69.946 7.22844 69.5621 7.30754L67.639 15.3815H64.6758L67.0762 5.43089Z" fill="#757786"/>
</svg>
