<svg width="74" height="72" viewBox="0 0 74 72" fill="none" xmlns="http://www.w3.org/2000/svg">
<g filter="url(#filter0_d_1_898)">
<path d="M29.8783 38.4153C31.458 38.4153 32.6314 37.0577 32.6314 35.4781V31.42C32.6314 29.8404 31.4579 28.4828 29.8783 28.4828C24.4227 28.4828 20 30.4887 20 32.9632V33.9349C20 36.4092 24.4227 38.4153 29.8783 38.4153Z" fill="url(#paint0_linear_1_898)"/>
<path d="M29.8783 43.4173C30.4016 43.4173 30.9153 43.3987 31.4165 43.3632C32.1135 43.3137 32.6314 42.7184 32.6314 42.0197C32.6314 41.1789 31.8913 40.5331 31.0518 40.5786C30.667 40.5995 30.2755 40.6103 29.8783 40.6103C25.7494 40.6103 22.2124 39.4613 20.7362 37.8299C20.4865 37.5539 20 37.5931 20 37.9652V38.9369C20 41.4114 24.4227 43.4173 29.8783 43.4173Z" fill="url(#paint1_linear_1_898)"/>
<path d="M32.6314 45.6533C32.6314 45.5376 32.5297 45.4485 32.4148 45.4623C31.6053 45.5597 30.7555 45.6124 29.8783 45.6124C25.7493 45.6124 22.2123 44.4634 20.7362 42.8319C20.4865 42.5559 20 42.5951 20 42.9672V43.9389C20 46.4135 24.4227 48.4193 29.8783 48.4193C30.3914 48.4193 30.8953 48.4015 31.3873 48.3673C32.1896 48.3114 32.6314 47.4291 32.6314 46.6249V45.6533Z" fill="url(#paint2_linear_1_898)"/>
<path d="M44.1225 20.8947C38.6668 20.8947 34.2441 22.9005 34.2441 25.375V26.3467C34.2441 28.8211 38.6668 30.827 44.1225 30.827C49.5781 30.827 54.0008 28.8211 54.0008 26.3467V25.375C54.0008 22.9005 49.5781 20.8947 44.1225 20.8947Z" fill="url(#paint3_linear_1_898)"/>
<path d="M44.1225 33.0221C39.9935 33.0221 36.4565 31.8732 34.9803 30.2417C34.7307 29.9657 34.2441 30.0049 34.2441 30.3771V31.3487C34.2441 33.8232 38.6668 35.8291 44.1225 35.8291C49.5781 35.8291 54.0008 33.8232 54.0008 31.3487V30.3771C54.0008 30.0049 53.5143 29.9657 53.2646 30.2417C51.7885 31.8732 48.2515 33.0221 44.1225 33.0221Z" fill="url(#paint4_linear_1_898)"/>
<path d="M44.1225 38.0243C39.9935 38.0243 36.4565 36.8752 34.9804 35.2438C34.7307 34.9678 34.2441 35.007 34.2441 35.3792V36.3508C34.2441 38.8254 38.6668 40.8313 44.1225 40.8313C49.5781 40.8313 54.0008 38.8254 54.0008 36.3508V35.3792C54.0008 35.007 53.5143 34.9678 53.2646 35.2438C51.7885 36.8753 48.2515 38.0243 44.1225 38.0243Z" fill="url(#paint5_linear_1_898)"/>
<path d="M44.1225 43.2964C39.9935 43.2964 36.4564 42.1473 34.9803 40.5158C34.7307 40.2399 34.2441 40.2791 34.2441 40.6512V41.6229C34.2441 44.0974 38.6668 46.1033 44.1225 46.1033C49.5781 46.1033 54.0008 44.0974 54.0008 41.6229V40.6512C54.0008 40.279 53.5144 40.2399 53.2647 40.5158C51.7885 42.1473 48.2515 43.2964 44.1225 43.2964Z" fill="url(#paint6_linear_1_898)"/>
<path d="M44.1225 48.2984C39.9935 48.2984 36.4564 47.1494 34.9803 45.5179C34.7307 45.242 34.2441 45.2812 34.2441 45.6533V46.625C34.2441 49.0994 38.6668 51.1053 44.1225 51.1053C49.5781 51.1053 54.0008 49.0994 54.0008 46.625V45.6532C54.0008 45.281 53.5144 45.2419 53.2647 45.5179C51.7885 47.1493 48.2515 48.2984 44.1225 48.2984Z" fill="url(#paint7_linear_1_898)"/>
</g>
<defs>
<filter id="filter0_d_1_898" x="0" y="0.894653" width="74" height="70.2106" filterUnits="userSpaceOnUse" color-interpolation-filters="sRGB">
<feFlood flood-opacity="0" result="BackgroundImageFix"/>
<feColorMatrix in="SourceAlpha" type="matrix" values="0 0 0 0 0 0 0 0 0 0 0 0 0 0 0 0 0 0 127 0" result="hardAlpha"/>
<feOffset/>
<feGaussianBlur stdDeviation="10"/>
<feComposite in2="hardAlpha" operator="out"/>
<feColorMatrix type="matrix" values="0 0 0 0 0.454902 0 0 0 0 0.345098 0 0 0 0 0.862745 0 0 0 1 0"/>
<feBlend mode="normal" in2="BackgroundImageFix" result="effect1_dropShadow_1_898"/>
<feBlend mode="normal" in="SourceGraphic" in2="effect1_dropShadow_1_898" result="shape"/>
</filter>
<linearGradient id="paint0_linear_1_898" x1="32.6314" y1="33.4491" x2="20" y2="33.4491" gradientUnits="userSpaceOnUse">
<stop stop-color="#7458DC"/>
<stop offset="1" stop-color="#9787D2"/>
</linearGradient>
<linearGradient id="paint1_linear_1_898" x1="32.6314" y1="40.2324" x2="20" y2="40.2324" gradientUnits="userSpaceOnUse">
<stop stop-color="#7458DC"/>
<stop offset="1" stop-color="#9787D2"/>
</linearGradient>
<linearGradient id="paint2_linear_1_898" x1="33.0001" y1="45.2345" x2="20" y2="45.2345" gradientUnits="userSpaceOnUse">
<stop stop-color="#7458DC"/>
<stop offset="1" stop-color="#9787D2"/>
</linearGradient>
<linearGradient id="paint3_linear_1_898" x1="54.0008" y1="25.8608" x2="34.2441" y2="25.8608" gradientUnits="userSpaceOnUse">
<stop stop-color="#7458DC"/>
<stop offset="1" stop-color="#9787D2"/>
</linearGradient>
<linearGradient id="paint4_linear_1_898" x1="54.0008" y1="32.6442" x2="34.2441" y2="32.6442" gradientUnits="userSpaceOnUse">
<stop stop-color="#7458DC"/>
<stop offset="1" stop-color="#9787D2"/>
</linearGradient>
<linearGradient id="paint5_linear_1_898" x1="54.0008" y1="37.6464" x2="34.2441" y2="37.6464" gradientUnits="userSpaceOnUse">
<stop stop-color="#7458DC"/>
<stop offset="1" stop-color="#9787D2"/>
</linearGradient>
<linearGradient id="paint6_linear_1_898" x1="54.0008" y1="42.9185" x2="34.2441" y2="42.9185" gradientUnits="userSpaceOnUse">
<stop stop-color="#7458DC"/>
<stop offset="1" stop-color="#9787D2"/>
</linearGradient>
<linearGradient id="paint7_linear_1_898" x1="54.0008" y1="47.9205" x2="34.2441" y2="47.9205" gradientUnits="userSpaceOnUse">
<stop stop-color="#7458DC"/>
<stop offset="1" stop-color="#9787D2"/>
</linearGradient>
</defs>
</svg>
