<svg width="20" height="20" viewBox="0 0 20 20" fill="none" xmlns="http://www.w3.org/2000/svg">
<g clip-path="url(#clip0_340_382)">
<path d="M13.1004 10.0762C12.8197 10.0762 12.5913 10.3046 12.5913 10.5853V12.287C12.5913 12.5677 12.8197 12.7961 13.1004 12.7961H20.0001V10.0762H13.1004V10.0762ZM13.959 12.221C13.5255 12.221 13.1741 11.8696 13.1741 11.4361C13.1741 11.0026 13.5255 10.6511 13.959 10.6511C14.3925 10.6511 14.7439 11.0025 14.7439 11.4361C14.7439 11.8696 14.3925 12.221 13.959 12.221Z" fill="#757786"/>
<path d="M13.1003 8.88805H20V5.97461C20 5.03871 19.2386 4.27734 18.3027 4.27734H18.0651H5.22277H1.69727C0.761406 4.27734 0 5.03871 0 5.97461V18.0858C0 19.0217 0.761406 19.7831 1.69727 19.7831H18.3027C19.2386 19.7831 20 19.0217 20 18.0858V13.9843H13.1003C12.1644 13.9843 11.403 13.2229 11.403 12.287V10.5854C11.403 9.64945 12.1645 8.88805 13.1003 8.88805Z" fill="#757786"/>
<path d="M16.618 0.216797L8.55713 3.08906H17.6415L16.618 0.216797Z" fill="#757786"/>
</g>
<defs>
<clipPath id="clip0_340_382">
<rect width="20" height="20" fill="#757786"/>
</clipPath>
</defs>
</svg>
