<svg width="20" height="20" viewBox="0 0 20 20" fill="none" xmlns="http://www.w3.org/2000/svg">
<path d="M11.5992 14.8C15.1338 14.8 17.9992 11.9346 17.9992 8.4C17.9992 4.86538 15.1338 2 11.5992 2C8.0646 2 5.19922 4.86538 5.19922 8.4C5.19922 11.9346 8.0646 14.8 11.5992 14.8Z" stroke="#757786" stroke-width="1.5" stroke-linecap="round"/>
<path d="M2.88032 9.2002C2.32264 10.0854 2 11.1336 2 12.2571C2 15.4289 4.57133 18.0002 7.74324 18.0002C8.86669 18.0002 9.9148 17.6776 10.8 17.1201" stroke="#757786" stroke-width="1.5" stroke-linecap="round"/>
<path d="M10 8.3998H12.8M10 8.3998V6.5998C10 6.1284 10 5.8927 10.1464 5.74625C10.2929 5.5998 10.5286 5.5998 11 5.5998H11.6M10 8.3998V10.1998C10 10.6712 10 10.9069 10.1464 11.0534C10.2929 11.1998 10.5286 11.1998 11 11.1998H11.6M12.8 8.3998C13.4627 8.3998 14 7.773 14 6.9998C14 6.22661 13.4627 5.5998 12.8 5.5998H11.6M12.8 8.3998C13.4627 8.3998 14 9.02661 14 9.7998C14 10.573 13.4627 11.1998 12.8 11.1998H11.6M11.6 11.1998V11.9998M11.6 5.5998V4.7998" stroke="#757786" stroke-width="1.5" stroke-linecap="round"/>
</svg>
