<svg id="Group_61496" data-name="Group 61496" xmlns="http://www.w3.org/2000/svg" xmlns:xlink="http://www.w3.org/1999/xlink" width="32.425" height="32.425" viewBox="0 0 32.425 32.425">
  <defs>
    <clipPath id="clip-path">
      <rect id="Rectangle_59475" data-name="Rectangle 59475" width="32.425" height="32.425" fill="none"/>
    </clipPath>
  </defs>
  <g id="Group_61495" data-name="Group 61495" clip-path="url(#clip-path)">
    <path id="Path_135029" data-name="Path 135029" d="M0,16.1A16.212,16.212,0,1,1,16.1,32.425,16.212,16.212,0,0,1,0,16.1" transform="translate(0 0)" fill="#fbca0d"/>
    <path id="Path_135030" data-name="Path 135030" d="M9.751,23.415A13.759,13.759,0,1,1,23.415,37.269,13.759,13.759,0,0,1,9.751,23.415" transform="translate(-7.297 -7.297)" fill="#fca700"/>
    <path id="Path_135031" data-name="Path 135031" d="M9.751,23.415A13.759,13.759,0,1,1,23.415,37.269,13.759,13.759,0,0,1,9.751,23.415Z" transform="translate(-7.297 -7.297)" fill="none" stroke="#fca700" stroke-miterlimit="10" stroke-width="0.216"/>
    <path id="Path_135032" data-name="Path 135032" d="M53.382,42.775a1.6,1.6,0,0,0-.4-1.142,3.612,3.612,0,0,0-1.352-.783,16.015,16.015,0,0,1-1.645-.713,5.246,5.246,0,0,1-1.186-.814,3.269,3.269,0,0,1-.77-1.081,3.622,3.622,0,0,1-.276-1.479A3.281,3.281,0,0,1,48.7,34.34a3.987,3.987,0,0,1,2.511-1.1V31.365h1.4v1.9a3.656,3.656,0,0,1,2.424,1.29,4.254,4.254,0,0,1,.875,2.778H53.382a2.414,2.414,0,0,0-.433-1.57,1.431,1.431,0,0,0-1.159-.521,1.474,1.474,0,0,0-1.111.407,1.548,1.548,0,0,0-.394,1.124,1.479,1.479,0,0,0,.385,1.067,4.235,4.235,0,0,0,1.431.822,15.943,15.943,0,0,1,1.719.792,4.978,4.978,0,0,1,1.137.84,3.26,3.26,0,0,1,.709,1.068,3.677,3.677,0,0,1,.245,1.4,3.267,3.267,0,0,1-.928,2.415,4.07,4.07,0,0,1-2.555,1.094v1.741H51.036V46.275A4.206,4.206,0,0,1,48.259,45a4.1,4.1,0,0,1-.985-2.874H49.8a2.326,2.326,0,0,0,.494,1.6,1.8,1.8,0,0,0,1.422.556,1.737,1.737,0,0,0,1.216-.407,1.412,1.412,0,0,0,.446-1.1" transform="translate(-35.38 -23.474)" fill="#ffd915"/>
  </g>
</svg>
