<svg width="20" height="20" viewBox="0 0 20 20" fill="none" xmlns="http://www.w3.org/2000/svg">
<path d="M6.162 12V7.38L6.463 7.709H5.056V7.1H6.855V12H6.162ZM9.83782 12.056C9.44115 12.056 9.09815 11.9977 8.80882 11.881C8.51949 11.7643 8.29549 11.5987 8.13682 11.384C7.97815 11.1647 7.89882 10.908 7.89882 10.614C7.89882 10.3247 7.97349 10.0797 8.12282 9.879C8.27682 9.67367 8.49849 9.51967 8.78782 9.417C9.07715 9.30967 9.42715 9.256 9.83782 9.256C10.2485 9.256 10.5985 9.30967 10.8878 9.417C11.1818 9.51967 11.4058 9.67367 11.5598 9.879C11.7138 10.0843 11.7908 10.3293 11.7908 10.614C11.7908 10.908 11.7115 11.1647 11.5528 11.384C11.3942 11.5987 11.1678 11.7643 10.8738 11.881C10.5798 11.9977 10.2345 12.056 9.83782 12.056ZM9.83782 11.489C10.2298 11.489 10.5355 11.4097 10.7548 11.251C10.9788 11.0877 11.0908 10.8683 11.0908 10.593C11.0908 10.3223 10.9788 10.11 10.7548 9.956C10.5355 9.79733 10.2298 9.718 9.83782 9.718C9.45049 9.718 9.14715 9.79733 8.92782 9.956C8.70849 10.11 8.59882 10.3223 8.59882 10.593C8.59882 10.8683 8.70849 11.0877 8.92782 11.251C9.14715 11.4097 9.45049 11.489 9.83782 11.489ZM9.83782 9.634C9.46449 9.634 9.14715 9.585 8.88582 9.487C8.62449 9.38433 8.42382 9.23967 8.28382 9.053C8.14382 8.86167 8.07382 8.63533 8.07382 8.374C8.07382 8.09867 8.14615 7.863 8.29082 7.667C8.44015 7.46633 8.64782 7.31233 8.91382 7.205C9.17982 7.09767 9.48782 7.044 9.83782 7.044C10.1925 7.044 10.5028 7.09767 10.7688 7.205C11.0348 7.31233 11.2425 7.46633 11.3918 7.667C11.5412 7.863 11.6158 8.09867 11.6158 8.374C11.6158 8.63533 11.5458 8.86167 11.4058 9.053C11.2658 9.23967 11.0628 9.38433 10.7968 9.487C10.5308 9.585 10.2112 9.634 9.83782 9.634ZM9.83782 9.186C10.1785 9.186 10.4445 9.116 10.6358 8.976C10.8318 8.836 10.9298 8.64467 10.9298 8.402C10.9298 8.15467 10.8295 7.961 10.6288 7.821C10.4282 7.681 10.1645 7.611 9.83782 7.611C9.51115 7.611 9.24982 7.681 9.05382 7.821C8.86249 7.961 8.76682 8.15467 8.76682 8.402C8.76682 8.64467 8.86015 8.836 9.04682 8.976C9.23815 9.116 9.50182 9.186 9.83782 9.186ZM13.8387 11.083V8.017H14.4267V11.083H13.8387ZM12.5647 9.83V9.277H15.7007V9.83H12.5647Z" fill="white"/>
<circle cx="10" cy="10" r="9.5" stroke="white"/>
</svg>
