<svg width="18" height="18" viewBox="0 0 18 18" fill="none" xmlns="http://www.w3.org/2000/svg">
<path d="M9 0C4.02823 0 0 4.02823 0 9C0 13.9718 4.02823 18 9 18C13.9718 18 18 13.9718 18 9C18 4.02823 13.9718 0 9 0ZM9 16.2581C4.99718 16.2581 1.74194 13.0028 1.74194 9C1.74194 4.99718 4.99718 1.74194 9 1.74194C13.0028 1.74194 16.2581 4.99718 16.2581 9C16.2581 13.0028 13.0028 16.2581 9 16.2581ZM6.09677 8.41935C6.73911 8.41935 7.25806 7.9004 7.25806 7.25806C7.25806 6.61573 6.73911 6.09677 6.09677 6.09677C5.45444 6.09677 4.93548 6.61573 4.93548 7.25806C4.93548 7.9004 5.45444 8.41935 6.09677 8.41935ZM11.9032 8.41935C12.5456 8.41935 13.0645 7.9004 13.0645 7.25806C13.0645 6.61573 12.5456 6.09677 11.9032 6.09677C11.2609 6.09677 10.7419 6.61573 10.7419 7.25806C10.7419 7.9004 11.2609 8.41935 11.9032 8.41935ZM12.0484 11.054C11.2935 11.9613 10.1794 12.4839 9 12.4839C7.82056 12.4839 6.70645 11.9649 5.95161 11.054C5.64315 10.6839 5.09153 10.6367 4.725 10.9415C4.35484 11.25 4.30766 11.798 4.6125 12.1681C5.70121 13.4746 7.30161 14.2222 9 14.2222C10.6984 14.2222 12.2988 13.4746 13.3875 12.1681C13.696 11.798 13.6452 11.25 13.275 10.9415C12.9085 10.6367 12.3569 10.6839 12.0484 11.054Z" fill="#757786"/>
</svg>
