<svg width="21" height="18" viewBox="0 0 21 18" fill="none" xmlns="http://www.w3.org/2000/svg">
<path d="M0.649415 8.05377C2.73234 6.91013 5.0682 5.94473 7.24039 4.97932C10.9897 3.40497 14.7389 1.84547 18.5477 0.404788C19.2916 0.152298 20.6158 -0.0853406 20.7497 1.01374C20.6753 2.55838 20.3926 4.10303 20.1843 5.63283C19.6784 9.01917 19.0833 12.3907 18.5031 15.7622C18.3097 16.8909 16.8962 17.4702 15.9887 16.7424C13.8165 15.2869 11.6443 13.8313 9.50185 12.3461C8.80259 11.6332 9.45722 10.6084 10.0821 10.1034C11.8675 8.35081 13.757 6.85072 15.4531 5.00903C15.9143 3.90995 14.5604 4.8308 14.114 5.11299C11.674 6.79131 9.29356 8.5736 6.70478 10.0588C5.39551 10.7866 3.8482 10.1628 2.53893 9.76179C1.36356 9.28651 -0.362293 8.79638 0.649415 8.05377Z" fill="#757786"/>
</svg>
