<svg width="20" height="16" viewBox="0 0 20 16" fill="none" xmlns="http://www.w3.org/2000/svg">
<path d="M19.0657 1.93941C18.4057 2.23591 17.6796 2.43357 16.9206 2.53241C17.7126 2.07119 18.3066 1.34641 18.5707 0.456915C17.8446 0.88519 17.0526 1.21463 16.1946 1.37936C15.5016 0.654581 14.5445 0.193359 13.4555 0.193359C11.0464 0.193359 9.26431 2.46651 9.79233 4.80556C6.65722 4.64084 3.91811 3.15835 2.03705 0.885191C1.04701 2.56535 1.54203 4.77262 3.19209 5.89272C2.56506 5.85978 2.00405 5.69505 1.47603 5.4315C1.44303 7.17755 2.69708 8.79182 4.47914 9.1542C3.95112 9.28598 3.3571 9.31892 2.79608 9.22009C3.2581 10.7026 4.64415 11.7897 6.29421 11.8227C4.71015 13.0746 2.73007 13.6017 0.75 13.3711C2.40006 14.4253 4.38013 15.0512 6.49221 15.0512C13.4555 15.0512 17.4156 9.18715 17.1516 3.91606C17.9106 3.35601 18.5377 2.69713 19.0657 1.93941Z" fill="#757786"/>
</svg>
