<svg width="19" height="19" viewBox="0 0 19 19" fill="none" xmlns="http://www.w3.org/2000/svg">
<path d="M13.5562 2.43576C16.0313 2.53459 17.1864 3.72059 17.3184 6.19141C17.3514 7.14679 17.3844 7.44329 17.3844 9.88117C17.3844 12.319 17.3844 12.6155 17.3184 13.5709C17.2194 16.0417 16.0643 17.1948 13.5562 17.3266C12.5992 17.3595 12.3022 17.3925 9.86008 17.3925C7.41799 17.3925 7.12099 17.3925 6.16395 17.3266C3.68886 17.2277 2.53381 16.0417 2.4018 13.5709C2.3688 12.6155 2.33581 12.319 2.33581 9.88117C2.33581 7.44329 2.3358 7.14679 2.4018 6.19141C2.50081 3.72059 3.65586 2.56753 6.16395 2.43576C7.12099 2.40281 7.41799 2.36987 9.86008 2.36987C12.3022 2.36987 12.5992 2.36987 13.5562 2.43576ZM9.86008 0.722656C7.38499 0.722656 7.05498 0.722655 6.09794 0.788544C2.76482 0.953265 0.916751 2.7652 0.784746 6.09258C0.751745 7.0809 0.71875 7.3774 0.71875 9.84822C0.71875 12.319 0.718744 12.6485 0.784746 13.6039C0.949752 16.9312 2.76482 18.7761 6.09794 18.9079C7.08798 18.9408 7.38499 18.9738 9.86008 18.9738C12.3352 18.9738 12.6652 18.9738 13.6222 18.9079C16.9553 18.7432 18.8034 16.9312 18.9354 13.6039C18.9684 12.6155 19.0014 12.319 19.0014 9.84822C19.0014 7.3774 19.0014 7.04796 18.9354 6.09258C18.7704 2.7652 16.9553 0.920321 13.6222 0.788544C12.6652 0.722655 12.3352 0.722656 9.86008 0.722656ZM9.86008 5.17013C7.25298 5.17013 5.17391 7.27857 5.17391 9.84822C5.17391 12.4508 7.28599 14.5263 9.86008 14.5263C12.4672 14.5263 14.5463 12.4179 14.5463 9.84822C14.5463 7.27857 12.4342 5.17013 9.86008 5.17013ZM9.86008 12.912C8.17702 12.912 6.82397 11.5613 6.82397 9.88117C6.82397 8.20101 8.17702 6.85029 9.86008 6.85029C11.5431 6.85029 12.8962 8.20101 12.8962 9.88117C12.8962 11.5284 11.5431 12.912 9.86008 12.912ZM14.7443 3.88531C14.1502 3.88531 13.6552 4.37947 13.6552 4.97247C13.6552 5.56546 14.1502 6.05963 14.7443 6.05963C15.3383 6.05963 15.8333 5.56546 15.8333 4.97247C15.8333 4.37947 15.3383 3.88531 14.7443 3.88531Z" fill="#757786"/>
</svg>
