<svg width="22" height="17" viewBox="0 0 22 17" fill="none" xmlns="http://www.w3.org/2000/svg">
<path d="M18.6244 1.5693C17.2219 0.937893 15.7185 0.471199 14.1464 0.205825C14.1324 0.203142 14.1179 0.204871 14.105 0.210773C14.092 0.216675 14.0812 0.226458 14.074 0.238768C13.8815 0.576434 13.667 1.01659 13.5167 1.36432C11.8494 1.11564 10.1543 1.11564 8.48694 1.36432C8.3195 0.978944 8.13068 0.603177 7.92136 0.238768C7.91426 0.226307 7.90353 0.216302 7.89059 0.210089C7.87765 0.203876 7.86312 0.20175 7.84894 0.203994C6.27777 0.469369 4.77444 0.936063 3.37102 1.56839C3.35895 1.57344 3.34871 1.58206 3.34169 1.59309C0.489024 5.77961 -0.292893 9.86272 0.0911906 13.8946C0.0922593 13.9045 0.0953298 13.914 0.100215 13.9227C0.1051 13.9313 0.111698 13.9389 0.119607 13.9449C1.78463 15.155 3.64175 16.0769 5.61319 16.6719C5.62693 16.6761 5.64163 16.6761 5.65537 16.6718C5.66911 16.6676 5.68124 16.6593 5.69019 16.6481C6.11442 16.0817 6.49035 15.4808 6.81402 14.8518C6.81852 14.8432 6.82111 14.8337 6.82162 14.824C6.82213 14.8143 6.82055 14.8046 6.81698 14.7956C6.81342 14.7866 6.80795 14.7784 6.80096 14.7717C6.79397 14.765 6.7856 14.7598 6.77644 14.7566C6.18428 14.534 5.61052 14.2653 5.06044 13.9532C5.05056 13.9475 5.04223 13.9395 5.0362 13.9299C5.03017 13.9202 5.02664 13.9093 5.02591 13.8979C5.02519 13.8866 5.02729 13.8753 5.03204 13.8649C5.03678 13.8546 5.04402 13.8456 5.05311 13.8388C5.16861 13.7537 5.28411 13.6649 5.39411 13.5761C5.40401 13.5682 5.41594 13.5631 5.42856 13.5615C5.44118 13.5598 5.45401 13.5618 5.46561 13.567C9.06536 15.1812 12.9639 15.1812 16.5215 13.567C16.5332 13.5614 16.5461 13.5593 16.5589 13.5607C16.5717 13.5622 16.5839 13.5672 16.5939 13.5752C16.7039 13.6649 16.8185 13.7537 16.9349 13.8388C16.9441 13.8455 16.9515 13.8543 16.9564 13.8646C16.9613 13.8748 16.9635 13.8861 16.963 13.8974C16.9625 13.9088 16.9591 13.9198 16.9532 13.9295C16.9474 13.9392 16.9392 13.9474 16.9294 13.9532C16.3813 14.2679 15.8111 14.5342 15.2125 14.7557C15.2033 14.759 15.195 14.7643 15.188 14.7711C15.181 14.7779 15.1755 14.7861 15.1719 14.7952C15.1684 14.8043 15.1668 14.8141 15.1673 14.8238C15.1678 14.8336 15.1704 14.8431 15.1749 14.8518C15.5049 15.4804 15.8826 16.0789 16.2979 16.6472C16.3065 16.6588 16.3185 16.6675 16.3323 16.6721C16.3461 16.6767 16.3609 16.6769 16.3749 16.6728C18.3497 16.0795 20.2098 15.1572 21.8767 13.9449C21.8848 13.9392 21.8916 13.9319 21.8967 13.9234C21.9018 13.9149 21.9049 13.9053 21.906 13.8955C22.3644 9.23406 21.1379 5.18389 18.6528 1.59492C18.6467 1.58326 18.6366 1.57417 18.6244 1.5693ZM7.35211 11.4394C6.26861 11.4394 5.37486 10.4612 5.37486 9.26151C5.37486 8.06092 6.25119 7.08361 7.35211 7.08361C8.46127 7.08361 9.34677 8.06915 9.32936 9.26151C9.32936 10.4621 8.45302 11.4394 7.35211 11.4394ZM14.6625 11.4394C13.5781 11.4394 12.6853 10.4612 12.6853 9.26151C12.6853 8.06092 13.5607 7.08361 14.6625 7.08361C15.7717 7.08361 16.6572 8.06915 16.6398 9.26151C16.6398 10.4621 15.7726 11.4394 14.6625 11.4394Z" fill="#757786"/>
</svg>
