<svg width="18" height="23" viewBox="0 0 18 23" fill="none" xmlns="http://www.w3.org/2000/svg">
<path d="M17.9987 9.46299C16.2298 9.46751 14.5043 8.87857 13.066 7.77938V15.4455C13.0655 16.8654 12.659 18.2512 11.9008 19.4178C11.1427 20.5843 10.069 21.4759 8.82334 21.9734C7.57771 22.4709 6.2195 22.5506 4.93031 22.2017C3.64113 21.8529 2.48243 21.0922 1.60915 20.0213C0.735869 18.9504 0.189629 17.6205 0.043471 16.2092C-0.102687 14.798 0.158204 13.3727 0.791259 12.124C1.42431 10.8753 2.39936 9.86276 3.58601 9.22166C4.77267 8.58056 6.11437 8.34151 7.43172 8.53647V12.3923C6.8289 12.1898 6.18158 12.1959 5.5822 12.4097C4.98282 12.6235 4.46203 13.0339 4.0942 13.5825C3.72638 14.1311 3.53033 14.7898 3.53405 15.4644C3.53778 16.1391 3.74108 16.7952 4.11493 17.3392C4.48878 17.8831 5.01406 18.287 5.61576 18.4932C6.21746 18.6994 6.86481 18.6974 7.46535 18.4874C8.0659 18.2774 8.58893 17.8701 8.95977 17.3239C9.3306 16.7776 9.53026 16.1202 9.53025 15.4455V0.458984H13.066C13.0635 0.777751 13.0885 1.09608 13.1407 1.40996C13.2636 2.11063 13.519 2.77718 13.8915 3.36884C14.2639 3.9605 14.7455 4.46482 15.3067 4.85096C16.1052 5.41464 17.0414 5.71508 17.9987 5.71486V9.46299Z" fill="#757786"/>
</svg>
