<svg width="17" height="17" viewBox="0 0 17 17" fill="none" xmlns="http://www.w3.org/2000/svg">
<path d="M16.6434 10.076C15.5749 14.3623 11.2336 16.9708 6.94685 15.9019C2.6619 14.8333 0.0533801 10.4918 1.12243 6.20591C2.19054 1.9192 6.5318 -0.689516 10.8172 0.379063C15.1037 1.44764 17.712 5.78965 16.6433 10.0761L16.6434 10.076H16.6434Z" fill="#FFB41A"/>
<path d="M12.4084 7.00033C12.5677 5.93559 11.7571 5.36325 10.6486 4.98144L11.0082 3.53915L10.1302 3.32038L9.78016 4.72469C9.54935 4.66713 9.31232 4.61289 9.07673 4.55911L9.42933 3.14553L8.55191 2.92676L8.19211 4.36858C8.00111 4.32509 7.81351 4.28211 7.63151 4.23683L7.63252 4.23229L6.42179 3.92995L6.18824 4.86767C6.18824 4.86767 6.83961 5.01699 6.82589 5.02618C7.18142 5.11491 7.24571 5.35026 7.23503 5.5368L6.82542 7.17991C6.8499 7.18613 6.88165 7.19513 6.9167 7.20921C6.8874 7.20193 6.85624 7.19399 6.82389 7.18625L6.24975 9.48801C6.2063 9.59603 6.09602 9.75813 5.84745 9.69657C5.85625 9.70932 5.20933 9.53733 5.20933 9.53733L4.77344 10.5423L5.91597 10.8271C6.12852 10.8804 6.33681 10.9362 6.54193 10.9887L6.17862 12.4475L7.05557 12.6663L7.41536 11.2229C7.65493 11.2879 7.88743 11.3479 8.11503 11.4045L7.75645 12.841L8.63446 13.0598L8.99773 11.6037C10.4949 11.887 11.6206 11.7728 12.0944 10.4187C12.4762 9.32841 12.0754 8.69956 11.2878 8.28948C11.8614 8.15718 12.2935 7.77987 12.4087 7.00045L12.4085 7.00025L12.4084 7.00033ZM10.4025 9.81319C10.1312 10.9034 8.29552 10.3141 7.70037 10.1663L8.18249 8.23359C8.7776 8.38216 10.6861 8.67617 10.4025 9.81319H10.4025ZM10.674 6.98453C10.4265 7.97622 8.89867 7.4724 8.40306 7.34886L8.84017 5.59601C9.33578 5.71956 10.9318 5.95013 10.6741 6.98453H10.674Z" fill="white"/>
</svg>
