<svg width="17" height="17" viewBox="0 0 17 17" fill="none" xmlns="http://www.w3.org/2000/svg">
<g clip-path="url(#clip0_862_39945)">
<path d="M8.63023 15.2741C12.5703 15.2741 15.7644 12.0801 15.7644 8.14C15.7644 4.19992 12.5703 1.00586 8.63023 1.00586C4.69016 1.00586 1.49609 4.19992 1.49609 8.14C1.49609 12.0801 4.69016 15.2741 8.63023 15.2741Z" fill="white"/>
<path d="M8.63282 0.139648C7.05057 0.139648 5.50385 0.60884 4.18825 1.48789C2.87266 2.36694 1.84728 3.61637 1.24178 5.07818C0.636279 6.53999 0.477852 8.14852 0.786534 9.70037C1.09522 11.2522 1.85714 12.6777 2.97596 13.7965C4.09478 14.9153 5.52025 15.6772 7.07209 15.9859C8.62394 16.2946 10.2325 16.1362 11.6943 15.5307C13.1561 14.9252 14.4055 13.8998 15.2846 12.5842C16.1636 11.2686 16.6328 9.7219 16.6328 8.13965C16.6359 7.09212 16.4326 6.05426 16.0345 5.0853C15.6365 4.11635 15.0515 3.23528 14.3129 2.49241C13.5744 1.74954 12.6967 1.15942 11.7301 0.755729C10.7635 0.352041 9.72683 0.142697 8.67931 0.139648H8.63282ZM8.76841 8.41083L7.93548 11.2196H12.3907C12.4202 11.2185 12.4496 11.2233 12.4773 11.2337C12.5049 11.244 12.5303 11.2597 12.5519 11.2798C12.5735 11.3 12.5909 11.3242 12.6031 11.3511C12.6153 11.378 12.6221 11.407 12.6231 11.4365V11.5101L12.2357 12.8467C12.2186 12.9099 12.1806 12.9654 12.1278 13.0041C12.075 13.0428 12.0106 13.0625 11.9452 13.0597H5.12676L6.26962 9.16628L4.99117 9.55369L5.28173 8.66265L6.56018 8.27524L8.16793 2.81277C8.18562 2.74992 8.22384 2.6948 8.2765 2.65618C8.32916 2.61757 8.39322 2.59768 8.45848 2.5997H10.1825C10.212 2.59866 10.2414 2.60345 10.2691 2.6138C10.2967 2.62414 10.3221 2.63984 10.3436 2.65999C10.3652 2.68014 10.3826 2.70435 10.3949 2.73123C10.4071 2.75811 10.4139 2.78713 10.4149 2.81665V2.89025L9.05897 7.50042L10.3374 7.11301L10.0662 8.0428L8.76841 8.41083Z" fill="#345D9D"/>
</g>
<defs>
<clipPath id="clip0_862_39945">
<rect width="16" height="16" fill="white" transform="translate(0.632812 0.139648)"/>
</clipPath>
</defs>
</svg>
