<svg width="15" height="15" viewBox="0 0 15 15" fill="none" xmlns="http://www.w3.org/2000/svg">
<path d="M13.8555 4.35782C13.1992 3.75188 12.2914 2.82657 11.552 2.17032L11.5083 2.1397C11.4355 2.08124 11.3534 2.0354 11.2655 2.00407C9.48266 1.67157 1.18547 0.120635 1.02359 0.140322C0.978236 0.146675 0.93488 0.16312 0.896719 0.188447L0.855156 0.22126C0.803978 0.273235 0.765108 0.336026 0.741406 0.40501L0.730469 0.433447V0.58876V0.612822C1.66453 3.21376 5.35266 11.7341 6.07891 13.7334C6.12266 13.8691 6.20578 14.1272 6.36109 14.1403H6.39609C6.47922 14.1403 6.83359 13.6722 6.83359 13.6722C6.83359 13.6722 13.1686 5.9897 13.8095 5.17157C13.8925 5.0708 13.9657 4.9624 14.0283 4.84782C14.0442 4.75818 14.0367 4.66593 14.0064 4.58005C13.9761 4.49418 13.9241 4.41762 13.8555 4.35782ZM8.45891 5.25251L11.1627 3.01032L12.7486 4.47157L8.45891 5.25251ZM7.40891 5.10595L2.75391 1.29095L10.2855 2.68001L7.40891 5.10595ZM7.82891 6.10563L12.5933 5.33782L7.14641 11.9003L7.82891 6.10563ZM2.12172 1.67157L7.01953 5.82782L6.31078 11.9047L2.12172 1.67157Z" fill="#FF060A"/>
</svg>
