<svg width="14" height="14" viewBox="0 0 14 14" fill="none" xmlns="http://www.w3.org/2000/svg">
<g clip-path="url(#clip0_862_86261)">
<path d="M3.28125 4.10156C3.9077 4.10156 4.45949 3.93056 4.91515 3.71234C4.45255 4.58275 4.17537 5.5903 4.12036 6.62936C2.27071 6.82793 0.820312 8.37968 0.820312 10.2812C0.820312 12.3168 2.47621 14 4.51172 14C5.13881 14 5.73952 13.8233 6.27827 13.5278C5.44247 12.7084 4.92188 11.5414 4.92188 10.2812C4.92188 9.02109 5.44247 7.88141 6.27827 7.06206C5.86342 6.83444 5.41139 6.67967 4.93939 6.61954C5.11777 3.72046 7.30719 1.32916 10.1301 0.892838C9.41116 1.90221 9.02344 3.10661 9.02344 4.37115V6.63129C7.18275 6.83839 5.74219 8.38609 5.74219 10.2812C5.74219 12.3168 7.39809 14 9.43359 14C11.4691 14 13.125 12.3168 13.125 10.2812C13.125 8.38609 11.6844 6.83839 9.84375 6.63129V4.37115C9.84375 2.98442 10.3837 1.68068 11.3642 0.70015L12.0644 0H11.0742C9.14777 0 7.40182 0.785599 6.13857 2.05281C5.80692 1.73441 4.7435 0.820312 3.28125 0.820312C1.5509 0.820312 0.366898 2.10963 0.309647 2.16454L0 2.46094L0.309647 2.75734C0.366898 2.81224 1.5509 4.10156 3.28125 4.10156ZM9.43359 9.05078C8.75513 9.05078 8.20312 9.60278 8.20312 10.2812H7.38281C7.38281 9.15054 8.30289 8.23047 9.43359 8.23047V9.05078ZM4.51172 9.05078C3.83325 9.05078 3.28125 9.60278 3.28125 10.2812H2.46094C2.46094 9.15054 3.38101 8.23047 4.51172 8.23047V9.05078Z" fill="#A0A0B0"/>
</g>
<defs>
<clipPath id="clip0_862_86261">
<rect width="14" height="14" fill="white"/>
</clipPath>
</defs>
</svg>
