<svg width="19" height="16" viewBox="0 0 19 16" fill="none" xmlns="http://www.w3.org/2000/svg">
<path fill-rule="evenodd" clip-rule="evenodd" d="M10.7457 0.0656654C10.6395 0.107921 10.4843 0.195427 10.4009 0.2601C10.3175 0.324773 10.1946 0.463643 10.1277 0.568741C10.0608 0.673798 9.98715 0.809424 9.964 0.870104C9.94089 0.930826 9.21532 3.41065 8.35163 6.38081C6.915 11.3212 6.78001 11.8095 6.76678 12.1139C6.75519 12.3803 6.76815 12.4939 6.83181 12.6838C6.87554 12.8142 6.98404 13.0114 7.07288 13.122C7.16177 13.2326 7.31552 13.3718 7.41462 13.4314C7.51368 13.4909 9.09964 14.0891 10.9389 14.7607L14.2831 15.9818L14.6361 15.9812C14.9503 15.9806 15.011 15.9677 15.1881 15.8639C15.2976 15.7997 15.4583 15.6652 15.5453 15.565C15.6323 15.4648 15.7335 15.3122 15.7701 15.2257C15.8067 15.1393 16.5479 12.6258 17.417 9.64016L18.9974 4.21176L18.9998 3.83682C19.0019 3.49412 18.9916 3.43797 18.8798 3.18352C18.8074 3.01866 18.6958 2.84606 18.6062 2.76022C18.523 2.68049 18.3848 2.57838 18.2992 2.53334C18.2135 2.48826 16.6395 1.90346 14.8013 1.23373C11.9521 0.195677 11.4208 0.0140937 11.199 0.00244838C11.0148 -0.00720056 10.8826 0.0112238 10.7457 0.0656654ZM5.69973 0.381253C5.61798 0.410199 5.49859 0.464475 5.43442 0.501948C5.37025 0.539379 5.24183 0.654999 5.14901 0.758892C5.05619 0.862784 4.93309 1.05522 4.8755 1.18652L4.77079 1.42521V7.41421V13.4032L4.8687 13.6369C4.92257 13.7655 5.03115 13.9506 5.11004 14.0484C5.18888 14.1461 5.31202 14.2671 5.38366 14.3173C5.4553 14.3674 5.59635 14.4397 5.69705 14.4777C5.83888 14.5313 6.01902 14.5469 6.49594 14.5466L7.11171 14.5461L6.90828 14.4156C6.79636 14.3438 6.57899 14.1424 6.42523 13.9681C6.2293 13.746 6.104 13.558 6.00661 13.34C5.93014 13.1689 5.84234 12.9173 5.81153 12.781C5.78069 12.6447 5.75546 12.3614 5.75546 12.1514C5.75546 11.8692 5.77913 11.679 5.84624 11.4219C5.89618 11.2307 6.63067 8.68791 7.47846 5.77139C8.32625 2.85488 9.03127 0.435902 9.04517 0.395851C9.06899 0.327185 8.97914 0.323234 7.4594 0.325854C6.26943 0.327892 5.80953 0.342366 5.69973 0.381253ZM2.20353 1.96293C1.11953 2.36411 0.666174 2.55098 0.538872 2.649C0.442634 2.72312 0.307827 2.87022 0.239308 2.9759C0.170789 3.08158 0.0856986 3.27535 0.0502131 3.40653C0.00395189 3.57755 -0.00868169 3.72507 0.00551251 3.92836C0.0210444 4.15129 0.362039 5.37025 1.60318 9.63983C2.47103 12.6253 3.2176 15.148 3.26219 15.2459C3.30681 15.3437 3.40892 15.4972 3.48911 15.587C3.56933 15.6768 3.72331 15.8007 3.83129 15.8624C3.97851 15.9466 4.10009 15.9795 4.31732 15.9941C4.58214 16.0118 4.64984 15.9981 5.1074 15.8339C5.38262 15.7352 5.59505 15.6421 5.57945 15.6272C5.56384 15.6124 5.42186 15.5486 5.26387 15.4855C5.10591 15.4225 4.90526 15.3142 4.81798 15.245C4.73073 15.1757 4.58648 15.0418 4.49749 14.9474C4.40846 14.853 4.27399 14.6821 4.1986 14.5677C4.12324 14.4534 4.01545 14.243 3.95908 14.1002C3.90271 13.9575 3.83204 13.7089 3.80201 13.5479C3.75527 13.2968 3.74892 12.4095 3.7575 7.3297C3.76415 3.398 3.75505 1.40562 3.73037 1.40803C3.70994 1.41003 3.02286 1.65974 2.20353 1.96293ZM12.2316 4.62712C12.3483 4.66114 12.5091 4.73513 12.589 4.79157C12.6689 4.84801 12.7921 4.96092 12.8629 5.04256C12.9337 5.12416 13.042 5.29818 13.1034 5.42919C13.1648 5.5602 13.2435 5.76569 13.2783 5.88577C13.3131 6.00584 13.3502 6.10411 13.3608 6.10411C13.3713 6.10411 13.4557 6.0295 13.5483 5.93829C13.6408 5.84709 13.8106 5.72236 13.9255 5.6611C14.0763 5.5807 14.2133 5.54443 14.4179 5.53071C14.6253 5.51682 14.7548 5.53133 14.9009 5.58486C15.0107 5.62508 15.1707 5.70339 15.2565 5.75892C15.3422 5.8144 15.4767 5.93185 15.5554 6.01994C15.6341 6.10798 15.7458 6.28815 15.8035 6.42028C15.8614 6.55242 15.9263 6.78807 15.9479 6.94399C15.9765 7.15102 15.9752 7.31281 15.9431 7.54385C15.9152 7.74452 15.8466 7.98387 15.7552 8.19864C15.6761 8.38484 15.5295 8.64877 15.4297 8.78523C15.3298 8.92169 15.1313 9.14324 14.9885 9.27758C14.8458 9.41195 14.5847 9.6219 14.4083 9.74414C14.2319 9.86641 13.9009 10.0619 13.6727 10.1786C13.4445 10.2953 13.0096 10.4827 12.7063 10.595C12.403 10.7073 12.1135 10.8049 12.0629 10.8119C11.9859 10.8225 11.9289 10.7638 11.7119 10.4503C11.5694 10.2444 11.3612 9.9169 11.2492 9.72247C11.1373 9.52803 10.9689 9.20987 10.8751 9.01543C10.7813 8.821 10.6539 8.52155 10.592 8.34999C10.53 8.17843 10.4446 7.90402 10.402 7.74023C10.3595 7.57641 10.3106 7.24098 10.2934 6.99481C10.2711 6.67469 10.2759 6.45942 10.3101 6.2387C10.3364 6.06897 10.4156 5.79614 10.486 5.6324C10.5564 5.46866 10.676 5.25488 10.7519 5.15735C10.8278 5.05982 10.9594 4.9269 11.0445 4.86194C11.1295 4.79693 11.291 4.7046 11.4034 4.65669C11.5171 4.60824 11.6991 4.56864 11.8136 4.56744C11.9269 4.56623 12.1149 4.5931 12.2316 4.62712Z" fill="#4D4D5B"/>
</svg>
