<svg width="14" height="18" viewBox="0 0 14 18" fill="none" xmlns="http://www.w3.org/2000/svg">
<path d="M9.39184 0.301481C9.20365 0.108699 8.94565 0 8.67625 0H2.06952C0.928321 0 0 0.946198 0 2.10938V9.50547C0 9.88646 0.308852 10.1953 0.689841 10.1953C1.07083 10.1953 1.37968 9.88646 1.37968 9.50547V2.10938C1.37968 1.72169 1.68917 1.40625 2.06952 1.40625H8.10186V3.90619C8.10186 5.06937 9.03018 6.01556 10.1714 6.01556H12.6203V9.50547C12.6203 9.88646 12.9292 10.1953 13.3102 10.1953C13.6911 10.1953 14 9.88646 14 9.50547V5.42942C14 5.16839 13.8979 4.9177 13.7156 4.7309L9.39184 0.301481ZM9.48141 3.90619V2.38705L11.6506 4.60931H10.1712C9.79089 4.60931 9.48141 4.29401 9.48141 3.90619ZM7.76071 11.7664C7.76071 11.6559 7.85026 11.5664 7.96071 11.5664H8.94039C9.05085 11.5664 9.14039 11.6559 9.14039 11.7664V17.8C9.14039 17.9105 9.05085 18 8.94039 18H7.96071C7.85026 18 7.76071 17.9105 7.76071 17.8V11.7664ZM3.38022 14.2977C3.38022 14.1872 3.46976 14.0977 3.58022 14.0977H6.18103C6.29149 14.0977 6.38103 14.1872 6.38103 14.2977V14.8008C6.38103 16.5605 4.97696 17.993 3.24859 18H3.23592C1.50755 17.993 0.103476 16.5605 0.103476 14.8008C0.103476 13.0367 1.51064 11.6016 3.24037 11.6016C3.61805 11.6016 3.98538 11.6689 4.3349 11.8019C4.4371 11.8408 4.48162 11.9583 4.43778 12.0585L4.03605 12.9762C3.99132 13.0784 3.87187 13.123 3.76562 13.0891C3.59671 13.0351 3.42077 13.0078 3.24037 13.0078C2.27149 13.0078 1.48316 13.8121 1.48316 14.8008C1.48316 15.7874 2.27163 16.5903 3.24225 16.5938C3.86155 16.5915 4.40675 16.2638 4.72023 15.7705C4.79697 15.6498 4.70164 15.5039 4.55859 15.5039H3.58022C3.46976 15.5039 3.38022 15.4144 3.38022 15.3039V14.2977ZM10.5201 11.7664C10.5201 11.6559 10.6096 11.5664 10.7201 11.5664H13.3554C13.4658 11.5664 13.5554 11.6559 13.5554 11.7664V12.7727C13.5554 12.8831 13.4658 12.9727 13.3554 12.9727H12.0998C11.9893 12.9727 11.8998 13.0622 11.8998 13.1727V14.2492C11.8998 14.3597 11.9893 14.4492 12.0998 14.4492H13.3554C13.4658 14.4492 13.5554 14.5388 13.5554 14.6492V15.6555C13.5554 15.7659 13.4658 15.8555 13.3554 15.8555H12.0998C11.9893 15.8555 11.8998 15.945 11.8998 16.0555V17.8C11.8998 17.9105 11.8102 18 11.6998 18H10.7201C10.6096 18 10.5201 17.9105 10.5201 17.8V11.7664Z" fill="#7C8497"/>
<path d="M9.39184 0.301481C9.20365 0.108699 8.94565 0 8.67625 0H2.06952C0.928321 0 0 0.946198 0 2.10938V9.50547C0 9.88646 0.308852 10.1953 0.689841 10.1953C1.07083 10.1953 1.37968 9.88646 1.37968 9.50547V2.10938C1.37968 1.72169 1.68917 1.40625 2.06952 1.40625H8.10186V3.90619C8.10186 5.06937 9.03018 6.01556 10.1714 6.01556H12.6203V9.50547C12.6203 9.88646 12.9292 10.1953 13.3102 10.1953C13.6911 10.1953 14 9.88646 14 9.50547V5.42942C14 5.16839 13.8979 4.9177 13.7156 4.7309L9.39184 0.301481ZM9.48141 3.90619V2.38705L11.6506 4.60931H10.1712C9.79089 4.60931 9.48141 4.29401 9.48141 3.90619ZM7.76071 11.7664C7.76071 11.6559 7.85026 11.5664 7.96071 11.5664H8.94039C9.05085 11.5664 9.14039 11.6559 9.14039 11.7664V17.8C9.14039 17.9105 9.05085 18 8.94039 18H7.96071C7.85026 18 7.76071 17.9105 7.76071 17.8V11.7664ZM3.38022 14.2977C3.38022 14.1872 3.46976 14.0977 3.58022 14.0977H6.18103C6.29149 14.0977 6.38103 14.1872 6.38103 14.2977V14.8008C6.38103 16.5605 4.97696 17.993 3.24859 18H3.23592C1.50755 17.993 0.103476 16.5605 0.103476 14.8008C0.103476 13.0367 1.51064 11.6016 3.24037 11.6016C3.61805 11.6016 3.98538 11.6689 4.3349 11.8019C4.4371 11.8408 4.48162 11.9583 4.43778 12.0585L4.03605 12.9762C3.99132 13.0784 3.87187 13.123 3.76562 13.0891C3.59671 13.0351 3.42077 13.0078 3.24037 13.0078C2.27149 13.0078 1.48316 13.8121 1.48316 14.8008C1.48316 15.7874 2.27163 16.5903 3.24225 16.5938C3.86155 16.5915 4.40675 16.2638 4.72023 15.7705C4.79697 15.6498 4.70164 15.5039 4.55859 15.5039H3.58022C3.46976 15.5039 3.38022 15.4144 3.38022 15.3039V14.2977ZM10.5201 11.7664C10.5201 11.6559 10.6096 11.5664 10.7201 11.5664H13.3554C13.4658 11.5664 13.5554 11.6559 13.5554 11.7664V12.7727C13.5554 12.8831 13.4658 12.9727 13.3554 12.9727H12.0998C11.9893 12.9727 11.8998 13.0622 11.8998 13.1727V14.2492C11.8998 14.3597 11.9893 14.4492 12.0998 14.4492H13.3554C13.4658 14.4492 13.5554 14.5388 13.5554 14.6492V15.6555C13.5554 15.7659 13.4658 15.8555 13.3554 15.8555H12.0998C11.9893 15.8555 11.8998 15.945 11.8998 16.0555V17.8C11.8998 17.9105 11.8102 18 11.6998 18H10.7201C10.6096 18 10.5201 17.9105 10.5201 17.8V11.7664Z" fill="#757786"/>
</svg>
