<svg width="26" height="26" viewBox="0 0 26 26" fill="none" xmlns="http://www.w3.org/2000/svg">
<path opacity="0.8" d="M23.6067 7.00398C22.5113 5.08005 21.0254 3.55681 19.1487 2.43407C17.2717 1.31129 15.2226 0.75 12.9999 0.75C10.7775 0.75 8.72765 1.31148 6.85102 2.43407C4.97409 3.55684 3.48829 5.08005 2.39289 7.00398C1.29767 8.92786 0.75 11.0288 0.75 13.3067C0.75 16.0429 1.5288 18.5033 3.08674 20.6887C4.64449 22.8742 6.65696 24.3866 9.12386 25.2259C9.41102 25.2805 9.62354 25.2421 9.76182 25.1115C9.90004 24.9809 9.96911 24.8171 9.96911 24.6212C9.96911 24.5885 9.96643 24.2943 9.96107 23.7382C9.95557 23.1822 9.95303 22.6972 9.95303 22.2833L9.58613 22.3483C9.35223 22.3923 9.05714 22.4108 8.70085 22.4056C8.34475 22.4005 7.97509 22.3623 7.59236 22.2911C7.20944 22.2206 6.85326 22.0572 6.52366 21.801C6.19411 21.5449 5.96027 21.2095 5.82197 20.7956L5.66244 20.4193C5.55616 20.1688 5.38873 19.8905 5.16008 19.5855C4.93146 19.2802 4.70021 19.0732 4.46626 18.9642L4.35459 18.8823C4.28016 18.8278 4.21109 18.7621 4.1473 18.6859C4.0835 18.6097 4.03576 18.5334 4.0038 18.457C3.97186 18.3806 3.9983 18.3179 4.08353 18.2687C4.16876 18.2194 4.32273 18.1955 4.54613 18.1955L4.86502 18.2444C5.07767 18.2881 5.34082 18.4185 5.65459 18.6368C5.9682 18.8547 6.22611 19.138 6.42815 19.4867C6.67279 19.9337 6.96761 20.2744 7.31343 20.5088C7.65895 20.7432 8.00725 20.8602 8.35812 20.8602C8.709 20.8602 9.012 20.8329 9.2673 20.7786C9.52234 20.7241 9.76157 20.6421 9.98508 20.5332C10.0808 19.8026 10.3414 19.2413 10.7665 18.849C10.1605 18.7837 9.61558 18.6854 9.1316 18.5546C8.64794 18.4237 8.14812 18.2113 7.63242 17.9167C7.1165 17.6224 6.68852 17.2571 6.3483 16.8214C6.00804 16.3854 5.72886 15.8129 5.51109 15.1045C5.29319 14.396 5.18417 13.5785 5.18417 12.652C5.18417 11.3328 5.60425 10.2103 6.44434 9.28366C6.0508 8.29187 6.08794 7.1801 6.55587 5.94838C6.86423 5.85013 7.32158 5.92388 7.92757 6.16904C8.5337 6.41437 8.97757 6.62439 9.25937 6.79868C9.54129 6.97286 9.76718 7.12044 9.93734 7.24007C10.9264 6.95676 11.9472 6.81509 12.9998 6.81509C14.0524 6.81509 15.0735 6.95679 16.0626 7.24007L16.6687 6.84782C17.0832 6.58614 17.5725 6.34625 18.1358 6.12827C18.6994 5.91042 19.1304 5.85035 19.4283 5.94859C19.9066 7.18035 19.9493 8.29206 19.5556 9.28388C20.3956 10.2105 20.8159 11.3333 20.8159 12.6522C20.8159 13.5787 20.7065 14.3987 20.4889 15.1127C20.2711 15.8269 19.9894 16.3987 19.644 16.8296C19.2981 17.2602 18.8673 17.6227 18.3517 17.9169C17.836 18.2113 17.336 18.4237 16.8522 18.5546C16.3683 18.6855 15.8235 18.7839 15.2174 18.8493C15.7701 19.3396 16.0466 20.1136 16.0466 21.1709V24.6204C16.0466 24.8164 16.113 24.98 16.2461 25.1108C16.379 25.2413 16.5888 25.2797 16.876 25.2251C19.3432 24.3859 21.3556 22.8735 22.9133 20.688C24.4709 18.5026 25.2499 16.0422 25.2499 13.3059C25.2494 11.0284 24.7014 8.92767 23.6067 7.00371L23.6067 7.00398Z" fill="#F73B11"/>
</svg>
