<svg width="21" height="21" viewBox="0 0 21 21" fill="none" xmlns="http://www.w3.org/2000/svg">
<path d="M20.25 5.30651V9.73782C20.25 11.2576 19.8942 12.3089 19.2917 13.0031C18.8278 13.5376 18.1601 13.9263 17.2331 14.1274V9.73782C17.2331 7.85094 16.7497 6.29822 15.6546 5.22394C14.5622 4.15225 12.9878 3.68131 11.074 3.68131H3.87966C4.08517 2.79145 4.47808 2.14738 5.01896 1.69626C5.73234 1.10127 6.81275 0.75 8.36386 0.75H15.591C17.2795 0.75 18.4095 1.16532 19.1211 1.86339C19.83 2.55887 20.25 3.65941 20.25 5.30651Z" stroke="#7B808F" stroke-width="1.5"/>
<path d="M16.98 8.79001V12.79C16.98 13.05 16.97 13.3 16.94 13.54C16.71 16.24 15.12 17.58 12.19 17.58H11.79C11.54 17.58 11.3 17.7 11.15 17.9L9.95001 19.5C9.42001 20.21 8.56 20.21 8.03 19.5L6.82999 17.9C6.69999 17.73 6.41 17.58 6.19 17.58H5.79001C2.60001 17.58 1 16.79 1 12.79V8.79001C1 5.86001 2.35001 4.27001 5.04001 4.04001C5.28001 4.01001 5.53001 4 5.79001 4H12.19C15.38 4 16.98 5.60001 16.98 8.79001Z" stroke="#7B808F" stroke-width="1.5" stroke-miterlimit="10" stroke-linecap="round" stroke-linejoin="round"/>
<path d="M12.4955 11.25H12.5045" stroke="#7B808F" stroke-width="2" stroke-linecap="round" stroke-linejoin="round"/>
<path d="M8.9955 11.25H9.0045" stroke="#7B808F" stroke-width="2" stroke-linecap="round" stroke-linejoin="round"/>
<path d="M5.4955 11.25H5.5045" stroke="#7B808F" stroke-width="2" stroke-linecap="round" stroke-linejoin="round"/>
</svg>
