<svg width="15" height="15" viewBox="0 0 15 15" fill="none" xmlns="http://www.w3.org/2000/svg">
<path d="M13.7704 3.94026V6.83024C13.7704 7.78358 13.5471 8.39948 13.2092 8.78879C13.003 9.02642 12.7176 9.22142 12.3246 9.35223V6.83024C12.3246 5.55797 11.9983 4.46669 11.217 3.70019C10.4383 2.93629 9.33419 2.61948 8.04692 2.61948H3.70232C3.83443 2.2527 4.02834 1.98351 4.26505 1.78608C4.66716 1.45071 5.30373 1.22949 6.27942 1.22949H10.9927C12.0548 1.22949 12.7145 1.49068 13.1123 1.88097C13.5075 2.26866 13.7704 2.90776 13.7704 3.94026Z" stroke="#434548" stroke-width="1.5"/>
<path d="M11.8983 6.21181V8.82051C11.8983 8.99007 11.8918 9.15311 11.8722 9.30964C11.7222 11.0705 10.6853 11.9444 8.77439 11.9444H8.51352C8.35048 11.9444 8.19395 12.0227 8.09612 12.1531L7.31353 13.1966C6.96788 13.6596 6.407 13.6596 6.06134 13.1966L5.27873 12.1531C5.19395 12.0422 5.00483 11.9444 4.86135 11.9444H4.60048C2.52005 11.9444 1.47656 11.4292 1.47656 8.82051V6.21181C1.47656 4.30094 2.357 3.26398 4.11135 3.11398C4.26787 3.09442 4.43092 3.08789 4.60048 3.08789H8.77439C10.8548 3.08789 11.8983 4.13137 11.8983 6.21181Z" stroke="#434548" stroke-width="1.5" stroke-miterlimit="10" stroke-linecap="round" stroke-linejoin="round"/>
<path d="M8.9755 7.81632H8.98137" stroke="#434548" stroke-width="2" stroke-linecap="round" stroke-linejoin="round"/>
<path d="M6.69034 7.81632H6.69621" stroke="#434548" stroke-width="2" stroke-linecap="round" stroke-linejoin="round"/>
<path d="M4.40909 7.81632H4.41496" stroke="#434548" stroke-width="2" stroke-linecap="round" stroke-linejoin="round"/>
</svg>
