<svg width="19" height="13" viewBox="0 0 19 13" fill="none" xmlns="http://www.w3.org/2000/svg">
<path d="M13.6427 0.562876C13.1941 0.550182 12.7474 0.626947 12.3288 0.788694C11.9101 0.95044 11.5279 1.19393 11.2043 1.50496C10.9884 1.7143 10.733 1.87876 10.4531 1.98883C10.1732 2.09889 9.87423 2.15238 9.57351 2.14621H9.44684C9.14304 2.156 8.84038 2.10464 8.55682 1.99516C8.27327 1.88568 8.01461 1.72033 7.79622 1.50892C7.19059 0.895376 6.33163 0.602459 5.12038 0.594543H5.09663C4.73074 0.596297 4.36896 0.671873 4.03297 0.816745C3.69697 0.961618 3.39367 1.17281 3.14122 1.43767C0.817674 3.72954 0.789965 10.1856 0.789965 10.4587C0.782748 10.7266 0.818837 10.994 0.89684 11.2504C1.03699 11.6073 1.28336 11.9126 1.60263 12.125C1.9219 12.3373 2.29869 12.4466 2.68205 12.4379H3.24017C3.51828 12.4373 3.79253 12.3727 4.04169 12.2492C4.29085 12.1256 4.50824 11.9464 4.67705 11.7254L5.75767 10.7081C6.70591 9.81296 7.95242 9.30129 9.25609 9.27204C10.5598 9.24279 11.828 9.69805 12.8154 10.5498L14.3552 11.8758C14.5211 12.0529 14.7216 12.1941 14.9442 12.2908C15.1668 12.3875 15.4069 12.4375 15.6495 12.4379H16.37C16.672 12.443 16.9706 12.3735 17.2392 12.2353C17.5079 12.0972 17.7382 11.8948 17.9098 11.6462C18.1068 11.2816 18.2089 10.8732 18.2066 10.4587C18.2066 10.1816 18.1789 3.876 15.792 1.49308C15.5154 1.20057 15.1823 0.96729 14.8128 0.807391C14.4434 0.647491 14.0453 0.564304 13.6427 0.562876ZM6.72747 4.91704H5.9358V5.70871C5.9358 5.81369 5.89409 5.91437 5.81986 5.98861C5.74563 6.06284 5.64495 6.10454 5.53997 6.10454C5.43498 6.10454 5.3343 6.06284 5.26007 5.98861C5.18584 5.91437 5.14413 5.81369 5.14413 5.70871V4.91704H4.35247C4.24748 4.91704 4.1468 4.87534 4.07257 4.80111C3.99834 4.72687 3.95663 4.62619 3.95663 4.52121C3.95663 4.41623 3.99834 4.31555 4.07257 4.24131C4.1468 4.16708 4.24748 4.12538 4.35247 4.12538H5.14413V3.33371C5.14413 3.22873 5.18584 3.12805 5.26007 3.05381C5.3343 2.97958 5.43498 2.93788 5.53997 2.93788C5.64495 2.93788 5.74563 2.97958 5.81986 3.05381C5.89409 3.12805 5.9358 3.22873 5.9358 3.33371V4.12538H6.72747C6.83245 4.12538 6.93313 4.16708 7.00736 4.24131C7.0816 4.31555 7.1233 4.41623 7.1233 4.52121C7.1233 4.62619 7.0816 4.72687 7.00736 4.80111C6.93313 4.87534 6.83245 4.91704 6.72747 4.91704ZM13.4566 2.93788C13.6132 2.93788 13.7663 2.98431 13.8965 3.0713C14.0266 3.15829 14.1281 3.28193 14.188 3.42658C14.248 3.57124 14.2636 3.73042 14.2331 3.88399C14.2025 4.03756 14.1271 4.17862 14.0164 4.28934C13.9057 4.40005 13.7646 4.47545 13.6111 4.506C13.4575 4.53654 13.2983 4.52087 13.1537 4.46095C13.009 4.40103 12.8854 4.29956 12.7984 4.16937C12.7114 4.03918 12.665 3.88612 12.665 3.72954C12.665 3.51958 12.7484 3.31822 12.8968 3.16975C13.0453 3.02128 13.2467 2.93788 13.4566 2.93788ZM11.4775 4.91704C11.4775 4.76047 11.5239 4.60741 11.6109 4.47722C11.6979 4.34703 11.8215 4.24556 11.9662 4.18564C12.1108 4.12572 12.27 4.11004 12.4236 4.14059C12.5771 4.17113 12.7182 4.24653 12.8289 4.35725C12.9396 4.46797 13.015 4.60903 13.0456 4.7626C13.0761 4.91616 13.0605 5.07534 13.0005 5.22C12.9406 5.36466 12.8391 5.4883 12.709 5.57529C12.5788 5.66228 12.4257 5.70871 12.2691 5.70871C12.0592 5.70871 11.8578 5.6253 11.7093 5.47684C11.5609 5.32837 11.4775 5.12701 11.4775 4.91704ZM13.4566 6.89621C13.3001 6.89621 13.147 6.84978 13.0168 6.76279C12.8866 6.6758 12.7851 6.55216 12.7252 6.4075C12.6653 6.26284 12.6496 6.10366 12.6802 5.9501C12.7107 5.79653 12.7861 5.65547 12.8968 5.54475C13.0076 5.43403 13.1486 5.35863 13.3022 5.32809C13.4558 5.29754 13.6149 5.31322 13.7596 5.37314C13.9042 5.43306 14.0279 5.53453 14.1149 5.66472C14.2019 5.79491 14.2483 5.94797 14.2483 6.10454C14.2483 6.31451 14.1649 6.51587 14.0164 6.66434C13.868 6.8128 13.6666 6.89621 13.4566 6.89621ZM14.6441 5.70871C14.4876 5.70871 14.3345 5.66228 14.2043 5.57529C14.0741 5.4883 13.9726 5.36466 13.9127 5.22C13.8528 5.07534 13.8371 4.91616 13.8677 4.7626C13.8982 4.60903 13.9736 4.46797 14.0843 4.35725C14.1951 4.24653 14.3361 4.17113 14.4897 4.14059C14.6433 4.11004 14.8024 4.12572 14.9471 4.18564C15.0917 4.24556 15.2154 4.34703 15.3024 4.47722C15.3894 4.60741 15.4358 4.76047 15.4358 4.91704C15.4358 5.12701 15.3524 5.32837 15.2039 5.47684C15.0555 5.6253 14.8541 5.70871 14.6441 5.70871Z" fill="#A0A0B0"/>
</svg>
