<svg width="68" height="76" viewBox="0 0 68 76" fill="none" xmlns="http://www.w3.org/2000/svg">
<g filter="url(#filter0_d_1_637)">
<path d="M45.0292 33.4895C43.8365 31.8126 42.4499 30.2951 41.1603 28.7026C39.861 27.1007 38.6975 25.4239 38.0575 23.4567C37.7181 22.4075 37.5727 21.3396 37.5048 20.2436C37.5048 20.196 37.4986 20.1514 37.4915 20.1065C37.4819 20.0459 37.4294 20 37.3681 20C37.3435 20 37.3194 20.0075 37.2992 20.0215C36.553 20.5385 35.7989 21.0394 35.1486 21.6862C33.3257 23.4754 32.2203 25.6581 31.4931 28.0375C30.8725 30.0609 30.5428 32.1405 30.4556 34.2576C30.4265 35.007 30.3974 35.7564 30.4265 36.5059C30.4362 36.7682 30.3489 36.7869 30.1356 36.6745C29.195 36.178 28.4775 35.4567 27.9733 34.5574C27.44 33.6206 27.1685 32.6089 27.1006 31.541C27.0812 31.2787 27.1588 30.8759 26.9649 30.7822C26.7225 30.6604 26.4607 30.9789 26.228 31.1288C22.6403 33.555 20.5459 36.8712 20.0805 41.0773C19.5962 45.4847 21.3276 49.6118 24.4629 52.4126C24.4695 52.4185 24.4763 52.4248 24.4826 52.4309C26.1601 53.7611 33.1899 59.007 41.9457 53.6112C45.1746 51.5129 47.1721 48.4684 47.8217 44.4684C48.452 40.4684 47.3854 36.815 45.0292 33.4895ZM40.8598 43.2412C40.6852 45.2927 40.2683 47.2787 38.9302 48.9649C37.6793 50.5386 36.0019 51.4098 33.9656 51.4379C31.2798 51.4754 29.2823 49.63 28.846 47.3724C28.3418 44.7775 29.9223 42.2951 32.5597 41.6019C34.2468 41.1522 35.8952 40.6089 37.3691 39.6628C38.5811 38.8852 39.5895 37.9204 40.2004 36.6183C40.2446 36.533 40.3436 36.5987 40.3665 36.692C40.5355 37.3819 40.6339 38.0874 40.724 38.8009C40.8888 40.2717 40.9858 41.7518 40.8598 43.2412Z" fill="url(#paint0_linear_1_637)"/>
</g>
<defs>
<filter id="filter0_d_1_637" x="0" y="0" width="68" height="75.9998" filterUnits="userSpaceOnUse" color-interpolation-filters="sRGB">
<feFlood flood-opacity="0" result="BackgroundImageFix"/>
<feColorMatrix in="SourceAlpha" type="matrix" values="0 0 0 0 0 0 0 0 0 0 0 0 0 0 0 0 0 0 127 0" result="hardAlpha"/>
<feOffset/>
<feGaussianBlur stdDeviation="10"/>
<feComposite in2="hardAlpha" operator="out"/>
<feColorMatrix type="matrix" values="0 0 0 0 0.454902 0 0 0 0 0.345098 0 0 0 0 0.862745 0 0 0 1 0"/>
<feBlend mode="normal" in2="BackgroundImageFix" result="effect1_dropShadow_1_637"/>
<feBlend mode="normal" in="SourceGraphic" in2="effect1_dropShadow_1_637" result="shape"/>
</filter>
<linearGradient id="paint0_linear_1_637" x1="48" y1="37.9999" x2="20" y2="37.9999" gradientUnits="userSpaceOnUse">
<stop stop-color="#7458DC"/>
<stop offset="1" stop-color="#9787D2"/>
</linearGradient>
</defs>
</svg>
