<svg width="16" height="16" viewBox="0 0 16 16" fill="none" xmlns="http://www.w3.org/2000/svg">
<g clip-path="url(#clip0_24_119)">
<path d="M8 0C3.58167 0 0 3.58167 0 8C0 12.4183 3.58167 16 8 16C12.4183 16 16 12.4183 16 8C15.995 3.58374 12.4163 0.00500487 8 0ZM8 15.4667C3.87622 15.4667 0.533325 12.1238 0.533325 8C0.533325 3.87622 3.87622 0.533325 8 0.533325C12.1238 0.533325 15.4667 3.87622 15.4667 8C15.4619 12.1218 12.1218 15.4619 8 15.4667V15.4667Z" fill="white"/>
<path d="M8.80029 10.4C8.79883 10.0621 8.58545 9.76172 8.26697 9.64905V9.02881C8.64038 8.93164 8.93188 8.64014 9.02905 8.26672H9.64929C9.77917 8.63403 10.1548 8.85437 10.5388 8.78845C10.9229 8.72253 11.2036 8.38965 11.2036 8C11.2036 7.61035 10.9229 7.27747 10.5388 7.21155C10.1548 7.14563 9.77917 7.36597 9.64929 7.73328H9.02905C8.93188 7.35986 8.64038 7.06836 8.26697 6.97119V6.35095C8.63428 6.22107 8.85461 5.84546 8.7887 5.46143C8.72278 5.07739 8.38989 4.79663 8.00024 4.79663C7.6106 4.79663 7.27771 5.07739 7.21179 5.46143C7.14587 5.84546 7.36621 6.22107 7.73352 6.35095V6.97119C7.36011 7.06836 7.0686 7.35986 6.97144 7.73328H6.3512C6.22131 7.36597 5.8457 7.14563 5.46167 7.21155C5.07764 7.27747 4.79688 7.61035 4.79688 8C4.79688 8.38965 5.07764 8.72253 5.46167 8.78845C5.8457 8.85437 6.22131 8.63403 6.3512 8.26672H6.97144C7.0686 8.64014 7.36011 8.93164 7.73352 9.02881V9.64905C7.35107 9.78528 7.13159 10.187 7.22375 10.5825C7.3158 10.978 7.69006 11.2415 8.09338 11.1948C8.49683 11.1481 8.80103 10.8062 8.80029 10.4V10.4ZM10.4003 7.73328C10.5475 7.73328 10.6669 7.85278 10.6669 8C10.6669 8.14722 10.5475 8.26672 10.4003 8.26672C10.2529 8.26672 10.1335 8.14722 10.1335 8C10.1335 7.85278 10.2529 7.73328 10.4003 7.73328ZM8.00024 5.33337C8.14746 5.33337 8.26697 5.45276 8.26697 5.59998C8.26697 5.74731 8.14746 5.8667 8.00024 5.8667C7.85303 5.8667 7.73352 5.74731 7.73352 5.59998C7.73352 5.45276 7.85303 5.33337 8.00024 5.33337ZM5.60022 8.26672C5.453 8.26672 5.33362 8.14722 5.33362 8C5.33362 7.85278 5.453 7.73328 5.60022 7.73328C5.74756 7.73328 5.86694 7.85278 5.86694 8C5.86694 8.14722 5.74756 8.26672 5.60022 8.26672ZM7.46692 8C7.46692 7.70544 7.70569 7.46667 8.00024 7.46667C8.2948 7.46667 8.53357 7.70544 8.53357 8C8.53357 8.29456 8.2948 8.53333 8.00024 8.53333C7.70569 8.53333 7.46692 8.29456 7.46692 8ZM7.73352 10.4C7.73352 10.2527 7.85303 10.1333 8.00024 10.1333C8.14746 10.1333 8.26697 10.2527 8.26697 10.4C8.26697 10.5472 8.14746 10.6666 8.00024 10.6666C7.85303 10.6666 7.73352 10.5472 7.73352 10.4V10.4Z" fill="white"/>
<path d="M13.5591 3.86096C13.1565 3.3219 12.6783 2.84387 12.1393 2.44141L12.1361 2.43848H12.1345C9.6814 0.610352 6.31885 0.610352 3.86572 2.43848H3.86414L3.86096 2.44141C3.3219 2.84375 2.84375 3.3219 2.44141 3.86096L2.43848 3.86414V3.86572C0.610352 6.31885 0.610352 9.6814 2.43848 12.1345V12.1361C2.44043 12.1393 2.44336 12.1417 2.44543 12.1451L2.44922 12.15C2.45923 12.1658 2.4707 12.1805 2.48364 12.194C2.87708 12.7107 3.3407 13.17 3.86096 13.5588L3.86414 13.5618H3.86597C6.31897 15.3896 9.68127 15.3896 12.1343 13.5618H12.1361L12.1393 13.5588C12.6595 13.17 13.1232 12.7107 13.5166 12.194C13.5295 12.1805 13.541 12.1658 13.551 12.15L13.5548 12.1451C13.5569 12.1417 13.5598 12.1393 13.5618 12.1361V12.1345C15.3899 9.6814 15.3899 6.31885 13.5618 3.86572V3.86414L13.5591 3.86096ZM13.998 10.2313L12.5868 9.41663C12.6223 9.30225 12.6503 9.18469 12.6769 9.06677H14.3094C14.2429 9.46399 14.1385 9.85388 13.998 10.2313V10.2313ZM13.2534 11.65L11.858 10.845C12.071 10.5583 12.2515 10.2489 12.3959 9.92224L13.7892 10.7266C13.6366 11.0487 13.4574 11.3575 13.2534 11.65V11.65ZM10.7271 13.7887L9.92273 12.3953C10.2494 12.251 10.559 12.0706 10.8455 11.8574L11.65 13.2534C11.3575 13.4572 11.0487 13.6362 10.7266 13.7887H10.7271ZM4.35022 13.2534L5.15527 11.858C5.44189 12.071 5.75134 12.2515 6.078 12.3959L5.27368 13.7892C4.95154 13.6366 4.6427 13.4574 4.35022 13.2534ZM2.21155 10.7271L3.60498 9.92273C3.74927 10.2494 3.92969 10.559 4.14282 10.8455L2.74683 11.65C2.54309 11.3575 2.36401 11.0487 2.21155 10.7266V10.7271ZM2.0022 5.76892L3.41345 6.58362C3.37793 6.698 3.34998 6.81555 3.32336 6.93347H1.6908C1.75732 6.53625 1.86169 6.14636 2.0022 5.76892ZM2.74731 4.35022L4.14282 5.15527C3.92969 5.44189 3.74927 5.75134 3.60498 6.078L2.21155 5.27368C2.36401 4.95154 2.54309 4.6427 2.74683 4.35022H2.74731ZM5.27368 2.21155L6.078 3.60498C5.75134 3.74927 5.44189 3.92969 5.15527 4.14282L4.35022 2.74683C4.6427 2.54309 4.95154 2.36401 5.27368 2.21155ZM6.58362 3.41345L5.76892 2.0022C6.14636 1.86169 6.53625 1.75732 6.93347 1.6908V3.32385C6.81555 3.35046 6.698 3.37854 6.58362 3.41345ZM3.23157 7.4668C3.18958 7.82117 3.18958 8.17908 3.23157 8.53345H1.62415C1.6095 8.35742 1.6001 8.17981 1.6001 8.00012C1.6001 7.82043 1.6095 7.64282 1.62415 7.4668H3.23157ZM1.6908 9.06677H3.32385C3.35046 9.18469 3.37854 9.30225 3.41394 9.41663L2.0022 10.2313C1.86169 9.85388 1.75732 9.46399 1.6908 9.06677ZM6.58362 12.5868C6.698 12.6223 6.81555 12.6503 6.93347 12.6769V14.3094C6.53625 14.2429 6.14636 14.1385 5.76892 13.998L6.58362 12.5868ZM3.7334 8.00012C3.73279 7.0022 4.08362 6.03589 4.72437 5.27075C4.72864 5.26685 4.73181 5.26221 4.73584 5.2583C5.54456 4.29187 6.73999 3.73352 8.00012 3.73352C9.26025 3.73352 10.4557 4.29187 11.2644 5.2583C11.2684 5.26221 11.2716 5.26685 11.2759 5.27075C12.4832 6.71741 12.5986 8.78479 11.5598 10.3568C10.5211 11.9288 8.5741 12.6334 6.7699 12.0901C4.9657 11.5469 3.73145 9.8844 3.7334 8.00012V8.00012ZM11.65 2.74683L10.845 4.14221C10.5583 3.9292 10.2489 3.74878 9.92224 3.60437L10.7266 2.21106C11.0487 2.36365 11.3575 2.54285 11.65 2.74683V2.74683ZM9.41663 3.41345C9.30225 3.37793 9.18469 3.34998 9.06677 3.32336V1.6908C9.46399 1.75732 9.85388 1.86169 10.2313 2.0022L9.41663 3.41345ZM9.41663 12.5868L10.2313 13.9985C9.85388 14.1389 9.46399 14.243 9.06677 14.3094V12.6764C9.18469 12.6498 9.30225 12.6217 9.41663 12.5868ZM12.7687 8.53345C12.8107 8.17908 12.8107 7.82117 12.7687 7.4668H14.3761C14.3907 7.64282 14.4001 7.82043 14.4001 8.00012C14.4001 8.17981 14.3907 8.35742 14.3761 8.53345H12.7687ZM14.3094 6.93347H12.6764C12.6498 6.81555 12.623 6.698 12.5863 6.58362L13.998 5.76892C14.1385 6.14636 14.2429 6.53625 14.3094 6.93347V6.93347ZM12.3953 6.078C12.251 5.75134 12.0706 5.44189 11.8574 5.15527L13.2534 4.35022C13.4574 4.6427 13.6366 4.95154 13.7892 5.27368L12.3953 6.078ZM12.9287 3.92175L11.5118 4.73877C11.4313 4.65198 11.3479 4.5686 11.2615 4.4884L12.0785 3.0719C12.3876 3.32812 12.6721 3.61267 12.9283 3.92175H12.9287ZM8.53345 1.62415V3.23157C8.17908 3.18958 7.82117 3.18958 7.4668 3.23157V1.62415C7.64282 1.6095 7.82043 1.6001 8.00012 1.6001C8.17981 1.6001 8.35742 1.6095 8.53345 1.62415ZM3.92175 3.0719L4.73877 4.4884C4.65198 4.56897 4.5686 4.65234 4.4884 4.73877L3.0719 3.92175C3.32812 3.61267 3.61267 3.32812 3.92175 3.0719ZM3.0719 12.0785L4.4884 11.2615C4.56897 11.3483 4.65234 11.4316 4.73877 11.5118L3.92175 12.9283C3.61267 12.6721 3.32812 12.3876 3.0719 12.0785V12.0785ZM7.4668 14.3761V12.7687C7.82117 12.8107 8.17908 12.8107 8.53345 12.7687V14.3761C8.35742 14.3907 8.17981 14.4001 8.00012 14.4001C7.82043 14.4001 7.64282 14.3907 7.4668 14.3761V14.3761ZM12.0785 12.9283L11.2615 11.5118C11.3483 11.4313 11.4316 11.3479 11.5118 11.2615L12.9283 12.0785C12.6721 12.3876 12.3876 12.6721 12.0785 12.9283V12.9283Z" fill="white"/>
</g>
<defs>
<clipPath id="clip0_24_119">
<rect width="16" height="16" fill="white"/>
</clipPath>
</defs>
</svg>
