<svg width="19" height="13" viewBox="0 0 19 13" fill="none" xmlns="http://www.w3.org/2000/svg">
<path d="M13.6446 0.562388C13.196 0.549694 12.7494 0.626459 12.3307 0.788205C11.9121 0.949952 11.5298 1.19344 11.2063 1.50447C10.9903 1.71381 10.735 1.87827 10.4551 1.98834C10.1751 2.0984 9.87618 2.1519 9.57546 2.14572H9.44879C9.145 2.15552 8.84233 2.10415 8.55877 1.99467C8.27522 1.88519 8.01656 1.71984 7.79817 1.50843C7.19254 0.894888 6.33359 0.601971 5.12234 0.594054H5.09859C4.73269 0.595808 4.37091 0.671384 4.03492 0.816257C3.69892 0.96113 3.39562 1.17232 3.14317 1.43718C0.819627 3.72905 0.791919 10.1851 0.791919 10.4582C0.784701 10.7261 0.820791 10.9935 0.898794 11.2499C1.03894 11.6068 1.28531 11.9121 1.60458 12.1245C1.92386 12.3369 2.30064 12.4461 2.684 12.4374H3.24213C3.52024 12.4368 3.79448 12.3722 4.04364 12.2487C4.2928 12.1251 4.51019 11.9459 4.679 11.7249L5.75963 10.7076C6.70787 9.81247 7.95437 9.3008 9.25804 9.27155C10.5617 9.24231 11.8299 9.69756 12.8173 10.5493L14.3571 11.8753C14.5231 12.0524 14.7235 12.1936 14.9461 12.2903C15.1688 12.387 15.4088 12.437 15.6515 12.4374H16.3719C16.6739 12.4425 16.9726 12.373 17.2412 12.2348C17.5098 12.0967 17.7402 11.8944 17.9117 11.6457C18.1087 11.2811 18.2108 10.8727 18.2086 10.4582C18.2086 10.1811 18.1809 3.87551 15.794 1.4926C15.5174 1.20008 15.1843 0.966802 14.8148 0.806902C14.4453 0.647003 14.0472 0.563816 13.6446 0.562388V0.562388ZM6.72942 4.91655H5.93775V5.70822C5.93775 5.8132 5.89605 5.91388 5.82182 5.98812C5.74758 6.06235 5.6469 6.10405 5.54192 6.10405C5.43694 6.10405 5.33626 6.06235 5.26202 5.98812C5.18779 5.91388 5.14609 5.8132 5.14609 5.70822V4.91655H4.35442C4.24944 4.91655 4.14876 4.87485 4.07452 4.80062C4.00029 4.72638 3.95859 4.6257 3.95859 4.52072C3.95859 4.41574 4.00029 4.31506 4.07452 4.24082C4.14876 4.16659 4.24944 4.12489 4.35442 4.12489H5.14609V3.33322C5.14609 3.22824 5.18779 3.12756 5.26202 3.05332C5.33626 2.97909 5.43694 2.93739 5.54192 2.93739C5.6469 2.93739 5.74758 2.97909 5.82182 3.05332C5.89605 3.12756 5.93775 3.22824 5.93775 3.33322V4.12489H6.72942C6.8344 4.12489 6.93508 4.16659 7.00932 4.24082C7.08355 4.31506 7.12525 4.41574 7.12525 4.52072C7.12525 4.6257 7.08355 4.72638 7.00932 4.80062C6.93508 4.87485 6.8344 4.91655 6.72942 4.91655ZM13.4586 2.93739C13.6152 2.93739 13.7682 2.98382 13.8984 3.07081C14.0286 3.1578 14.1301 3.28144 14.19 3.4261C14.2499 3.57075 14.2656 3.72993 14.235 3.8835C14.2045 4.03707 14.1291 4.17813 14.0184 4.28885C13.9077 4.39956 13.7666 4.47496 13.613 4.50551C13.4595 4.53606 13.3003 4.52038 13.1556 4.46046C13.011 4.40054 12.8873 4.29907 12.8003 4.16888C12.7133 4.03869 12.6669 3.88563 12.6669 3.72905C12.6669 3.51909 12.7503 3.31773 12.8988 3.16926C13.0473 3.0208 13.2486 2.93739 13.4586 2.93739V2.93739ZM11.4794 4.91655C11.4794 4.75998 11.5258 4.60692 11.6128 4.47673C11.6998 4.34654 11.8235 4.24507 11.9681 4.18515C12.1128 4.12523 12.272 4.10955 12.4255 4.1401C12.5791 4.17065 12.7202 4.24605 12.8309 4.35676C12.9416 4.46748 13.017 4.60854 13.0475 4.76211C13.0781 4.91568 13.0624 5.07485 13.0025 5.21951C12.9426 5.36417 12.8411 5.48781 12.7109 5.5748C12.5807 5.66179 12.4277 5.70822 12.2711 5.70822C12.0611 5.70822 11.8598 5.62481 11.7113 5.47635C11.5628 5.32788 11.4794 5.12652 11.4794 4.91655ZM13.4586 6.89572C13.302 6.89572 13.1489 6.84929 13.0188 6.7623C12.8886 6.67531 12.7871 6.55167 12.7272 6.40701C12.6673 6.26235 12.6516 6.10318 12.6821 5.94961C12.7127 5.79604 12.7881 5.65498 12.8988 5.54426C13.0095 5.43355 13.1506 5.35815 13.3041 5.3276C13.4577 5.29705 13.6169 5.31273 13.7615 5.37265C13.9062 5.43257 14.0298 5.53404 14.1168 5.66423C14.2038 5.79442 14.2503 5.94748 14.2503 6.10405C14.2503 6.31402 14.1668 6.51538 14.0184 6.66385C13.8699 6.81231 13.6685 6.89572 13.4586 6.89572ZM14.6461 5.70822C14.4895 5.70822 14.3364 5.66179 14.2063 5.5748C14.0761 5.48781 13.9746 5.36417 13.9147 5.21951C13.8548 5.07485 13.8391 4.91568 13.8696 4.76211C13.9002 4.60854 13.9756 4.46748 14.0863 4.35676C14.197 4.24605 14.3381 4.17065 14.4916 4.1401C14.6452 4.10955 14.8044 4.12523 14.949 4.18515C15.0937 4.24507 15.2173 4.34654 15.3043 4.47673C15.3913 4.60692 15.4378 4.75998 15.4378 4.91655C15.4378 5.12652 15.3543 5.32788 15.2059 5.47635C15.0574 5.62481 14.856 5.70822 14.6461 5.70822Z" fill="white"/>
</svg>
