<svg width="18" height="18" viewBox="0 0 18 18" fill="none" xmlns="http://www.w3.org/2000/svg">
<g clip-path="url(#clip0_24_94)">
<path d="M9.12872 6.16641C9.50697 5.78642 9.9807 5.51547 10.5 5.38209V1.5C10.5 1.10218 10.342 0.720644 10.0607 0.43934C9.77936 0.158035 9.39782 0 9 0L2.25 0C1.85218 0 1.47064 0.158035 1.18934 0.43934C0.908035 0.720644 0.75 1.10218 0.75 1.5V8.25C0.75 8.64782 0.908035 9.02936 1.18934 9.31066C1.47064 9.59196 1.85218 9.75 2.25 9.75H5.54512L9.12872 6.16641ZM7.5 2.25C7.64834 2.25 7.79334 2.29399 7.91668 2.3764C8.04001 2.45881 8.13614 2.57594 8.19291 2.71299C8.24968 2.85003 8.26453 3.00083 8.23559 3.14632C8.20665 3.2918 8.13522 3.42544 8.03033 3.53033C7.92544 3.63522 7.7918 3.70665 7.64632 3.73559C7.50083 3.76453 7.35003 3.74968 7.21299 3.69291C7.07594 3.63614 6.95881 3.54001 6.8764 3.41668C6.79399 3.29334 6.75 3.14834 6.75 3C6.75 2.80109 6.82902 2.61032 6.96967 2.46967C7.11032 2.32902 7.30109 2.25 7.5 2.25V2.25ZM7.5 5.25C7.64834 5.25 7.79334 5.29399 7.91668 5.3764C8.04001 5.45881 8.13614 5.57594 8.19291 5.71299C8.24968 5.85003 8.26453 6.00083 8.23559 6.14632C8.20665 6.2918 8.13522 6.42544 8.03033 6.53033C7.92544 6.63522 7.7918 6.70665 7.64632 6.73559C7.50083 6.76453 7.35003 6.74968 7.21299 6.69291C7.07594 6.63614 6.95881 6.54001 6.8764 6.41668C6.79399 6.29334 6.75 6.14834 6.75 6C6.75 5.80109 6.82902 5.61032 6.96967 5.46967C7.11032 5.32902 7.30109 5.25 7.5 5.25V5.25ZM3.75 2.25C3.89834 2.25 4.04334 2.29399 4.16668 2.3764C4.29001 2.45881 4.38614 2.57594 4.44291 2.71299C4.49968 2.85003 4.51453 3.00083 4.48559 3.14632C4.45665 3.2918 4.38522 3.42544 4.28033 3.53033C4.17544 3.63522 4.0418 3.70665 3.89632 3.73559C3.75083 3.76453 3.60003 3.74968 3.46299 3.69291C3.32594 3.63614 3.20881 3.54001 3.1264 3.41668C3.04399 3.29334 3 3.14834 3 3C3 2.80109 3.07902 2.61032 3.21967 2.46967C3.36032 2.32902 3.55109 2.25 3.75 2.25ZM3.75 7.5C3.60166 7.5 3.45666 7.45601 3.33332 7.3736C3.20999 7.29119 3.11386 7.17406 3.05709 7.03701C3.00032 6.89997 2.98547 6.74917 3.01441 6.60368C3.04335 6.4582 3.11478 6.32456 3.21967 6.21967C3.32456 6.11478 3.4582 6.04335 3.60368 6.01441C3.74917 5.98547 3.89997 6.00032 4.03701 6.05709C4.17406 6.11386 4.29119 6.20999 4.3736 6.33332C4.45601 6.45666 4.5 6.60166 4.5 6.75C4.5 6.94891 4.42098 7.13968 4.28033 7.28033C4.13968 7.42098 3.94891 7.5 3.75 7.5Z" fill="white"/>
<path d="M16.5537 10.409L12.7159 6.57113C12.589 6.44382 12.4402 6.34039 12.2767 6.26579C11.3269 5.8352 10.3226 6.03338 9.65947 6.69704L5.82162 10.5344C5.69431 10.6613 5.59087 10.8101 5.51628 10.9736C5.08568 11.9234 5.28387 12.9278 5.94753 13.5909L9.78528 17.4287C9.91217 17.556 10.061 17.6594 10.2245 17.734C11.1743 18.1646 12.1786 17.9664 12.8417 17.3028L16.6796 13.465C16.8069 13.3381 16.9103 13.1894 16.9849 13.0258C17.4151 12.0764 17.2169 11.0718 16.5537 10.409V10.409ZM11.2504 12.7499C11.1021 12.7499 10.9571 12.7059 10.8337 12.6235C10.7104 12.5411 10.6143 12.424 10.5575 12.2869C10.5007 12.1499 10.4859 11.9991 10.5148 11.8536C10.5438 11.7081 10.6152 11.5745 10.7201 11.4696C10.825 11.3647 10.9586 11.2933 11.1041 11.2643C11.2496 11.2354 11.4004 11.2502 11.5374 11.307C11.6745 11.3638 11.7916 11.4599 11.874 11.5832C11.9564 11.7066 12.0004 11.8516 12.0004 11.9999C12.0004 12.1988 11.9214 12.3896 11.7807 12.5302C11.6401 12.6709 11.4493 12.7499 11.2504 12.7499V12.7499Z" fill="white"/>
</g>
<defs>
<clipPath id="clip0_24_94">
<rect width="18" height="18" fill="white"/>
</clipPath>
</defs>
</svg>
