<svg width="6" height="12" viewBox="0 0 6 12" fill="none" xmlns="http://www.w3.org/2000/svg">
<path d="M4.80261 10.4135C4.79836 10.4149 4.40665 10.5453 4.06665 10.5453C3.87894 10.5453 3.80315 10.5063 3.77906 10.4893C3.66006 10.4064 3.43906 10.2513 3.81731 9.49763L4.52565 8.08521C4.94569 7.24654 5.00802 6.4355 4.69919 5.80083C4.44702 5.28163 3.96323 4.92533 3.33919 4.79783C3.11465 4.75179 2.88656 4.72913 2.66061 4.72913C1.3509 4.72913 0.469023 5.49413 0.43219 5.52671C0.305398 5.63863 0.275648 5.82421 0.359939 5.97013C0.444939 6.11604 0.619898 6.18263 0.781398 6.12738C0.784939 6.12596 1.17736 5.99492 1.51736 5.99492C1.70365 5.99492 1.77873 6.03388 1.80211 6.05017C1.92181 6.13375 2.14352 6.291 1.76598 7.04325L1.05765 8.45638C0.636898 9.29575 0.575273 10.1068 0.884106 10.7408C1.13627 11.26 1.61936 11.6163 2.24481 11.7438C2.46723 11.7884 2.69531 11.8125 2.92056 11.8125C4.23098 11.8125 5.11356 11.0475 5.1504 11.0149C5.27719 10.9037 5.30694 10.7174 5.22265 10.5715C5.13765 10.4263 4.96127 10.3611 4.80261 10.4135V10.4135Z" fill="#666773"/>
<path d="M4.20833 4.02153C5.18634 4.02153 5.97917 3.2287 5.97917 2.25069C5.97917 1.27269 5.18634 0.479858 4.20833 0.479858C3.23033 0.479858 2.4375 1.27269 2.4375 2.25069C2.4375 3.2287 3.23033 4.02153 4.20833 4.02153Z" fill="#666773"/>
</svg>
