<svg width="20" height="20" viewBox="0 0 20 20" fill="none" xmlns="http://www.w3.org/2000/svg">
<path d="M20 10C20 4.47715 15.5228 0 10 0C4.47715 0 0 4.47715 0 10C0 15.5228 4.47715 20 10 20C15.5228 20 20 15.5228 20 10Z" fill="url(#paint0_linear_38_7844)"/>
<path opacity="0.1" d="M17.5262 3.42105C16.0683 6.09737 14.0065 8.85789 11.4302 11.4342C8.85384 14.0105 6.09331 16.0684 3.42094 17.5263C3.2534 17.3807 3.09068 17.2289 2.93278 17.0711C1.97838 16.1485 1.2172 15.0452 0.69362 13.8254C0.170039 12.6057 -0.105463 11.2939 -0.116821 9.96655C-0.128179 8.63921 0.124834 7.3229 0.627465 6.09436C1.1301 4.86581 1.87229 3.74963 2.81076 2.8109C3.74923 1.87217 4.8652 1.12967 6.0936 0.626691C7.322 0.123717 8.63825 -0.129663 9.96559 -0.118676C11.2929 -0.107688 12.6048 0.167447 13.8247 0.690688C15.0446 1.21393 16.1481 1.9748 17.0709 2.92895C17.2288 3.08684 17.3806 3.25087 17.5262 3.42105Z" fill="white"/>
<path d="M12.3684 4.73682H7.63155C6.86382 4.73682 6.12753 5.0418 5.58467 5.58467C5.0418 6.12753 4.73682 6.86382 4.73682 7.63155V12.3684C4.73682 13.1361 5.0418 13.8724 5.58467 14.4153C6.12753 14.9582 6.86382 15.2631 7.63155 15.2631H12.3684C13.1361 15.2631 13.8724 14.9582 14.4153 14.4153C14.9582 13.8724 15.2631 13.1361 15.2631 12.3684V7.63155C15.2631 6.86382 14.9582 6.12753 14.4153 5.58467C13.8724 5.0418 13.1361 4.73682 12.3684 4.73682ZM14.3421 11.9526C14.3421 12.5863 14.0903 13.1941 13.6422 13.6422C13.1941 14.0903 12.5863 14.3421 11.9526 14.3421H8.04734C7.41361 14.3421 6.80584 14.0903 6.35773 13.6422C5.90962 13.1941 5.65787 12.5863 5.65787 11.9526V8.04734C5.65787 7.41361 5.90962 6.80584 6.35773 6.35773C6.80584 5.90962 7.41361 5.65787 8.04734 5.65787H11.9526C12.5863 5.65787 13.1941 5.90962 13.6422 6.35773C14.0903 6.80584 14.3421 7.41361 14.3421 8.04734V11.9526Z" fill="white"/>
<path d="M11.9197 8.10001L11.8947 8.07501L11.8737 8.05396C11.3762 7.55818 10.7024 7.27994 10 7.28027C9.64533 7.28268 9.2946 7.35495 8.96785 7.49296C8.64111 7.63096 8.34476 7.83199 8.09573 8.08456C7.84671 8.33713 7.64988 8.63629 7.51651 8.96495C7.38314 9.29361 7.31583 9.64533 7.31843 10C7.3179 10.7198 7.60163 11.4107 8.10791 11.9224C8.35589 12.1734 8.65139 12.3725 8.97716 12.508C9.30293 12.6436 9.65243 12.7129 10.0053 12.7119C10.5345 12.7008 11.0491 12.5359 11.4863 12.2373C11.9235 11.9388 12.2643 11.5195 12.4673 11.0306C12.6702 10.5417 12.7265 10.0042 12.6293 9.48388C12.5321 8.96351 12.2856 8.48267 11.9197 8.10001ZM10 11.7842C9.64611 11.7892 9.29872 11.6888 9.00204 11.4958C8.70536 11.3027 8.47278 11.0259 8.3339 10.7003C8.19501 10.3747 8.1561 10.0152 8.22209 9.66751C8.28808 9.31977 8.45601 8.99952 8.70451 8.74749C8.95302 8.49546 9.27086 8.32303 9.61763 8.25213C9.9644 8.18124 10.3244 8.21508 10.6519 8.34936C10.9794 8.48364 11.2595 8.71228 11.4567 9.00621C11.6539 9.30014 11.7592 9.64607 11.7592 10C11.761 10.2327 11.7168 10.4635 11.6293 10.6791C11.5418 10.8947 11.4127 11.091 11.2493 11.2567C11.086 11.4224 10.8915 11.5542 10.6772 11.6448C10.4628 11.7353 10.2327 11.7827 10 11.7842Z" fill="white"/>
<path d="M13.4775 7.15524C13.4782 7.23967 13.4622 7.32341 13.4305 7.40166C13.3988 7.47992 13.3519 7.55115 13.2927 7.61128C13.2334 7.67141 13.1628 7.71926 13.085 7.75209C13.0073 7.78492 12.9238 7.80209 12.8393 7.8026C12.7556 7.80256 12.6727 7.78591 12.5955 7.75362C12.5182 7.72132 12.4482 7.67401 12.3893 7.61445C12.3002 7.524 12.2395 7.40939 12.2149 7.28481C12.1903 7.16023 12.2028 7.03116 12.2509 6.91362C12.2989 6.79608 12.3804 6.69522 12.4853 6.62356C12.5901 6.5519 12.7137 6.51259 12.8406 6.5105C12.9892 6.51047 13.1331 6.56263 13.2472 6.65787L13.2604 6.67102C13.2816 6.6883 13.301 6.7077 13.3183 6.72892L13.3327 6.74471C13.4269 6.86074 13.4781 7.00579 13.4775 7.15524Z" fill="white"/>
<defs>
<linearGradient id="paint0_linear_38_7844" x1="2.92895" y1="2.92895" x2="17.0711" y2="17.0711" gradientUnits="userSpaceOnUse">
<stop stop-color="#FAE100"/>
<stop offset="0.15" stop-color="#FCB720"/>
<stop offset="0.3" stop-color="#FF7950"/>
<stop offset="0.5" stop-color="#FF1C74"/>
<stop offset="1" stop-color="#6C1CD1"/>
</linearGradient>
</defs>
</svg>
