<svg width="44" height="44" viewBox="0 0 44 44" fill="none" xmlns="http://www.w3.org/2000/svg">
<rect width="44" height="44" rx="8" fill="url(#paint0_radial_862_86334)"/>
<rect x="0.7" y="0.7" width="42.6" height="42.6" rx="7.3" stroke="white" stroke-opacity="0.24" stroke-width="1.4"/>
<path d="M25.3402 15.0506C27.5582 15.1393 28.5933 16.204 28.7116 18.4221C28.7412 19.2798 28.7708 19.546 28.7708 21.7345C28.7708 23.923 28.7708 24.1892 28.7116 25.0469C28.6229 27.265 27.5878 28.3001 25.3402 28.4184C24.4825 28.448 24.2164 28.4776 22.0279 28.4776C19.8394 28.4776 19.5733 28.4776 18.7156 28.4184C16.4976 28.3297 15.4625 27.265 15.3442 25.0469C15.3146 24.1892 15.2851 23.923 15.2851 21.7345C15.2851 19.546 15.2851 19.2798 15.3442 18.4221C15.4329 16.204 16.468 15.1689 18.7156 15.0506C19.5733 15.021 19.8394 14.9914 22.0279 14.9914C24.2164 14.9914 24.4825 14.9914 25.3402 15.0506ZM22.0279 13.5127C19.8099 13.5127 19.5141 13.5127 18.6565 13.5718C15.6695 13.7197 14.0134 15.3463 13.8951 18.3334C13.8655 19.2206 13.8359 19.4868 13.8359 21.7049C13.8359 23.923 13.8359 24.2188 13.8951 25.0765C14.0429 28.0635 15.6695 29.7197 18.6565 29.838C19.5437 29.8676 19.8099 29.8972 22.0279 29.8972C24.2459 29.8972 24.5417 29.8972 25.3993 29.838C28.3863 29.6901 30.0424 28.0635 30.1607 25.0765C30.1903 24.1892 30.2199 23.923 30.2199 21.7049C30.2199 19.4868 30.2199 19.1911 30.1607 18.3334C30.0129 15.3463 28.3863 13.6901 25.3993 13.5718C24.5417 13.5127 24.2459 13.5127 22.0279 13.5127ZM22.0279 17.5053C19.6916 17.5053 17.8284 19.3981 17.8284 21.7049C17.8284 24.0413 19.7211 25.9046 22.0279 25.9046C24.3642 25.9046 26.2274 24.0118 26.2274 21.7049C26.2274 19.3981 24.3347 17.5053 22.0279 17.5053ZM22.0279 24.4554C20.5196 24.4554 19.3071 23.2428 19.3071 21.7345C19.3071 20.2262 20.5196 19.0136 22.0279 19.0136C23.5362 19.0136 24.7487 20.2262 24.7487 21.7345C24.7487 23.2133 23.5362 24.4554 22.0279 24.4554ZM26.4048 16.3519C25.8725 16.3519 25.4289 16.7955 25.4289 17.3279C25.4289 17.8602 25.8725 18.3038 26.4048 18.3038C26.9372 18.3038 27.3808 17.8602 27.3808 17.3279C27.3808 16.7955 26.9372 16.3519 26.4048 16.3519Z" fill="#434548"/>
<defs>
<radialGradient id="paint0_radial_862_86334" cx="0" cy="0" r="1" gradientUnits="userSpaceOnUse" gradientTransform="translate(22 -16.0769) rotate(90) scale(60.0769)">
<stop stop-color="#FFFDDC"/>
<stop offset="0.0001" stop-color="#FEF6C0"/>
<stop offset="1" stop-color="#F3D37E"/>
</radialGradient>
</defs>
</svg>
