<svg width="30" height="30" viewBox="0 0 30 30" fill="none" xmlns="http://www.w3.org/2000/svg">
<g clip-path="url(#clip0_849_6559)">
<path d="M1.9449 17.7256C0.872459 17.7256 0 18.598 0 19.6704V27.2666C0 28.3391 0.872459 29.2115 1.9449 29.2115H7.65356V17.7256H1.9449Z" fill="#757786"/>
<path d="M28.0525 21.2327H22.3438V29.2115H28.0525C29.1249 29.2115 29.9974 28.3391 29.9974 27.2666V23.1775C29.9973 22.1051 29.1249 21.2327 28.0525 21.2327Z" fill="#757786"/>
<path d="M18.6424 13.322H11.359C10.2865 13.322 9.41406 14.1945 9.41406 15.2669V29.2117H20.5873V15.2669C20.5873 14.1944 19.7148 13.322 18.6424 13.322ZM15.1766 22.389C14.6907 22.389 14.2967 21.9951 14.2967 21.5091V19.7219L14.2886 19.7279C14.1303 19.8467 13.9449 19.904 13.7612 19.904C13.4937 19.904 13.2296 19.7826 13.0567 19.552C12.765 19.1633 12.8438 18.6118 13.2325 18.3202L14.6485 17.2579C14.6539 17.2539 14.6595 17.2507 14.6649 17.2469C14.6784 17.2371 14.6922 17.2279 14.7064 17.2189C14.7171 17.2121 14.7279 17.2054 14.7389 17.1992C14.7527 17.1913 14.7668 17.1838 14.7811 17.1766C14.793 17.1706 14.8049 17.1647 14.8171 17.1593C14.8308 17.1532 14.8447 17.1475 14.8586 17.1421C14.8718 17.137 14.8851 17.132 14.8984 17.1276C14.9118 17.1231 14.9254 17.1192 14.939 17.1154C14.9535 17.1113 14.968 17.1075 14.9826 17.1042C14.9955 17.1013 15.0086 17.0988 15.0218 17.0964C15.0375 17.0936 15.0533 17.0912 15.0691 17.0892C15.0816 17.0877 15.0941 17.0865 15.1068 17.0856C15.1236 17.0843 15.1404 17.0834 15.1571 17.083C15.1637 17.0829 15.1701 17.082 15.1766 17.082C15.1828 17.082 15.1888 17.0829 15.195 17.083C15.211 17.0833 15.227 17.0842 15.2429 17.0854C15.2568 17.0864 15.2707 17.0876 15.2844 17.0893C15.2982 17.091 15.312 17.0932 15.3257 17.0956C15.3409 17.0981 15.356 17.1008 15.3709 17.1042C15.3832 17.1071 15.3954 17.1103 15.4077 17.1137C15.4231 17.1179 15.4384 17.1221 15.4535 17.1271C15.4656 17.1311 15.4776 17.1357 15.4896 17.1403C15.5038 17.1457 15.5181 17.1511 15.532 17.1573C15.5449 17.163 15.5577 17.1694 15.5704 17.1757C15.5826 17.1818 15.5948 17.1879 15.6068 17.1945C15.6205 17.2022 15.6338 17.2106 15.6472 17.219C15.6576 17.2256 15.668 17.2321 15.6781 17.2391C15.6915 17.2484 15.7045 17.2584 15.7174 17.2685C15.7271 17.276 15.7367 17.2835 15.746 17.2914C15.7579 17.3015 15.7694 17.3122 15.7809 17.3231C15.7908 17.3324 15.8005 17.3418 15.81 17.3517C15.8198 17.3618 15.8292 17.3723 15.8386 17.3831C15.8489 17.395 15.8591 17.4071 15.8689 17.4195C15.8728 17.4245 15.8771 17.4288 15.8808 17.4338C15.8848 17.4392 15.888 17.4448 15.8918 17.4502C15.9015 17.4637 15.9108 17.4775 15.9198 17.4916C15.9266 17.5024 15.9332 17.5132 15.9396 17.5242C15.9475 17.538 15.9549 17.552 15.9621 17.5663C15.9681 17.5783 15.974 17.5902 15.9795 17.6025C15.9856 17.6161 15.9911 17.6299 15.9966 17.6439C16.0017 17.6571 16.0067 17.6704 16.0112 17.6838C16.0156 17.6971 16.0196 17.7106 16.0234 17.7242C16.0274 17.7387 16.0313 17.7533 16.0346 17.7679C16.0375 17.7808 16.0399 17.7938 16.0422 17.807C16.045 17.8228 16.0475 17.8386 16.0494 17.8544C16.051 17.8669 16.0521 17.8794 16.0531 17.8921C16.0544 17.9088 16.0553 17.9257 16.0557 17.9424C16.0558 17.949 16.0566 17.9554 16.0566 17.9619V21.5092H16.0567C16.0565 21.9951 15.6626 22.389 15.1766 22.389Z" fill="#757786"/>
<path d="M19.9106 4.35886C19.7895 3.98638 19.4735 3.71996 19.0858 3.66359L16.8931 3.34496L15.9125 1.35805C15.7391 1.00678 15.3881 0.788574 14.9963 0.788574C14.6046 0.788574 14.2536 1.00678 14.0801 1.35805L13.0995 3.34501L10.9068 3.66365C10.5191 3.71996 10.2031 3.98638 10.082 4.35898C9.96096 4.73157 10.06 5.13288 10.3405 5.40628L11.9272 6.95292L11.5527 9.13694C11.4865 9.52301 11.6422 9.90586 11.9592 10.1361C12.2761 10.3664 12.6884 10.3961 13.0351 10.2138L14.9964 9.18276L16.9576 10.2138C17.1084 10.2932 17.2717 10.3323 17.434 10.3323C17.645 10.3323 17.8546 10.2662 18.0337 10.136C18.3506 9.90574 18.5063 9.52278 18.4401 9.13682L18.0656 6.95292L19.6524 5.40616C19.9326 5.13271 20.0316 4.7314 19.9106 4.35886Z" fill="#757786"/>
</g>
<defs>
<clipPath id="clip0_849_6559">
<rect width="30" height="30" fill="white"/>
</clipPath>
</defs>
</svg>
