<svg width="33" height="33" viewBox="0 0 33 33" fill="none" xmlns="http://www.w3.org/2000/svg">
<g filter="url(#filter0_i_862_25247)">
<circle cx="16.5" cy="16.5" r="16.5" fill="#2B2B38"/>
</g>
<circle cx="16.5" cy="16.5" r="15.8" stroke="white" stroke-opacity="0.04" stroke-width="1.4"/>
<g clip-path="url(#clip0_862_25247)">
<path d="M23.9242 16.5003C23.9242 20.0884 20.5997 22.9972 16.4992 22.9972C15.7638 22.9982 15.0315 22.9027 14.3209 22.7132C13.7789 22.9879 12.5343 23.5151 10.4404 23.8585C10.2548 23.8882 10.1137 23.6951 10.187 23.5225C10.5156 22.7466 10.8126 21.7126 10.9017 20.7697C9.76474 19.6281 9.07422 18.1338 9.07422 16.5003C9.07422 12.9122 12.3988 10.0034 16.4992 10.0034C20.5997 10.0034 23.9242 12.9122 23.9242 16.5003ZM13.7148 16.5003C13.7148 16.2541 13.6171 16.0181 13.443 15.844C13.2689 15.67 13.0329 15.5722 12.7867 15.5722C12.5406 15.5722 12.3045 15.67 12.1304 15.844C11.9564 16.0181 11.8586 16.2541 11.8586 16.5003C11.8586 16.7464 11.9564 16.9825 12.1304 17.1566C12.3045 17.3306 12.5406 17.4284 12.7867 17.4284C13.0329 17.4284 13.2689 17.3306 13.443 17.1566C13.6171 16.9825 13.7148 16.7464 13.7148 16.5003ZM17.4273 16.5003C17.4273 16.2541 17.3296 16.0181 17.1555 15.844C16.9814 15.67 16.7454 15.5722 16.4992 15.5722C16.2531 15.5722 16.017 15.67 15.8429 15.844C15.6689 16.0181 15.5711 16.2541 15.5711 16.5003C15.5711 16.7464 15.6689 16.9825 15.8429 17.1566C16.017 17.3306 16.2531 17.4284 16.4992 17.4284C16.7454 17.4284 16.9814 17.3306 17.1555 17.1566C17.3296 16.9825 17.4273 16.7464 17.4273 16.5003ZM20.2117 17.4284C20.4579 17.4284 20.6939 17.3306 20.868 17.1566C21.0421 16.9825 21.1398 16.7464 21.1398 16.5003C21.1398 16.2541 21.0421 16.0181 20.868 15.844C20.6939 15.67 20.4579 15.5722 20.2117 15.5722C19.9656 15.5722 19.7295 15.67 19.5554 15.844C19.3814 16.0181 19.2836 16.2541 19.2836 16.5003C19.2836 16.7464 19.3814 16.9825 19.5554 17.1566C19.7295 17.3306 19.9656 17.4284 20.2117 17.4284Z" fill="#757786"/>
</g>
<defs>
<filter id="filter0_i_862_25247" x="0" y="0" width="33" height="35" filterUnits="userSpaceOnUse" color-interpolation-filters="sRGB">
<feFlood flood-opacity="0" result="BackgroundImageFix"/>
<feBlend mode="normal" in="SourceGraphic" in2="BackgroundImageFix" result="shape"/>
<feColorMatrix in="SourceAlpha" type="matrix" values="0 0 0 0 0 0 0 0 0 0 0 0 0 0 0 0 0 0 127 0" result="hardAlpha"/>
<feOffset dy="2"/>
<feGaussianBlur stdDeviation="6"/>
<feComposite in2="hardAlpha" operator="arithmetic" k2="-1" k3="1"/>
<feColorMatrix type="matrix" values="0 0 0 0 1 0 0 0 0 1 0 0 0 0 1 0 0 0 0.02 0"/>
<feBlend mode="normal" in2="shape" result="effect1_innerShadow_862_25247"/>
</filter>
<clipPath id="clip0_862_25247">
<rect width="14.85" height="14.85" fill="white" transform="translate(9.07422 9.0752)"/>
</clipPath>
</defs>
</svg>
