<svg width="12" height="12" viewBox="0 0 12 12" fill="none" xmlns="http://www.w3.org/2000/svg">
<path d="M12 5.62577C12 8.73281 9.3135 11.2515 6 11.2515C5.40574 11.2524 4.81394 11.1697 4.23975 11.0056C3.80175 11.2435 2.796 11.7 1.104 11.9974C0.954 12.0231 0.84 11.8559 0.89925 11.7064C1.16475 11.0346 1.40475 10.1392 1.47675 9.32271C0.558 8.33418 0 7.04025 0 5.62577C0 2.51874 2.6865 0 6 0C9.3135 0 12 2.51874 12 5.62577ZM3.75 5.62577C3.75 5.41262 3.67098 5.2082 3.53033 5.05748C3.38968 4.90676 3.19891 4.82209 3 4.82209C2.80109 4.82209 2.61032 4.90676 2.46967 5.05748C2.32902 5.2082 2.25 5.41262 2.25 5.62577C2.25 5.83892 2.32902 6.04334 2.46967 6.19406C2.61032 6.34478 2.80109 6.42945 3 6.42945C3.19891 6.42945 3.38968 6.34478 3.53033 6.19406C3.67098 6.04334 3.75 5.83892 3.75 5.62577V5.62577ZM6.75 5.62577C6.75 5.41262 6.67098 5.2082 6.53033 5.05748C6.38968 4.90676 6.19891 4.82209 6 4.82209C5.80109 4.82209 5.61032 4.90676 5.46967 5.05748C5.32902 5.2082 5.25 5.41262 5.25 5.62577C5.25 5.83892 5.32902 6.04334 5.46967 6.19406C5.61032 6.34478 5.80109 6.42945 6 6.42945C6.19891 6.42945 6.38968 6.34478 6.53033 6.19406C6.67098 6.04334 6.75 5.83892 6.75 5.62577V5.62577ZM9 6.42945C9.19891 6.42945 9.38968 6.34478 9.53033 6.19406C9.67098 6.04334 9.75 5.83892 9.75 5.62577C9.75 5.41262 9.67098 5.2082 9.53033 5.05748C9.38968 4.90676 9.19891 4.82209 9 4.82209C8.80109 4.82209 8.61032 4.90676 8.46967 5.05748C8.32902 5.2082 8.25 5.41262 8.25 5.62577C8.25 5.83892 8.32902 6.04334 8.46967 6.19406C8.61032 6.34478 8.80109 6.42945 9 6.42945V6.42945Z" fill="#757786"/>
</svg>
