<svg width="14" height="14" viewBox="0 0 14 14" fill="none" xmlns="http://www.w3.org/2000/svg">
<path d="M3 13L3 13.7L3 13ZM11 13V12.3V13ZM9.42427 1V0.3H8.95208L8.77522 0.737822L9.42427 1ZM4.57405 1L5.2231 0.737822L5.04625 0.3L4.57405 0.3L4.57405 1ZM3 1L3 1.7L3 1ZM3 12.3C2.28203 12.3 1.7 11.718 1.7 11H0.3C0.3 12.4912 1.50883 13.7 3 13.7V12.3ZM11 12.3L3 12.3L3 13.7L11 13.7V12.3ZM12.3 11C12.3 11.718 11.718 12.3 11 12.3V13.7C12.4912 13.7 13.7 12.4912 13.7 11H12.3ZM12.3 3V11H13.7V3H12.3ZM11 1.7C11.718 1.7 12.3 2.28203 12.3 3H13.7C13.7 1.50883 12.4912 0.3 11 0.3V1.7ZM9.42427 1.7H11V0.3H9.42427V1.7ZM8.77522 0.737822C8.54213 1.31487 7.86986 1.8 6.99916 1.8V3.2C8.3677 3.2 9.60041 2.43291 10.0733 1.26218L8.77522 0.737822ZM6.99916 1.8C6.12846 1.8 5.4562 1.31487 5.2231 0.737822L3.92501 1.26218C4.39792 2.43291 5.63063 3.2 6.99916 3.2V1.8ZM3 1.7L4.57405 1.7L4.57405 0.3L3 0.3L3 1.7ZM1.7 3C1.7 2.28203 2.28203 1.7 3 1.7V0.3C1.50883 0.3 0.3 1.50883 0.3 3H1.7ZM1.7 11L1.7 3H0.3L0.3 11H1.7Z" fill="#757786"/>
<line x1="3.7" y1="6.3" x2="10.3" y2="6.3" stroke="#757786" stroke-width="1.4" stroke-linecap="round" stroke-dasharray="4 4"/>
</svg>
