<svg width="18" height="18" viewBox="0 0 18 18" fill="none" xmlns="http://www.w3.org/2000/svg">
<path d="M9 13.8C7.93397 14.2979 6.53366 14.6 5 14.6C4.14726 14.6 3.33575 14.5066 2.6 14.3381C2.12704 14.2298 1.89056 14.1756 1.60719 13.9514C1.44557 13.8235 1.24386 13.5704 1.15529 13.3843C1 13.058 1 12.7416 1 12.1088V3.49118C1 2.70331 1.83202 2.16218 2.6 2.33808C3.33575 2.5066 4.14726 2.6 5 2.6C6.53366 2.6 7.93397 2.29789 9 1.8C10.066 1.30211 11.4663 1 13 1C13.8527 1 14.6643 1.0934 15.4 1.26192C15.873 1.37025 16.1094 1.42441 16.3928 1.64863C16.5544 1.77651 16.7561 2.02964 16.8447 2.21573C17 2.542 17 2.8584 17 3.49118V12.1088C17 12.8967 16.168 13.4378 15.4 13.2619C14.6643 13.0934 13.8527 13 13 13C11.4663 13 10.066 13.3021 9 13.8Z" stroke="#757786" stroke-width="1.5"/>
<path d="M1 16.2C2.06603 16.6979 3.46634 17 5 17C6.53366 17 7.93397 16.6979 9 16.2C10.066 15.7021 11.4663 15.4 13 15.4C14.5337 15.4 15.934 15.7021 17 16.2" stroke="#757786" stroke-width="1.5" stroke-linecap="round"/>
<path d="M11 7.8C11 8.90457 10.1046 9.8 9 9.8C7.89543 9.8 7 8.90457 7 7.8C7 6.69543 7.89543 5.8 9 5.8C10.1046 5.8 11 6.69543 11 7.8Z" stroke="#757786" stroke-width="1.5"/>
</svg>
