<svg width="18" height="23" viewBox="0 0 18 23" fill="none" xmlns="http://www.w3.org/2000/svg">
<path d="M13.9649 9.38751C13.4074 11.6079 10.0067 10.4697 8.90279 10.198L9.8782 6.31266C10.9652 6.57923 14.5225 7.08957 13.9481 9.38751H13.9649ZM13.3572 15.6659C12.7551 18.0853 8.66315 16.7761 7.3361 16.448L8.41187 12.1574C9.73891 12.4903 13.987 13.1397 13.3572 15.6659ZM17.8172 9.42108C18.1684 7.0564 16.3621 5.78554 13.9147 4.94189L14.7176 1.73916L12.7386 1.2508L11.9583 4.3704C11.4453 4.24292 10.9158 4.12063 10.3916 4.00393L11.1719 0.851155L9.21508 0.362793L8.41227 3.56552L7.16349 3.28817L4.45963 2.61637L3.94101 4.69811C3.94101 4.69811 5.39049 5.03101 5.36279 5.05339C5.91633 5.12013 6.32014 5.60969 6.27719 6.1636L5.36279 9.81033C5.43143 9.82592 5.49887 9.8479 5.56349 9.87707L5.35717 9.82152L4.0803 14.9337C3.96068 15.3078 3.55927 15.5136 3.18315 15.3945H3.18275C3.18275 15.4221 1.75535 15.0448 1.75535 15.0448L0.785156 17.2653L3.33288 17.8927L4.72656 18.2536L3.91813 21.4895L5.87498 21.9778L6.67779 18.7751C7.20524 18.9194 7.72426 19.0525 8.23324 19.1747L7.44167 22.3887L9.39852 22.8714L10.207 19.6411C13.5519 20.269 16.055 20.0184 17.1143 17.0103C17.9673 14.5901 17.0698 13.1969 15.3136 12.2865C16.5957 11.9924 17.5438 11.1763 17.8168 9.42228L17.8172 9.42108Z" fill="#757786"/>
</svg>
