<svg width="23" height="21" viewBox="0 0 23 21" fill="none" xmlns="http://www.w3.org/2000/svg">
<path d="M13.4587 11.6179C13.3439 11.6179 12.7008 11.6636 11.2769 11.6636C10.1516 11.6636 9.34781 11.6408 9.07222 11.6179C4.70869 11.435 1.4705 10.6804 1.4705 9.76584C1.4705 8.85124 4.73166 8.09669 9.07222 7.91377V10.8634C9.34781 10.8862 10.1746 10.932 11.2999 10.932C12.6549 10.932 13.3209 10.8862 13.4587 10.8634V7.91377C17.7993 8.09669 21.0604 8.85124 21.0604 9.76584C21.0604 10.6576 17.7993 11.4121 13.4587 11.6179ZM13.4587 7.59366V4.96418H19.5217V0.939941H2.98625V4.96418H9.04925V7.59366C4.11158 7.82231 0.414062 8.78264 0.414062 9.94876C0.414062 11.1149 4.13454 12.0752 9.04925 12.3039V20.7639H13.4357V12.3039C18.3964 12.0981 22.0939 11.1377 22.0939 9.97162C22.0939 8.80551 18.3964 7.82231 13.4587 7.59366Z" fill="#757786"/>
</svg>
