<svg width="18" height="24" viewBox="0 0 18 24" fill="none" xmlns="http://www.w3.org/2000/svg">
<path fill-rule="evenodd" clip-rule="evenodd" d="M6.90732 19.8114L8.76523 13.5739L11.6601 12.7566L12.265 10.6918L9.41333 11.5521L12.4378 1.31402V1.15056C12.4356 1.08502 12.4204 1.02056 12.3931 0.960861C12.3659 0.901166 12.327 0.847408 12.2789 0.802662C12.2307 0.757916 12.1742 0.723059 12.1125 0.700084C12.0508 0.677109 11.9852 0.666467 11.9193 0.668766H8.07391C7.92833 0.664298 7.78544 0.708456 7.66799 0.794209C7.55054 0.879961 7.46528 1.00238 7.42581 1.14196L3.83962 13.2728L0.98795 14.1332L0.339844 16.112L3.19151 15.2516L0.642294 23.8981H15.8512C15.9971 23.9041 16.1407 23.8605 16.2585 23.7745C16.3763 23.6886 16.4612 23.5653 16.4993 23.4249L17.3634 20.4567V20.2932C17.3612 20.2277 17.346 20.1632 17.3187 20.1035C17.2915 20.0438 17.2527 19.9901 17.2045 19.9453C17.1563 19.9006 17.0998 19.8657 17.0381 19.8428C16.9764 19.8198 16.9108 19.8091 16.8449 19.8114H6.90732Z" fill="#757786"/>
</svg>
