<svg width="15" height="15" viewBox="0 0 15 15" fill="none" xmlns="http://www.w3.org/2000/svg">
<g clip-path="url(#clip0_340_293)">
<path d="M9.26331 2.51953L1.0101 10.7733C0.968576 10.815 0.938595 10.8676 0.924318 10.9241L0.00952848 14.5958C-0.0178355 14.7064 0.0146444 14.8239 0.0953086 14.9046C0.156342 14.9656 0.239505 14.9994 0.324571 14.9994C0.350626 14.9994 0.377277 14.9962 0.403213 14.9897L4.07498 14.0747C4.13221 14.0605 4.1842 14.0306 4.22572 13.9891L12.4796 5.73587L9.26331 2.51953Z" fill="white"/>
<path d="M14.5242 1.39415L13.6055 0.475432C12.9915 -0.138592 11.9213 -0.137997 11.308 0.475432L10.1826 1.6008L13.3988 4.81702L14.5242 3.69165C14.8309 3.38506 14.9999 2.97697 14.9999 2.54296C14.9999 2.10894 14.8309 1.70086 14.5242 1.39415Z" fill="white"/>
</g>
<defs>
<clipPath id="clip0_340_293">
<rect width="15" height="15" fill="white"/>
</clipPath>
</defs>
</svg>
