<svg width="20" height="20" viewBox="0 0 20 20" fill="none" xmlns="http://www.w3.org/2000/svg">
<path d="M17.8618 4.78564L16.3395 5.66455C16.0592 5.82635 15.9632 6.18472 16.125 6.46496C16.2868 6.7452 16.6452 6.84122 16.9254 6.67942L18.4477 5.80052C18.728 5.63872 18.824 5.28035 18.6622 5.00011C18.5004 4.71987 18.142 4.62385 17.8618 4.78564Z" fill="white"/>
<path d="M19.049 8.35767L17.4482 7.92874C17.1356 7.84499 16.8143 8.0305 16.7305 8.34305C16.6467 8.65562 16.8322 8.97693 17.1449 9.06067L18.7457 9.4896C19.0582 9.57338 19.3796 9.38785 19.4633 9.07529C19.547 8.7627 19.3616 8.44143 19.049 8.35767Z" fill="white"/>
<path d="M15.5333 2.26811C15.2208 2.18436 14.8995 2.36987 14.8157 2.68242L14.3868 4.28323C14.303 4.59582 14.4885 4.91709 14.8011 5.00085C15.1137 5.08461 15.435 4.89906 15.5187 4.58653L15.9476 2.98572C16.0314 2.67314 15.8459 2.35186 15.5333 2.26811Z" fill="white"/>
<path d="M9.26995 1.62598C8.50775 2.06604 8.19977 2.99463 8.51239 3.79017L8.31676 4.5203C7.97625 5.79108 7.06749 6.95706 5.88574 7.63935L2.84112 9.39716C2.17959 9.77909 1.8605 10.529 1.99203 11.2405L1.90475 11.2909C0.785545 11.9371 0.400703 13.3734 1.04688 14.4926C1.69305 15.6118 3.12929 15.9966 4.2485 15.3504L4.33578 15.3C4.73822 15.6434 5.2787 15.7882 5.79892 15.6921L7.31415 18.3166C7.79878 19.156 8.876 19.4446 9.7154 18.9599C10.5548 18.4753 10.8434 17.3981 10.3588 16.5587L8.89393 14.0216L9.40137 13.7286C10.5831 13.0463 12.0472 12.8423 13.318 13.1828L14.0482 13.3784C14.5808 14.0469 15.539 14.2445 16.3012 13.8044C17.1406 13.3198 17.4292 12.2426 16.9446 11.4032L11.6712 2.26938C11.1865 1.42998 10.1094 1.14135 9.26995 1.62598ZM3.66256 14.3356C3.10296 14.6586 2.38483 14.4662 2.06175 13.9066C1.73866 13.347 1.93108 12.6289 2.49068 12.3058L3.66256 14.3356ZM9.3439 17.1447C9.50544 17.4245 9.40923 17.7835 9.12943 17.9451C8.84963 18.1066 8.49057 18.0104 8.32903 17.7306L6.86418 15.1934L7.87906 14.6075L9.3439 17.1447ZM8.30799 13.0067L5.77081 14.4715C5.49101 14.6331 5.13194 14.5369 4.9704 14.2571L3.21259 11.2124C3.05105 10.9326 3.14726 10.5736 3.42706 10.412L5.96424 8.94719L8.30799 13.0067ZM13.2036 11.9549C11.918 11.7079 10.5497 11.8833 9.33276 12.4457L6.96246 8.34015C8.05798 7.56756 8.89401 6.47022 9.3229 5.2333L13.2036 11.9549ZM15.9297 11.9892C16.0913 12.269 15.9951 12.628 15.7153 12.7896L15.7153 12.7896C15.4355 12.9511 15.0764 12.8549 14.9149 12.5751L9.64142 3.44126C9.47988 3.16145 9.57609 2.80239 9.85593 2.64083C10.1357 2.47931 10.4948 2.57552 10.6563 2.85532L15.9297 11.9892Z" fill="white"/>
</svg>
