<svg width="22" height="24" viewBox="0 0 22 24" fill="none" xmlns="http://www.w3.org/2000/svg">
<path d="M0 15.4976C0 14.7646 0.762502 14.2806 1.42574 14.5927L10.5743 18.8972C10.8439 19.0241 11.1561 19.0241 11.4257 18.8972L20.5743 14.5927C21.2375 14.2806 22 14.7646 22 15.4976V17.6732C22 18.0463 21.7924 18.3883 21.4614 18.5604L11.4614 23.7608C11.1722 23.9112 10.8278 23.9112 10.5386 23.7608L0.538618 18.5604C0.207648 18.3883 0 18.0463 0 17.6732V15.4976Z" fill="#4D4D5B"/>
<path fill-rule="evenodd" clip-rule="evenodd" d="M10.0835 7.66523L0.795218 11.422C-0.0208144 11.752 -0.0431182 12.8993 0.759469 13.2608L10.6261 17.7052C10.888 17.8232 11.188 17.8228 11.4496 17.7043L21.2566 13.2598C22.0565 12.8973 22.0341 11.7537 21.2208 11.4227L11.9168 7.63672V11.3828C11.9168 11.8891 11.5064 12.2995 11.0002 12.2995C10.4939 12.2995 10.0835 11.8891 10.0835 11.3828V7.66523Z" fill="#4D4D5B"/>
<ellipse cx="10.9997" cy="3.44451" rx="3.52" ry="3.44451" fill="#4D4D5B"/>
</svg>
