<svg width="19" height="19" viewBox="0 0 19 19" fill="none" xmlns="http://www.w3.org/2000/svg">
<path d="M9.41391 10.2748L12.9764 12.9467C13.2388 13.1435 13.6108 13.0904 13.8077 12.828C14.0045 12.5655 13.9513 12.1935 13.6889 11.9967L10.3906 9.5V4.45312C10.3906 4.12508 10.1249 3.85938 9.79688 3.85938C9.46883 3.85938 9.20312 4.12508 9.20312 4.45312V9.79688C9.20312 9.994 9.28566 10.1715 9.41391 10.2748Z" fill="#4D4D5B"/>
<path d="M10.0946 0.59375C5.74867 0.59375 2.03744 3.73053 1.31306 8.01562L1.08744 7.68016C0.903673 7.40792 0.53436 7.33608 0.262126 7.51984C-0.0101087 7.70361 -0.0819525 8.07292 0.101813 8.34516L1.28931 10.1264C1.38699 10.2748 1.54611 10.3719 1.72275 10.3906H1.78213C1.93947 10.39 2.08999 10.3271 2.20072 10.2155L3.68509 8.73109C3.91695 8.49923 3.91695 8.1228 3.68509 7.89094C3.45323 7.65908 3.0768 7.65908 2.84494 7.89094L2.47681 8.26203C3.16052 4.05412 7.12588 1.19759 11.3335 1.8813C15.5411 2.565 18.3982 6.53006 17.7145 10.738C17.1074 14.4744 13.8801 17.2193 10.0946 17.2187C7.70716 17.2621 5.44913 16.1357 4.04728 14.2025C3.85699 13.9353 3.48619 13.8727 3.219 14.063C2.95181 14.2533 2.88917 14.6241 3.07947 14.8912C4.70278 17.1392 7.32241 18.4517 10.0946 18.4062C15.0135 18.4062 19.0009 14.4189 19.0009 9.5C19.0009 4.58108 15.0135 0.59375 10.0946 0.59375Z" fill="#4D4D5B"/>
</svg>
