<svg width="20" height="20" viewBox="0 0 20 20" fill="none" xmlns="http://www.w3.org/2000/svg">
<path d="M10 14.8C8.93397 15.2979 7.53366 15.6 6 15.6C5.14726 15.6 4.33575 15.5066 3.6 15.3381C3.12704 15.2298 2.89056 15.1756 2.60719 14.9514C2.44557 14.8235 2.24386 14.5704 2.15529 14.3843C2 14.058 2 13.7416 2 13.1088V4.49118C2 3.70331 2.83202 3.16218 3.6 3.33808C4.33575 3.5066 5.14726 3.6 6 3.6C7.53366 3.6 8.93397 3.29789 10 2.8C11.066 2.30211 12.4663 2 14 2C14.8527 2 15.6643 2.0934 16.4 2.26192C16.873 2.37025 17.1094 2.42441 17.3928 2.64863C17.5544 2.77651 17.7561 3.02964 17.8447 3.21573C18 3.542 18 3.8584 18 4.49118V13.1088C18 13.8967 17.168 14.4378 16.4 14.2619C15.6643 14.0934 14.8527 14 14 14C12.4663 14 11.066 14.3021 10 14.8Z" stroke="#757786" stroke-width="1.5"/>
<path d="M2 17.2C3.06603 17.6979 4.46634 18 6 18C7.53366 18 8.93397 17.6979 10 17.2C11.066 16.7021 12.4663 16.4 14 16.4C15.5337 16.4 16.934 16.7021 18 17.2" stroke="#757786" stroke-width="1.5" stroke-linecap="round"/>
<path d="M12 8.7998C12 9.90437 11.1046 10.7998 10 10.7998C8.89543 10.7998 8 9.90437 8 8.7998C8 7.69524 8.89543 6.7998 10 6.7998C11.1046 6.7998 12 7.69524 12 8.7998Z" stroke="#757786" stroke-width="1.5"/>
</svg>
