<svg width="20" height="20" viewBox="0 0 20 20" fill="none" xmlns="http://www.w3.org/2000/svg">
<g clip-path="url(#clip0_340_414)">
<path d="M6.77594 6.95457C8.18391 6.965 9.32859 5.8268 9.32859 4.42121V2.53344C9.32859 1.13426 8.19434 0 6.79516 0C5.39598 0 4.26172 1.13426 4.26172 2.53344V4.38941C4.26172 5.78633 5.37906 6.94422 6.77594 6.95457Z" fill="white"/>
<path d="M13.7201 12.8757C15.4141 12.8883 16.7912 11.5189 16.7912 9.82789V7.55672C16.7912 5.8734 15.4266 4.50879 13.7432 4.50879C12.0599 4.50879 10.6953 5.8734 10.6953 7.55672V9.78965C10.6953 11.4702 12.0396 12.8633 13.7201 12.8757Z" fill="white"/>
<path d="M3.70932 16.2657V13.706H4.63162L2.46447 10.5093L0.297363 13.7061H1.21967V16.2657C1.21967 18.3282 2.89162 20.0002 4.95412 20.0002H8.27361V17.5106H4.95412C4.26662 17.5105 3.70932 16.9532 3.70932 16.2657Z" fill="white"/>
<path d="M9.15633 12.8762C9.50742 12.6209 9.88449 12.4039 10.2845 12.2272C9.79004 11.5163 9.52336 10.6723 9.52336 9.78994V7.55701C9.52336 7.4651 9.52656 7.37369 9.53238 7.28275C9.44652 7.24408 9.35895 7.20861 9.2698 7.17635C8.6132 7.76674 7.74535 8.12658 6.79492 8.12658C6.7857 8.12658 6.77629 8.12654 6.76703 8.12647C5.85746 8.11971 5.00012 7.78357 4.32762 7.17529C3.6018 7.43705 2.98063 7.91744 2.54297 8.53674L5.48469 12.8761H9.15633V12.8762Z" fill="white"/>
<path d="M16.349 13.1478C15.6087 13.7313 14.7003 14.048 13.7432 14.048C13.7325 14.048 13.7217 14.0479 13.7114 14.0478C12.7701 14.0408 11.8779 13.7239 11.1481 13.146C9.66746 13.6554 8.50316 14.8435 8.02539 16.3385H9.44535V20H19.7025V17.8553C19.7025 15.6747 18.3006 13.8217 16.349 13.1478Z" fill="white"/>
</g>
<defs>
<clipPath id="clip0_340_414">
<rect width="20" height="20" fill="white"/>
</clipPath>
</defs>
</svg>
