<svg width="30" height="30" viewBox="0 0 30 30" fill="none" xmlns="http://www.w3.org/2000/svg">
<g clip-path="url(#clip0_849_6546)">
<path d="M7.48958 22.2184C9.54626 22.2184 11.2135 20.5511 11.2135 18.4945C11.2135 16.4378 9.54626 14.7705 7.48958 14.7705C5.43289 14.7705 3.76562 16.4378 3.76562 18.4945C3.76562 20.5511 5.43289 22.2184 7.48958 22.2184Z" fill="#757786"/>
<path d="M22.513 8.40249C24.5697 8.40249 26.237 6.73522 26.237 4.67854C26.237 2.62186 24.5697 0.95459 22.513 0.95459C20.4563 0.95459 18.7891 2.62186 18.7891 4.67854C18.7891 6.73522 20.4563 8.40249 22.513 8.40249Z" fill="#757786"/>
<path d="M14.4476 28.052C13.9759 28.6851 13.2559 29.0451 12.4616 29.0451H2.49375C1.71171 29.0451 0.979375 28.6851 0.507668 28.052C0.0235364 27.4314 -0.125416 26.6369 0.085587 25.8797C0.557294 24.1791 1.58761 22.7516 2.95303 21.7585C3.97092 23.1612 5.62189 24.0798 7.48386 24.0798C9.34584 24.0798 10.9968 23.1612 12.0023 21.7585C13.3677 22.7516 14.398 24.1791 14.8697 25.8797C15.0807 26.6369 14.9318 27.4314 14.4476 28.052Z" fill="#757786"/>
<path d="M29.4789 14.2363C29.0072 14.8694 28.2748 15.2294 27.4928 15.2294H17.525C16.7306 15.2294 16.0106 14.8694 15.5389 14.2363C15.0548 13.6157 14.9058 12.8212 15.1168 12.064C15.5885 10.3634 16.6189 8.93588 17.9843 7.94285C18.9897 9.34554 20.6407 10.2641 22.5027 10.2641C24.3647 10.2641 26.0156 9.34554 27.0211 7.93042C28.3865 8.92353 29.4293 10.3634 29.901 12.064C30.112 12.8212 29.963 13.6157 29.4789 14.2363Z" fill="#757786"/>
<path d="M4.24132 11.5184C3.5552 11.5184 3 10.9626 3 10.277V6.89736C3 4.59959 4.86925 2.72974 7.16762 2.72974H10.5473C11.2334 2.72974 11.7886 3.28554 11.7886 3.97105C11.7886 4.65657 11.2334 5.21237 10.5473 5.21237H7.16762C6.23906 5.21237 5.48263 5.96819 5.48263 6.89736V10.277C5.48263 10.9626 4.92744 11.5184 4.24132 11.5184Z" fill="#757786"/>
<path d="M22.8397 26.7364H19.4601C18.7739 26.7364 18.2188 26.1806 18.2188 25.4951C18.2188 24.8095 18.7739 24.2537 19.4601 24.2537H22.8397C23.7683 24.2537 24.5247 23.4979 24.5247 22.5688V19.1891C24.5247 18.5036 25.0799 17.9478 25.7661 17.9478C26.4522 17.9478 27.0074 18.5036 27.0074 19.1891V22.5688C27.0074 24.8665 25.1381 26.7364 22.8397 26.7364Z" fill="#757786"/>
</g>
<defs>
<clipPath id="clip0_849_6546">
<rect width="30" height="30" fill="white"/>
</clipPath>
</defs>
</svg>
