<svg width="44" height="44" viewBox="0 0 44 44" fill="none" xmlns="http://www.w3.org/2000/svg">
<g filter="url(#filter0_i_862_43468)">
<rect width="44" height="44" rx="8" fill="#2B2B38"/>
</g>
<rect x="0.7" y="0.7" width="42.6" height="42.6" rx="7.3" stroke="white" stroke-opacity="0.04" stroke-width="1.4"/>
<path d="M30.8706 17.2977C30.2791 17.5639 29.6284 17.7413 28.9482 17.83C29.658 17.416 30.1904 16.7653 30.4269 15.9668C29.7763 16.3513 29.0665 16.647 28.2976 16.7949C27.6766 16.1443 26.8189 15.7302 25.843 15.7302C23.6841 15.7302 22.0871 17.7709 22.5603 19.8707C19.7508 19.7228 17.2961 18.392 15.6104 16.3513C14.7232 17.8596 15.1668 19.8411 16.6455 20.8467C16.0836 20.8171 15.5808 20.6692 15.1077 20.4326C15.0781 22.0001 16.2019 23.4493 17.7989 23.7746C17.3257 23.8929 16.7934 23.9225 16.2906 23.8337C16.7047 25.1646 17.9468 26.1406 19.4255 26.1702C18.0059 27.294 16.2315 27.7672 14.457 27.5602C15.9357 28.5066 17.7102 29.0685 19.6029 29.0685C25.843 29.0685 29.3919 23.8042 29.1553 19.0722C29.8355 18.5694 30.3974 17.9779 30.8706 17.2977Z" fill="white"/>
<defs>
<filter id="filter0_i_862_43468" x="0" y="0" width="44" height="46" filterUnits="userSpaceOnUse" color-interpolation-filters="sRGB">
<feFlood flood-opacity="0" result="BackgroundImageFix"/>
<feBlend mode="normal" in="SourceGraphic" in2="BackgroundImageFix" result="shape"/>
<feColorMatrix in="SourceAlpha" type="matrix" values="0 0 0 0 0 0 0 0 0 0 0 0 0 0 0 0 0 0 127 0" result="hardAlpha"/>
<feOffset dy="2"/>
<feGaussianBlur stdDeviation="6"/>
<feComposite in2="hardAlpha" operator="arithmetic" k2="-1" k3="1"/>
<feColorMatrix type="matrix" values="0 0 0 0 1 0 0 0 0 1 0 0 0 0 1 0 0 0 0.02 0"/>
<feBlend mode="normal" in2="shape" result="effect1_innerShadow_862_43468"/>
</filter>
</defs>
</svg>
