<svg width="44" height="44" viewBox="0 0 44 44" fill="none" xmlns="http://www.w3.org/2000/svg">
<g filter="url(#filter0_i_862_43474)">
<rect width="44" height="44" rx="8" fill="#2B2B38"/>
</g>
<rect x="0.7" y="0.7" width="42.6" height="42.6" rx="7.3" stroke="white" stroke-opacity="0.04" stroke-width="1.4"/>
<path d="M25.3402 15.0503C27.5582 15.1391 28.5933 16.2038 28.7116 18.4219C28.7412 19.2796 28.7708 19.5457 28.7708 21.7343C28.7708 23.9228 28.7708 24.189 28.7116 25.0466C28.6229 27.2648 27.5878 28.2999 25.3402 28.4182C24.4825 28.4478 24.2164 28.4773 22.0279 28.4773C19.8394 28.4773 19.5733 28.4773 18.7156 28.4182C16.4976 28.3295 15.4625 27.2648 15.3442 25.0466C15.3146 24.189 15.2851 23.9228 15.2851 21.7343C15.2851 19.5457 15.2851 19.2796 15.3442 18.4219C15.4329 16.2038 16.468 15.1686 18.7156 15.0503C19.5733 15.0208 19.8394 14.9912 22.0279 14.9912C24.2164 14.9912 24.4825 14.9912 25.3402 15.0503ZM22.0279 13.5125C19.8099 13.5125 19.5141 13.5125 18.6565 13.5716C15.6695 13.7195 14.0134 15.3461 13.8951 18.3332C13.8655 19.2204 13.8359 19.4866 13.8359 21.7047C13.8359 23.9228 13.8359 24.2186 13.8951 25.0762C14.0429 28.0633 15.6695 29.7195 18.6565 29.8378C19.5437 29.8673 19.8099 29.8969 22.0279 29.8969C24.2459 29.8969 24.5417 29.8969 25.3993 29.8378C28.3863 29.6899 30.0424 28.0633 30.1607 25.0762C30.1903 24.189 30.2199 23.9228 30.2199 21.7047C30.2199 19.4866 30.2199 19.1908 30.1607 18.3332C30.0129 15.3461 28.3863 13.6899 25.3993 13.5716C24.5417 13.5125 24.2459 13.5125 22.0279 13.5125ZM22.0279 17.5051C19.6916 17.5051 17.8284 19.3978 17.8284 21.7047C17.8284 24.0411 19.7211 25.9043 22.0279 25.9043C24.3642 25.9043 26.2274 24.0115 26.2274 21.7047C26.2274 19.3978 24.3347 17.5051 22.0279 17.5051ZM22.0279 24.4551C20.5196 24.4551 19.3071 23.2426 19.3071 21.7343C19.3071 20.2259 20.5196 19.0134 22.0279 19.0134C23.5362 19.0134 24.7487 20.2259 24.7487 21.7343C24.7487 23.213 23.5362 24.4551 22.0279 24.4551ZM26.4048 16.3516C25.8725 16.3516 25.4289 16.7953 25.4289 17.3276C25.4289 17.86 25.8725 18.3036 26.4048 18.3036C26.9372 18.3036 27.3808 17.86 27.3808 17.3276C27.3808 16.7953 26.9372 16.3516 26.4048 16.3516Z" fill="white"/>
<defs>
<filter id="filter0_i_862_43474" x="0" y="0" width="44" height="46" filterUnits="userSpaceOnUse" color-interpolation-filters="sRGB">
<feFlood flood-opacity="0" result="BackgroundImageFix"/>
<feBlend mode="normal" in="SourceGraphic" in2="BackgroundImageFix" result="shape"/>
<feColorMatrix in="SourceAlpha" type="matrix" values="0 0 0 0 0 0 0 0 0 0 0 0 0 0 0 0 0 0 127 0" result="hardAlpha"/>
<feOffset dy="2"/>
<feGaussianBlur stdDeviation="6"/>
<feComposite in2="hardAlpha" operator="arithmetic" k2="-1" k3="1"/>
<feColorMatrix type="matrix" values="0 0 0 0 1 0 0 0 0 1 0 0 0 0 1 0 0 0 0.02 0"/>
<feBlend mode="normal" in2="shape" result="effect1_innerShadow_862_43474"/>
</filter>
</defs>
</svg>
