<svg width="16" height="16" viewBox="0 0 16 16" fill="none" xmlns="http://www.w3.org/2000/svg">
<g clip-path="url(#clip0_12_88)">
<path d="M8 0C3.58167 0 0 3.58167 0 8C0 12.4183 3.58167 16 8 16C12.4183 16 16 12.4183 16 8C15.995 3.58374 12.4163 0.00500487 8 0ZM8 15.4667C3.87622 15.4667 0.533325 12.1238 0.533325 8C0.533325 3.87622 3.87622 0.533325 8 0.533325C12.1238 0.533325 15.4667 3.87622 15.4667 8C15.4619 12.1218 12.1218 15.4619 8 15.4667V15.4667Z" fill="white"/>
<path d="M8.80029 10.4C8.79883 10.0621 8.58545 9.76172 8.26697 9.64905V9.02881C8.64038 8.93164 8.93188 8.64014 9.02905 8.26672H9.64929C9.77917 8.63403 10.1548 8.85437 10.5388 8.78845C10.9229 8.72253 11.2036 8.38965 11.2036 8C11.2036 7.61035 10.9229 7.27747 10.5388 7.21155C10.1548 7.14563 9.77917 7.36597 9.64929 7.73328H9.02905C8.93188 7.35986 8.64038 7.06836 8.26697 6.97119V6.35095C8.63428 6.22107 8.85461 5.84546 8.7887 5.46143C8.72278 5.07739 8.38989 4.79663 8.00024 4.79663C7.6106 4.79663 7.27771 5.07739 7.21179 5.46143C7.14587 5.84546 7.36621 6.22107 7.73352 6.35095V6.97119C7.36011 7.06836 7.0686 7.35986 6.97144 7.73328H6.3512C6.22131 7.36597 5.8457 7.14563 5.46167 7.21155C5.07764 7.27747 4.79688 7.61035 4.79688 8C4.79688 8.38965 5.07764 8.72253 5.46167 8.78845C5.8457 8.85437 6.22131 8.63403 6.3512 8.26672H6.97144C7.0686 8.64014 7.36011 8.93164 7.73352 9.02881V9.64905C7.35107 9.78528 7.13159 10.187 7.22375 10.5825C7.3158 10.978 7.69006 11.2415 8.09338 11.1948C8.49683 11.1481 8.80103 10.8062 8.80029 10.4V10.4ZM10.4003 7.73328C10.5475 7.73328 10.6669 7.85278 10.6669 8C10.6669 8.14722 10.5475 8.26672 10.4003 8.26672C10.2529 8.26672 10.1335 8.14722 10.1335 8C10.1335 7.85278 10.2529 7.73328 10.4003 7.73328ZM8.00024 5.33337C8.14746 5.33337 8.26697 5.45276 8.26697 5.59998C8.26697 5.74731 8.14746 5.8667 8.00024 5.8667C7.85303 5.8667 7.73352 5.74731 7.73352 5.59998C7.73352 5.45276 7.85303 5.33337 8.00024 5.33337ZM5.60022 8.26672C5.453 8.26672 5.33362 8.14722 5.33362 8C5.33362 7.85278 5.453 7.73328 5.60022 7.73328C5.74756 7.73328 5.86694 7.85278 5.86694 8C5.86694 8.14722 5.74756 8.26672 5.60022 8.26672ZM7.46692 8C7.46692 7.70544 7.70569 7.46667 8.00024 7.46667C8.2948 7.46667 8.53357 7.70544 8.53357 8C8.53357 8.29456 8.2948 8.53333 8.00024 8.53333C7.70569 8.53333 7.46692 8.29456 7.46692 8ZM7.73352 10.4C7.73352 10.2527 7.85303 10.1333 8.00024 10.1333C8.14746 10.1333 8.26697 10.2527 8.26697 10.4C8.26697 10.5472 8.14746 10.6666 8.00024 10.6666C7.85303 10.6666 7.73352 10.5472 7.73352 10.4V10.4Z" fill="white"/>
<path d="M13.5591 3.86084C13.1565 3.32178 12.6783 2.84375 12.1393 2.44128L12.1361 2.43835H12.1345C9.6814 0.610229 6.31885 0.610229 3.86572 2.43835H3.86414L3.86096 2.44128C3.3219 2.84363 2.84375 3.32178 2.44141 3.86084L2.43848 3.86401V3.8656C0.610352 6.31873 0.610352 9.68127 2.43848 12.1344V12.136C2.44043 12.1392 2.44336 12.1416 2.44543 12.145L2.44922 12.1499C2.45923 12.1656 2.4707 12.1804 2.48364 12.1938C2.87708 12.7106 3.3407 13.1699 3.86096 13.5587L3.86414 13.5616H3.86597C6.31897 15.3895 9.68127 15.3895 12.1343 13.5616H12.1361L12.1393 13.5587C12.6595 13.1699 13.1232 12.7106 13.5166 12.1938C13.5295 12.1804 13.541 12.1656 13.551 12.1499L13.5548 12.145C13.5569 12.1416 13.5598 12.1392 13.5618 12.136V12.1344C15.3899 9.68127 15.3899 6.31873 13.5618 3.8656V3.86401L13.5591 3.86084ZM13.998 10.2312L12.5868 9.4165C12.6223 9.30212 12.6503 9.18457 12.6769 9.06665H14.3094C14.2429 9.46387 14.1385 9.85376 13.998 10.2312V10.2312ZM13.2534 11.6499L11.858 10.8448C12.071 10.5582 12.2515 10.2488 12.3959 9.92212L13.7892 10.7264C13.6366 11.0486 13.4574 11.3574 13.2534 11.6499V11.6499ZM10.7271 13.7886L9.92273 12.3951C10.2494 12.2509 10.559 12.0704 10.8455 11.8573L11.65 13.2533C11.3575 13.457 11.0487 13.6361 10.7266 13.7886H10.7271ZM4.35022 13.2533L5.15527 11.8579C5.44189 12.0709 5.75134 12.2513 6.078 12.3958L5.27368 13.7891C4.95154 13.6365 4.6427 13.4573 4.35022 13.2533ZM2.21155 10.7269L3.60498 9.92261C3.74927 10.2493 3.92969 10.5588 4.14282 10.8453L2.74683 11.6499C2.54309 11.3574 2.36401 11.0486 2.21155 10.7264V10.7269ZM2.0022 5.7688L3.41345 6.5835C3.37793 6.69788 3.34998 6.81543 3.32336 6.93335H1.6908C1.75732 6.53613 1.86169 6.14624 2.0022 5.7688ZM2.74731 4.3501L4.14282 5.15515C3.92969 5.44177 3.74927 5.75122 3.60498 6.07788L2.21155 5.27356C2.36401 4.95142 2.54309 4.64258 2.74683 4.3501H2.74731ZM5.27368 2.21143L6.078 3.60486C5.75134 3.74915 5.44189 3.92957 5.15527 4.1427L4.35022 2.7467C4.6427 2.54297 4.95154 2.36389 5.27368 2.21143ZM6.58362 3.41333L5.76892 2.00208C6.14636 1.86157 6.53625 1.7572 6.93347 1.69067V3.32373C6.81555 3.35034 6.698 3.37842 6.58362 3.41333ZM3.23157 7.46667C3.18958 7.82104 3.18958 8.17896 3.23157 8.53333H1.62415C1.6095 8.3573 1.6001 8.17969 1.6001 8C1.6001 7.82031 1.6095 7.6427 1.62415 7.46667H3.23157ZM1.6908 9.06665H3.32385C3.35046 9.18457 3.37854 9.30212 3.41394 9.4165L2.0022 10.2312C1.86169 9.85376 1.75732 9.46387 1.6908 9.06665ZM6.58362 12.5867C6.698 12.6222 6.81555 12.6501 6.93347 12.6768V14.3093C6.53625 14.2428 6.14636 14.1384 5.76892 13.9979L6.58362 12.5867ZM3.7334 8C3.73279 7.00208 4.08362 6.03577 4.72437 5.27063C4.72864 5.26672 4.73181 5.26208 4.73584 5.25818C5.54456 4.29175 6.73999 3.7334 8.00012 3.7334C9.26025 3.7334 10.4557 4.29175 11.2644 5.25818C11.2684 5.26208 11.2716 5.26672 11.2759 5.27063C12.4832 6.71729 12.5986 8.78467 11.5598 10.3567C10.5211 11.9287 8.5741 12.6333 6.7699 12.09C4.9657 11.5468 3.73145 9.88428 3.7334 8V8ZM11.65 2.7467L10.845 4.14209C10.5583 3.92908 10.2489 3.74866 9.92224 3.60425L10.7266 2.21094C11.0487 2.36353 11.3575 2.54272 11.65 2.7467V2.7467ZM9.41663 3.41333C9.30225 3.37781 9.18469 3.34985 9.06677 3.32324V1.69067C9.46399 1.7572 9.85388 1.86157 10.2313 2.00208L9.41663 3.41333ZM9.41663 12.5867L10.2313 13.9984C9.85388 14.1388 9.46399 14.2429 9.06677 14.3093V12.6763C9.18469 12.6497 9.30225 12.6216 9.41663 12.5867ZM12.7687 8.53333C12.8107 8.17896 12.8107 7.82104 12.7687 7.46667H14.3761C14.3907 7.6427 14.4001 7.82031 14.4001 8C14.4001 8.17969 14.3907 8.3573 14.3761 8.53333H12.7687ZM14.3094 6.93335H12.6764C12.6498 6.81543 12.623 6.69788 12.5863 6.5835L13.998 5.7688C14.1385 6.14624 14.2429 6.53613 14.3094 6.93335V6.93335ZM12.3953 6.07788C12.251 5.75122 12.0706 5.44177 11.8574 5.15515L13.2534 4.3501C13.4574 4.64258 13.6366 4.95142 13.7892 5.27356L12.3953 6.07788ZM12.9287 3.92163L11.5118 4.73865C11.4313 4.65186 11.3479 4.56848 11.2615 4.48828L12.0785 3.07178C12.3876 3.328 12.6721 3.61255 12.9283 3.92163H12.9287ZM8.53345 1.62402V3.23145C8.17908 3.18945 7.82117 3.18945 7.4668 3.23145V1.62402C7.64282 1.60938 7.82043 1.59998 8.00012 1.59998C8.17981 1.59998 8.35742 1.60938 8.53345 1.62402ZM3.92175 3.07178L4.73877 4.48828C4.65198 4.56885 4.5686 4.65222 4.4884 4.73865L3.0719 3.92163C3.32812 3.61255 3.61267 3.328 3.92175 3.07178ZM3.0719 12.0784L4.4884 11.2614C4.56897 11.3481 4.65234 11.4315 4.73877 11.5117L3.92175 12.9282C3.61267 12.672 3.32812 12.3875 3.0719 12.0784V12.0784ZM7.4668 14.376V12.7686C7.82117 12.8105 8.17908 12.8105 8.53345 12.7686V14.376C8.35742 14.3906 8.17981 14.4 8.00012 14.4C7.82043 14.4 7.64282 14.3906 7.4668 14.376V14.376ZM12.0785 12.9282L11.2615 11.5117C11.3483 11.4312 11.4316 11.3478 11.5118 11.2614L12.9283 12.0784C12.6721 12.3875 12.3876 12.672 12.0785 12.9282V12.9282Z" fill="white"/>
</g>
<defs>
<clipPath id="clip0_12_88">
<rect width="16" height="16" fill="white"/>
</clipPath>
</defs>
</svg>
