<svg width="19" height="19" viewBox="0 0 19 19" fill="none" xmlns="http://www.w3.org/2000/svg">
<g clip-path="url(#clip0_12_50)">
<path d="M9.41391 10.2748L12.9764 12.9467C13.2388 13.1435 13.6108 13.0904 13.8077 12.828C14.0045 12.5655 13.9513 12.1935 13.6889 11.9967L10.3906 9.5V4.45312C10.3906 4.12508 10.1249 3.85938 9.79688 3.85938C9.46883 3.85938 9.20312 4.12508 9.20312 4.45312V9.79688C9.20312 9.994 9.28566 10.1715 9.41391 10.2748Z" fill="white"/>
<path d="M10.0936 0.59375C5.7477 0.59375 2.03646 3.73053 1.31209 8.01562L1.08646 7.68016C0.902696 7.40792 0.533383 7.33608 0.261149 7.51984C-0.0110853 7.70361 -0.082929 8.07292 0.100837 8.34516L1.28834 10.1264C1.38601 10.2748 1.54513 10.3719 1.72177 10.3906H1.78115C1.93849 10.39 2.08901 10.3271 2.19974 10.2155L3.68412 8.73109C3.91598 8.49923 3.91598 8.1228 3.68412 7.89094C3.45226 7.65908 3.07582 7.65908 2.84396 7.89094L2.47584 8.26203C3.15954 4.05412 7.1249 1.19759 11.3325 1.8813C15.5401 2.565 18.3972 6.53006 17.7135 10.738C17.1064 14.4744 13.8791 17.2193 10.0936 17.2187C7.70618 17.2621 5.44815 16.1357 4.04631 14.2025C3.85601 13.9353 3.48521 13.8727 3.21802 14.063C2.95084 14.2533 2.8882 14.6241 3.07849 14.8912C4.70181 17.1392 7.32143 18.4517 10.0936 18.4062C15.0126 18.4062 18.9999 14.4189 18.9999 9.5C18.9999 4.58108 15.0126 0.59375 10.0936 0.59375Z" fill="white"/>
</g>
<defs>
<clipPath id="clip0_12_50">
<rect width="19" height="19" fill="white"/>
</clipPath>
</defs>
</svg>
