<svg width="20" height="20" viewBox="0 0 20 20" fill="none" xmlns="http://www.w3.org/2000/svg">
<g clip-path="url(#clip0_12_94)">
<path d="M8.59635 9.10514C8.57476 8.92461 8.5157 8.75057 8.42294 8.59419C8.33018 8.43781 8.20578 8.30253 8.0577 8.19702C7.89015 8.07657 7.69076 8.00827 7.48454 8.0007C7.27832 7.99314 7.07446 8.04664 6.89853 8.1545C6.67112 8.29358 6.47036 8.47215 6.3057 8.68179C6.14102 8.47217 5.94027 8.29361 5.71288 8.1545C5.53694 8.04664 5.33307 7.99314 5.12684 8.00071C4.92061 8.00827 4.72121 8.07657 4.55364 8.19702C4.40557 8.30254 4.28118 8.43782 4.18842 8.5942C4.09566 8.75058 4.03659 8.92461 4.015 9.10514C4.01143 9.13138 4.00841 9.15728 4.00594 9.18285C3.98112 9.47623 4.03438 9.77096 4.16031 10.0371C4.28624 10.3033 4.48035 10.5313 4.72294 10.6982C5.24394 11.064 5.808 11.542 6.1017 11.7978C6.15821 11.8471 6.23067 11.8743 6.30567 11.8743C6.38068 11.8743 6.45314 11.8471 6.50964 11.7978C6.80335 11.542 7.36741 11.064 7.88841 10.6982C8.13101 10.5314 8.32513 10.3033 8.45106 10.0371C8.57699 9.77097 8.63024 9.47624 8.60541 9.18285C8.60298 9.15728 8.59996 9.13138 8.59635 9.10514V9.10514Z" fill="white"/>
<path d="M11.5677 15.6719V1.38193C11.5673 1.11058 11.4594 0.850436 11.2675 0.658562C11.0756 0.466687 10.8155 0.358741 10.5441 0.358398H1.8165C1.54515 0.358756 1.28502 0.466707 1.09315 0.658579C0.901278 0.85045 0.793327 1.11058 0.792969 1.38193V15.6719C0.793327 15.9433 0.901278 16.2034 1.09315 16.3953C1.28502 16.5871 1.54515 16.6951 1.8165 16.6955H10.544C10.8154 16.6952 11.0755 16.5872 11.2674 16.3954C11.4594 16.2035 11.5673 15.9433 11.5677 15.6719V15.6719ZM1.2045 15.6719V1.38193C1.20473 1.21975 1.26926 1.06428 1.38394 0.949603C1.49862 0.834925 1.65408 0.770397 1.81626 0.770163H10.544C10.7061 0.770397 10.8616 0.834925 10.9763 0.949603C11.091 1.06428 11.1555 1.21975 11.1557 1.38193V15.6719C11.1555 15.8341 11.091 15.9896 10.9763 16.1043C10.8616 16.2189 10.7061 16.2835 10.544 16.2837H1.8165C1.65428 16.2835 1.49876 16.219 1.38404 16.1043C1.26931 15.9896 1.20475 15.8341 1.2045 15.6719V15.6719Z" fill="#F1F1F1"/>
<path d="M18.7304 6.63395L12.2127 2.90048C12.195 2.8903 12.1749 2.88497 12.1544 2.88501C12.134 2.88505 12.1139 2.89048 12.0962 2.90073C12.0785 2.91098 12.0638 2.92571 12.0536 2.94343C12.0433 2.96116 12.038 2.98125 12.038 3.00171V3.09883C12.038 3.15235 12.0522 3.20491 12.079 3.25121C12.1059 3.2975 12.1445 3.33588 12.1909 3.36248L18.5262 6.99136C18.6494 7.06188 18.7395 7.17844 18.7767 7.3154C18.814 7.45236 18.7953 7.59851 18.7248 7.72171L12.2927 18.9609C12.2223 19.0839 12.106 19.174 11.9692 19.2113C11.8325 19.2487 11.6865 19.2303 11.5633 19.1601L8.25744 17.2459C8.16725 17.1937 8.06488 17.1662 7.96067 17.1662H7.72238C7.6973 17.1662 7.67292 17.1745 7.65302 17.1898C7.63312 17.205 7.61881 17.2264 7.6123 17.2507C7.60579 17.2749 7.60746 17.3006 7.61703 17.3238C7.62661 17.3469 7.64356 17.3663 7.66526 17.3789L11.358 19.5169C11.576 19.6416 11.8346 19.6745 12.0769 19.6086C12.3192 19.5427 12.5254 19.3833 12.6503 19.1654L19.0818 7.92618C19.2066 7.70821 19.2396 7.44962 19.1737 7.20729C19.1078 6.96495 18.9483 6.75872 18.7304 6.63395V6.63395Z" fill="white"/>
<path d="M9.89077 17.1663C9.85698 17.1663 9.82414 17.1775 9.79743 17.1982C9.77071 17.2189 9.75162 17.2479 9.74315 17.2806C9.73468 17.3133 9.73732 17.3479 9.75064 17.379C9.76397 17.41 9.78723 17.4358 9.81677 17.4522L11.3379 18.3026C11.4643 18.3748 11.6142 18.394 11.7547 18.3557C11.8952 18.3175 12.0148 18.2251 12.0872 18.0988L17.8899 7.95978C17.9257 7.89719 17.9488 7.82816 17.958 7.75663C17.9671 7.6851 17.9621 7.61247 17.9431 7.54289C17.9242 7.47331 17.8917 7.40814 17.8476 7.3511C17.8035 7.29407 17.7485 7.24629 17.6859 7.21048L12.4751 4.22901C12.4312 4.20425 12.3816 4.19142 12.3313 4.19178C12.2809 4.19214 12.2315 4.2057 12.188 4.23109C12.1445 4.25648 12.1085 4.29282 12.0834 4.33649C12.0583 4.38017 12.0451 4.42965 12.0451 4.48001L12.0382 15.672C12.0382 16.0682 11.8808 16.4483 11.6006 16.7285C11.3204 17.0087 10.9404 17.1661 10.5441 17.1661L9.89077 17.1663Z" fill="#FAFAFA"/>
<path d="M3.65599 3.30521C3.30075 2.63097 3.09522 1.86303 3.04493 1.66215C3.04592 1.6148 3.03055 1.56855 3.00141 1.53121C2.97228 1.49387 2.93116 1.46771 2.88499 1.45715C2.85245 1.4495 2.81858 1.4495 2.78604 1.45715C2.73986 1.46771 2.69873 1.49388 2.6696 1.53123C2.64046 1.56859 2.6251 1.61485 2.6261 1.66221C2.57581 1.86309 2.3704 2.63097 2.01504 3.30521C1.96113 3.30703 1.9101 3.32997 1.87294 3.36908C1.83579 3.40819 1.8155 3.46033 1.81644 3.51427C1.81738 3.5682 1.83948 3.61961 1.87798 3.6574C1.91647 3.69518 1.96828 3.71633 2.02222 3.71627H2.3191C2.36121 3.71644 2.40235 3.70363 2.43693 3.67961C2.47151 3.65558 2.49786 3.62148 2.51238 3.58196C2.52691 3.54244 2.52892 3.4994 2.51814 3.45869C2.50735 3.41799 2.4843 3.38159 2.4521 3.35445C2.48175 3.29421 2.51022 3.23388 2.53751 3.17345H3.13351C3.16097 3.23372 3.18944 3.29405 3.21893 3.35445C3.18673 3.38159 3.16367 3.418 3.15289 3.45871C3.14211 3.49942 3.14412 3.54246 3.15866 3.58199C3.17319 3.62151 3.19954 3.65561 3.23413 3.67963C3.26872 3.70366 3.30987 3.71645 3.35199 3.71627H3.64887C3.70281 3.71631 3.7546 3.69516 3.79308 3.65736C3.83157 3.61957 3.85366 3.56817 3.85459 3.51424C3.85552 3.46031 3.83523 3.40817 3.79808 3.36907C3.76092 3.32997 3.70989 3.30703 3.65599 3.30521V3.30521ZM2.66281 2.82633C2.72751 2.65792 2.78499 2.49586 2.83551 2.34492C2.8861 2.49586 2.94369 2.65792 3.00822 2.82633H2.66281Z" fill="white"/>
<path d="M10.3383 13.3364H10.0414C9.99933 13.3363 9.95819 13.3491 9.92361 13.3731C9.88903 13.3971 9.86268 13.4312 9.84816 13.4707C9.83363 13.5103 9.83162 13.5533 9.8424 13.594C9.85319 13.6347 9.87624 13.6711 9.90844 13.6983C9.87879 13.7585 9.8503 13.8188 9.82297 13.8793H9.22703C9.19957 13.8189 9.17108 13.7586 9.14155 13.6983C9.17375 13.6711 9.1968 13.6347 9.20759 13.594C9.21837 13.5533 9.21636 13.5103 9.20184 13.4707C9.18731 13.4312 9.16096 13.3971 9.12638 13.3731C9.0918 13.3491 9.05066 13.3363 9.00855 13.3364H8.71161C8.65768 13.3364 8.60588 13.3575 8.5674 13.3953C8.52891 13.4331 8.50682 13.4845 8.50589 13.5385C8.50496 13.5924 8.52525 13.6445 8.56241 13.6836C8.59956 13.7227 8.65059 13.7457 8.7045 13.7475C9.05979 14.4217 9.26526 15.1896 9.31555 15.3905C9.31457 15.4378 9.32993 15.4841 9.35907 15.5214C9.3882 15.5588 9.42932 15.5849 9.4755 15.5955C9.50803 15.6031 9.5419 15.6031 9.57444 15.5955C9.62061 15.5849 9.66173 15.5588 9.69086 15.5214C9.72 15.4841 9.73537 15.4378 9.73438 15.3905C9.78467 15.1895 9.99008 14.4217 10.3454 13.7475C10.3993 13.7457 10.4504 13.7227 10.4875 13.6836C10.5247 13.6445 10.545 13.5924 10.544 13.5384C10.5431 13.4845 10.521 13.4331 10.4825 13.3953C10.444 13.3575 10.3922 13.3364 10.3383 13.3364H10.3383ZM9.52502 14.7078C9.47444 14.5568 9.41685 14.3947 9.35232 14.2264H9.69773C9.6332 14.3947 9.57555 14.5568 9.52502 14.7078V14.7078Z" fill="white"/>
</g>
<defs>
<clipPath id="clip0_12_94">
<rect width="20" height="20" fill="white"/>
</clipPath>
</defs>
</svg>
