<svg width="18" height="18" viewBox="0 0 18 18" fill="none" xmlns="http://www.w3.org/2000/svg">
<g clip-path="url(#clip0_12_44)">
<path d="M9.59471 7.8897L9.02693 6.68335L8.45898 7.8897C8.39544 8.02583 8.26785 8.12092 8.11914 8.14333L6.80664 8.34373L7.77154 9.33123C7.87156 9.43341 7.91712 9.57695 7.89384 9.71802L7.67119 11.0829L8.8084 10.455C8.94424 10.38 9.10929 10.38 9.24513 10.455L10.3823 11.0829L10.1597 9.71802C10.1366 9.57695 10.182 9.43341 10.282 9.33123L11.2469 8.34373L9.93439 8.14333C9.78584 8.12092 9.65826 8.02583 9.59471 7.8897Z" fill="white"/>
<path d="M9.02759 3.59973C6.04047 3.59973 3.61914 6.01755 3.61914 8.99998C3.61914 11.9826 6.04047 14.4002 9.02759 14.4002C12.0146 14.4002 14.436 11.9826 14.436 8.99998C14.4327 6.01887 12.0132 3.60303 9.02759 3.59973V3.59973ZM12.5046 8.34571L11.0865 9.79729L11.4218 11.8527C11.4496 12.0228 11.3778 12.1937 11.2367 12.2929C11.0955 12.3923 10.91 12.4023 10.759 12.3189L9.02759 11.3629L7.29602 12.3188C7.145 12.4022 6.95948 12.3921 6.81836 12.2929C6.6774 12.1935 6.60544 12.0226 6.63317 11.8525L6.96856 9.79713L5.55042 8.34555C5.43192 8.22508 5.39115 8.04841 5.44495 7.88822C5.4986 7.7282 5.63757 7.61168 5.80477 7.58663L7.74678 7.28999L8.61991 5.43365C8.7031 5.28698 8.85874 5.19634 9.02759 5.19634C9.19628 5.19634 9.35192 5.28698 9.43511 5.43365L10.3084 7.28999L12.2502 7.58663C12.4174 7.61168 12.5564 7.7282 12.6102 7.88838C12.6639 8.04841 12.6231 8.22508 12.5046 8.34555V8.34571Z" fill="white"/>
<path d="M17.2392 9.32335C17.1135 9.12625 17.1135 8.8741 17.2392 8.67683L17.8036 7.79843C18.0312 7.44345 18.0987 7.0092 17.9896 6.60197C17.8803 6.19491 17.6045 5.85245 17.2297 5.65864L16.3011 5.17956C16.0938 5.07161 15.9677 4.85391 15.9772 4.62055L16.0264 3.57768C16.0457 3.15645 15.8866 2.74642 15.588 2.44813C15.2872 2.15395 14.8785 1.99607 14.4576 2.01123L13.4136 2.05952C13.1798 2.07073 12.9611 1.94465 12.8536 1.73717L12.3738 0.810154C12.1797 0.435723 11.8367 0.160338 11.4289 0.0512389C11.021 -0.0578603 10.5861 0.00954389 10.2304 0.236806L9.3512 0.799277C9.15379 0.92568 8.90077 0.925845 8.7032 0.799771L7.8238 0.236806C7.46811 0.00937912 7.03303 -0.0580251 6.62518 0.0510742C6.21734 0.160173 5.87419 0.435888 5.68026 0.810319L5.20061 1.73717C5.08986 1.94152 4.87348 2.06628 4.64075 2.05969L3.59663 2.01123C3.17574 1.99508 2.76674 2.15313 2.46635 2.44813C2.16777 2.74642 2.00866 3.15661 2.02797 3.57801L2.07732 4.61973C2.08706 4.85309 1.96079 5.07129 1.75332 5.1794L0.824897 5.65848C0.449897 5.85228 0.174094 6.19491 0.0649937 6.60213C-0.0442712 7.00936 0.0232354 7.44362 0.250843 7.79876L0.815159 8.67617C0.941094 8.87344 0.941094 9.12559 0.815159 9.32269L0.250678 10.2016C0.0230704 10.5566 -0.0444362 10.9908 0.0648287 11.398C0.173929 11.8051 0.449732 12.1476 0.824732 12.3414L1.75332 12.8203C1.96063 12.9282 2.08673 13.1461 2.07732 13.3793L2.02797 14.4222C2.00849 14.8432 2.16744 15.2529 2.46585 15.5511C2.76427 15.849 3.17475 16.0079 3.59646 15.9885L4.64042 15.9402C4.87348 15.9318 5.09085 16.057 5.20028 16.2627L5.68009 17.1899C5.87419 17.5645 6.21717 17.8398 6.62518 17.9489C7.03319 18.058 7.46811 17.9905 7.8238 17.763L8.70303 17.2006C8.9006 17.0742 9.15346 17.074 9.35103 17.2001L10.2304 17.763C10.586 17.9905 11.021 18.0579 11.429 17.9488C11.8369 17.8397 12.1799 17.5641 12.374 17.1895L12.8536 16.2625C12.9675 16.0611 13.1819 15.9375 13.4135 15.9398L14.4576 15.9883C14.8793 16.0077 15.2898 15.8489 15.5882 15.5507C15.8868 15.2526 16.0456 14.8426 16.0259 14.4215L15.9769 13.3801C15.9672 13.1466 16.0934 12.9284 16.3009 12.8203L17.2293 12.3412C17.6043 12.1474 17.8801 11.8048 17.9894 11.3976C18.0987 10.9903 18.0312 10.5561 17.8034 10.2011L17.2392 9.32335ZM9.0272 15.3004C5.54227 15.3004 2.71723 12.4796 2.71723 9.00001C2.71723 5.52054 5.54227 2.69978 9.0272 2.69978C12.512 2.69978 15.337 5.52054 15.337 9.00001C15.3329 12.478 12.5103 15.2963 9.0272 15.3004Z" fill="white"/>
</g>
<defs>
<clipPath id="clip0_12_44">
<rect width="18" height="18" fill="white"/>
</clipPath>
</defs>
</svg>
