<svg width="19" height="13" viewBox="0 0 19 13" fill="none" xmlns="http://www.w3.org/2000/svg">
<path d="M13.6446 0.56251C13.196 0.549816 12.7494 0.626581 12.3307 0.788328C11.9121 0.950074 11.5298 1.19356 11.2063 1.50459C10.9903 1.71394 10.735 1.87839 10.4551 1.98846C10.1751 2.09853 9.87618 2.15202 9.57546 2.14584H9.44879C9.145 2.15564 8.84233 2.10427 8.55877 1.99479C8.27522 1.88531 8.01656 1.71996 7.79817 1.50855C7.19254 0.89501 6.33359 0.602093 5.12234 0.594176H5.09859C4.73269 0.59593 4.37091 0.671506 4.03492 0.816379C3.69892 0.961252 3.39562 1.17244 3.14317 1.4373C0.819627 3.72918 0.791919 10.1852 0.791919 10.4583C0.784701 10.7263 0.820791 10.9936 0.898794 11.25C1.03894 11.6069 1.28531 11.9122 1.60458 12.1246C1.92386 12.337 2.30064 12.4462 2.684 12.4375H3.24213C3.52024 12.4369 3.79448 12.3723 4.04364 12.2488C4.2928 12.1252 4.51019 11.946 4.679 11.725L5.75963 10.7077C6.70787 9.81259 7.95437 9.30092 9.25804 9.27167C10.5617 9.24243 11.8299 9.69768 12.8173 10.5494L14.3571 11.8754C14.5231 12.0525 14.7235 12.1938 14.9461 12.2904C15.1688 12.3871 15.4088 12.4372 15.6515 12.4375H16.3719C16.6739 12.4427 16.9726 12.3731 17.2412 12.235C17.5098 12.0969 17.7402 11.8945 17.9117 11.6458C18.1087 11.2812 18.2108 10.8728 18.2086 10.4583C18.2086 10.1813 18.1809 3.87563 15.794 1.49272C15.5174 1.2002 15.1843 0.966924 14.8148 0.807025C14.4453 0.647125 14.0472 0.563938 13.6446 0.56251V0.56251ZM6.72942 4.91668H5.93775V5.70834C5.93775 5.81332 5.89605 5.91401 5.82182 5.98824C5.74758 6.06247 5.6469 6.10418 5.54192 6.10418C5.43694 6.10418 5.33626 6.06247 5.26202 5.98824C5.18779 5.91401 5.14609 5.81332 5.14609 5.70834V4.91668H4.35442C4.24944 4.91668 4.14876 4.87497 4.07452 4.80074C4.00029 4.72651 3.95859 4.62582 3.95859 4.52084C3.95859 4.41586 4.00029 4.31518 4.07452 4.24095C4.14876 4.16671 4.24944 4.12501 4.35442 4.12501H5.14609V3.33334C5.14609 3.22836 5.18779 3.12768 5.26202 3.05345C5.33626 2.97921 5.43694 2.93751 5.54192 2.93751C5.6469 2.93751 5.74758 2.97921 5.82182 3.05345C5.89605 3.12768 5.93775 3.22836 5.93775 3.33334V4.12501H6.72942C6.8344 4.12501 6.93508 4.16671 7.00932 4.24095C7.08355 4.31518 7.12525 4.41586 7.12525 4.52084C7.12525 4.62582 7.08355 4.72651 7.00932 4.80074C6.93508 4.87497 6.8344 4.91668 6.72942 4.91668ZM13.4586 2.93751C13.6152 2.93751 13.7682 2.98394 13.8984 3.07093C14.0286 3.15792 14.1301 3.28156 14.19 3.42622C14.2499 3.57088 14.2656 3.73005 14.235 3.88362C14.2045 4.03719 14.1291 4.17825 14.0184 4.28897C13.9077 4.39969 13.7666 4.47509 13.613 4.50563C13.4595 4.53618 13.3003 4.5205 13.1556 4.46058C13.011 4.40066 12.8873 4.29919 12.8003 4.169C12.7133 4.03881 12.6669 3.88575 12.6669 3.72918C12.6669 3.51921 12.7503 3.31785 12.8988 3.16938C13.0473 3.02092 13.2486 2.93751 13.4586 2.93751V2.93751ZM11.4794 4.91668C11.4794 4.7601 11.5258 4.60704 11.6128 4.47685C11.6998 4.34666 11.8235 4.24519 11.9681 4.18527C12.1128 4.12535 12.272 4.10967 12.4255 4.14022C12.5791 4.17077 12.7202 4.24617 12.8309 4.35688C12.9416 4.4676 13.017 4.60866 13.0475 4.76223C13.0781 4.9158 13.0624 5.07498 13.0025 5.21963C12.9426 5.36429 12.8411 5.48793 12.7109 5.57492C12.5807 5.66191 12.4277 5.70834 12.2711 5.70834C12.0611 5.70834 11.8598 5.62494 11.7113 5.47647C11.5628 5.328 11.4794 5.12664 11.4794 4.91668ZM13.4586 6.89584C13.302 6.89584 13.1489 6.84941 13.0188 6.76242C12.8886 6.67543 12.7871 6.55179 12.7272 6.40713C12.6673 6.26248 12.6516 6.1033 12.6821 5.94973C12.7127 5.79616 12.7881 5.6551 12.8988 5.54438C13.0095 5.43367 13.1506 5.35827 13.3041 5.32772C13.4577 5.29717 13.6169 5.31285 13.7615 5.37277C13.9062 5.43269 14.0298 5.53416 14.1168 5.66435C14.2038 5.79454 14.2503 5.9476 14.2503 6.10418C14.2503 6.31414 14.1668 6.5155 14.0184 6.66397C13.8699 6.81244 13.6685 6.89584 13.4586 6.89584ZM14.6461 5.70834C14.4895 5.70834 14.3364 5.66191 14.2063 5.57492C14.0761 5.48793 13.9746 5.36429 13.9147 5.21963C13.8548 5.07498 13.8391 4.9158 13.8696 4.76223C13.9002 4.60866 13.9756 4.4676 14.0863 4.35688C14.197 4.24617 14.3381 4.17077 14.4916 4.14022C14.6452 4.10967 14.8044 4.12535 14.949 4.18527C15.0937 4.24519 15.2173 4.34666 15.3043 4.47685C15.3913 4.60704 15.4378 4.7601 15.4378 4.91668C15.4378 5.12664 15.3543 5.328 15.2059 5.47647C15.0574 5.62494 14.856 5.70834 14.6461 5.70834Z" fill="white"/>
</svg>
