<svg width="14" height="12" viewBox="0 0 14 12" fill="none" xmlns="http://www.w3.org/2000/svg">
<path d="M1.09848 5.54114C2.38177 4.8353 3.82089 4.23947 5.15918 3.64364C7.46911 2.67197 9.77903 1.70947 12.1256 0.820302C12.5839 0.664469 13.3997 0.517802 13.4822 1.19614C13.4364 2.14947 13.2623 3.1028 13.1339 4.04697C12.8223 6.13697 12.4556 8.2178 12.0981 10.2986C11.979 10.9953 11.1082 11.3528 10.549 10.9036C9.21072 10.0053 7.87243 9.10697 6.55247 8.1903C6.12165 7.7503 6.52497 7.1178 6.90996 6.80614C8.00992 5.72447 9.17405 4.79864 10.219 3.66197C10.5032 2.98364 9.66903 3.55197 9.39404 3.72614C7.89076 4.76197 6.42414 5.86197 4.82919 6.77864C4.02255 7.2278 3.06925 6.8428 2.26261 6.5953C1.53846 6.30197 0.475163 5.99947 1.09848 5.54114Z" fill="white"/>
</svg>
