<svg width="13" height="11" viewBox="0 0 13 11" fill="none" xmlns="http://www.w3.org/2000/svg">
<path d="M12.6539 1.47321C12.2103 1.67284 11.7223 1.80593 11.2122 1.87247C11.7445 1.56193 12.1437 1.07395 12.3212 0.475057C11.8332 0.763412 11.3009 0.985224 10.7242 1.09613C10.2584 0.608145 9.61517 0.297607 8.88322 0.297607C7.26405 0.297607 6.0663 1.82811 6.42119 3.40297C4.31405 3.29206 2.47307 2.29391 1.20879 0.763413C0.543373 1.89465 0.876079 3.38079 1.9851 4.13495C1.56367 4.11277 1.18661 4.00186 0.831722 3.82441C0.809542 5.00001 1.6524 6.08689 2.85014 6.33088C2.49526 6.4196 2.09601 6.44178 1.71894 6.37524C2.02947 7.37339 2.96105 8.10537 4.07007 8.12755C3.00541 8.97044 1.67458 9.32533 0.34375 9.17007C1.45277 9.87986 2.7836 10.3013 4.20314 10.3013C8.88322 10.3013 11.5449 6.35306 11.3674 2.80408C11.8776 2.427 12.299 1.98338 12.6539 1.47321Z" fill="white"/>
</svg>
