<svg width="14" height="13" viewBox="0 0 14 13" fill="none" xmlns="http://www.w3.org/2000/svg">
<path d="M9.50709 1.7877C11.1706 1.85424 11.9469 2.65276 12.0357 4.31635C12.0578 4.9596 12.08 5.15923 12.08 6.80064C12.08 8.44204 12.08 8.64167 12.0357 9.28492C11.9691 10.9485 11.1928 11.7248 9.50709 11.8136C8.86386 11.8358 8.66423 11.8579 7.02288 11.8579C5.38153 11.8579 5.18191 11.8579 4.53868 11.8136C2.87515 11.747 2.09882 10.9485 2.0101 9.28492C1.98792 8.64167 1.96575 8.44204 1.96575 6.80064C1.96575 5.15923 1.96574 4.9596 2.0101 4.31635C2.07664 2.65276 2.85296 1.87642 4.53868 1.7877C5.18191 1.76551 5.38153 1.74333 7.02288 1.74333C8.66423 1.74333 8.86386 1.74333 9.50709 1.7877ZM7.02288 0.634277C5.35935 0.634277 5.13755 0.634277 4.49431 0.678639C2.25409 0.789545 1.01198 2.00951 0.923263 4.2498C0.901083 4.91524 0.878906 5.11487 0.878906 6.77845C0.878906 8.44204 0.878902 8.66385 0.923263 9.30711C1.03417 11.5474 2.25409 12.7895 4.49431 12.8783C5.15973 12.9004 5.35935 12.9226 7.02288 12.9226C8.68641 12.9226 8.90822 12.9226 9.55145 12.8783C11.7917 12.7674 13.0338 11.5474 13.1225 9.30711C13.1447 8.64167 13.1669 8.44204 13.1669 6.77845C13.1669 5.11487 13.1669 4.89306 13.1225 4.2498C13.0116 2.00951 11.7917 0.767364 9.55145 0.678639C8.90822 0.634277 8.68641 0.634277 7.02288 0.634277ZM7.02288 3.62873C5.27063 3.62873 3.87326 5.04832 3.87326 6.77845C3.87326 8.53076 5.29281 9.92818 7.02288 9.92818C8.77514 9.92818 10.1725 8.50858 10.1725 6.77845C10.1725 5.04832 8.75296 3.62873 7.02288 3.62873ZM7.02288 8.8413C5.89168 8.8413 4.98229 7.93187 4.98229 6.80064C4.98229 5.6694 5.89168 4.75997 7.02288 4.75997C8.15408 4.75997 9.06348 5.6694 9.06348 6.80064C9.06348 7.90969 8.15408 8.8413 7.02288 8.8413ZM10.3056 2.76367C9.90634 2.76367 9.57363 3.09638 9.57363 3.49564C9.57363 3.8949 9.90634 4.22762 10.3056 4.22762C10.7048 4.22762 11.0375 3.8949 11.0375 3.49564C11.0375 3.09638 10.7048 2.76367 10.3056 2.76367Z" fill="white"/>
</svg>
