<svg width="22" height="22" viewBox="0 0 22 22" fill="none" xmlns="http://www.w3.org/2000/svg">
<path d="M21.7927 20.8035L16.1125 15.2141C17.6 13.5981 18.5139 11.4608 18.5139 9.10892C18.5132 4.07787 14.3693 -1.52588e-05 9.25708 -1.52588e-05C4.1449 -1.52588e-05 0.000976562 4.07787 0.000976562 9.10892C0.000976562 14.14 4.1449 18.2179 9.25708 18.2179C11.4659 18.2179 13.4918 17.4539 15.0831 16.1837L20.7853 21.7951C21.0631 22.0688 21.5142 22.0688 21.792 21.7951C22.0705 21.5215 22.0705 21.0772 21.7927 20.8035ZM9.25708 16.8164C4.93162 16.8164 1.42516 13.3657 1.42516 9.10892C1.42516 4.85219 4.93162 1.40145 9.25708 1.40145C13.5826 1.40145 17.089 4.85219 17.089 9.10892C17.089 13.3657 13.5826 16.8164 9.25708 16.8164Z" fill="black"/>
</svg>
