<svg width="18" height="18" viewBox="0 0 18 18" fill="none" xmlns="http://www.w3.org/2000/svg">
<path d="M0.920611 5.51551L16.0659 0.434797C16.2189 0.383363 16.385 0.376904 16.5451 0.416166C16.7052 0.455428 16.8527 0.538807 16.9706 0.65666C17.0885 0.774513 17.1718 0.922023 17.2111 1.08213C17.2504 1.24224 17.2439 1.4084 17.1925 1.5614L12.1117 16.7067C12.0597 16.862 11.9636 16.9973 11.8347 17.0966C11.7058 17.1958 11.5496 17.2548 11.3848 17.2665C11.2199 17.2782 11.0532 17.2421 10.9046 17.1625C10.7561 17.0829 10.6318 16.9632 10.5466 16.8176L7.69918 11.9466C7.66427 11.8869 7.6473 11.8189 7.6504 11.7512C7.65349 11.6835 7.67652 11.6189 7.71659 11.5656L11.9245 5.97248C11.9419 5.94896 11.9528 5.92109 11.9561 5.89156C11.9593 5.86204 11.9549 5.83187 11.9431 5.80397L11.9208 5.76437C11.8967 5.73271 11.8629 5.7097 11.825 5.69908C11.787 5.68847 11.747 5.69087 11.7116 5.70589L11.6777 5.7248L6.08939 9.92786C6.03609 9.96776 5.97161 9.99064 5.90397 9.99365C5.83632 9.99666 5.76849 9.97967 5.70891 9.94479L0.81018 7.08114C0.66441 6.99606 0.544524 6.87181 0.464802 6.72319C0.38508 6.57457 0.348881 6.40784 0.360518 6.24286C0.372154 6.07789 0.431135 5.92162 0.530436 5.79266C0.629737 5.66371 0.765172 5.5675 0.920611 5.51551V5.51551Z" fill="white"/>
</svg>
