<svg width="14" height="13" viewBox="0 0 14 13" fill="none" xmlns="http://www.w3.org/2000/svg">
<path d="M9.50709 1.78818C11.1706 1.85473 11.9469 2.65325 12.0357 4.31684C12.0578 4.96009 12.08 5.15972 12.08 6.80112C12.08 8.44253 12.08 8.64216 12.0357 9.28541C11.9691 10.949 11.1928 11.7253 9.50709 11.8141C8.86386 11.8362 8.66423 11.8584 7.02288 11.8584C5.38153 11.8584 5.18191 11.8584 4.53868 11.8141C2.87515 11.7475 2.09882 10.949 2.0101 9.28541C1.98792 8.64216 1.96575 8.44253 1.96575 6.80112C1.96575 5.15972 1.96574 4.96009 2.0101 4.31684C2.07664 2.65325 2.85296 1.87691 4.53868 1.78818C5.18191 1.766 5.38153 1.74382 7.02288 1.74382C8.66423 1.74382 8.86386 1.74382 9.50709 1.78818ZM7.02288 0.634766C5.35935 0.634766 5.13755 0.634765 4.49431 0.679127C2.25409 0.790033 1.01198 2.01 0.923263 4.25029C0.901083 4.91573 0.878906 5.11536 0.878906 6.77894C0.878906 8.44253 0.878902 8.66434 0.923263 9.30759C1.03417 11.5479 2.25409 12.79 4.49431 12.8788C5.15973 12.9009 5.35935 12.9231 7.02288 12.9231C8.68641 12.9231 8.90822 12.9231 9.55145 12.8788C11.7917 12.7679 13.0338 11.5479 13.1225 9.30759C13.1447 8.64216 13.1669 8.44253 13.1669 6.77894C13.1669 5.11536 13.1669 4.89355 13.1225 4.25029C13.0116 2.01 11.7917 0.767852 9.55145 0.679127C8.90822 0.634765 8.68641 0.634766 7.02288 0.634766ZM7.02288 3.62922C5.27063 3.62922 3.87326 5.04881 3.87326 6.77894C3.87326 8.53125 5.29281 9.92866 7.02288 9.92866C8.77514 9.92866 10.1725 8.50907 10.1725 6.77894C10.1725 5.04881 8.75296 3.62922 7.02288 3.62922ZM7.02288 8.84179C5.89168 8.84179 4.98229 7.93236 4.98229 6.80112C4.98229 5.66989 5.89168 4.76046 7.02288 4.76046C8.15408 4.76046 9.06348 5.66989 9.06348 6.80112C9.06348 7.91018 8.15408 8.84179 7.02288 8.84179ZM10.3056 2.76416C9.90634 2.76416 9.57363 3.09687 9.57363 3.49613C9.57363 3.89539 9.90634 4.22811 10.3056 4.22811C10.7048 4.22811 11.0375 3.89539 11.0375 3.49613C11.0375 3.09687 10.7048 2.76416 10.3056 2.76416Z" fill="#434548"/>
</svg>
