<svg width="21" height="21" viewBox="0 0 21 21" fill="none" xmlns="http://www.w3.org/2000/svg">
<path d="M12.8455 0.000244141L10.4979 2.34779L8.15039 0.000244141H12.8455Z" fill="#99A4B0"/>
<path d="M17.1851 15.6849C16.5748 16.62 15.7775 17.4173 14.8424 18.0275L12.5244 14.0165C12.7656 13.8295 12.987 13.613 13.1691 13.3718L17.1851 15.6849Z" fill="#99A4B0"/>
<path d="M15.9541 11.7577H18.464C18.405 12.9044 18.0998 13.9871 17.6077 14.9566L13.5967 12.6386C13.7148 12.363 13.7935 12.0628 13.8329 11.7577H14.2808C14.5121 11.7577 14.6991 11.5706 14.6991 11.3393C14.6991 11.108 14.5121 10.921 14.2808 10.921H13.8329C13.7935 10.6159 13.7148 10.3206 13.5967 10.0401L17.6077 7.72205C18.1048 8.69158 18.405 9.7743 18.464 10.921H15.9541C15.7228 10.921 15.5357 11.108 15.5357 11.3393C15.5357 11.5706 15.7228 11.7577 15.9541 11.7577Z" fill="#99A4B0"/>
<path d="M12.6953 9.89242C12.6707 9.72509 12.7445 9.55776 12.902 9.46425L17.1837 6.99367C16.5734 6.05859 15.7761 5.26131 14.841 4.65104L14.5162 5.21209C14.4375 5.34497 14.2997 5.42372 14.152 5.42372C14.0782 5.42372 14.0093 5.40403 13.9404 5.36958C13.7386 5.25146 13.6697 4.99555 13.7879 4.79377L14.1127 4.2278C13.1431 3.73073 12.0604 3.43052 10.9137 3.37146V8.00749C11.2188 8.04686 11.5141 8.12561 11.7947 8.24372L12.9857 6.18655C13.0988 5.98476 13.3597 5.91586 13.5565 6.03398C13.7583 6.1521 13.8272 6.40801 13.7091 6.60979L12.3655 8.93765C12.2868 9.07053 12.149 9.14927 12.0014 9.14927C11.9669 9.14927 11.9325 9.14435 11.898 9.13451C11.8094 9.14928 11.7159 9.13943 11.6322 9.09514C11.2779 8.91797 10.894 8.82446 10.4954 8.82446C9.10753 8.82446 7.97559 9.9564 7.97559 11.3443C7.97559 12.7321 9.10753 13.8641 10.4954 13.8641C11.8832 13.8641 13.0152 12.7321 13.0152 11.3443C13.0152 10.9358 12.9217 10.547 12.7347 10.1828C12.6854 10.0893 12.6756 9.98593 12.6953 9.89242ZM12.1539 11.2065L11.7159 11.7773L11.7356 12.4959C11.7405 12.6337 11.6765 12.7666 11.5633 12.8453C11.4895 12.8994 11.4059 12.924 11.3173 12.924C11.2681 12.924 11.2238 12.9142 11.1745 12.8994L10.4954 12.6583L9.81622 12.8994C9.68334 12.9437 9.54062 12.924 9.42742 12.8453C9.31423 12.7616 9.25025 12.6337 9.25517 12.4959L9.27486 11.7773L8.83684 11.2065C8.75318 11.0982 8.72857 10.9505 8.76794 10.8226C8.81224 10.6897 8.91559 10.5863 9.04847 10.5519L9.73748 10.3501L10.146 9.75462C10.2247 9.64142 10.3527 9.57252 10.4905 9.57252C10.6283 9.57252 10.7611 9.64142 10.835 9.75462L11.2434 10.3501L11.9325 10.5519C12.0653 10.5913 12.1687 10.6946 12.213 10.8226C12.2622 10.9505 12.2376 11.0982 12.1539 11.2065Z" fill="#99A4B0"/>
<path d="M10.0818 3.37146V8.00749C9.77172 8.04686 9.47643 8.12561 9.20083 8.24372L6.88281 4.23272C7.84742 3.73565 8.93507 3.43052 10.0818 3.37146Z" fill="#99A4B0"/>
<path d="M8.46626 8.66192C8.22511 8.84894 8.00365 9.06548 7.82155 9.30664L3.81055 6.98862C4.42081 6.05354 5.21809 5.25626 6.15317 4.646L8.46626 8.66192Z" fill="#99A4B0"/>
<path d="M7.40351 10.035C7.2854 10.3106 7.20665 10.6108 7.16728 10.9159H2.53125C2.59031 9.76924 2.89544 8.68651 3.38759 7.71698L7.40351 10.035Z" fill="#99A4B0"/>
<path d="M7.40351 12.6433L3.38759 14.9614C2.89052 13.9918 2.59031 12.9091 2.53125 11.7624H7.16728C7.20665 12.0675 7.2854 12.3628 7.40351 12.6433Z" fill="#99A4B0"/>
<path d="M8.46923 14.0165L6.15122 18.0275C5.21614 17.4172 4.41886 16.6199 3.80859 15.6848L7.8196 13.3668C8.00661 13.6129 8.22316 13.8294 8.46923 14.0165Z" fill="#99A4B0"/>
<path d="M10.0818 14.671V19.307C8.93507 19.248 7.85234 18.9428 6.88281 18.4507L9.20083 14.4397C9.47643 14.5529 9.77172 14.6316 10.0818 14.671Z" fill="#99A4B0"/>
<path d="M14.116 18.4506C13.1464 18.9476 12.0637 19.2478 10.917 19.3069V14.6709C11.227 14.6315 11.5223 14.5527 11.7979 14.4346L14.116 18.4506Z" fill="#99A4B0"/>
<path d="M20.1567 11.3393C20.1567 16.6643 15.8258 21.0001 10.4958 21.0001C5.16586 21.0001 0.834961 16.6692 0.834961 11.3393C0.834961 9.04093 1.65685 6.81643 3.14806 5.0693C4.59989 3.36647 6.60293 2.21977 8.79299 1.83097L9.53613 2.57411C8.30576 2.70699 7.14922 3.09579 6.12063 3.68637C6.11079 3.69129 6.10094 3.69621 6.08618 3.70113C6.07141 3.70605 6.06157 3.7159 6.04681 3.72574C4.74261 4.49349 3.64512 5.58606 2.8823 6.89025C2.87245 6.90009 2.86261 6.91486 2.85769 6.92962C2.85277 6.93946 2.84785 6.94931 2.84292 6.96407C2.09978 8.2535 1.67653 9.74963 1.67653 11.3393C1.67653 12.9289 2.09978 14.425 2.84292 15.7145C2.84785 15.7243 2.85277 15.7341 2.86261 15.7489C2.86753 15.7588 2.87737 15.7686 2.8823 15.7784C3.65005 17.0876 4.74261 18.185 6.05173 18.9528C6.06157 18.9626 6.07634 18.9725 6.0911 18.9774C6.10094 18.9823 6.10586 18.9872 6.11571 18.9872C7.41006 19.7304 8.90619 20.1586 10.5007 20.1586C12.0953 20.1586 13.5964 19.7304 14.8858 18.9872C14.8956 18.9823 14.9005 18.9823 14.9104 18.9774C14.9252 18.9725 14.935 18.9626 14.9498 18.9528C16.2589 18.185 17.3564 17.0876 18.1192 15.7784C18.1241 15.7686 18.134 15.7588 18.1389 15.7489C18.1438 15.7391 18.1487 15.7292 18.1586 15.7145C18.8968 14.425 19.325 12.9289 19.325 11.3393C19.325 9.74963 18.9017 8.2535 18.1586 6.96407C18.1536 6.95423 18.1487 6.94439 18.1389 6.92962C18.134 6.91486 18.1241 6.90501 18.1143 6.89025C17.3465 5.58606 16.254 4.49349 14.9498 3.72574C14.9399 3.7159 14.9252 3.70605 14.9104 3.70113C14.9005 3.69621 14.8907 3.69129 14.8759 3.68145C13.8473 3.09087 12.6908 2.70207 11.4604 2.56919L12.2036 1.82605C14.3936 2.21485 16.3967 3.36155 17.8485 5.06438C19.3348 6.81643 20.1567 9.04093 20.1567 11.3393Z" fill="#99A4B0"/>
<path d="M10.9588 11.3836C10.8997 11.4623 10.8702 11.5558 10.8702 11.6493L10.8751 11.9052L10.634 11.8216C10.5897 11.8068 10.5405 11.797 10.4912 11.797C10.442 11.797 10.3977 11.8068 10.3485 11.8216L10.1074 11.9052L10.1123 11.6493C10.1172 11.5509 10.0828 11.4574 10.0237 11.3836L9.86621 11.1818L10.1123 11.108C10.2058 11.0784 10.2845 11.0243 10.3387 10.9406L10.4814 10.729L10.629 10.9406C10.6832 11.0194 10.7619 11.0784 10.8554 11.108L11.1015 11.1818L10.9588 11.3836Z" fill="#99A4B0"/>
</svg>
