<svg width="21" height="21" viewBox="0 0 21 21" fill="none" xmlns="http://www.w3.org/2000/svg">
<path d="M10.5401 0C10.4588 0 1.17969 6.43023 1.17969 11.3953C1.17969 14.3256 3.13317 16.1977 5.98201 16.1977C7.28434 16.1977 8.91224 15.1395 9.72619 14.407C9.72619 14.407 8.91224 17.8256 7.52852 20.7558C7.36573 21.0814 13.6332 21.0814 13.4704 20.7558C12.0053 17.9884 11.2727 14.407 11.2727 14.407C12.0867 15.2209 13.5518 16.1977 15.0169 16.1977C17.8657 16.1977 19.8192 14.3256 19.8192 11.3953C19.8192 6.43023 10.5401 0 10.5401 0ZM12.1681 12.5349C11.6797 12.5349 11.1099 12.2093 10.7843 11.8837L10.4588 11.6395L10.2146 11.8837C9.88899 12.1279 9.31922 12.5349 8.83085 12.5349C7.8541 12.5349 7.12154 11.8837 7.12154 10.8256C7.12154 9.03488 10.4588 6.75581 10.4588 6.75581C10.4588 6.75581 13.796 9.03488 13.796 10.8256C13.8774 11.8837 13.1448 12.5349 12.1681 12.5349Z" fill="#99A4B0"/>
</svg>
