<svg width="21" height="19" viewBox="0 0 21 19" fill="none" xmlns="http://www.w3.org/2000/svg">
<path d="M1.11047 3.5173L0.00582248 17.2966C-0.0591569 17.9141 0.428189 18.434 1.04549 18.434H7.93331C8.64808 18.434 9.13543 17.7516 8.94049 17.0691L4.52189 2.80233C4.35944 2.24986 3.74214 1.92488 3.18981 2.11987L1.82525 2.60734C1.43537 2.73734 1.14296 3.09482 1.11047 3.5173Z" fill="#99A4B0"/>
<path d="M19.8888 3.51727L20.9935 17.2966C21.0585 17.914 20.5711 18.434 19.9538 18.434H13.066C12.3512 18.434 11.8639 17.7515 12.0588 17.0691L16.4774 2.8348C16.6399 2.28233 17.2572 1.95735 17.8095 2.15234L19.1741 2.60731C19.564 2.73731 19.8564 3.09479 19.8888 3.51727Z" fill="#99A4B0"/>
<path d="M11.1325 1.3092L11.0562 1.33465C10.6744 1.46192 10.2927 1.46192 9.91101 1.33465L9.83467 1.3092L7.62073 0.596476C7.26447 0.494659 6.9082 0.749202 6.9082 1.10556V2.25101V3.39645C6.9082 3.75281 7.26447 4.03281 7.62073 3.90554L9.83467 3.19282L9.91101 3.16736C10.2927 3.04009 10.6744 3.04009 11.0562 3.16736L11.1325 3.19282L13.3464 3.90554C13.7027 4.00736 14.059 3.75281 14.059 3.39645V2.25101V1.10556C14.059 0.749202 13.7027 0.469205 13.3464 0.596476L11.1325 1.3092Z" fill="#99A4B0"/>
</svg>
