<svg width="21" height="19" viewBox="0 0 21 19" fill="none" xmlns="http://www.w3.org/2000/svg">
<path d="M20.9945 3.95954C20.8304 4.3108 20.5841 4.5523 20.1628 4.54681C19.7197 4.54132 19.364 4.21201 19.3421 3.76744C19.3038 3.06491 19.0139 2.53801 18.3628 2.23065C18.1275 2.12088 17.8758 2.08795 17.6241 2.08246C16.8308 2.07697 16.0429 2.08795 15.2496 2.07697C15.0635 2.07697 15.0198 2.14284 15.0252 2.31847C15.0362 2.74108 15.0307 3.16919 15.0307 3.59181C15.0307 4.18457 14.7188 4.54681 14.2045 4.54681C13.6793 4.54681 13.3674 4.19006 13.3674 3.58083C13.3674 3.15821 13.3619 2.73011 13.3729 2.30749C13.3784 2.14284 13.3346 2.07697 13.1595 2.07697C11.5509 2.08246 9.93688 2.08246 8.3283 2.07697C8.16963 2.07697 8.11491 2.12637 8.11491 2.28554C8.12586 2.75206 8.12039 3.21859 8.11491 3.67962C8.10944 4.19006 7.76475 4.54132 7.27233 4.53583C6.79085 4.53034 6.45162 4.18457 6.45162 3.67962C6.44615 3.21859 6.44068 2.76304 6.45162 2.302C6.45709 2.12088 6.40238 2.066 6.22182 2.066C5.30264 2.07148 4.37798 2.066 3.45879 2.07148C2.40829 2.08246 1.75172 2.70815 1.6806 3.75097C1.65324 4.15164 1.36326 4.48095 0.996676 4.53583C0.591795 4.59621 0.214271 4.38764 0.0665447 4.01991C-0.0264684 3.7839 -0.00458297 3.53143 0.0282452 3.28994C0.2471 1.76413 1.34684 0.655446 2.87882 0.424928C3.02655 0.402974 3.17975 0.408462 3.32747 0.408462C8.10944 0.408462 12.8969 0.419439 17.6789 0.402974C19.271 0.397485 20.6334 1.5391 20.9343 2.99905C20.9507 3.0704 20.9726 3.14175 20.989 3.21859C20.9945 3.46557 20.9945 3.71255 20.9945 3.95954Z" fill="#99A4B0"/>
<path d="M20.9946 15.7873C20.8743 16.3801 20.6609 16.929 20.2615 17.3955C19.6104 18.1584 18.7897 18.592 17.7829 18.592C12.9353 18.5975 8.09316 18.5975 3.24553 18.592C1.46187 18.592 -0.00992572 17.0826 0.0119597 15.2989C0.0174311 14.8268 0.362127 14.4701 0.810778 14.4591C1.28679 14.4481 1.64242 14.7775 1.67525 15.255C1.72997 16.0782 2.16768 16.6655 2.87895 16.8521C3.05951 16.9015 3.24006 16.918 3.42609 16.918C4.34528 16.918 5.26994 16.9125 6.18912 16.9235C6.39156 16.9235 6.44628 16.8576 6.44081 16.6655C6.42986 16.2154 6.43534 15.7599 6.43534 15.3098C6.44081 14.8049 6.77456 14.4591 7.26151 14.4536C7.7594 14.4536 8.09863 14.7939 8.1041 15.3153C8.10957 15.7819 8.10957 16.2484 8.1041 16.7094C8.09863 16.8741 8.15881 16.918 8.31748 16.918C9.92606 16.9125 11.5401 16.9125 13.1487 16.918C13.3292 16.918 13.3675 16.8521 13.3621 16.6875C13.3566 16.2264 13.3566 15.7709 13.3621 15.3098C13.3675 14.7939 13.7013 14.4481 14.1992 14.4481C14.6861 14.4481 15.0199 14.7939 15.0254 15.2989C15.0308 15.7654 15.0308 16.2319 15.0254 16.6929C15.0254 16.8466 15.0637 16.9125 15.2333 16.9125C16.0376 16.907 16.8419 16.918 17.6516 16.907C18.6091 16.896 19.2493 16.2813 19.3423 15.3043C19.386 14.8378 19.6268 14.5305 20.0043 14.4536C20.4201 14.3768 20.7484 14.5579 20.9782 14.997C20.9837 15.008 20.9892 15.0189 21.0001 15.0354C20.9946 15.2934 20.9946 15.5404 20.9946 15.7873Z" fill="#99A4B0"/>
<path d="M4.14205 7.60944C4.08186 7.56553 4.01073 7.58748 3.94508 7.58748C3.30493 7.58748 2.65931 7.58748 2.01916 7.58748C1.50485 7.58748 1.16016 7.24171 1.16016 6.74774C1.16016 6.25926 1.50485 5.91897 2.00822 5.91897C3.21192 5.91348 4.41014 5.91348 5.61384 5.91897C6.29229 5.91897 6.68623 6.5776 6.35795 7.17584C5.90383 7.99912 5.42235 8.81142 4.94634 9.62921C4.33902 10.6775 3.73717 11.7258 3.12985 12.7741C2.89458 13.1748 2.51705 13.3449 2.13406 13.2297C1.60334 13.0705 1.3626 12.4832 1.64164 11.9893C2.16689 11.0617 2.70855 10.1396 3.23927 9.21757C3.51831 8.7291 3.80282 8.24611 4.08186 7.75763C4.10922 7.71372 4.14752 7.6753 4.14205 7.60944Z" fill="#99A4B0"/>
<path d="M9.88758 7.58748C9.5593 7.58748 9.23102 7.59297 8.90273 7.58748C8.41578 7.58199 8.08203 7.23622 8.08203 6.75323C8.08203 6.27024 8.42126 5.92446 8.90821 5.91897C10.1174 5.91348 11.3265 5.91348 12.5302 5.91897C13.2087 5.91897 13.6081 6.57211 13.2798 7.17036C12.8695 7.91131 12.4372 8.64128 12.0159 9.37674C11.3648 10.5074 10.7083 11.638 10.0517 12.7686C9.80004 13.2022 9.38421 13.3669 8.97933 13.2022C8.49238 13.0047 8.29541 12.4558 8.55804 11.9948C9.08876 11.0617 9.63043 10.1342 10.1666 9.20111C10.4457 8.72361 10.7138 8.24062 10.9983 7.76312C11.0967 7.59846 11.0475 7.57651 10.8834 7.58199C10.5551 7.59297 10.2213 7.58748 9.88758 7.58748Z" fill="#99A4B0"/>
<path d="M17.6722 5.91345C18.2577 5.91345 18.8486 5.91345 19.434 5.91345C20.1398 5.91894 20.5392 6.57208 20.189 7.18679C19.5161 8.3778 18.8267 9.55783 18.1428 10.7434C17.7488 11.4294 17.3549 12.121 16.95 12.8016C16.66 13.2845 16.1019 13.4053 15.6861 13.0815C15.3469 12.818 15.2648 12.368 15.4891 11.9728C16.1676 10.7928 16.8515 9.61272 17.53 8.43817C17.6558 8.22412 17.7762 8.01007 17.8965 7.79602C17.9294 7.73564 18.0005 7.67527 17.9731 7.6149C17.9403 7.54903 17.8473 7.58745 17.7871 7.58745C17.1306 7.58196 16.474 7.58745 15.8229 7.58196C15.4508 7.58196 15.1554 7.36242 15.046 7.02762C14.9311 6.67636 15.035 6.31411 15.3195 6.0836C15.4727 5.95736 15.6533 5.91345 15.8557 5.91345C16.4576 5.91345 17.0649 5.91345 17.6722 5.91345Z" fill="#99A4B0"/>
</svg>
