<svg width="21" height="21" viewBox="0 0 21 21" fill="none" xmlns="http://www.w3.org/2000/svg">
<path d="M15.8702 0.00251052C15.9643 0.318835 16.0633 0.63265 16.1525 0.948975C16.1797 1.04186 16.2267 1.08454 16.3184 1.10714C16.5659 1.17492 16.8086 1.25024 17.0537 1.32304C17.1082 1.34062 17.1676 1.34564 17.2097 1.38832C17.1998 1.4335 17.1626 1.43099 17.1329 1.44104C16.8655 1.52388 16.5981 1.60924 16.3283 1.68205C16.2168 1.71217 16.1673 1.77242 16.1401 1.88289C16.0732 2.13645 15.9965 2.3875 15.9197 2.64106C15.9074 2.68374 15.9074 2.73395 15.8603 2.76659C15.8133 2.73144 15.8083 2.67621 15.7935 2.62851C15.7167 2.35988 15.6375 2.09126 15.5632 1.82263C15.5409 1.73979 15.4889 1.71217 15.4171 1.68958C15.1473 1.61175 14.8799 1.53141 14.61 1.44857C14.5728 1.43601 14.5258 1.43853 14.4961 1.38078C14.7486 1.30296 14.9913 1.21007 15.2438 1.15484C15.4592 1.10714 15.5731 1.00672 15.6177 0.78077C15.6721 0.514656 15.7662 0.258583 15.843 0C15.8529 0.00251052 15.8603 0.00251052 15.8702 0.00251052Z" fill="#99A4B0"/>
<path d="M13.1889 8.14406C12.8051 8.13653 12.461 8.10641 12.1193 8.0562C11.4087 7.94824 10.7353 7.70723 10.0569 7.48882C9.50723 7.31057 8.95263 7.14739 8.37327 7.09969C7.84343 7.05701 7.34825 7.175 6.88773 7.44112C6.34303 7.75995 5.86766 8.16415 5.45666 8.64366C5.3601 8.75663 5.27592 8.88467 5.21402 9.02023C5.17193 9.11061 5.11499 9.14074 5.0209 9.14074C4.64704 9.13321 4.2707 9.12568 3.89684 9.12568C3.32739 9.12568 2.76041 9.13572 2.19095 9.13823C1.84927 9.14074 1.90127 9.1558 1.90127 8.84199C1.89879 6.65282 1.90127 4.46616 1.90127 2.27699C1.90127 2.08368 1.90127 2.08368 2.09191 2.08368C3.10208 2.08368 4.11472 2.08368 5.12489 2.08368C5.30563 2.08368 5.32049 2.08619 5.30315 2.26193C5.27592 2.55817 5.59036 2.75148 5.84785 2.6611C6.0583 2.58829 6.25885 2.48787 6.46683 2.40754C7.11304 2.15648 7.78153 2.10627 8.4624 2.17155C9.40325 2.26193 10.3094 2.53808 11.2156 2.80922C11.9559 3.03014 12.6888 3.27366 13.4464 3.42178C14.0777 3.54731 14.7141 3.63267 15.3603 3.64522C16.1154 3.66279 16.8582 3.58748 17.5787 3.34647C18.1011 3.17324 18.5864 2.92721 18.9924 2.5431C19.1459 2.39749 19.1509 2.39749 19.292 2.55817C19.8491 3.18831 20.4012 3.81845 20.9607 4.44607C21.0226 4.51386 21.0053 4.55403 20.9459 4.60926C20.5696 4.96073 20.1957 5.3122 19.8367 5.68376C18.7795 6.78085 17.8188 7.9608 17.0166 9.26626C16.1649 10.6571 15.5187 12.1333 15.1473 13.7275C14.8799 14.8722 14.7759 16.0296 14.8378 17.202C14.9022 18.4221 15.1424 19.6046 15.6227 20.7318C15.6351 20.7619 15.6475 20.7946 15.6623 20.8247C15.7465 20.9979 15.7762 21.0004 15.546 21.0004C12.0054 21.0004 8.46488 21.0004 4.92434 21.0004C4.72132 21.0004 4.72132 21.0004 4.67428 20.7996C4.3227 19.2807 4.48116 17.8095 5.09518 16.3861C5.5656 15.294 6.244 14.34 7.01895 13.4513C7.81372 12.54 8.70009 11.7266 9.62112 10.9508C10.6189 10.1073 11.6563 9.31396 12.6987 8.52566C12.8546 8.40516 13.0057 8.28465 13.1889 8.14406ZM7.20217 19.9083C7.65526 19.9109 8.10835 19.9109 8.56144 19.9083C8.7199 19.9083 8.8016 19.8355 8.80408 19.705C8.80655 19.5694 8.7199 19.4891 8.55896 19.4891C7.64783 19.4891 6.73918 19.4891 5.82805 19.4891C5.78348 19.4891 5.73891 19.4916 5.6993 19.5192C5.61512 19.577 5.5755 19.6573 5.60522 19.7577C5.63493 19.8632 5.71168 19.9109 5.82062 19.9083C6.28114 19.9083 6.74165 19.9083 7.20217 19.9083ZM7.7642 3.24354C7.31854 3.24856 6.90506 3.37911 6.50644 3.57241C6.36532 3.64271 6.3158 3.74564 6.36779 3.86112C6.41979 3.98414 6.53368 4.0218 6.67976 3.95903C6.85059 3.88623 7.01895 3.8084 7.19969 3.7607C7.43986 3.69543 7.6825 3.66279 7.93256 3.66028C8.05636 3.66028 8.15539 3.55735 8.15292 3.45191C8.15044 3.32638 8.05883 3.23852 7.92513 3.23601C7.87066 3.2335 7.81619 3.23852 7.7642 3.24354Z" fill="#99A4B0"/>
<path d="M1.33946 14.2961C1.27756 14.0927 1.21814 13.8894 1.15872 13.686C1.13396 13.6032 1.10178 13.5178 1.08692 13.4325C1.06216 13.2768 0.968077 13.2115 0.826951 13.1739C0.594216 13.1161 0.361481 13.0408 0.128747 12.9705C0.0866565 12.958 0.0371385 12.958 0 12.9128C0.0272349 12.8701 0.074277 12.8676 0.113891 12.8551C0.378813 12.7747 0.641258 12.6894 0.908655 12.6166C1.00026 12.5914 1.04731 12.5412 1.07206 12.4509C1.15129 12.1697 1.233 11.8885 1.31718 11.6098C1.32461 11.5847 1.32461 11.5421 1.35927 11.5421C1.39641 11.5421 1.39393 11.5822 1.40136 11.6098C1.48306 11.891 1.56972 12.1697 1.64647 12.4509C1.67123 12.5412 1.7158 12.5914 1.80741 12.6166C2.07728 12.6919 2.34468 12.7747 2.61455 12.8576C2.64921 12.8676 2.70121 12.8701 2.70368 12.9103C2.70616 12.958 2.64921 12.953 2.61703 12.963C2.34468 13.0484 2.07233 13.1312 1.79998 13.209C1.71332 13.2341 1.67123 13.2818 1.64895 13.3672C1.5722 13.6408 1.49297 13.9145 1.41126 14.1856C1.39641 14.2208 1.40384 14.271 1.33946 14.2961Z" fill="#99A4B0"/>
<path d="M18.594 12.9191C18.6435 13.0798 18.6881 13.2254 18.7326 13.3735C18.7797 13.5342 18.8292 13.6924 18.8713 13.8556C18.8911 13.9384 18.9357 13.9836 19.0149 14.0062C19.2872 14.0865 19.5596 14.1694 19.8319 14.2522C19.8716 14.2648 19.9136 14.2648 19.9434 14.2999C19.9334 14.3426 19.8963 14.3401 19.8666 14.3476C19.5868 14.433 19.307 14.5183 19.0248 14.5987C18.9381 14.6238 18.896 14.6664 18.8713 14.7543C18.797 15.0229 18.7178 15.2916 18.6386 15.5602C18.6262 15.5978 18.6262 15.643 18.589 15.6732C18.5445 15.6631 18.5445 15.6204 18.5346 15.5853C18.4529 15.3142 18.3687 15.043 18.2969 14.7669C18.2696 14.6639 18.2177 14.6162 18.1186 14.5886C17.876 14.5233 17.6358 14.4455 17.3957 14.3752C17.3362 14.3577 17.2793 14.3376 17.21 14.315C17.2471 14.2648 17.2917 14.2623 17.3313 14.2497C17.5714 14.1769 17.8116 14.094 18.0542 14.0363C18.2053 13.9987 18.282 13.9258 18.3192 13.7702C18.3736 13.5317 18.4504 13.2957 18.5197 13.0597C18.5296 13.0195 18.5346 12.9718 18.594 12.9191Z" fill="#99A4B0"/>
</svg>
