<svg width="19" height="21" viewBox="0 0 19 21" fill="none" xmlns="http://www.w3.org/2000/svg">
<path d="M13.7698 -1.86557e-05C12.4926 -1.8544e-05 11.2918 0.497359 10.3887 1.40038C10.375 1.41416 10.1994 1.6496 10.1879 1.66516L0.97076 14.1484C0.872512 14.2814 0.868949 14.4619 0.961851 14.5986C1.05475 14.7354 1.22365 14.7986 1.38367 14.7563L4.25472 13.9963L0.502796 20.4141C0.406622 20.5785 0.443565 20.7884 0.589991 20.9101C0.736525 21.0317 0.94949 21.0298 1.0937 20.9052L8.98377 14.0823L8.44836 15.5035C8.38415 15.6738 8.44658 15.8658 8.59857 15.9659C8.75055 16.0661 8.95159 16.0475 9.08278 15.9214L17.1507 8.16244C19.0149 6.29818 19.0149 3.26471 17.1507 1.40034C16.2476 0.49736 15.0469 -1.87673e-05 13.7698 -1.86557e-05ZM13.7697 8.46107C11.7408 8.46107 10.0902 6.81043 10.0902 4.78146C10.0902 2.75242 11.7408 1.10186 13.7697 1.10186C15.7985 1.10186 17.4493 2.75246 17.4493 4.78146C17.4493 6.81047 15.7987 8.46107 13.7697 8.46107Z" fill="white"/>
<path d="M15.9838 5.21314C15.9838 5.36771 15.9625 5.5169 15.9261 5.66034C15.7622 6.30698 15.2534 6.81592 14.6067 6.97969C14.4633 7.01609 14.3141 7.03744 14.1596 7.03744C13.9445 7.03744 13.7701 7.21179 13.7701 7.42686C13.7701 7.64193 13.9445 7.81628 14.1596 7.81628C15.5949 7.81628 16.7627 6.64848 16.7627 5.21314C16.7627 4.9981 16.5883 4.82372 16.3733 4.82372C16.1582 4.82372 15.9838 4.9981 15.9838 5.21314Z" fill="white"/>
</svg>
