<?xml version="1.0" encoding="utf-8"?>
<!-- Generator: Adobe Illustrator 16.0.2, SVG Export Plug-In . SVG Version: 6.00 Build 0)  -->
<!DOCTYPE svg PUBLIC "-//W3C//DTD SVG 1.1//EN" "http://www.w3.org/Graphics/SVG/1.1/DTD/svg11.dtd">
<svg version="1.1" id="Layer_1" xmlns="http://www.w3.org/2000/svg" xmlns:xlink="http://www.w3.org/1999/xlink" x="0px" y="0px"
	 width="19px" height="17px" viewBox="0 0 19 17" enable-background="new 0 0 19 17" xml:space="preserve">
<path fill="#99A4B0" d="M13.043,12.748V17h2.836c1.174,0,2.125-0.952,2.125-2.127V8.409c0.001-0.368-0.143-0.722-0.398-0.987
	l-6.023-6.511C10.52-0.239,8.726-0.31,7.576,0.753c-0.055,0.05-0.107,0.103-0.158,0.158L1.406,7.42
	c-0.264,0.266-0.412,0.625-0.412,1v6.453C0.994,16.048,1.946,17,3.121,17h2.835v-4.252c0.013-1.934,1.574-3.512,3.458-3.557
	C11.36,9.145,13.028,10.749,13.043,12.748z"/>
<path fill="#99A4B0" d="M9.5,10.621c-1.174,0-2.126,0.952-2.126,2.127V17h4.252v-4.252C11.625,11.573,10.674,10.621,9.5,10.621z"/>
</svg>
