<svg width="19" height="18" viewBox="0 0 19 18" fill="none" xmlns="http://www.w3.org/2000/svg">
<path d="M7.45764 12.8629L5.39256 14.9264V0.899947C5.39256 0.661266 5.29767 0.432361 5.12878 0.263588C4.95988 0.0948155 4.73081 0 4.49195 0C4.2531 0 4.02403 0.0948155 3.85513 0.263588C3.68623 0.432361 3.59135 0.661266 3.59135 0.899947V14.9264L1.52626 12.8629C1.35641 12.699 1.12891 12.6083 0.892778 12.6103C0.656643 12.6124 0.43076 12.707 0.263781 12.8739C0.0968016 13.0408 0.002086 13.2665 3.40452e-05 13.5024C-0.00201791 13.7384 0.0887579 13.9657 0.25281 14.1355L3.85523 17.7352C4.02427 17.9037 4.25326 17.9983 4.492 17.9983C4.73073 17.9983 4.95973 17.9037 5.12877 17.7352L8.73119 14.1355C8.89584 13.9658 8.98712 13.7383 8.98531 13.502C8.9835 13.2657 8.88876 13.0396 8.72153 12.8725C8.55431 12.7054 8.32802 12.6107 8.09155 12.609C7.85507 12.6072 7.62738 12.6984 7.45764 12.8629Z" fill="#666773"/>
<path d="M8.09592 3.60067H17.102C17.3408 3.60067 17.5699 3.50586 17.7388 3.33709C17.9077 3.16831 18.0026 2.93941 18.0026 2.70073C18.0026 2.46205 17.9077 2.23314 17.7388 2.06437C17.5699 1.8956 17.3408 1.80078 17.102 1.80078H8.09592C7.85706 1.80078 7.62799 1.8956 7.45909 2.06437C7.2902 2.23314 7.19531 2.46205 7.19531 2.70073C7.19531 2.93941 7.2902 3.16831 7.45909 3.33709C7.62799 3.50586 7.85706 3.60067 8.09592 3.60067Z" fill="#666773"/>
<path d="M17.102 5.40039H8.09592C7.85706 5.40039 7.62799 5.49521 7.45909 5.66398C7.2902 5.83275 7.19531 6.06166 7.19531 6.30034C7.19531 6.53902 7.2902 6.76792 7.45909 6.9367C7.62799 7.10547 7.85706 7.20028 8.09592 7.20028H17.102C17.3408 7.20028 17.5699 7.10547 17.7388 6.9367C17.9077 6.76792 18.0026 6.53902 18.0026 6.30034C18.0026 6.06166 17.9077 5.83275 17.7388 5.66398C17.5699 5.49521 17.3408 5.40039 17.102 5.40039Z" fill="#666773"/>
<path d="M14.4001 9H8.09592C7.85706 9 7.62799 9.09482 7.45909 9.26359C7.2902 9.43236 7.19531 9.66127 7.19531 9.89995C7.19531 10.1386 7.2902 10.3675 7.45909 10.5363C7.62799 10.7051 7.85706 10.7999 8.09592 10.7999H14.4001C14.639 10.7999 14.8681 10.7051 15.037 10.5363C15.2059 10.3675 15.3007 10.1386 15.3007 9.89995C15.3007 9.66127 15.2059 9.43236 15.037 9.26359C14.8681 9.09482 14.639 9 14.4001 9Z" fill="#666773"/>
</svg>
