<svg version="1.2" xmlns="http://www.w3.org/2000/svg" viewBox="0 0 30 30" width="30" height="30">
	<title>spain-flag-round-icon-svg</title>
	<style>
		.s0 { fill: #999999 } 
		.s1 { fill: #ffffff } 
		.s2 { fill: #c52026 } 
		.s3 { fill: #ffc60b } 
		.s4 { fill: #c8b32f } 
		.s5 { fill: #000000 } 
		.s6 { fill: #265eac } 
		.s7 { fill: #cdcccb } 
		.s8 { fill: #ac1f23 } 
		.s9 { fill: none;stroke: #000000;stroke-width: 0 } 
		.s10 { fill: none;stroke: #000000;stroke-linejoin: round;stroke-width: 0 } 
		.s11 { fill: #c6b52f } 
		.s12 { fill: #008f6f } 
		.s13 { fill: #da4546 } 
		.s14 { fill: #eb71a9 } 
		.s15 { fill: #ffd791 } 
		.s16 { fill: #3a57a7 } 
	</style>
	<path id="Layer" class="s0" d="m15 0c4.1 0 7.9 1.7 10.6 4.4 2.7 2.7 4.4 6.5 4.4 10.6 0 4.1-1.7 7.9-4.4 10.6-2.7 2.7-6.5 4.4-10.6 4.4-4.1 0-7.9-1.7-10.6-4.4-2.7-2.7-4.4-6.5-4.4-10.6 0-4.1 1.7-7.9 4.4-10.6 2.7-2.7 6.5-4.4 10.6-4.4z"/>
	<path id="Layer" class="s1" d="m15 1.1c3.8 0 7.3 1.6 9.8 4.1l0.1 0.1c2.4 2.5 4 5.9 4 9.7 0 3.8-1.6 7.3-4.1 9.8l-0.1 0.1c-2.5 2.4-5.9 4-9.7 4-3.8 0-7.3-1.6-9.8-4.1-2.5-2.5-4.1-6-4.1-9.8 0-3.8 1.6-7.3 4.1-9.8 2.5-2.5 6-4.1 9.8-4.1z"/>
	<path id="Layer" class="s2" d="m16.7 27.6h-3.4c-6.2-0.9-11-6.2-11-12.6 0-7 5.7-12.7 12.7-12.7 7 0 12.7 5.7 12.7 12.7 0 6.4-4.8 11.7-11 12.6z"/>
	<path id="Layer" class="s3" d="m2.3 15c0-2.5 0.7-4.8 2-6.8h21.4c1.3 2 2 4.3 2 6.8 0 1.6-0.3 3.1-0.8 4.5h-23.8c-0.5-1.4-0.8-2.9-0.8-4.5z"/>
	<path id="Layer" class="s4" d="m7.1 11.2h1v0.3h-1z"/>
	<path id="Layer" fill-rule="evenodd" class="s5" d="m7.1 11.5v-0.3h1v0.3zm0 0h1v-0.3h-1z"/>
	<path id="Layer" class="s4" d="m7.2 11.6q0 0 0-0.1 0 0.1 0 0.1h0.8q0-0.1 0-0.1 0 0.1-0.1 0.1 0 0 0.1 0.1 0 0 0 0h-0.8q0 0 0 0 0-0.1 0-0.1z"/>
	<path id="Layer" fill-rule="evenodd" class="s5" d="m7.2 11.7q0 0 0 0 0-0.1 0-0.1 0 0 0 0 0 0 0 0 0 0 0 0 0 0 0 0 0 0 0 0 0 0 0 0 0 0 0 0 0-0.1 0-0.1 0 0 0 0 0 0 0 0 0 0 0 0 0 0 0 0 0 0 0 0h0.8q0 0 0 0 0 0 0 0 0 0.1 0 0.1 0 0 0 0 0 0 0 0 0 0 0 0 0 0 0 0.1 0 0 0 0 0 0 0 0 0 0 0 0c-0.2 0-0.6 0-0.8 0q0 0 0 0 0 0 0 0zm0 0h0.8v-0.1q-0.1 0-0.1 0 0 0 0 0 0 0 0 0 0 0 0.1 0h-0.8q0.1 0 0.1 0 0 0-0.1 0z"/>
	<path id="Layer" class="s4" d="m7.2 11.7h0.8q0 0 0 0 0 0 0 0h-0.8q0 0 0 0 0 0 0 0z"/>
	<path id="Layer" fill-rule="evenodd" class="s5" d="m7.2 11.7h0.8q0 0 0 0 0 0 0 0 0 0 0 0 0 0 0 0h-0.8q0 0 0 0 0 0 0 0 0 0 0 0 0 0 0 0 0 0 0 0 0 0 0 0 0 0 0 0zm0.8 0h-0.8q0 0 0 0 0 0 0 0 0 0 0 0 0 0 0 0h0.8q0 0 0 0 0 0 0 0 0 0 0 0 0 0 0 0 0 0 0 0 0 0 0 0 0 0 0 0z"/>
	<path id="Layer" class="s4" d="m7.2 11.5h0.8q0 0 0 0 0 0 0 0.1h-0.8q0-0.1 0-0.1 0 0 0 0z"/>
	<path id="Layer" fill-rule="evenodd" class="s5" d="m7.2 11.5h0.8q0 0 0 0 0 0 0 0 0 0 0 0 0 0.1 0 0.1h-0.8q0 0 0-0.1 0 0 0 0 0 0 0 0 0 0 0 0zm0.8 0h-0.8q0 0 0 0 0 0 0 0 0 0 0 0 0 0 0 0 0 0 0 0 0 0 0 0 0 0 0 0h0.8q0 0 0 0 0 0 0 0 0 0 0 0 0 0 0 0 0 0 0 0 0 0 0 0 0 0 0 0z"/>
	<path id="Layer" class="s6" d="m8.3 16q-0.1 0-0.2 0 0-0.1-0.2-0.1-0.1 0-0.1 0.1-0.1 0-0.2 0-0.1 0-0.2 0-0.1-0.1-0.2-0.1-0.1 0-0.1 0.1-0.1 0-0.2 0v-0.1q0.1 0 0.2 0 0-0.1 0.1-0.1 0.1 0 0.2 0.1 0.1 0 0.2 0 0.1 0 0.2 0 0-0.1 0.1-0.1 0.1 0 0.2 0.1 0.1 0 0.2 0z"/>
	<path id="Layer" fill-rule="evenodd" class="s5" d="m8.2 15.9q0 0 0.1 0v0.1q-0.1 0-0.1 0 0 0-0.1 0 0 0 0 0 0 0 0 0 0 0 0 0-0.1 0-0.1 0 0 0-0.1 0 0 0 0 0-0.1 0-0.1 0-0.1 0-0.1 0-0.1 0-0.1 0-0.1 0-0.1 0 0 0 0 0 0 0 0 0-0.1 0-0.1 0 0 0 0 0 0 0-0.1 0 0 0 0 0 0 0-0.1 0 0 0 0 0 0 0 0 0-0.1 0-0.1 0-0.1 0-0.1 0-0.1 0-0.1 0v-0.1q0 0 0.1 0 0 0 0.1 0 0 0 0.1-0.1 0 0 0 0 0 0 0 0 0 0 0 0 0 0 0 0 0.1 0 0.1 0 0.1 0.1 0.1 0.1 0.1 0 0.1 0 0 0 0.1 0 0 0 0.1 0 0 0 0.1 0 0 0 0-0.1 0.1 0 0.1 0 0.1 0 0.1 0 0.1 0.1 0.1 0.1 0.1 0 0.1 0zm0.1 0q-0.1 0-0.1 0 0 0-0.1 0 0 0-0.1 0 0 0 0 0 0 0-0.1 0 0 0 0 0 0 0 0 0-0.1 0-0.1 0-0.1 0-0.1 0-0.1 0-0.1 0-0.1 0-0.1 0-0.1 0-0.1 0 0 0-0.1 0 0 0 0-0.1 0 0-0.1 0 0 0 0 0 0 0.1 0 0.1-0.1 0-0.1 0 0 0 0 0 0 0 0 0 0 0 0 0 0 0-0.1 0 0 0 0 0 0 0-0.1 0 0 0 0 0v0.1q0 0 0.1 0 0 0 0 0 0 0 0 0 0 0 0 0 0.1 0 0.1 0 0 0 0.1-0.1 0 0 0 0 0.1 0 0.1 0 0.1 0.1 0.1 0.1 0.1 0 0.1 0 0 0 0.1 0 0 0 0.1 0 0 0 0.1 0 0 0 0.1-0.1 0 0 0 0 0.1 0 0.1 0 0.1 0.1 0.1 0.1 0.1 0 0.1 0 0 0 0.1 0z"/>
	<path id="Layer" class="s7" d="m8.3 16.1q-0.1 0-0.2 0 0 0-0.2 0-0.1 0-0.1 0-0.1 0-0.2 0-0.1 0-0.2 0-0.1 0-0.2 0-0.1 0-0.1 0-0.1 0-0.2 0v-0.1q0.1 0 0.2 0 0 0 0.1 0 0.1 0 0.2 0 0.1 0 0.2 0 0.1 0 0.2 0 0 0 0.1 0 0.1 0 0.2 0 0.1 0 0.2 0z"/>
	<path id="Layer" fill-rule="evenodd" class="s5" d="m8.2 16q0 0 0.1 0v0.1q-0.1 0-0.1 0 0 0-0.1 0 0 0-0.1 0 0 0-0.1 0 0 0 0 0-0.1 0-0.1 0-0.1 0-0.1 0-0.1 0-0.1 0-0.1 0-0.1 0-0.1 0-0.1 0 0 0-0.1 0 0 0-0.1 0 0 0 0 0-0.1 0-0.1 0-0.1 0-0.1 0-0.1 0-0.1 0v-0.1q0 0 0.1 0 0 0 0.1 0 0 0 0.1 0 0-0.1 0-0.1 0.1 0 0.1 0.1 0.1 0 0.1 0 0.1 0 0.1 0 0 0 0.1 0 0 0 0.1 0 0 0 0 0 0 0 0 0 0 0 0 0 0.1 0 0.1 0 0 0 0 0 0.1-0.1 0.1-0.1 0.1 0 0.1 0.1 0.1 0 0.1 0 0.1 0 0.1 0zm0.1 0q-0.1 0-0.1 0 0 0-0.1 0 0 0-0.1 0 0 0 0 0 0 0 0 0 0 0 0 0 0 0-0.1 0 0 0 0 0-0.1 0-0.1 0-0.1 0-0.1 0-0.1 0-0.1 0-0.1 0-0.1 0 0 0-0.1 0 0 0-0.1 0 0 0-0.1 0 0 0 0 0-0.1 0-0.1 0-0.1 0-0.1 0-0.1 0-0.1 0v0.1q0 0 0.1 0 0 0 0.1 0 0 0 0.1 0 0 0 0 0 0.1 0 0.1 0 0.1 0 0.1 0 0.1 0 0.1 0 0 0 0.1 0 0 0 0.1 0 0 0 0.1 0 0 0 0.1 0 0 0 0 0 0.1 0 0.1 0 0.1 0 0.1 0 0.1 0 0.1 0 0 0 0.1 0z"/>
	<path id="Layer" class="s6" d="m8.3 16.2q-0.1 0-0.2 0 0 0-0.2 0-0.1 0-0.1 0-0.1 0-0.2 0-0.1 0-0.2 0-0.1 0-0.2 0-0.1 0-0.1 0-0.1 0-0.2 0v-0.1q0.1 0 0.2 0 0 0 0.1 0 0.1 0 0.2 0 0.1 0 0.2 0 0.1 0 0.2 0 0 0 0.1 0 0.1 0 0.2 0 0.1 0 0.2 0z"/>
	<path id="Layer" fill-rule="evenodd" class="s5" d="m8.2 16.1q0 0 0.1 0v0.1q-0.1 0-0.1 0 0 0-0.1 0 0 0-0.1 0 0 0-0.1 0 0 0 0 0-0.1 0-0.1 0-0.1 0-0.1 0-0.1 0-0.1 0-0.1 0-0.1 0 0 0 0 0 0 0 0 0-0.1 0-0.1 0 0 0 0 0 0 0-0.1 0 0 0-0.1 0 0 0 0 0-0.1 0-0.1 0-0.1 0-0.1 0-0.1 0-0.1 0v-0.1q0 0 0.1 0 0 0 0.1 0 0 0 0.1 0 0-0.1 0-0.1 0.1 0 0.1 0.1 0.1 0 0.1 0 0.1 0 0.1 0 0 0 0 0 0.1 0 0.1 0 0 0 0 0 0.1 0 0.1 0 0 0 0.1 0 0 0 0 0 0.1 0 0.1 0 0 0 0 0 0 0 0 0 0 0 0 0 0.1 0 0.1 0 0.1 0 0.1 0 0.1 0 0.1 0zm0.1 0q0 0 0 0 0 0-0.1 0 0 0 0 0 0 0 0 0 0 0-0.1 0 0 0-0.1 0 0 0-0.1 0 0 0 0 0-0.1 0-0.1 0-0.1 0-0.1 0-0.1 0-0.1 0-0.1 0-0.1 0 0 0 0 0 0 0 0 0-0.1 0-0.1 0 0 0 0 0 0 0-0.1 0 0 0 0 0 0 0 0 0 0 0 0 0 0 0-0.1 0 0 0 0 0-0.1 0-0.1 0 0 0 0 0 0 0 0 0 0 0 0 0-0.1 0-0.1 0-0.1 0-0.1 0v0.1q0 0 0.1 0 0 0 0.1 0 0 0 0.1 0 0 0 0 0 0.1 0 0.1 0 0.1 0 0.1 0 0.1 0 0.1 0 0 0 0.1 0 0 0 0.1 0 0 0 0.1 0 0 0 0.1 0 0 0 0 0 0.1 0 0.1 0 0.1 0 0.1 0 0.1 0 0.1 0 0 0 0.1 0z"/>
	<path id="Layer" class="s7" d="m8.3 16.4q-0.1 0-0.2-0.1-0.1 0-0.2 0-0.1 0-0.1 0-0.1 0.1-0.2 0.1-0.1 0-0.2-0.1-0.1 0-0.2 0-0.1 0-0.1 0-0.1 0-0.2 0v-0.1q0.1 0 0.2 0 0 0 0.1 0 0.1 0 0.2 0 0.1 0 0.2 0 0.1 0 0.2 0 0 0 0.1 0 0.2 0 0.2 0 0.1 0 0.2 0z"/>
	<path id="Layer" fill-rule="evenodd" class="s5" d="m8.3 16.4q-0.1 0-0.1 0 0-0.1-0.1-0.1 0 0 0 0 0 0 0 0 0 0 0 0-0.1 0-0.1 0 0 0-0.1 0 0 0 0 0-0.1 0-0.1 0-0.1 0-0.1 0.1-0.1 0-0.1 0-0.1 0-0.1 0-0.1-0.1-0.1-0.1 0 0-0.1 0 0 0-0.1 0 0 0-0.1 0 0 0 0 0-0.1 0-0.1 0-0.1 0.1-0.1 0.1v-0.2q0 0 0.1 0 0 0 0.1 0 0 0 0.1 0 0 0 0 0 0.1 0 0.1 0 0.1 0 0.1 0 0.1 0 0.1 0 0 0 0.1 0 0 0 0.1 0 0 0 0.1 0 0 0 0.1 0 0 0 0 0 0.1 0 0.1 0 0.1 0 0.1 0 0.1 0 0.1 0 0 0 0.1 0v0.2zm-0.1-0.1q0.1 0 0.1 0v-0.1q0 0 0 0 0 0 0 0-0.1 0-0.1 0 0 0 0 0 0 0-0.1 0 0 0-0.1 0 0 0 0 0-0.1 0-0.1 0-0.1 0-0.1 0-0.1 0-0.1 0 0 0-0.1 0 0 0-0.1 0 0 0 0 0 0 0 0 0 0 0-0.1 0 0 0 0 0 0 0-0.1 0 0 0 0 0-0.1 0-0.1 0-0.1 0-0.1 0 0 0-0.1 0 0 0-0.1 0.1 0.1 0 0.1 0 0 0 0.1 0 0 0 0.1 0 0 0 0.1 0 0 0 0 0 0.1 0 0.1 0 0.1 0 0.1 0 0.1 0 0.1 0 0.1 0 0.1 0 0 0 0.1 0 0 0 0.1 0 0 0 0.1 0 0 0 0.1 0 0 0 0 0 0.1 0 0.1 0z"/>
	<path id="Layer" class="s6" d="m8.3 16.5q-0.1 0-0.2-0.1-0.1 0-0.2 0-0.1 0-0.1 0-0.1 0.1-0.2 0.1-0.1 0-0.2-0.1-0.1 0-0.2 0-0.1 0-0.1 0-0.1 0.1-0.2 0.1v-0.1q0.1 0 0.2-0.1 0 0 0.1 0 0.1 0 0.2 0 0.1 0 0.2 0.1 0.1 0 0.2-0.1 0 0 0.1 0 0.2 0 0.2 0 0.1 0.1 0.2 0.1z"/>
	<path id="Layer" fill-rule="evenodd" class="s5" d="m8.3 16.5q-0.1 0-0.1 0 0 0-0.1-0.1 0 0-0.1 0 0 0-0.1 0 0 0 0 0-0.1 0-0.1 0-0.1 0-0.1 0.1-0.1 0-0.1 0-0.1 0-0.1 0 0 0-0.1-0.1 0 0-0.1 0 0 0-0.1 0 0 0 0 0-0.1 0-0.1 0-0.1 0.1-0.1 0.1-0.1 0-0.1 0v-0.2q0 0 0.1 0 0 0 0.1 0 0 0 0.1 0 0 0 0 0 0.1 0 0.1 0 0.1 0 0.1 0 0.1 0 0.1 0 0 0 0.1 0 0 0 0.1 0 0 0 0.1 0 0 0 0.1 0 0 0 0 0 0.1 0 0.1 0 0.1 0 0.1 0 0.1 0 0.1 0 0 0 0.1 0v0.2zm-0.1-0.1q0.1 0.1 0.1 0.1v-0.1q-0.1 0-0.1 0 0-0.1-0.1-0.1 0 0 0 0 0 0 0 0 0 0 0 0 0 0-0.1 0 0 0 0 0-0.1 0-0.1 0-0.1 0-0.1 0-0.1 0-0.1 0.1 0 0-0.1 0 0 0-0.1 0 0-0.1-0.1-0.1 0 0-0.1 0 0 0 0 0 0 0 0 0-0.1 0-0.1 0 0 0 0 0-0.1 0-0.1 0 0 0-0.1 0.1 0 0-0.1 0v0.1q0.1 0 0.1-0.1 0 0 0.1 0 0 0 0.1 0 0 0 0.1 0 0 0 0 0 0.1 0 0.1 0 0.1 0 0.1 0 0.1 0.1 0.1 0.1 0.1 0 0.1-0.1 0 0 0.1 0 0 0 0.1 0 0 0 0 0 0 0 0 0 0 0 0 0 0 0 0.1 0 0 0 0 0 0.1 0 0.1 0 0.1 0 0.1 0z"/>
	<path id="Layer" class="s4" d="m8 15.5q0 0 0 0c0 0.1 0 0.1 0.1 0.1h-1c0 0 0.1 0 0.1-0.1q0 0 0 0z"/>
	<path id="Layer" fill-rule="evenodd" class="s5" d="m7.2 15.5q0 0 0 0 0 0 0 0h0.8q0 0 0 0 0 0 0 0 0 0 0 0.1 0.1 0 0.1 0h-1q0 0 0.1 0 0-0.1 0-0.1 0 0 0 0zm0 0q0 0 0 0 0 0.1 0 0.1 0 0-0.1 0h0.9q0 0 0 0 0 0 0-0.1 0 0 0 0z"/>
	<path id="Layer" class="s4" d="m7.2 15.4h0.8q0 0 0 0 0 0.1 0 0.1h-0.8q0 0 0-0.1 0 0 0 0z"/>
	<path id="Layer" fill-rule="evenodd" class="s5" d="m7.2 15.4h0.8q0 0 0 0 0 0 0 0 0 0.1 0 0.1 0 0 0 0h-0.8q0 0 0 0 0 0 0-0.1 0 0 0 0 0 0 0 0zm0.8 0h-0.8q0 0 0 0 0 0 0 0 0 0 0 0.1 0 0 0 0h0.8q0 0 0 0 0-0.1 0-0.1 0 0 0 0 0 0 0 0 0 0 0 0 0 0 0 0 0 0 0 0z"/>
	<path id="Layer" class="s4" d="m7.1 15.6h1v0.3h-1z"/>
	<path id="Layer" fill-rule="evenodd" class="s5" d="m7.1 15.9v-0.3h1v0.3zm0 0h1v-0.3h-1z"/>
	<path id="Layer" class="s8" d="m7.1 14.7q0 0.1-0.1 0.2c0-0.1 0-0.1-0.1-0.2q0 0-0.1-0.1 0 0 0.2-0.1 0.1 0.1 0.1 0.2z"/>
	<path id="Layer" fill-rule="evenodd" class="s5" d="m6.9 14.6q0-0.1 0.1-0.1 0.1 0 0.1 0.1 0 0 0 0.1 0 0 0 0.1 0 0.1-0.1 0.1h-0.1 0.1q0 0 0-0.1 0 0-0.1-0.1 0 0 0 0-0.1-0.1-0.1-0.1 0 0 0.1 0zm0.1-0.1q-0.1 0-0.1 0.1-0.1 0-0.1 0 0.1 0 0.1 0.1 0 0 0 0h0.1q0 0.1 0 0.1 0 0 0 0.1 0-0.1 0.1-0.1 0 0 0 0 0 0 0-0.1 0 0 0 0 0-0.1 0-0.1-0.1-0.1-0.1-0.1z"/>
	<path id="Layer" class="s7" d="m7.2 11.8h0.8v3.6h-0.8z"/>
	<path id="Layer" fill-rule="evenodd" class="s5" d="m7.2 15.4v-3.6h0.8v3.6zm0.5 0h0.1v-3.6h-0.1zm-0.5 0h0.5v-3.6h-0.5zm0.6 0h0.1v-3.6h-0.1z"/>
	<path id="Layer" class="s8" d="m8.7 13.1c-0.2 0-0.4-0.1-0.7-0.1q-0.2 0-0.4 0c-0.4 0.1-0.8 0.3-0.7 0.4 0 0-0.2-0.3-0.2-0.4 0-0.1 0.3-0.3 0.8-0.4q0.3 0 0.5 0 0.4 0 0.7 0.1z"/>
	<path id="Layer" fill-rule="evenodd" class="s5" d="m8.7 13.1q-0.1 0-0.3-0.1-0.2 0-0.4 0-0.1 0-0.2 0-0.1 0-0.2 0-0.3 0.1-0.5 0.2-0.2 0.1-0.2 0.2 0 0 0 0 0 0 0 0c0 0-0.2-0.3-0.2-0.4q0-0.1 0.2-0.2 0.2-0.1 0.6-0.2 0.1 0 0.3 0 0.1 0 0.2 0 0.2 0 0.4 0 0.2 0 0.3 0.1 0 0 0 0v0.4q0 0 0 0zm-0.3-0.1q0.2 0.1 0.3 0.1v-0.4q-0.1-0.1-0.3-0.1-0.2 0-0.4 0-0.1 0-0.2 0-0.1 0-0.3 0-0.3 0.1-0.6 0.2-0.2 0.1-0.2 0.2c0 0.1 0.1 0.3 0.2 0.4q0-0.1 0.2-0.2 0.2-0.1 0.5-0.2 0.1 0 0.2 0 0 0 0 0 0.1 0 0.1 0 0 0 0 0 0.1 0 0.1 0 0.2 0 0.4 0z"/>
	<path id="Layer" class="s8" d="m7.2 13.6q-0.3-0.1-0.3-0.2 0-0.1 0.1-0.2 0.1 0 0.2 0z"/>
	<path id="Layer" fill-rule="evenodd" class="s5" d="m7.2 13.6q-0.1 0-0.2-0.1-0.1 0-0.1-0.1 0 0 0-0.1 0-0.1 0.1-0.1 0.1 0 0.2 0v0.4zm-0.2-0.1q0.1 0 0.2 0.1v-0.4q-0.1 0-0.1 0-0.1 0.1-0.2 0.1 0 0.1 0 0.1 0 0.1 0.1 0.1z"/>
	<path id="Layer" class="s8" d="m8 13.3q0.2 0 0.2 0.1c0.1 0-0.1 0.1-0.2 0.2z"/>
	<path id="Layer" fill-rule="evenodd" class="s5" d="m8 13.3q0.1 0 0.1 0 0.1 0 0.1 0.1 0.1 0 0 0.1-0.1 0.1-0.2 0.2v-0.4zm0.1 0q0 0-0.1 0v0.3q0.1-0.1 0.2-0.1 0-0.1 0-0.1 0 0-0.1-0.1z"/>
	<path id="Layer" class="s8" d="m6.8 14.3c-0.1-0.1 0.1-0.2 0.4-0.3q0.2-0.1 0.4-0.2c0.4-0.1 0.7-0.3 0.6-0.4 0 0 0.1 0.4 0.1 0.4 0 0-0.2 0.2-0.6 0.4-0.1 0-0.4 0.1-0.5 0.2-0.2 0-0.4 0.2-0.4 0.2z"/>
	<path id="Layer" fill-rule="evenodd" class="s5" d="m6.8 14.3q0-0.1 0.1-0.2 0.1 0 0.3-0.1 0.1-0.1 0.2-0.1l0.2-0.1q0.1 0 0.2-0.1 0.2-0.1 0.3-0.2 0.1-0.1 0.1-0.1 0 0 0 0 0 0 0 0 0 0 0 0 0 0 0 0c0.1 0.1 0.1 0.3 0.1 0.4q0 0-0.1 0.1-0.2 0.1-0.5 0.3-0.1 0-0.2 0.1-0.2 0-0.3 0.1 0 0-0.1 0-0.1 0.1-0.2 0.1-0.1 0.1-0.1 0.1 0 0 0 0 0 0 0 0c0 0 0-0.3 0-0.3zm0.1-0.2q-0.1 0.1-0.1 0.2v0.3q0.1 0 0.1-0.1 0.1 0 0.2-0.1 0.1 0 0.1 0 0.1-0.1 0.3-0.1 0.1-0.1 0.2-0.1 0.3-0.2 0.4-0.3 0.2-0.1 0.2-0.1c0 0 0-0.3-0.1-0.4q0 0.1-0.1 0.1-0.1 0.1-0.3 0.2-0.1 0.1-0.2 0.1l-0.2 0.1q-0.1 0.1-0.2 0.1-0.2 0.1-0.3 0.1z"/>
	<path id="Layer" fill-rule="evenodd" class="s4" d="m7.2 13.1q0 0 0 0 0 0-0.1 0l-0.1-0.3h0.2q0.1-0.1 0.1 0c0 0.1 0 0.1-0.1 0.1zm1-0.3q0 0 0 0-0.1 0-0.1 0c0 0.1 0.2 0.1 0.1 0.2q0 0-0.1 0-0.1 0-0.1 0 0 0 0 0 0.1 0 0.1 0 0.1 0 0.1 0c0-0.1-0.2-0.1-0.2-0.2q0.1-0.1 0.2-0.1 0 0 0.1 0.1-0.1 0-0.1 0zm-0.4 0.2q0 0 0 0-0.1-0.1-0.2-0.3h0.1q0 0 0 0 0.1 0.1 0.1 0.2 0.1-0.1 0.1-0.2 0 0 0.1 0-0.1 0.2-0.2 0.3 0 0 0 0zm-0.3 0q0.1 0 0.1 0 0 0 0 0l-0.2 0.1v-0.3q0 0 0 0 0 0 0 0zm-0.3-0.1q0 0 0 0 0 0 0-0.1 0 0 0 0h-0.1zm6.7-1.7h1v0.3h-1z"/>
	<path id="Layer" fill-rule="evenodd" class="s5" d="m13.8 11.5v-0.3h1v0.3zm0 0h1v-0.3h-1z"/>
	<path id="Layer" class="s4" d="m14.7 11.7q0 0 0 0h-0.8q0 0 0 0 0.1-0.1 0.1-0.1 0 0-0.1-0.1 0 0 0 0.1h0.8q0 0 0-0.1 0 0.1 0 0.1 0 0 0 0.1z"/>
	<path id="Layer" fill-rule="evenodd" class="s5" d="m14.7 11.7q0 0 0 0 0 0 0 0 0 0 0 0c-0.2 0-0.6 0-0.8 0q0 0 0 0 0 0 0 0 0 0 0 0 0-0.1 0-0.1 0.1 0 0.1 0 0 0-0.1 0 0 0 0 0 0 0 0 0 0 0 0 0 0 0 0 0 0 0 0-0.1 0 0 0 0 0 0 0 0h0.8q0 0 0 0 0 0 0 0.1 0 0 0 0 0 0 0 0 0 0 0 0 0 0 0 0 0 0 0 0.1zm-0.7-0.1h0.7q0 0 0 0 0 0 0 0h-0.7q0 0 0 0 0 0 0 0z"/>
	<path id="Layer" class="s4" d="m13.9 11.7h0.8q0 0 0 0 0 0 0 0h-0.8q0 0 0 0 0 0 0 0z"/>
	<path id="Layer" fill-rule="evenodd" class="s5" d="m13.9 11.7h0.8q0 0 0 0 0.1 0 0.1 0 0 0-0.1 0 0 0 0 0h-0.8q0 0 0 0 0 0 0 0 0 0 0 0 0 0 0 0 0 0 0 0 0 0 0 0 0 0 0 0zm0.8 0h-0.8q0 0 0 0 0 0 0 0 0 0 0 0 0 0 0 0 0 0 0 0 0 0 0 0 0 0 0 0h0.8q0 0 0 0 0 0 0 0 0 0 0 0 0 0 0 0z"/>
	<path id="Layer" class="s4" d="m13.9 11.5h0.8q0 0 0 0 0 0 0 0.1h-0.8q0-0.1 0-0.1 0 0 0 0z"/>
	<path id="Layer" fill-rule="evenodd" class="s5" d="m13.9 11.5h0.8q0 0 0 0 0.1 0 0.1 0 0 0-0.1 0 0 0.1 0 0.1h-0.8q0 0 0-0.1 0 0 0 0 0 0 0 0 0 0 0 0zm0.8 0h-0.8q0 0 0 0 0 0 0 0 0 0 0 0 0 0 0 0h0.8q0 0 0 0 0 0 0 0 0 0 0 0 0 0 0 0 0 0 0 0 0 0 0 0 0 0 0 0z"/>
	<path id="Layer" class="s6" d="m13.6 15.9q0.1 0 0.2 0 0.1-0.1 0.2-0.1 0.1 0 0.1 0.1 0.1 0 0.2 0 0.1 0 0.2 0 0.1-0.1 0.2-0.1 0.1 0 0.1 0.1 0.1 0 0.2 0v0.1q-0.1 0-0.2 0 0-0.1-0.1-0.1-0.1 0-0.2 0.1-0.1 0-0.2 0-0.1 0-0.2 0 0-0.1-0.1-0.1-0.1 0-0.2 0.1-0.1 0-0.2 0z"/>
	<path id="Layer" fill-rule="evenodd" class="s5" d="m13.6 15.9q0.1 0 0.1 0 0.1 0 0.1 0 0 0 0.1-0.1 0 0 0.1 0 0 0 0.1 0 0 0.1 0 0.1 0.1 0 0.1 0 0.1 0 0.1 0 0.1 0 0.1 0 0.1 0 0.1 0 0 0 0.1-0.1 0 0 0.1 0 0 0 0.1 0 0 0.1 0 0.1 0.1 0 0.1 0 0.1 0 0.1 0v0.1q0 0-0.1 0 0 0 0 0 0 0 0 0 0 0 0 0-0.1 0-0.1 0 0 0 0 0-0.1 0-0.1 0-0.1 0-0.1 0-0.1 0-0.1 0 0 0-0.1 0 0 0 0 0-0.1 0-0.1 0 0 0 0 0-0.1 0-0.1 0 0 0-0.1 0 0 0 0 0-0.1 0-0.1 0 0 0-0.1 0 0 0 0 0 0 0 0 0 0 0 0 0-0.1 0-0.1 0 0 0-0.1 0 0 0-0.1 0v-0.1zm0.1 0q0 0-0.1 0v0.1q0.1 0 0.1 0 0 0 0.1 0 0 0 0.1-0.1 0 0 0 0 0 0 0.1 0 0 0 0 0 0 0 0.1 0 0 0.1 0 0.1 0.1 0 0.1 0 0.1 0 0.1 0 0.1 0 0.1 0 0.1 0 0.1 0 0 0 0.1-0.1 0 0 0 0 0 0 0.1 0 0 0 0 0 0 0 0.1 0 0 0.1 0 0.1 0.1 0 0.1 0 0.1 0 0.1 0v-0.1q0 0-0.1 0 0 0-0.1 0 0 0-0.1 0 0-0.1 0-0.1-0.1 0-0.1 0.1-0.1 0-0.1 0 0 0-0.1 0 0 0-0.1 0 0 0-0.1 0 0 0-0.1 0 0 0 0 0-0.1 0-0.1 0 0 0 0 0-0.1 0-0.1 0 0 0 0 0-0.1 0-0.1 0-0.1 0-0.1 0z"/>
	<path id="Layer" class="s7" d="m13.6 16q0.1 0 0.2 0 0.1 0 0.2 0 0.1 0 0.1 0 0.1 0 0.2 0 0.1 0 0.2 0 0.1 0 0.2 0 0.1 0 0.1 0 0.1 0 0.2 0v0.1q-0.1 0-0.2 0 0 0-0.1 0-0.1 0-0.2 0-0.1 0-0.2 0-0.1 0-0.2 0 0 0-0.1 0-0.1 0-0.2 0-0.1 0-0.2 0z"/>
	<path id="Layer" class="s9" d="m13.6 16q0.1 0 0.2 0 0.1 0 0.2 0 0.1 0 0.1 0 0.1 0 0.2 0 0.1 0 0.2 0 0.1 0 0.2 0 0.1 0 0.1 0 0.1 0 0.2 0v0.1q-0.1 0-0.2 0 0 0-0.1 0-0.1 0-0.2 0-0.1 0-0.2 0-0.1 0-0.2 0 0 0-0.1 0-0.1 0-0.2 0-0.1 0-0.2 0z"/>
	<path id="Layer" class="s6" d="m13.6 16.1q0.1 0 0.2 0 0.1 0 0.2 0 0.1 0 0.1 0 0.1 0 0.2 0 0.1 0 0.2 0 0.1 0 0.2 0 0.1 0 0.1 0 0.1 0 0.2 0v0.1q-0.1 0-0.2 0 0 0-0.1 0-0.1 0-0.2 0-0.1 0-0.2 0-0.1 0-0.2 0 0 0-0.1 0-0.1 0-0.2 0-0.1 0-0.2 0z"/>
	<path id="Layer" fill-rule="evenodd" class="s5" d="m13.6 16.1q0.1 0 0.1 0 0.1 0 0.1 0 0 0 0.1 0 0 0 0.1 0 0 0 0.1 0 0 0 0 0 0.1 0 0.1 0 0.1 0 0.1 0 0 0 0 0 0 0 0.1 0 0 0 0 0 0.1 0 0.1 0 0 0 0.1 0 0-0.1 0.1-0.1 0 0 0.1 0.1 0 0 0 0 0.1 0 0.1 0 0.1 0 0.1 0v0.1q0 0-0.1 0 0 0-0.1 0 0 0 0 0-0.1 0-0.1 0-0.1 0-0.1 0-0.1 0-0.1 0 0 0-0.1 0 0 0-0.1 0 0 0-0.1 0 0 0-0.1 0 0 0 0 0-0.1 0-0.1 0-0.1 0-0.1 0-0.1 0-0.1 0 0 0-0.1 0 0 0-0.1 0v-0.1zm0.1 0q0 0-0.1 0v0.1q0.1 0 0.1 0 0 0 0.1 0 0 0 0.1 0 0 0 0.1 0 0 0 0.1 0 0 0 0 0 0.1 0 0.1 0 0.1 0 0.1 0 0.1 0 0.1 0 0.1 0 0.1 0 0 0 0.1 0 0 0 0.1 0 0 0 0.1 0 0 0 0 0 0.1 0 0.1 0 0.1 0 0.1 0v-0.1q0 0-0.1 0 0 0-0.1 0 0 0-0.1 0 0 0 0 0-0.1 0-0.1 0-0.1 0-0.1 0 0 0-0.1 0 0 0-0.1 0 0 0-0.1 0 0 0-0.1 0 0 0 0 0-0.1 0-0.1 0-0.1 0-0.1 0-0.1 0-0.1 0-0.1 0-0.1 0z"/>
	<path id="Layer" class="s7" d="m13.6 16.2q0.1 0 0.2 0 0.1 0 0.2 0 0.1 0 0.1 0 0.1 0 0.2 0 0.1 0 0.2 0 0.1 0 0.2 0 0.1 0 0.1 0 0.1 0 0.2 0v0.1q-0.1 0.1-0.2 0 0 0-0.1 0-0.1 0-0.2 0-0.1 0.1-0.2 0.1-0.1 0-0.2-0.1 0 0-0.1 0-0.1 0-0.2 0-0.1 0.1-0.2 0.1z"/>
	<path id="Layer" fill-rule="evenodd" class="s5" d="m13.7 16.4q0 0-0.1 0v-0.2q0.1 0 0.1 0 0.1 0 0.1 0 0 0 0.1 0 0 0 0.1 0 0 0 0.1 0 0 0 0 0 0.1 0 0.1 0 0.1 0 0.1 0 0.1 0 0.1 0 0.1 0 0.1 0 0 0 0.1 0 0 0 0.1 0 0 0 0.1 0 0 0 0 0 0.1 0 0.1 0 0.1 0 0.1 0v0.2q0 0-0.1-0.1 0 0-0.1 0 0 0 0 0-0.1 0-0.1 0-0.1 0-0.1 0-0.1 0-0.1 0 0 0-0.1 0.1 0 0-0.1 0 0 0-0.1 0 0-0.1-0.1-0.1 0 0 0 0-0.1 0-0.1 0-0.1 0-0.1 0-0.1 0-0.1 0 0 0-0.1 0.1zm-0.1-0.1q0.1 0 0.1 0 0.1 0 0.1 0 0 0 0.1 0 0 0 0.1 0 0 0 0.1 0 0 0 0 0 0.1 0 0.1 0 0.1 0 0.1 0 0.1 0 0.1 0 0.1 0 0.1 0 0 0 0.1 0 0 0 0.1 0 0 0 0.1 0 0 0 0 0 0.1 0 0.1 0 0.1 0 0.1 0 0 0 0-0.1 0 0 0 0 0 0-0.1 0 0 0 0 0 0 0-0.1 0 0 0 0 0-0.1 0-0.1 0-0.1 0-0.1 0-0.1 0-0.1 0 0 0-0.1 0 0 0-0.1 0 0 0-0.1 0 0 0-0.1 0 0 0 0 0-0.1 0-0.1 0-0.1 0-0.1 0-0.1 0-0.1 0 0 0-0.1 0 0 0-0.1 0z"/>
	<path id="Layer" class="s6" d="m13.6 16.4q0.1 0 0.2-0.1 0.1 0 0.2 0 0.1 0 0.1 0 0.1 0.1 0.2 0.1 0.1-0.1 0.2-0.1 0.1 0 0.2 0 0.1 0 0.1 0 0.1 0.1 0.2 0.1v0.1q-0.1 0-0.2-0.1 0 0-0.1 0-0.1 0-0.2 0-0.1 0.1-0.2 0.1-0.1 0-0.2-0.1 0 0-0.1 0-0.1 0-0.2 0-0.1 0.1-0.2 0.1z"/>
	<path id="Layer" fill-rule="evenodd" class="s5" d="m13.7 16.5q0 0-0.1 0v-0.2q0.1 0 0.1 0 0.1 0 0.1 0 0 0 0.1 0 0 0 0.1 0 0 0 0.1 0 0 0 0 0 0.1 0 0.1 0 0.1 0 0.1 0 0.1 0 0.1 0 0.1 0 0.1 0 0 0 0.1 0 0 0 0.1 0 0 0 0.1 0 0 0 0 0 0.1 0 0.1 0 0.1 0 0.1 0v0.2q0 0-0.1 0 0 0 0 0 0 0 0-0.1 0 0 0 0-0.1 0-0.1 0 0 0 0 0-0.1 0-0.1 0-0.1 0-0.1 0-0.1 0-0.1 0 0 0.1-0.1 0.1 0 0-0.1 0 0 0-0.1 0 0-0.1-0.1-0.1 0 0 0 0-0.1 0-0.1 0-0.1 0-0.1 0-0.1 0-0.1 0 0 0.1-0.1 0.1zm-0.1 0q0.1 0 0.1-0.1 0.1 0 0.1 0 0 0 0.1 0 0 0 0.1 0 0 0 0.1 0 0 0 0 0 0.1 0 0.1 0 0.1 0.1 0.1 0.1 0.1 0 0.1-0.1 0.1 0 0.1 0 0 0 0.1 0 0 0 0.1 0 0 0 0.1 0 0 0 0 0 0.1 0 0.1 0 0.1 0.1 0.1 0.1v-0.1q0 0-0.1 0 0-0.1-0.1-0.1 0 0 0 0-0.1 0-0.1 0-0.1 0-0.1 0-0.1 0-0.1 0 0 0-0.1 0.1 0 0-0.1 0 0 0-0.1 0 0-0.1-0.1-0.1 0 0 0 0-0.1 0-0.1 0 0 0 0 0 0 0 0 0 0 0 0 0-0.1 0-0.1 0-0.1 0-0.1 0 0 0-0.1 0.1 0 0-0.1 0z"/>
	<path id="Layer" class="s4" d="m14.7 15.5q0 0 0 0c0 0.1 0.1 0.1 0.1 0.1h-1c0.1 0 0.1 0 0.1-0.1q0 0 0 0z"/>
	<path id="Layer" fill-rule="evenodd" class="s5" d="m14.7 15.5q0 0 0 0 0 0 0 0 0 0 0.1 0.1 0 0 0 0h-1q0.1 0 0.1 0 0-0.1 0-0.1 0 0 0 0 0 0 0 0 0.4 0 0.8 0 0 0 0 0zm0 0h-0.8q0 0 0 0 0 0.1 0 0.1 0 0 0 0h0.9q0 0-0.1 0 0 0 0-0.1 0 0 0 0z"/>
	<path id="Layer" class="s4" d="m13.9 15.4h0.8q0 0 0 0 0 0.1 0 0.1h-0.8q0 0 0-0.1 0 0 0 0z"/>
	<path id="Layer" fill-rule="evenodd" class="s5" d="m13.9 15.4h0.8q0 0 0 0 0.1 0 0.1 0 0 0.1-0.1 0.1 0 0 0 0h-0.8q0 0 0 0 0 0 0-0.1 0 0 0 0 0 0 0 0zm0.8 0h-0.8q0 0 0 0 0 0 0 0 0 0 0 0.1 0 0 0 0h0.8q0 0 0 0 0-0.1 0-0.1 0 0 0 0 0 0 0 0 0 0 0 0 0 0 0 0 0 0 0 0z"/>
	<path id="Layer" class="s4" d="m13.8 15.6h1v0.3h-1z"/>
	<path id="Layer" fill-rule="evenodd" class="s5" d="m13.8 15.9v-0.3h1v0.3zm0.1 0h1v-0.3h-1z"/>
	<path id="Layer" class="s8" d="m14.9 14.5q0.2 0.1 0.2 0.1 0 0.1-0.1 0.1c-0.1 0.1-0.1 0.1-0.1 0.2q-0.1-0.1-0.1-0.2 0-0.1 0.1-0.2z"/>
	<path id="Layer" fill-rule="evenodd" class="s5" d="m14.9 14.5q0.1 0 0.1 0.1 0.1 0 0.1 0 0 0.1-0.1 0.1-0.1 0.1-0.1 0.1 0 0.1 0 0.1h0.1-0.1q0 0-0.1-0.1 0-0.1 0-0.1 0-0.1 0-0.1 0.1-0.1 0.1-0.1zm0.1 0.1q0-0.1-0.1-0.1 0 0-0.1 0.1 0 0 0 0.1 0 0 0 0.1 0.1 0 0.1 0.1 0-0.1 0-0.1 0 0 0.1-0.1 0.1 0 0.1-0.1 0 0-0.1 0z"/>
	<path id="Layer" class="s7" d="m14 11.8h0.7v3.6h-0.7z"/>
	<path id="Layer" fill-rule="evenodd" class="s5" d="m13.9 15.4v-3.6h0.8v3.6zm0.6-3.6v3.5-3.5h-0.1v3.5-3.5h-0.5v3.6h0.7v-3.6z"/>
	<path id="Layer" class="s8" d="m13.2 12.7q0.3-0.1 0.7-0.1 0.2 0 0.5 0c0.5 0.1 0.8 0.3 0.8 0.4 0 0.1-0.2 0.4-0.2 0.4 0.1-0.1-0.3-0.3-0.7-0.4q-0.2 0-0.4 0c-0.3 0-0.5 0.1-0.7 0.1z"/>
	<path id="Layer" fill-rule="evenodd" class="s5" d="m13.5 13q-0.2 0.1-0.3 0.1 0 0 0 0v-0.4q0 0 0 0 0.1-0.1 0.3-0.1 0.2 0 0.4 0 0.1 0 0.3 0 0.1 0 0.2 0 0.4 0.1 0.6 0.2 0.2 0.1 0.2 0.2c0 0.1-0.1 0.4-0.2 0.4q0 0 0 0 0 0 0 0 0-0.1-0.2-0.2-0.1-0.1-0.5-0.2-0.1 0-0.2 0 0 0 0 0-0.1 0-0.1 0 0 0 0 0 0 0-0.1 0-0.2 0-0.4 0zm-0.3 0.1q0.1 0 0.3-0.1 0.2 0 0.4 0 0.1 0 0.2 0 0.1 0 0.2 0 0.4 0.1 0.6 0.2 0.1 0.1 0.1 0.2c0.1-0.1 0.2-0.3 0.2-0.4q0-0.1-0.2-0.2-0.2-0.1-0.6-0.2-0.1 0-0.1 0 0 0 0 0-0.1 0-0.1 0 0 0 0 0-0.2 0-0.3 0-0.2 0-0.4 0-0.2 0-0.3 0.1z"/>
	<path id="Layer" class="s8" d="m14.7 13.2q0.1 0 0.2 0 0.2 0.1 0.1 0.2 0 0.1-0.3 0.2z"/>
	<path id="Layer" fill-rule="evenodd" class="s5" d="m14.9 13.5q-0.1 0.1-0.2 0.1v-0.4q0 0 0.1 0h0.1q0.1 0 0.1 0.1 0.1 0.1 0.1 0.1-0.1 0.1-0.2 0.1zm-0.2 0.1q0.1-0.1 0.2-0.1 0.1 0 0.1-0.1 0 0 0-0.1 0 0-0.1-0.1h-0.1q-0.1 0-0.1 0z"/>
	<path id="Layer" class="s8" d="m13.9 13.6c-0.1-0.1-0.2-0.2-0.2-0.2q0.1-0.1 0.2-0.1z"/>
	<path id="Layer" fill-rule="evenodd" class="s5" d="m13.8 13.3q0 0 0.1 0h0.1v0.4h-0.1q-0.1-0.1-0.2-0.2 0-0.1 0-0.1 0 0 0 0 0-0.1 0.1-0.1zm0.1 0q0 0-0.1 0-0.1 0.1-0.1 0.1 0 0 0 0.1 0.1 0 0.2 0.1z"/>
	<path id="Layer" class="s8" d="m15.1 14.6c0 0-0.2-0.2-0.4-0.2-0.1-0.1-0.4-0.2-0.5-0.2-0.3-0.2-0.6-0.4-0.6-0.4 0 0 0.1-0.4 0.1-0.4-0.1 0.1 0.2 0.3 0.6 0.4q0.2 0.1 0.4 0.2c0.3 0.1 0.5 0.2 0.4 0.3z"/>
	<path id="Layer" fill-rule="evenodd" class="s5" d="m15 14.1q0.2 0.1 0.1 0.2c0 0 0 0.3 0 0.3q0 0 0 0 0 0 0 0 0 0-0.1-0.1-0.1 0-0.2-0.1-0.1 0-0.1 0-0.1-0.1-0.3-0.1-0.1-0.1-0.2-0.1-0.1-0.1-0.3-0.1-0.1-0.1-0.2-0.2-0.1-0.1-0.1-0.1c0-0.1 0-0.3 0.1-0.4q0 0 0 0 0 0 0 0 0 0 0 0 0 0 0 0 0 0 0.1 0.1 0.1 0.1 0.2 0.2 0.2 0.1 0.3 0.1 0.1 0.1 0.2 0.1 0.1 0 0.2 0.1 0.2 0.1 0.3 0.1zm0.1 0.2q0-0.1-0.1-0.1-0.1-0.1-0.3-0.2-0.1 0-0.2-0.1-0.1 0-0.2-0.1 0 0-0.1 0 0 0 0 0-0.1 0-0.1-0.1 0 0-0.1 0-0.1-0.1-0.2-0.2-0.1 0-0.1-0.1c0 0.1-0.1 0.4-0.1 0.4q0 0 0.1 0.1 0.1 0 0.2 0.1 0.2 0.1 0.3 0.2 0.1 0 0.2 0.1 0.2 0 0.3 0.1 0 0 0.1 0 0.1 0.1 0.2 0.1 0.1 0.1 0.1 0.1z"/>
	<path id="Layer" fill-rule="evenodd" class="s4" d="m14.8 13q-0.1 0-0.1 0.1 0 0 0 0 0-0.1 0-0.1l0.2-0.1q0.1 0 0.1 0 0 0 0 0v0.3q-0.1 0-0.1 0 0 0 0 0 0-0.1 0-0.1zm-0.4-0.3h0.2q0 0 0 0 0.1 0 0.1 0.1-0.1 0-0.1 0 0 0.1 0 0.2 0 0 0 0 0 0 0 0l-0.1-0.1q0 0 0-0.1v0.2q-0.1 0-0.1 0 0-0.1 0-0.1zm0 0.2q0.1 0 0.1 0 0 0 0-0.1 0 0-0.1 0zm-0.2 0.1q0 0 0 0h-0.1v-0.3h-0.1q0.1 0 0.1 0h0.2q0 0 0 0v0.1q0-0.1-0.1-0.1zm-0.3 0q0.1 0 0.2 0-0.1 0-0.1 0 0 0 0.1 0h-0.3l0.1-0.3q0 0 0 0zm-0.3 0.1q0 0 0 0-0.1-0.2-0.2-0.3 0 0 0.1 0 0 0 0 0 0.1 0.1 0.1 0.2 0.1-0.1 0.1-0.2 0 0 0 0 0 0.1-0.1 0.3zm1.3 0.1v-0.1h-0.1z"/>
	<path id="Layer" class="s7" d="m11 16.5c-0.6 0-1.2-0.1-1.7-0.4-0.4-0.1-0.6-0.5-0.6-0.9v-1.5h4.5v1.5c0 0.4-0.2 0.8-0.6 1-0.5 0.2-1 0.3-1.6 0.3z"/>
	<path id="Layer" class="s9" d="m11 16.5c-0.6 0-1.2-0.1-1.7-0.4-0.4-0.1-0.6-0.5-0.6-0.9v-1.5h4.5v1.5c0 0.4-0.2 0.8-0.6 1-0.5 0.2-1 0.3-1.6 0.3z"/>
	<path id="Layer" class="s8" d="m11 15.2c0 0.6-0.5 1.1-1.2 1.1-0.6 0-1.1-0.5-1.1-1.1v-1.5h2.3z"/>
	<path id="Layer" class="s4" d="m10.7 13.6h0.3v1.7c-0.1 0.2-0.2 0.5-0.3 0.6z"/>
	<path id="Layer" class="s9" d="m10.7 13.6h0.3v1.7c-0.1 0.2-0.2 0.5-0.3 0.6z"/>
	<path id="Layer" class="s7" d="m11 11.2h2.2v2.5h-2.2z"/>
	<path id="Layer" class="s4" d="m9.2 16.1v-2.5h0.3v2.6c-0.1 0-0.2-0.1-0.3-0.1z"/>
	<path id="Layer" class="s9" d="m9.2 16.1v-2.5h0.3v2.6c-0.1 0-0.2-0.1-0.3-0.1z"/>
	<path id="Layer" class="s4" d="m8.7 13.6h0.3v2.3c-0.2-0.2-0.3-0.4-0.3-0.7z"/>
	<path id="Layer" class="s10" d="m8.7 13.6h0.3v2.3c-0.2-0.2-0.3-0.4-0.3-0.7z"/>
	<path id="Layer" class="s11" d="m9.7 13.6h0.3v2.7q-0.2 0-0.3 0z"/>
	<path id="Layer" class="s9" d="m9.7 13.6h0.3v2.7q-0.2 0-0.3 0z"/>
	<path id="Layer" class="s4" d="m10.2 13.6h0.3v2.5c-0.1 0-0.2 0.1-0.3 0.1z"/>
	<path id="Layer" class="s9" d="m10.2 13.6h0.3v2.5c-0.1 0-0.2 0.1-0.3 0.1z"/>
	<path id="Layer" fill-rule="evenodd" class="s8" d="m8.7 11.2h2.3v2.5h-2.3zm4.5 2.5v1.5c0 0.6-0.5 1.1-1.1 1.1-0.6 0-1.1-0.5-1.1-1.1v-1.5z"/>
	<path id="Layer" class="s12" d="m12.1 15q-0.1 0-0.1-0.2 0-0.1 0.1-0.1 0.1 0 0.1 0.1 0 0.2-0.1 0.2z"/>
	<path id="Layer" class="s13" d="m12 11.8c0 0-0.1 0-0.1 0q-0.1 0-0.1-0.1c0 0-0.1 0-0.1 0 0 0 0.1-0.1 0.1-0.1q0.1 0 0.1 0.1 0.1 0 0.1 0.1c0 0 0.1 0 0.1 0 0 0 0 0-0.1 0zm0.5 1.6c0 0 0.1 0 0.1 0q0 0 0 0c-0.1 0 0 0.1 0 0.1q0 0-0.1-0.1c0 0 0 0 0 0 0 0 0 0 0 0zm-0.1-0.1c0 0 0 0.1 0 0.1q0 0 0 0c0 0 0 0 0 0q0 0 0 0c-0.1 0 0-0.1 0-0.1 0 0 0 0 0 0zm0-0.1q0 0 0 0 0 0-0.1 0c0 0 0 0.1 0 0.1 0 0 0-0.1 0-0.1 0 0 0.1 0 0.1 0q0 0 0 0zm-0.5-0.1q0 0.1-0.1 0.1 0 0 0 0 0 0 0 0c0 0 0-0.1 0-0.1zm-0.2-0.1q0 0 0 0.1 0-0.1 0-0.1 0 0.1-0.1 0.1 0 0 0.1-0.1c0 0 0 0 0 0q0 0 0 0zm0.1-0.1q0 0 0 0 0 0 0 0c-0.1 0-0.1 0-0.1 0 0 0 0-0.1 0.1-0.1q0 0 0 0.1 0 0 0 0zm-0.3-0.4q0.1 0.1 0.1 0.1 0 0 0 0 0 0 0 0-0.1 0-0.1 0 0 0 0-0.1zm-0.1 0q0 0 0 0 0 0 0 0-0.1 0-0.1 0 0 0 0-0.1 0.1 0 0.1 0 0 0 0 0.1zm0-0.2q0 0 0 0 0 0 0 0-0.1 0-0.1 0c0 0 0 0 0.1 0q0 0 0 0 0 0 0 0zm-0.1-0.4q0 0 0 0 0 0 0 0 0 0-0.1 0c0 0 0 0 0.1 0q0-0.1 0-0.1 0 0 0 0.1zm0-0.2q0 0 0 0 0 0 0 0c0 0-0.1 0-0.1 0q0 0 0.1 0c0 0 0.1 0 0.1 0q0 0-0.1 0zm0.2-0.1q0 0 0 0c0 0 0 0 0.1 0q-0.1 0-0.1 0.1 0 0 0-0.1 0 0 0 0z"/>
	<path id="Layer" class="s14" d="m12.5 11.7q-0.1 0 0 0.1 0 0 0 0 0 0.1 0 0.1 0 0 0 0 0 0-0.1 0 0 0 0 0 0 0 0 0 0 0 0 0.1 0.1 0 0.1 0 0 0.1 0 0.1 0 0 0 0c-0.1 0-0.1-0.1-0.1-0.1 0 0 0 0.1 0 0.1q0 0.1 0 0.1 0 0 0-0.1-0.1 0-0.1 0c0 0 0.1 0 0.1 0.1 0 0-0.1 0.1-0.1 0.1q0 0 0-0.1 0 0 0 0c0 0 0 0 0 0.1 0 0 0 0.1 0.1 0.2 0 0 0.1 0.1 0.2 0.1 0.2 0 0.1-0.2 0.1-0.3 0-0.1-0.1-0.2-0.1-0.2 0-0.1 0.1-0.2 0.1-0.2 0 0-0.1-0.1 0-0.1q0-0.1 0-0.1 0-0.1 0-0.1c0 0 0-0.1 0-0.1 0 0 0.1 0.1 0.1 0.1 0 0 0 0.1 0 0.1 0 0 0-0.1 0-0.1q0.1 0 0.1-0.1 0 0 0 0c0 0 0 0.1 0 0.1 0 0-0.1 0.1-0.1 0.1q0 0 0.1 0 0 0-0.1 0.1c0 0 0 0 0 0.1 0 0 0 0-0.1 0.1 0 0 0 0.2 0 0.2 0 0 0.1 0.2 0.1 0.2 0 0.1 0 0.2-0.1 0.3 0 0-0.1 0-0.1 0q-0.1 0-0.1 0.1c0 0.1 0 0.1 0.1 0.2 0 0 0 0 0 0q0 0 0 0 0.1 0 0.1 0.1c-0.1 0-0.1 0-0.1 0 0 0.1 0 0.1 0 0.1q0 0.1 0 0.1c0 0 0 0.1 0 0.1q0 0-0.1 0 0 0 0 0 0 0 0-0.1 0 0 0 0 0 0 0 0 0 0.1-0.1 0.1 0 0 0 0 0-0.1 0-0.1 0 0 0 0 0 0 0 0 0-0.1 0 0 0 0 0 0 0-0.1 0-0.1c0 0-0.1 0 0 0 0 0 0 0 0 0q0.1 0 0.1 0 0-0.1 0-0.1-0.1 0-0.1 0 0-0.1 0-0.1c0 0 0 0.1 0 0.1q0 0 0 0 0 0 0 0c0 0 0-0.1 0-0.1v0.1q0 0 0 0c0 0-0.1 0-0.1 0q0 0 0-0.1 0 0 0 0c0-0.1-0.1-0.1 0-0.1q0 0 0-0.1h-0.1q0 0-0.1 0.1 0 0 0 0.1 0.1 0.1 0.1 0.1 0 0-0.1 0 0 0 0 0 0 0-0.1 0 0 0-0.1 0 0 0 0 0 0 0.1 0 0.1 0 0-0.1-0.1 0 0 0 0 0 0 0 0 0 0 0 0 0 0 0 0 0 0-0.1 0 0 0 0-0.1c0 0 0 0 0 0 0.1 0 0.1 0 0.1 0q0 0 0 0 0-0.1 0-0.1 0 0 0 0c0 0 0 0 0 0 0.1 0 0 0 0.1 0q0 0.1 0.1 0.1 0 0 0 0 0-0.1 0-0.1 0 0 0 0 0 0 0 0 0 0 0 0 0 0 0 0 0-0.1 0-0.1 0 0-0.1 0 0 0 0 0c0 0 0 0.1 0 0.1 0 0 0-0.1 0-0.1 0 0 0-0.1 0-0.1 0 0 0-0.1 0.1-0.1h0.1c0 0 0.1 0 0.1 0 0 0-0.1 0-0.1-0.1-0.1 0-0.1 0-0.1-0.1 0 0-0.1 0-0.1 0q0 0 0 0 0 0-0.1 0c0 0 0 0.1 0 0.1 0 0 0-0.1 0-0.1q0 0 0 0c0 0 0 0 0 0.1q-0.1 0-0.1 0 0 0 0 0c0 0 0-0.1 0-0.1q0 0 0 0.1c-0.1 0-0.1 0-0.1 0q0 0 0 0.1 0 0-0.1 0 0 0 0 0 0 0 0 0 0 0 0-0.1c0 0 0 0 0 0q0 0-0.1 0 0 0 0 0 0 0 0-0.1 0 0 0 0c0 0 0.1 0 0.1 0q0 0-0.1 0 0 0 0-0.1 0 0 0.1 0 0 0 0 0c0 0.1 0.1 0 0.1 0 0 0 0.1 0 0.1 0 0 0 0-0.1 0-0.1q0 0 0 0 0 0-0.1 0c0-0.1 0-0.1 0-0.1-0.1 0-0.1 0-0.1 0q0 0 0 0 0 0 0.1 0c0 0-0.1 0-0.1 0q0-0.1 0-0.1-0.1 0-0.1 0 0 0 0.1 0 0 0 0 0c0 0 0 0 0 0q0 0-0.1-0.1 0 0 0 0 0 0 0 0-0.1 0-0.1 0 0 0 0 0c0 0 0-0.1 0-0.1q0.1 0 0.1 0 0 0 0 0-0.1 0-0.1-0.1 0 0 0.1 0c0 0 0 0 0 0 0 0 0 0 0.1 0q0 0 0 0 0 0 0-0.1 0 0.1 0 0.1 0.1 0 0.1 0 0 0-0.1 0 0 0.1 0 0.1 0 0 0.1 0.1 0 0 0.1 0c0 0 0 0.1 0.1 0.1q0 0 0 0 0 0 0 0c0.1 0 0.1 0 0.2 0q0 0 0-0.1c0 0 0 0 0 0q0-0.1 0-0.1c0 0 0.1 0 0.1 0q0-0.1 0-0.1-0.1 0-0.1 0 0-0.1 0-0.1 0 0 0 0 0.1 0 0.1 0 0 0 0-0.1c0.1 0 0.1 0 0.1 0 0 0 0.1 0 0.1 0.1 0.1 0 0.2 0.1 0.2 0.1z"/>
	<path id="Layer" class="s15" d="m11.1 15.9q0.1 0 0.1 0.1c0 0.2-0.1 0.2-0.2 0.2-0.2 0-0.3 0-0.3-0.2 0 0 0.1-0.1 0.2-0.1q0 0 0-0.1-0.1 0-0.1 0 0.1 0 0.1 0 0 0 0 0 0 0 0 0 0.1 0 0.1 0 0 0 0 0 0 0 0 0 0 0 0.1 0 0 0 0 0 0 0 0 0 0 0.1 0 0.1z"/>
	<path id="Layer" class="s9" d="m11.1 15.9q0.1 0 0.1 0.1c0 0.2-0.1 0.2-0.2 0.2-0.2 0-0.3 0-0.3-0.2 0 0 0.1-0.1 0.2-0.1q0 0 0-0.1-0.1 0-0.1 0 0.1 0 0.1 0 0 0 0 0 0 0 0 0 0.1 0 0.1 0 0 0 0 0 0 0 0 0 0 0 0.1 0 0 0 0 0 0 0 0 0 0 0.1 0 0.1z"/>
	<path id="Layer" class="s12" d="m10.7 16.4c-0.1-0.1-0.2-0.1-0.2-0.1 0 0-0.1-0.1-0.1-0.1 0.1 0 0.2 0 0.3 0 0.1 0 0.3 0.2 0.3 0.2 0 0-0.2 0-0.3 0z"/>
	<path id="Layer" class="s9" d="m10.7 16.4c-0.1-0.1-0.2-0.1-0.2-0.1 0 0-0.1-0.1-0.1-0.1 0.1 0 0.2 0 0.3 0 0.1 0 0.3 0.2 0.3 0.2 0 0-0.2 0-0.3 0z"/>
	<path id="Layer" class="s12" d="m11 16.4c0 0 0.1-0.2 0.2-0.2 0.2 0 0.3 0 0.3 0.1 0 0 0 0 0 0-0.1 0-0.1 0.1-0.2 0.1-0.1 0-0.2 0-0.2 0q-0.1 0-0.1 0z"/>
	<path id="Layer" class="s9" d="m11 16.4c0 0 0.1-0.2 0.2-0.2 0.2 0 0.3 0 0.3 0.1 0 0 0 0 0 0-0.1 0-0.1 0.1-0.2 0.1-0.1 0-0.2 0-0.2 0q-0.1 0-0.1 0z"/>
	<path id="Layer" class="s8" d="m11 16.2q-0.1-0.1-0.1-0.2 0-0.1 0.1-0.1 0 0 0 0.1 0 0.1 0 0.2z"/>
	<path id="Layer" class="s9" d="m11 16.2q-0.1-0.1-0.1-0.2 0-0.1 0.1-0.1 0 0 0 0.1 0 0.1 0 0.2z"/>
	<path id="Layer" class="s12" d="m10.9 16.5c0 0 0.1-0.1 0.1-0.2q0-0.1 0-0.1c0 0 0 0.1 0 0.1 0 0.1 0 0.1 0 0.1q0 0 0 0-0.1 0.1-0.1 0.1z"/>
	<path id="Layer" class="s9" d="m10.9 16.5c0 0 0.1-0.1 0.1-0.2q0-0.1 0-0.1c0 0 0 0.1 0 0.1 0 0.1 0 0.1 0 0.1q0 0 0 0-0.1 0.1-0.1 0.1z"/>
	<path id="Layer" class="s4" d="m9.4 11.9v-0.2 0.1h0.1v-0.1h0.1v0.1-0.1h0.1v0.2h-0.1v0.1h0.1-0.1 0.3-0.2 0.1v-0.4h-0.1v-0.1h0.1 0.1 0.1v0.1h-0.1v0.4h0.1-0.1 0.2v-0.1h-0.1v-0.2h0.1v0.1-0.1h0.1v0.1-0.1h0.1v0.2h-0.1v0.1h-0.2 0.4v0.3h-0.1v0.7h0.2v0.3h-0.5 0.5-0.9 0.4-0.8v-0.3h0.2v-0.7h-0.1v-0.3h0.3-0.2z"/>
	<path id="Layer" fill-rule="evenodd" class="s5" d="m10 11.6h-0.1v0.4h0.1v-0.1-0.2h0.1v0.1-0.1h0.1v0.1-0.1h0.1v0.2h-0.1v0.1h0.2v0.3h-0.1v0.7h0.2v0.4h-1.3v-0.4h0.1v-0.7-0.3h0.1v-0.1h-0.1v-0.2h0.1v0.1h0.1v-0.1h0.1v0.1-0.1h0.1v0.2h-0.1v0.1h0.1v-0.4-0.1h0.1 0.1 0.1zm-0.4 0.6v-0.2h-0.2v0.2zm0.1-0.2v0.1h0.1v-0.1zm0 0.1v0.1-0.1zm0 0.1h0.1zm0 0h-0.1 0.1zm-0.2 0h-0.1v0.1h0.1zm0-0.1zm0-0.1h-0.1zm0.5 0.2v-0.2h-0.2v0.2zm0-0.2h0.1zm0 0.1h0.1zm0 0v0.1h0.1v-0.1zm0 0.1h-0.2 0.2zm-0.2-0.1zm0.3 0h-0.1zm0.3-0.1v0.1h0.1v-0.1zm0 0.1zm0 0.1h0.1zm0 0h-0.1 0.1zm-0.2-0.2l0.1 0.2h0.1v-0.2zm0.2-0.1h-0.2 0.2zm-0.5-0.3h0.2-0.2zm0.2 0.1h-0.2 0.2zm-0.3 0.2v-0.1h-0.3v0.1zm0 0h-0.2 0.2zm0.2-0.1v-0.1h-0.1v0.1zm0.1-0.1v0.1-0.1zm0 0.2h-0.1zm0.1 0zm0 0.5v-0.1h-0.1v0.1zm0-0.1v0.1h0.1v-0.1zm0 0.4v-0.1h-0.1v-0.1q0 0 0 0 0 0 0 0 0 0 0 0-0.1 0-0.1 0h-0.2q0 0 0 0v0.1 0.1 0.1 0.1h0.1v-0.1 0.1h0.1v-0.1h0.1v-0.1zm0-0.1v0.1h0.1v0.1 0.1h0.2v-0.1 0.1h0.1v-0.1-0.1-0.1-0.1q0 0-0.1 0h0.1-0.3q0 0 0 0v0.1zm0-0.1h-0.1zm0 0h0.1zm0 0.4v-0.1h-0.1v0.1zm0-0.1v0.1h0.2v-0.1zm0.3-0.8zm0 0h-0.1zm0.2 0.1v0.1h0.1v-0.1zm-0.3 0.2v0.1h0.1v-0.1zm0.2 0v0.1h0.1v-0.1zm0.2 0v0.1-0.1zm-0.1 0.1h0.1zm0 0h-0.2zm-0.1 0h-0.2zm-0.1 0h-0.2zm0 0.2v-0.1h-0.1v0.1zm0 0.2v-0.1h-0.1v0.1zm0 0.1h0.1zm0 0h-0.1zm0.1 0h0.2zm0.1 0h0.1zm-0.3 0.1q-0.1-0.1-0.1-0.1-0.1 0-0.1 0.1h-0.1q0 0 0 0 0 0 0 0 0 0 0 0 0 0 0 0 0 0 0 0v0.1q-0.1 0-0.1 0v0.1h0.1-0.2v0.1h0.2-0.1v0.1h0.1 0.4 0.1v-0.1h-0.1 0.2v-0.1h-0.2 0.1v-0.1h-0.1q0 0 0 0v-0.1q0 0 0 0 0 0 0 0 0 0 0 0 0 0 0 0-0.1 0-0.1 0zm0 0h0.2zm0 0v0.1h0.2v-0.1zm0.3 0.1v-0.1h-0.1v0.1zm0-0.1v0.1-0.1zm-0.2 0h0.1zm0 0.1v0.1h0.2v-0.1zm0 0.2v0.1h0.1v-0.1zm0.1-0.1v0.1h0.1v-0.1zm0.2 0v0.1-0.1zm0-0.1v0.1h0.1v-0.1zm0 0.2v0.1h0.1v-0.1zm-0.8-1.3h0.1zm0 0h-0.1zm-0.1 0.2v-0.1h-0.1v0.1zm0.3 0.2v-0.1h-0.1v0.1zm-0.2 0v-0.1h-0.1v0.1zm-0.2 0v-0.1 0.1zm0.1 0h0.1zm0 0h-0.1zm0.2 0h0.2zm0.1 0.5h-0.1zm-0.2 0h-0.2zm-0.1 0h-0.1zm0.3 0.1h-0.2zm0 0.1v-0.1h-0.2v0.1zm-0.3 0v-0.1h-0.1v0.1zm0-0.1v0.1h0.2v-0.1zm0.2 0h-0.1zm0 0.2v-0.1h-0.2v0.1zm0 0.2v-0.1h-0.1v0.1zm-0.1-0.1v-0.1h-0.1v0.1zm-0.2 0v-0.1h-0.1v0.1zm0.1-0.1v-0.1h-0.1v0.1zm0 0.2v-0.1h-0.2v0.1zm0.1-1.6h0.2-0.1-0.1zm0.3-0.3h0.3v-0.1h-0.1v0.1h-0.1v-0.1 0.1h-0.1v-0.1zm0.6 0.4v-0.1h-0.3 0.3v-0.1h-0.1-0.1-0.1v0.2zm-0.4-0.2h-0.2v0.1h0.2zm0 0.2h-0.2 0.2z"/>
	<path id="Layer" class="s5" d="m10 13.3v-0.2h0.1v0.3h-0.5v-0.3 0.2zm-0.4-0.3q0 0 0.1 0 0 0 0-0.1l0.1 0.1q-0.1 0-0.1 0 0 0-0.1 0zm0.3 0q0.1 0 0.1 0 0 0 0 0 0 0 0 0 0 0-0.1 0z"/>
	<path id="Layer" fill-rule="evenodd" class="s5" d="m9.7 13.1h-0.1q0 0 0-0.1 0 0 0 0l0.1 0.1q0 0 0 0 0 0 0 0zm-0.1 0h0.1q0 0 0 0 0 0 0 0l-0.1-0.1q0 0 0 0.1 0 0 0 0zm0.5 0h-0.1q0 0 0 0 0 0-0.1 0l0.1-0.1q0.1 0 0.1 0 0 0.1 0 0.1zm-0.1 0h0.1q0 0 0 0 0-0.1 0-0.1l-0.1 0.1q0 0 0 0 0 0 0 0zm-0.1-0.2v0.1h-0.1v-0.1q0 0 0 0 0 0 0 0 0.1 0 0.1 0 0 0 0 0h0.1zm-0.1 0.1v-0.1q0 0 0 0 0 0 0 0-0.1 0-0.1 0 0 0 0 0v0.1zm-0.1-0.5v0.3h-0.3v-0.3q0 0 0-0.1 0.1 0 0.1 0 0.1 0 0.1 0 0.1 0.1 0.1 0.1zm-0.1 0.3v-0.3q0 0 0 0 0-0.1-0.1-0.1 0 0 0 0.1-0.1 0-0.1 0v0.3zm0.4-0.3q0 0 0-0.1 0 0 0.1 0 0 0 0.1 0 0 0.1 0 0.1v0.3h-0.2zm0 0v0.2h0.2v-0.2q0-0.1-0.1-0.1 0 0 0 0-0.1 0-0.1 0 0 0 0 0.1z"/>
	<path id="Layer" fill-rule="evenodd" class="s16" d="m10 13.3h-0.3v-0.1c0-0.1 0-0.2 0.1-0.2 0.2 0 0.2 0.1 0.2 0.2zm-0.5-0.6v-0.2q0-0.1 0.1-0.1 0 0 0.1 0.1v0.2zm0.5 0v-0.2q0-0.1 0.1-0.1 0.1 0 0.1 0.1v0.2z"/>
	<path id="Layer" fill-rule="evenodd" class="s4" d="m12.4 11.5h0.1-0.1 0.1-0.1q0 0.1 0 0.1h0.1v-0.1 0.1-0.1h0.1v0.1h-0.1 0.1-0.1q0 0 0 0 0 0 0 0 0 0 0 0 0 0.1 0.1 0.1h-0.1l0.1-0.1v0.1q0 0 0 0 0-0.1 0-0.1 0 0.1 0 0.1 0 0 0 0 0 0 0 0 0 0-0.1 0 0 0 0 0-0.1 0-0.1-0.1-0.1-0.1-0.2-0.1 0 0 0 0 0-0.1 0-0.1 0 0 0 0 0 0 0 0 0 0 0 0 0-0.1 0-0.1 0 0 0 0 0 0.1 0 0.1 0 0 0 0h0.1-0.1q0 0.1 0.1 0.1 0 0 0 0 0 0 0 0 0 0 0 0 0 0 0 0 0 0 0 0 0-0.1 0-0.1h0.1-0.1 0.1v0.1h-0.1q0 0 0 0 0 0 0.1 0 0 0 0 0 0 0 0 0 0 0 0 0zm0.1 0.1q0 0 0 0 0 0 0 0 0 0 0 0z"/>
	<path id="Layer" fill-rule="evenodd" class="s5" d="m12.6 11.7q0-0.1 0-0.1 0.1 0.1 0 0.1 0 0 0 0 0 0 0 0 0 0-0.1 0 0 0 0 0 0 0 0 0 0 0 0 0 0 0 0 0 0 0 0 0 0 0 0 0.1 0 0 0 0 0 0 0 0 0 0 0 0.1 0 0 0 0 0 0 0 0 0 0-0.1 0 0 0 0 0 0 0.1 0 0.1 0.1 0 0.1 0 0 0 0 0 0 0.1 0 0.1c0 0 0 0 0 0h-0.1q0 0 0 0 0 0.1 0 0.1 0 0 0-0.1 0 0 0 0.1c0 0 0 0.1 0 0.1h-0.1q0 0 0-0.1v0.1q0 0 0.1 0.2c0 0 0.1 0.1 0.2 0.1q0.1 0 0.1-0.1 0-0.1 0-0.2 0-0.1-0.1-0.1 0-0.1 0-0.1 0-0.1 0-0.1 0.1-0.1 0.1-0.1-0.1 0-0.1-0.1 0 0 0.1 0 0-0.1 0-0.1v-0.1q0 0 0 0c0 0 0-0.1 0-0.1 0 0 0 0 0.1 0.1q0 0 0 0 0 0 0 0 0 0 0.1 0 0-0.1 0-0.1 0 0 0 0c0 0 0 0.1 0 0.1q0 0.1-0.1 0.1 0.1 0 0.1 0 0 0 0 0.1-0.1 0-0.1 0 0 0.1 0 0.1 0 0 0 0-0.1 0.1-0.1 0.1 0 0 0 0c0 0.1 0 0.2 0 0.2 0.1 0.1 0.1 0.2 0.1 0.2v0.1c0 0 0 0.1-0.1 0.2q0 0-0.1 0 0 0 0 0 0 0-0.1 0.1 0 0 0 0 0 0.1 0.1 0.1 0 0.1 0 0.1 0 0 0 0 0 0 0 0 0 0 0 0 0.1 0 0.1 0 0 0 0 0.1 0 0-0.1 0 0 0 0 0 0 0.1 0 0.1 0 0 0 0v0.1q0 0 0 0c0 0 0 0 0 0.1q0 0 0 0 0 0 0 0c0 0 0 0 0 0v0.1q0 0-0.1-0.1 0 0 0 0 0 0 0 0 0 0 0-0.1 0 0 0 0 0 0 0 0 0 0 0 0 0 0 0 0 0 0 0 0 0 0 0 0c0 0 0 0.1-0.1 0.1q0 0 0 0 0 0 0 0 0 0 0 0 0 0-0.1 0c0-0.1 0.1-0.1 0.1-0.1q0 0 0 0 0 0 0 0 0 0 0 0 0 0 0 0 0 0 0 0 0 0 0 0 0 0 0 0 0 0 0 0 0 0 0 0 0 0 0 0 0 0 0 0 0 0 0 0 0 0 0 0 0 0 0 0l-0.1-0.1q0 0.1 0 0.1h-0.1c0 0 0.1-0.1 0.1-0.1 0 0 0.1 0 0.1 0q0 0 0 0 0 0 0 0 0 0 0 0 0.1 0 0.1 0 0 0 0 0 0-0.1 0-0.1 0 0 0 0 0 0 0 0 0 0 0 0 0 0 0 0 0 0-0.1 0 0 0 0 0 0 0 0 0 0 0 0 0 0 0 0 0 0 0 0 0 0 0 0 0 0 0 0 0 0 0 0 0 0 0-0.1 0 0 0 0 0 0 0 0 0 0 0 0-0.1 0 0 0 0-0.1 0-0.1 0 0-0.1 0-0.1 0 0 0 0 0.1 0 0.1-0.1l-0.1 0.1v-0.1q0 0-0.1 0.1 0 0 0 0 0 0 0.1 0.1 0 0.1 0 0.1 0 0 0 0 0 0-0.1 0 0 0 0 0 0 0 0 0 0 0 0 0 0 0-0.1 0c0 0 0 0 0 0q0 0-0.1 0 0 0 0 0 0 0 0 0 0 0 0 0 0 0 0 0.1 0 0 0 0 0 0 0 0 0 0 0 0-0.1 0-0.1 0 0 0 0 0 0 0 0 0 0 0 0-0.1 0 0 0 0 0 0 0 0 0 0 0 0 0 0-0.1 0 0 0 0 0 0 0 0 0 0 0 0 0 0 0 0 0 0 0 0 0-0.1 0-0.1 0c0 0 0-0.1 0-0.1q0.1 0 0.1 0 0 0 0 0 0 0 0.1 0 0 0 0 0 0 0 0 0 0 0 0 0 0 0 0 0-0.1-0.1 0-0.1h-0.1q0 0 0 0c0 0 0 0 0 0 0 0 0-0.1 0-0.1q0.1 0.1 0.1 0.1 0 0 0 0 0.1 0 0.1 0 0 0 0 0 0 0.1 0 0.1 0 0 0 0 0.1 0 0.1 0 0 0 0 0v-0.1q0 0 0 0 0 0 0 0h-0.1q0 0 0 0 0-0.1 0-0.1 0 0.1 0 0.1c0 0 0-0.1 0-0.1q0 0 0 0 0-0.1 0-0.1c0 0 0-0.1 0.1-0.1h0.1q0.1 0 0.1 0c0 0-0.1 0-0.1-0.1q-0.1 0-0.1 0 0 0 0-0.1-0.1 0-0.1 0 0 0 0 0 0 0 0 0 0 0-0.1 0c0 0 0 0.1 0 0.1q0-0.1 0-0.1 0 0 0 0.1-0.1 0-0.1 0 0 0 0 0 0 0 0 0h-0.1q0 0 0 0 0 0 0 0 0 0 0 0.1 0 0-0.1 0 0 0 0 0 0 0 0 0v0.1q0 0 0-0.1 0 0 0 0-0.1 0 0-0.1 0 0 0 0 0 0 0 0-0.1 0-0.1 0 0 0 0 0 0 0 0 0 0 0 0 0 0 0 0 0 0 0 0 0-0.1 0-0.1 0 0 0 0-0.1 0.1 0 0.1 0 0 0 0 0 0 0 0 0 0.1 0 0.1 0-0.1 0-0.1 0 0 0 0 0 0 0 0 0 0 0 0 0 0 0 0 0 0 0 0 0 0 0 0 0v-0.1q0 0 0 0-0.1 0-0.1 0c0 0 0 0 0.1 0q0 0 0 0 0.1 0 0.1 0 0 0 0 0 0 0 0 0 0 0 0.1 0 0 0 0 0 0.1 0 0.1 0 0 0 0-0.1 0 0 0 0 0 0-0.1 0 0 0 0-0.1 0 0 0 0c-0.1 0-0.1 0-0.1 0q0 0 0 0 0-0.1 0-0.1-0.1 0-0.1 0v0.1-0.1q0 0 0.1 0 0 0 0 0 0 0-0.1-0.1 0 0 0 0 0 0 0 0 0 0 0 0-0.1 0-0.1 0 0 0 0 0 0 0 0 0l-0.1 0.1v-0.1c0 0 0 0 0.1 0q0-0.1 0-0.1 0 0 0 0 0 0 0.1 0 0 0-0.1 0 0 0 0 0 0-0.1 0-0.1c0 0-0.1 0-0.1 0 0 0 0.1 0 0.1 0q0.1 0 0.1 0 0 0 0 0 0 0 0 0 0 0 0 0 0.1 0 0.1 0 0 0 0 0 0 0 0 0 0 0 0 0 0 0 0 0 0 0 0 0 0 0 0 0 0-0.1 0-0.1 0 0 0 0 0 0 0 0 0 0 0 0c0 0 0.1 0 0.1 0q0 0 0 0.1 0 0 0 0 0 0 0 0h-0.1q0 0 0 0.1 0 0 0 0 0 0 0.1 0 0 0 0 0.1 0 0 0.1 0 0 0 0.1 0.1 0 0 0 0 0 0 0 0h0.1q0 0 0.1 0 0-0.1 0-0.1 0 0 0 0 0 0 0 0-0.1 0-0.1-0.1 0.1 0 0.1 0 0 0 0 0h0.1q0 0 0 0 0 0-0.1 0 0 0 0 0-0.1 0-0.1 0 0 0-0.1 0 0 0 0-0.1c0 0-0.1 0-0.1 0 0 0 0.1-0.1 0.1-0.1q0.1 0 0.1 0.1 0 0 0.1 0 0 0 0 0 0.1 0.1 0.1 0 0 0 0 0 0 0 0 0h-0.1q0 0 0 0 0 0 0 0 0 0 0 0 0 0 0 0 0 0 0 0 0 0 0 0 0 0 0 0 0 0 0 0v-0.1q0 0 0 0 0 0 0 0 0 0 0 0h0.1q0 0 0 0 0 0 0-0.1 0 0 0 0c0.1 0 0.1 0 0.1 0q0-0.1 0-0.1 0 0 0 0 0 0 0 0 0 0 0 0 0 0 0 0 0 0 0 0 0 0 0 0 0 0 0 0 0-0.1 0-0.1 0 0 0 0 0 0.1 0 0.1 0.1 0 0.1 0 0 0 0 0.1 0 0 0 0 0 0 0-0.1h0.1q0 0 0 0v0.1h0.1q0 0 0 0h-0.1q0 0.1 0 0.1 0.1 0 0.1 0v-0.1 0.1q0-0.1 0-0.1h0.1v0.1h-0.1q0 0 0.1 0h-0.1q0 0 0 0 0 0.1 0 0.1v-0.1h0.1zm0 0.1q-0.1 0-0.1-0.1 0 0 0 0 0 0 0 0 0 0 0 0 0 0 0 0 0 0 0 0 0 0 0 0 0 0 0 0 0 0 0 0 0 0 0 0 0 0 0 0 0 0 0 0 0 0 0 0 0 0 0 0 0 0 0 0 0 0 0 0 0 0 0 0v-0.1q-0.1 0-0.1 0 0 0 0 0 0 0 0 0 0 0 0 0 0 0 0 0 0 0 0 0 0 0 0 0 0 0 0 0 0 0 0 0 0 0 0 0 0 0 0 0 0 0 0 0 0 0 0 0 0 0 0 0 0 0 0 0 0 0 0 0 0 0 0 0 0 0 0 0 0 0 0 0 0 0 0 0 0 0 0 0 0 0 0 0h-0.1q0 0 0 0 0 0 0 0 0 0 0 0 0 0 0 0 0 0 0 0 0 0 0 0 0 0 0 0 0 0 0 0 0 0 0-0.1 0 0 0 0 0 0.1 0 0.1 0 0 0 0 0 0 0 0 0 0 0 0 0 0 0 0 0 0 0 0v-0.1q0 0-0.1 0 0 0 0 0.1 0 0 0 0 0.1 0 0 0 0.1 0 0.1 0.1h0.1q0 0 0 0 0.1 0.1 0.1 0.1 0 0 0 0 0 0 0.1 0zm-0.1 1.6q0 0 0 0 0 0 0 0 0.1 0 0.1 0c0 0 0 0 0 0q-0.1 0 0-0.1 0 0 0 0 0-0.1 0-0.1 0 0 0 0 0-0.1 0-0.1 0 0 0 0 0 0 0 0 0 0 0 0 0 0 0 0 0 0 0 0 0 0 0 0 0 0 0 0 0 0 0 0 0 0 0 0 0 0 0 0 0 0 0 0 0 0 0-0.1h-0.1c0 0 0 0 0-0.1q0 0 0-0.1 0 0 0.1 0 0 0 0 0 0.1 0 0.1-0.1c0.1 0 0.1-0.1 0.1-0.2 0 0-0.1-0.1-0.1-0.2q0 0 0 0c0-0.1 0-0.1 0-0.2q0 0 0-0.1 0 0 0 0 0.1 0 0.1 0 0-0.1 0-0.1 0 0 0 0 0.1-0.1 0.1-0.1-0.1 0-0.1 0c0 0 0.1-0.1 0.1-0.1q0 0 0-0.1 0 0 0 0-0.1 0.1-0.1 0.1c0 0 0 0 0 0 0 0 0 0 0 0q-0.1 0-0.1-0.1 0 0.1 0 0.1 0 0 0 0 0 0.1 0 0.1 0 0.1 0 0.1 0 0.1 0 0.1 0 0 0 0.1-0.1 0-0.1 0 0 0.1 0.1 0.1 0 0.1 0 0.2 0 0 0 0.1 0 0.1-0.1 0.2c-0.1 0-0.2-0.1-0.2-0.1v-0.1q-0.1-0.1-0.1-0.2 0 0 0 0 0 0 0 0-0.1 0-0.1 0 0 0.1 0 0.1c0 0 0-0.1 0-0.1q0 0-0.1 0 0 0 0 0 0 0.1 0 0.1h-0.1q0 0 0 0 0 0-0.1 0c0 0 0.1 0.1 0.1 0.1q0 0 0 0.1 0 0 0.1 0c0 0 0.1 0.1 0.1 0.1 0 0 0.1 0 0.1 0.1 0 0 0 0.1 0 0.1 0 0 0-0.1 0-0.1 0 0-0.1-0.1-0.1-0.1 0 0-0.1 0-0.1 0h-0.1q-0.1 0-0.1 0.1 0 0 0 0 0 0 0 0 0 0.1 0 0.1 0 0 0 0 0 0 0 0 0 0 0 0v-0.1 0.1q0.1 0 0.1 0 0 0 0 0 0 0.1 0 0.1 0 0 0 0 0-0.1 0-0.1 0 0.1 0 0.1 0 0 0 0.1 0 0-0.1 0 0 0 0 0 0-0.1-0.1-0.1 0 0 0 0 0 0 0 0 0 0 0 0 0 0 0 0 0 0 0 0 0 0 0 0 0 0 0 0.1 0 0 0 0 0 0 0 0-0.1 0-0.1 0 0 0 0 0 0 0 0 0 0 0 0 0 0 0.1 0 0.1 0.1 0 0.1 0 0-0.1 0-0.1 0 0 0 0 0 0 0 0.1 0 0 0 0 0 0 0 0 0 0 0 0h0.1q0 0 0 0 0 0 0 0 0 0 0 0 0.1 0 0.1 0 0.1 0 0.1 0 0 0 0 0 0 0 0 0 0 0 0 0 0.1 0 0.1 0 0-0.1-0.1-0.1 0-0.1 0-0.1 0-0.1 0-0.1 0 0 0.1 0h0.1q0 0 0 0.1 0 0 0 0 0 0 0 0 0 0 0 0.1 0 0 0 0 0 0 0 0 0 0 0 0.1 0.1 0 0.1 0 0 0 0 0-0.1 0-0.1-0.1h0.1q0 0 0 0v0.1-0.1q0 0 0 0 0 0 0.1 0 0 0 0 0.1 0 0 0 0 0 0 0 0 0 0 0 0.1 0 0-0.1 0 0 0 0 0 0 0 0 0 0 0 0 0 0 0 0 0 0 0 0 0 0 0 0 0 0 0 0 0 0 0 0 0 0 0 0 0.1 0 0 0 0 0 0 0 0 0 0 0 0 0 0 0 0c0 0 0 0 0 0q0 0 0 0 0 0 0.1 0 0 0 0 0 0 0 0 0 0 0 0 0 0 0 0 0zm-0.1-0.2q0 0 0 0zm-0.3-1.4q0 0-0.1 0 0 0-0.1 0 0 0 0 0-0.1-0.1-0.1-0.1 0 0-0.1 0 0.1 0 0.1 0.1 0 0 0 0 0.1 0.1 0.1 0.1 0 0 0.1 0 0 0 0 0 0.1 0 0.1 0 0 0 0-0.1zm0.5-0.1q0 0 0 0 0 0 0 0 0 0 0 0.1 0-0.1 0-0.1 0 0 0 0 0 0 0 0 0 0 0 0 0 0 0 0zm-0.1 0q0 0 0 0zm0 0q0 0 0 0 0 0 0 0 0 0 0 0 0 0 0 0 0 0 0 0zm0-0.1q0 0 0 0 0 0 0 0 0 0 0 0 0 0 0 0zm0 0zm0 0.1v-0.1zm-0.1-0.1q0 0 0 0zm0 0q0 0.1 0 0.1v-0.1zm0 0h0.1-0.1zm0 0.1h0.1v-0.1h-0.1q0 0.1 0 0.1zm0-0.1h-0.1q0 0 0 0 0 0 0 0 0 0 0 0 0 0 0 0 0 0 0 0h0.1v0.1q0 0 0 0 0 0 0-0.1zm-0.2-0.1q0 0 0 0 0 0 0 0 0 0 0 0 0 0 0 0zm0 0.1l0.1-0.1h-0.1v0.1zm0.1 0q0 0 0 0zm0 0q0 0 0 0 0 0 0.1 0l-0.1-0.1zm0 0.1q0 0 0 0h0.1zm-0.1 0q0 0 0 0zm0.2 0.2q0 0 0 0 0 0 0 0 0 0 0 0 0 0 0 0 0 0 0 0 0 0 0 0 0 0 0 0zm-0.2-0.1q0 0-0.1 0v-0.1q0 0 0 0.1 0 0 0 0-0.1 0-0.1 0 0 0 0 0 0 0-0.1 0 0 0 0 0 0 0 0 0 0 0 0 0 0 0 0 0.1 0 0 0 0 0 0 0.1 0 0 0 0 0.1 0 0 0 0 0 0.1 0 0.1h-0.1q0 0 0 0 0 0 0 0 0 0 0 0 0 0.1 0 0.1 0 0 0 0-0.1 0-0.1 0h-0.1q0 0 0 0 0 0 0 0 0 0.1 0 0.1 0 0 0 0 0.1 0 0.1 0c0 0 0 0 0 0 0 0 0 0 0 0v0.1q0 0 0 0 0 0 0 0 0 0 0 0 0.1 0 0.1 0 0 0 0 0 0 0 0 0l0.1-0.1v0.1q0 0.1 0 0.1 0 0 0 0 0 0 0-0.1 0 0 0.1 0c0 0 0 0 0 0.1q0 0 0 0 0 0 0 0 0 0 0.1 0 0-0.1 0-0.1 0 0 0 0 0 0 0 0 0 0 0 0 0 0 0 0 0 0 0 0l-0.1-0.1 0.1 0.1q0 0 0 0.1 0 0 0 0 0-0.1 0-0.1c0 0 0-0.1 0-0.1q0.1 0 0.1 0 0 0.1 0 0.1 0 0 0-0.1c0 0 0 0 0 0v-0.1 0.1c0 0 0 0 0.1 0q0 0 0 0 0 0 0 0 0-0.1 0-0.1-0.1 0-0.1 0 0 0 0 0 0 0 0 0 0 0 0 0 0 0 0-0.1 0 0 0 0 0 0 0 0 0 0 0 0 0 0 0-0.1 0 0.1 0 0.1 0 0 0.1 0 0 0 0 0 0 0 0 0 0 0 0 0 0 0 0 0 0 0-0.1 0 0 0 0 0 0-0.1 0-0.1 0.1 0 0.1 0-0.1-0.1-0.1-0.1l-0.1-0.1q0 0 0 0zm0.1 0q0 0 0 0 0 0 0 0 0 0 0 0zm-0.1-0.1q0 0 0 0 0 0 0 0zm0.1 0.1q0 0 0 0 0 0 0 0 0 0 0 0zm-0.1 0h0.1q0 0 0 0 0 0-0.1 0 0 0 0 0zm0.2 0.1h-0.1q0-0.1 0-0.1 0 0 0.1 0 0 0.1 0 0.1 0 0 0 0zm0 1.7q0 0 0 0.1 0.1 0 0.1 0 0-0.1 0-0.1 0 0 0 0 0 0 0 0 0 0 0 0 0 0 0 0-0.1 0-0.1 0zm0.1-1.7q0 0 0 0 0 0 0 0 0 0 0 0 0 0 0 0 0 0 0 0zm-0.2 1.7q0 0 0 0 0 0 0 0 0 0 0 0 0 0 0 0zm-0.1-0.2q0 0 0 0 0 0 0 0.1 0-0.1 0-0.1 0 0 0.1 0.1v-0.1zm-0.6 0q0 0 0 0 0 0 0 0 0 0 0 0 0 0 0 0 0 0 0 0 0 0 0 0 0 0 0 0 0 0 0 0 0 0 0 0 0 0 0 0 0 0 0 0 0 0 0 0zm-0.1-0.2q0 0-0.1 0.1 0 0 0 0 0 0 0.1 0 0 0 0 0 0-0.1 0-0.1zm0.1-0.1q0 0-0.1 0 0 0 0 0 0 0 0 0h0.1zm0 0q0 0 0 0.1 0 0 0 0v-0.1zm-0.3-0.3q0 0.1 0 0.1 0 0 0 0 0 0 0 0 0-0.1 0-0.1 0 0 0 0 0 0 0 0 0 0 0 0 0 0 0 0 0 0 0 0zm0 0q0 0 0 0 0 0 0 0 0 0 0 0 0 0 0 0 0.1-0.1 0.1-0.1 0.1 0 0.1 0 0 0 0 0c0.1 0 0.1-0.1 0.1-0.1q0 0 0 0.1 0 0 0-0.1 0.1 0 0.1 0 0 0 0 0c0 0 0.1 0 0.1 0q0-0.1 0-0.1 0 0 0 0 0 0 0-0.1 0 0.1 0 0.1 0 0 0 0-0.1 0-0.1 0 0 0 0 0h-0.1c0 0 0.1 0 0.1-0.1q0 0 0 0h-0.1q0 0 0 0 0 0 0 0.1-0.1 0-0.1 0c0 0 0 0.1 0 0.1q-0.1 0-0.1 0 0 0-0.1 0 0 0 0 0 0 0 0 0 0 0-0.1 0 0 0 0 0 0 0 0 0 0 0 0 0 0 0 0 0 0 0 0 0 0.1 0.1 0.1 0.1 0 0 0 0-0.1 0-0.1 0 0 0 0 0 0 0 0 0 0 0 0 0 0 0 0 0 0 0 0 0.1 0 0 0 0 0 0 0 0 0 0 0-0.1 0.1 0 0.1 0.1 0 0 0 0 0 0 0 0-0.1 0 0 0zm-0.1-0.1q0 0-0.1 0 0 0 0 0 0 0 0 0 0.1 0 0.1 0.1v-0.1q0 0 0 0 0 0 0 0zm0-0.1q0 0 0 0 0 0 0 0 0 0 0 0 0 0 0 0-0.1 0-0.1 0 0 0 0.1 0 0 0 0 0 0 0 0 0 0 0 0 0zm0.3-0.1q0 0 0.1-0.1 0 0 0 0 0.1 0 0.1 0 0 0 0-0.1 0 0-0.1 0 0 0 0 0-0.1 0-0.1 0v0.1-0.1q0 0 0 0 0 0 0.1-0.1-0.1 0-0.1 0 0 0-0.1 0 0 0 0-0.1 0 0-0.1 0 0 0 0 0 0 0 0 0 0 0 0 0 0 0 0 0 0 0 0 0 0 0 0 0 0 0 0 0 0-0.1 0-0.1 0 0 0 0 0 0 0-0.1 0 0 0 0 0 0 0 0 0 0 0 0 0 0 0 0 0 0 0 0 0 0 0 0-0.1 0-0.1 0h0.1q0 0.1 0 0.1-0.1 0-0.1 0 0 0 0 0 0 0 0 0 0 0 0 0 0 0 0 0-0.1 0-0.1 0 0 0 0 0 0.1 0 0.1 0.1 0 0 0 0 0 0-0.1 0 0 0 0 0 0 0 0 0 0 0 0 0 0 0.1 0 0.1 0.1 0 0.1 0 0 0 0 0 0 0 0 0 0 0 0.1 0c0 0.1 0 0.1 0 0.1q0 0 0 0-0.1 0-0.1 0 0.1 0 0.1 0 0 0 0 0 0 0 0 0h0.1-0.1q0 0.1 0 0.1 0 0 0 0 0.1 0 0.1 0 0 0 0 0 0.1 0 0.1 0v0.1q0 0 0 0zm-0.4-0.4q0 0 0 0-0.1 0.1-0.1 0.1 0.1 0 0.1 0 0 0 0 0 0 0 0 0 0-0.1 0-0.1zm0-0.1q0 0 0-0.1 0 0.1 0 0.1 0 0 0 0 0 0 0 0 0 0 0 0zm0.2-0.1q0 0 0 0 0 0 0 0 0 0 0 0 0 0 0 0 0 0 0-0.1 0 0.1 0 0.1 0 0 0 0 0 0 0 0zm0.6 0v-0.1q0.1 0 0.1 0.1 0 0 0 0 0 0 0 0 0 0 0 0 0 0 0 0h-0.1zm-1.2 3.6c0 0.3-0.1 0.5-0.3 0.7-0.2 0.2-0.5 0.4-0.8 0.4-0.3 0-0.6-0.2-0.8-0.4-0.2-0.2-0.3-0.4-0.3-0.7v-4.1h2.2zm0-1.5h-2.2v1.5c0 0.3 0.1 0.6 0.3 0.8 0.2 0.2 0.5 0.3 0.8 0.3 0.3 0 0.6-0.1 0.8-0.3 0.2-0.2 0.3-0.5 0.3-0.8zm-2.2 0h2.2v-2.5h-2.2zm3.5-2.3v0.1-0.1zm0 0.1zm0.2 0.2z"/>
	<path id="Layer" fill-rule="evenodd" class="s5" d="m13.2 15.2c0 0.3-0.1 0.6-0.3 0.8-0.2 0.2-0.5 0.3-0.8 0.3-0.3 0-0.6-0.1-0.8-0.3-0.2-0.2-0.4-0.5-0.4-0.8v-1.5h2.3zm0 0v-1.5h-2.2v1.5c0 0.3 0.1 0.5 0.3 0.7 0.2 0.2 0.5 0.3 0.8 0.3 0.3 0 0.6-0.1 0.8-0.3 0.2-0.2 0.3-0.4 0.3-0.7z"/>
	<path id="Layer" fill-rule="evenodd" class="s5" d="m10.9 13.7v-2.5h2.3v2.5zm0.1 0h2.2v-2.5h-2.2z"/>
	<path id="Layer" fill-rule="evenodd" class="s4" d="m11.3 13.9q0.1 0 0.1 0.1h0.2v-0.1h0.2v0.1h0.2q0-0.1 0.1-0.1 0.1 0 0.1 0.1h0.1v-0.1h0.3v0.1h0.1q0.1-0.1 0.1-0.1c0.2 0 0.2 0.2 0.1 0.2v0.2h0.1v0.2l-0.1 0.1v0.1q0.1 0.1 0.1 0.1 0 0.1-0.1 0.2v0.1h0.1l-0.1 0.2q0 0.1-0.1 0.2 0.1 0.1 0 0.2-0.1 0-0.1 0-0.1 0.1-0.2 0.1-0.1 0-0.1 0v0.1q0.1-0.1 0.2-0.1v0.1q-0.1 0-0.2 0.1l-0.1-0.1q0 0-0.1 0 0 0.1-0.1 0.1-0.1 0-0.1-0.1-0.1 0-0.2 0v0.1q-0.1-0.1-0.2-0.1v-0.1q0.1 0 0.2 0.1v-0.1q-0.1 0-0.1 0h-0.1q-0.1 0-0.1-0.1-0.1 0-0.1 0-0.1-0.1-0.1-0.2 0-0.1 0-0.2h-0.1v-0.2h0.1v-0.1q-0.1-0.1-0.1-0.2 0 0 0.1-0.1v-0.1l-0.1-0.1v-0.2h0.1v-0.2c-0.2 0-0.1-0.2 0-0.2zm0.4 1.8q0.1 0 0.2 0.1h-0.1q0.1 0.1 0.2 0.1 0-0.1 0-0.1v-0.3-0.2-0.3q0 0 0 0l-0.2 0.2h-0.1v0.1l-0.2 0.2q0.1 0.1 0 0.1 0.1 0.1 0.1 0.1zm-0.4-0.5q0 0.1 0 0.1 0 0 0 0 0 0 0 0 0 0 0 0h0.1q0 0.1 0.1 0.2 0 0 0 0l0.2-0.2h-0.1l0.2-0.2v0.1l0.2-0.2q0-0.1 0-0.1h-0.1v0.1h-0.2l-0.1-0.1h0.2-0.1-0.2q0 0.1-0.1 0.1v0.2h-0.1zm0.1-0.1h0.1c0 0 0 0.1 0 0.1 0 0 0 0.1 0 0.1h-0.1q0 0 0-0.1zm0.1 0.1q0 0 0 0 0 0 0 0zm0 0.4q0 0 0 0 0 0 0 0 0 0 0 0 0 0 0 0 0.1 0 0 0 0-0.1-0.1 0 0 0 0.1 0zm0.8 0.2q0.1-0.1 0.2-0.1h0.1q0 0 0.1 0-0.1-0.1 0-0.2l-0.2-0.2-0.1-0.2h0.1l0.1 0.1v0.1l0.1 0.2q0.1 0 0.1 0 0-0.1 0-0.2h0.1q0-0.1 0-0.1h-0.1v-0.2q0 0 0-0.1h-0.2v-0.1h-0.2 0.2 0.2q0 0 0 0v-0.3h0.1v-0.1h-0.1v-0.3q0 0 0 0l-0.2 0.3v0.1l-0.1 0.1h-0.1l0.2-0.2-0.1 0.1v-0.1l-0.1 0.1 0.1 0.1-0.3 0.2q0 0 0 0h0.2v0.1h0.2v0.1h-0.2v-0.1h-0.2q0 0 0 0l0.2 0.3 0.1 0.2h-0.1l-0.1-0.2-0.1-0.2q0 0 0 0v0.4h-0.1v0.1h0.1v0.3q0 0 0 0.1 0.1 0 0.2 0zm-0.2-0.5h0.1v0.2h-0.1zm-0.1 0.7q0.1 0 0.1 0 0-0.1-0.1-0.1 0 0 0 0.1 0 0 0 0zm0.8-0.9zm-0.1 0v0.1q0 0.1 0 0.2v-0.1c0 0 0-0.1 0-0.1 0 0.1 0-0.1 0-0.1zm0 0.5q-0.1 0-0.1 0-0.1 0 0 0.1 0 0 0 0 0.1-0.1 0.1-0.1zm-1-0.4l0.1 0.1-0.2 0.1zm-0.3-0.4h0.2l0.1 0.1h0.1q0 0 0-0.1l-0.2-0.2-0.1 0.1-0.1-0.2v-0.1l0.2 0.2v-0.1l0.2 0.3q0 0 0.1 0v-0.3h-0.1v-0.2h0.1v0.1 0.4q0 0 0 0l0.2-0.2v-0.1l0.1-0.1h0.1l0.2-0.3q0 0 0 0h-0.1v0.1h-0.2l-0.1-0.1h-0.1q0 0.1-0.1 0.1v0.1h0.1v0.2h-0.1v-0.2-0.1q-0.1 0-0.1-0.1h-0.1l-0.1 0.1h-0.2v-0.1h-0.2q0 0 0 0l0.3 0.3h0.1l0.1 0.1v0.1l-0.2-0.2v0.1l-0.3-0.3q0 0 0 0v0.2h-0.1v0.1h0.1v0.3q0 0 0.1 0.1h0.1zm-0.3 0.1q0.1 0 0.1 0 0-0.1-0.1-0.1 0 0 0 0.1 0 0 0 0zm1.5-0.3h-0.1v-0.3h0.1zm0 0.4q0.1 0 0.1-0.1 0 0-0.1 0 0 0 0 0 0 0.1 0 0.1zm-0.3-0.9h-0.1 0.1zm0.3 0.1q0.1 0 0.1 0 0-0.1-0.1-0.1 0 0 0 0.1 0 0 0 0zm-1-0.1h-0.2v0.1h0.2zm0.3 0.1q0 0 0-0.1 0 0 0 0-0.1 0-0.1 0 0 0.1 0.1 0.1zm-0.7 0.2v0.2 0.1zm0-0.3q0-0.1-0.1-0.1 0 0 0 0.1 0 0 0 0 0.1 0 0.1 0z"/>
</svg>