<svg version="1.2" xmlns="http://www.w3.org/2000/svg" viewBox="0 0 20 20" width="20" height="20">
	<title>spain-flag-svg</title>
	<style>
		.s0 { fill: #999999 } 
		.s1 { fill: #ffffff } 
		.s2 { fill: #c52026 } 
		.s3 { fill: #ffc60b } 
		.s4 { fill: #c8b32f } 
		.s5 { fill: #000000 } 
		.s6 { fill: #265eac } 
		.s7 { fill: #cdcccb } 
		.s8 { fill: #ac1f23 } 
		.s9 { fill: none;stroke: #000000;stroke-width: .3 } 
		.s10 { fill: none;stroke: #000000;stroke-linejoin: round;stroke-width: .3 } 
		.s11 { fill: #c6b52f } 
		.s12 { fill: #008f6f } 
		.s13 { fill: #da4546 } 
		.s14 { fill: #eb71a9 } 
		.s15 { fill: #ffd791 } 
		.s16 { fill: #3a57a7 } 
	</style>
	<path id="Layer" class="s0" d="m10 0c2.7 0 5.3 1.1 7.1 2.9 1.8 1.8 2.9 4.4 2.9 7.1 0 2.7-1.1 5.3-2.9 7.1-1.8 1.8-4.4 2.9-7.1 2.9-2.7 0-5.3-1.1-7.1-2.9-1.8-1.8-2.9-4.4-2.9-7.1 0-2.7 1.1-5.3 2.9-7.1 1.8-1.8 4.4-2.9 7.1-2.9z"/>
	<path id="Layer" class="s1" d="m10 0.7c2.5 0 4.9 1.1 6.5 2.8h0.1c1.6 1.7 2.7 4 2.7 6.5 0 2.5-1.1 4.9-2.8 6.5v0.1c-1.7 1.6-4 2.7-6.5 2.7-2.5 0-4.9-1.1-6.5-2.8-1.7-1.6-2.8-4-2.8-6.5 0-2.5 1.1-4.9 2.8-6.5 1.6-1.7 4-2.8 6.5-2.8z"/>
	<path id="Layer" class="s2" d="m11.1 18.4h-2.2c-4.2-0.6-7.4-4.1-7.4-8.4 0-4.7 3.8-8.5 8.5-8.5 4.7 0 8.5 3.8 8.5 8.5 0 4.3-3.2 7.8-7.4 8.4z"/>
	<path id="Layer" class="s3" d="m1.5 10c0-1.7 0.5-3.2 1.4-4.5h14.2c0.9 1.3 1.4 2.8 1.4 4.5 0 1.1-0.2 2.1-0.6 3h-15.8c-0.4-0.9-0.6-1.9-0.6-3z"/>
	<path id="Layer" class="s4" d="m4.7 7.5h0.7v0.2h-0.7z"/>
	<path id="Layer" fill-rule="evenodd" class="s5" d=""/>
	<path id="Layer" class="s4" d="m4.8 7.7q0 0 0 0 0 0 0 0h0.5q0 0 0 0 0 0 0 0 0 0 0 0.1h-0.5q0-0.1 0-0.1z"/>
	<path id="Layer" fill-rule="evenodd" class="s5" d="m4.8 7.7h0.5q0 0 0 0c-0.2 0-0.4 0-0.4 0q0 0-0.1 0 0 0 0 0z"/>
	<path id="Layer" class="s4" d="m4.8 7.8h0.5-0.5z"/>
	<path id="Layer" fill-rule="evenodd" class="s5" d="m5.3 7.8h-0.5 0.5zm-0.5 0h0.5-0.5z"/>
	<path id="Layer" class="s4" d="m4.8 7.7h0.5q0 0 0 0h-0.5q0 0 0 0z"/>
	<path id="Layer" fill-rule="evenodd" class="s5" d="m4.8 7.7h0.5q0 0 0 0h-0.5q0 0 0 0zm0.5 0h-0.5 0.5z"/>
	<path id="Layer" class="s6" d="m5.5 10.7q0 0-0.1 0 0-0.1-0.1-0.1-0.1 0-0.1 0.1-0.1 0-0.1 0-0.1 0-0.2 0 0-0.1-0.1-0.1-0.1 0-0.1 0.1 0 0-0.1 0v-0.1q0.1 0 0.1 0 0-0.1 0.1-0.1 0.1 0 0.1 0.1 0.1 0 0.2 0 0 0 0.1 0 0-0.1 0.1-0.1 0 0 0.1 0.1 0.1 0 0.1 0z"/>
	<path id="Layer" fill-rule="evenodd" class="s5" d="m4.9 10.7q0 0 0 0 0 0-0.1 0-0.1 0-0.1 0 0 0 0.1-0.1 0.1 0 0.1 0 0 0.1 0 0.1zm-0.1-0.1q0 0 0-0.1-0.1 0.1-0.1 0.1 0 0 0.1 0zm0.1 0q0 0 0 0 0 0 0-0.1 0 0.1 0 0.1zm0.4-0.1q0 0 0 0 0 0-0.1 0 0 0.1 0 0.1 0 0 0.1 0-0.1 0.1-0.1 0.1 0 0 0.1 0 0 0 0 0 0 0 0.1 0 0 0-0.1-0.1 0.1 0 0.1 0 0 0-0.1-0.1z"/>
	<path id="Layer" class="s7" d="m5.5 10.7q0 0-0.1 0 0 0-0.1 0-0.1 0-0.1 0-0.1 0-0.1 0-0.1 0-0.2 0 0 0-0.1 0-0.1 0-0.1 0 0 0-0.1 0 0.1 0 0.1 0 0 0 0.1 0 0.1 0 0.1 0 0.1 0 0.2 0 0 0 0.1 0 0 0 0.1 0 0 0 0.1 0 0.1 0 0.1 0z"/>
	<path id="Layer" fill-rule="evenodd" class="s5" d="m4.8 10.6q0.1 0 0.1 0.1 0 0-0.1 0 0-0.1 0-0.1zm0.5 0q0 0 0 0.1 0 0 0 0-0.1 0-0.1 0 0.1-0.1 0.1-0.1z"/>
	<path id="Layer" class="s6" d="m5.5 10.8q0 0-0.1 0 0 0-0.1 0-0.1 0-0.1 0-0.1 0-0.1 0-0.1 0-0.2 0 0 0-0.1 0-0.1 0-0.1 0 0 0-0.1 0v-0.1q0.1 0 0.1 0 0 0 0.1 0 0.1 0 0.1 0 0.1 0 0.2 0 0 0 0.1 0 0 0 0.1 0 0 0 0.1 0 0.1 0 0.1 0z"/>
	<path id="Layer" fill-rule="evenodd" class="s5" d="m4.8 10.7q0.1 0 0.1 0 0 0-0.1 0 0 0 0 0z"/>
	<path id="Layer" class="s7" d="m5.5 10.9q0 0-0.1 0-0.1 0-0.1 0-0.1 0-0.1 0-0.1 0-0.1 0-0.1 0-0.2 0 0 0-0.1 0-0.1 0-0.1 0 0 0-0.1 0v-0.1q0.1 0 0.1 0 0 0 0.1 0 0.1 0 0.1 0 0.1 0 0.2 0 0 0 0.1 0 0 0 0.1 0 0.1 0 0.1 0 0.1 0 0.1 0z"/>
	<path id="Layer" fill-rule="evenodd" class="s5" d="m5.5 10.9q0 0 0 0 0 0-0.1 0 0.1 0 0.1 0 0 0 0 0zm-0.4 0q0 0 0 0-0.1 0-0.1 0-0.1-0.1-0.1-0.1 0.1 0 0.1 0 0.1 0 0.1 0 0 0 0 0 0 0 0.1 0-0.1 0-0.1 0.1zm-0.5 0v-0.2q0 0 0.1 0 0 0-0.1 0.1 0.1 0 0.1 0-0.1 0.1-0.1 0.1z"/>
	<path id="Layer" class="s6" d="m5.5 11q0 0-0.1-0.1-0.1 0-0.1 0-0.1 0-0.1 0-0.1 0.1-0.1 0.1-0.1 0-0.2-0.1 0 0-0.1 0-0.1 0-0.1 0 0 0.1-0.1 0.1v-0.1q0.1 0 0.1 0 0 0 0.1 0 0.1 0 0.1 0 0.1 0 0.2 0 0 0 0.1 0 0 0 0.1 0 0.1 0 0.1 0 0.1 0 0.1 0z"/>
	<path id="Layer" fill-rule="evenodd" class="s5" d="m5.2 10.9q-0.1 0-0.1 0.1 0 0 0 0 0 0 0-0.1 0 0 0.1 0zm-0.1 0.1q0 0-0.1-0.1 0 0-0.1 0 0.1 0.1 0.1 0.1 0 0 0.1 0zm-0.4-0.1q0 0.1-0.1 0.1 0 0 0.1 0 0 0 0-0.1 0 0 0 0zm0 0q0 0 0 0 0 0 0 0-0.1 0-0.1 0 0.1 0 0.1 0zm0.3 0q0.1 0 0.1 0 0 0 0 0 0 0 0.1 0-0.1 0-0.1 0 0 0 0 0-0.1 0-0.1 0 0 0-0.1 0 0.1 0 0.1 0zm0.5 0q0 0 0 0 0 0 0 0 0 0-0.1 0 0.1 0 0.1 0zm0 0q0 0-0.1 0 0.1 0.1 0.1 0.1 0 0 0 0 0 0 0-0.1z"/>
	<path id="Layer" class="s4" d="m5.3 10.3c0 0.1 0 0.1 0.1 0.1h-0.7c0 0 0.1 0 0.1-0.1z"/>
	<path id="Layer" fill-rule="evenodd" class="s5" d=""/>
	<path id="Layer" class="s4" d="m4.8 10.3h0.5q0 0 0 0h-0.5q0 0 0 0z"/>
	<path id="Layer" fill-rule="evenodd" class="s5" d=""/>
	<path id="Layer" class="s4" d="m4.7 10.4h0.7v0.2h-0.7z"/>
	<path id="Layer" fill-rule="evenodd" class="s5" d=""/>
	<path id="Layer" class="s8" d="m4.7 9.8q0 0.1 0 0.1c0 0 0 0-0.1-0.1q0 0-0.1-0.1 0 0 0.2 0 0 0 0 0.1z"/>
	<path id="Layer" fill-rule="evenodd" class="s5" d="m4.7 9.9q0 0 0 0 0 0 0 0zm0-0.2q0 0 0 0 0 0 0 0z"/>
	<path id="Layer" class="s7" d="m4.8 7.9h0.5v2.4h-0.5z"/>
	<path id="Layer" fill-rule="evenodd" class="s5" d="m5.3 7.9v2.4-2.4z"/>
	<path id="Layer" class="s8" d="m5.8 8.7c-0.1 0-0.3 0-0.5 0q-0.1 0-0.2 0c-0.3 0-0.6 0.2-0.5 0.2 0 0-0.1-0.2-0.1-0.2 0-0.1 0.2-0.2 0.5-0.3q0.2 0 0.3 0 0.3 0 0.5 0.1z"/>
	<path id="Layer" fill-rule="evenodd" class="s5" d="m4.6 8.9c0 0-0.1-0.2-0.1-0.2 0 0 0 0.2 0.1 0.2zm0-0.4q0.1 0 0.4-0.1-0.2 0.1-0.4 0.1z"/>
	<path id="Layer" class="s8" d="m4.8 9.1q-0.2-0.1-0.2-0.2 0 0 0.1-0.1 0 0 0.1 0z"/>
	<path id="Layer" fill-rule="evenodd" class="s5" d="m4.7 8.8q0 0 0 0 0 0.1-0.1 0.1 0-0.1 0.1-0.1zm0.1 0.3q-0.1 0-0.1-0.1 0 0 0.1 0.1z"/>
	<path id="Layer" class="s8" d="m5.3 8.9q0.2 0 0.2 0c0 0-0.1 0.1-0.2 0.2z"/>
	<path id="Layer" fill-rule="evenodd" class="s5" d="m5.5 8.9q0 0 0 0.1-0.1 0.1-0.2 0.1 0.1-0.1 0.2-0.1 0-0.1 0-0.1 0 0-0.1 0 0.1 0 0.1 0z"/>
	<path id="Layer" class="s8" d="m4.5 9.5c0 0 0.1-0.1 0.3-0.2q0.1 0 0.3-0.1c0.2-0.1 0.4-0.2 0.4-0.3v0.3c0 0-0.1 0.1-0.4 0.3 0 0-0.2 0-0.3 0.1-0.1 0-0.3 0.1-0.3 0.1z"/>
	<path id="Layer" fill-rule="evenodd" class="s5" d="m5.5 8.9c0 0.1 0 0.2 0 0.3q0 0 0 0.1-0.2 0-0.4 0.2 0.2-0.2 0.3-0.2 0.1-0.1 0.1-0.1c0 0 0-0.2 0-0.3q0 0.1-0.1 0.1 0.1-0.1 0.1-0.1zm-0.7 0.4q0.1 0 0.1 0 0 0-0.1 0zm-0.2 0.4q-0.1 0-0.1 0 0.1 0 0.1 0z"/>
	<path id="Layer" fill-rule="evenodd" class="s4" d="m4.8 8.7q0 0-0.1 0v-0.2l0.1 0.1q0 0 0-0.1 0.1 0 0.1 0c0 0.1 0 0.1-0.1 0.1zm0.7-0.2q0-0.1 0-0.1-0.1 0-0.2 0.1c0 0.1 0.2 0.1 0.2 0.1 0 0-0.1 0-0.1-0.1q0 0 0.1 0 0 0 0 0zm-0.3 0.1q0.1 0 0.1-0.2 0 0 0 0 0 0.1-0.1 0.2 0-0.1-0.1-0.2 0 0.2 0.1 0.2zm-0.3-0.1v0.2l0.2-0.1q0 0-0.1 0zm4.3-0.8h0.7v-0.2h-0.7z"/>
	<path id="Layer" fill-rule="evenodd" class="s5" d=""/>
	<path id="Layer" class="s4" d="m9.8 7.8h-0.5q0-0.1 0-0.1 0 0 0 0 0 0 0 0h0.5q0 0 0 0 0 0 0 0 0 0 0 0.1z"/>
	<path id="Layer" fill-rule="evenodd" class="s5" d="m9.8 7.8c-0.1 0-0.4 0-0.5 0q0-0.1 0-0.1 0 0 0 0 0 0 0 0 0 0 0 0h0.5q0 0 0 0 0 0 0 0.1zm-0.5-0.1h0.5-0.5z"/>
	<path id="Layer" class="s4" d="m9.3 7.8h0.5-0.5z"/>
	<path id="Layer" fill-rule="evenodd" class="s5" d="m9.3 7.8h0.5q0.1 0 0.1 0 0 0-0.1 0h-0.5zm0.5 0h-0.5 0.5z"/>
	<path id="Layer" class="s4" d="m9.3 7.7h0.5q0 0 0 0h-0.5q0 0 0 0z"/>
	<path id="Layer" fill-rule="evenodd" class="s5" d="m9.3 7.7h0.5q0.1 0 0.1 0 0 0-0.1 0 0 0 0 0h-0.5q0 0 0 0zm0.5 0h-0.5 0.5z"/>
	<path id="Layer" class="s6" d="m9.1 10.6q0 0 0.1 0 0.1-0.1 0.1-0.1 0.1 0 0.1 0.1 0.1 0 0.1 0 0.1 0 0.2 0 0-0.1 0.1-0.1 0.1 0 0.1 0.1 0 0 0.1 0v0.1q-0.1 0-0.1 0 0-0.1-0.1-0.1-0.1 0-0.1 0.1-0.1 0-0.2 0 0 0-0.1 0 0-0.1-0.1-0.1 0 0-0.1 0.1-0.1 0-0.1 0z"/>
	<path id="Layer" fill-rule="evenodd" class="s5" d="m9.7 10.6q0 0 0-0.1 0 0 0.1 0-0.1 0-0.1 0.1 0 0 0 0z"/>
	<path id="Layer" class="s7" d="m9.1 10.7q0 0 0.1 0 0.1 0 0.1 0 0.1 0 0.1 0 0.1 0 0.1 0 0.1 0 0.2 0 0 0 0.1 0 0.1 0 0.1 0 0 0 0.1 0-0.1 0-0.1 0 0 0-0.1 0-0.1 0-0.1 0-0.1 0-0.2 0 0 0-0.1 0 0 0-0.1 0 0 0-0.1 0-0.1 0-0.1 0z"/>
	<path id="Layer" class="s9" d="m9.1 10.7q0 0 0.1 0 0.1 0 0.1 0 0.1 0 0.1 0 0.1 0 0.1 0 0.1 0 0.2 0 0 0 0.1 0 0.1 0 0.1 0 0 0 0.1 0-0.1 0-0.1 0 0 0-0.1 0-0.1 0-0.1 0-0.1 0-0.2 0 0 0-0.1 0 0 0-0.1 0 0 0-0.1 0-0.1 0-0.1 0z"/>
	<path id="Layer" class="s6" d="m9.1 10.7q0 0 0.1 0 0.1 0 0.1 0 0.1 0 0.1 0 0.1 0 0.1 0 0.1 0 0.2 0 0 0 0.1 0 0.1 0 0.1 0 0 0 0.1 0v0.1q-0.1 0-0.1 0 0 0-0.1 0-0.1 0-0.1 0-0.1 0-0.2 0 0 0-0.1 0 0 0-0.1 0 0 0-0.1 0-0.1 0-0.1 0z"/>
	<path id="Layer" fill-rule="evenodd" class="s5" d="m9.8 10.7q0 0 0.1 0 0 0-0.1 0-0.1 0-0.1 0 0 0 0.1 0z"/>
	<path id="Layer" class="s7" d="m9.1 10.8q0 0 0.1 0 0.1 0 0.1 0 0.1 0 0.1 0 0.1 0 0.1 0 0.1 0 0.2 0 0 0 0.1 0 0.1 0 0.1 0 0 0 0.1 0v0.1q-0.1 0-0.1 0 0 0-0.1 0-0.1 0-0.1 0-0.1 0-0.2 0 0 0-0.1 0 0 0-0.1 0 0 0-0.1 0-0.1 0-0.1 0z"/>
	<path id="Layer" fill-rule="evenodd" class="s5" d="m9.1 10.9q0 0 0 0 0 0 0 0 0.1 0 0.1 0 0 0-0.1 0zm0.9 0q0 0-0.1 0 0.1 0 0.1 0zm-0.4 0q0 0-0.1 0 0 0 0 0 0-0.1-0.1-0.1 0.1 0 0.1 0 0 0 0 0 0.1 0 0.1 0 0.1 0 0.1 0 0 0-0.1 0.1z"/>
	<path id="Layer" class="s6" d="m9.1 10.9q0 0 0.1 0 0.1 0 0.1 0 0.1 0 0.1 0 0.1 0 0.1 0 0.1 0 0.2 0 0 0 0.1 0 0.1 0 0.1 0 0 0 0.1 0v0.1q-0.1 0-0.1-0.1 0 0-0.1 0-0.1 0-0.1 0-0.1 0.1-0.2 0.1 0 0-0.1-0.1 0 0-0.1 0 0 0-0.1 0-0.1 0.1-0.1 0.1z"/>
	<path id="Layer" fill-rule="evenodd" class="s5" d="m9.1 10.9q0 0 0 0 0.1 0 0.1 0 0 0-0.1 0 0 0 0 0zm0.4 0q0 0 0 0 0.1 0 0.1 0 0.1 0 0.1 0 0 0-0.1 0 0 0-0.1 0 0 0 0 0 0 0-0.1 0 0.1 0 0.1 0zm0.4 0q0.1 0 0.1 0 0 0-0.1 0 0 0 0 0 0 0 0 0zm-0.3 0q0 0.1-0.1 0.1 0.1 0 0.1 0 0.1 0 0.1-0.1 0 0-0.1 0zm-0.1 0.1q0 0 0-0.1 0 0-0.1 0 0.1 0 0.1 0.1 0 0 0 0zm-0.4-0.1q0 0.1 0 0.1 0 0 0 0 0.1 0 0.1-0.1 0 0-0.1 0zm0.8 0.1q0.1 0 0.1 0 0 0-0.1-0.1 0 0.1 0 0.1z"/>
	<path id="Layer" class="s4" d="m9.8 10.3c0 0.1 0.1 0.1 0.1 0.1h-0.7c0.1 0 0.1 0 0.1-0.1z"/>
	<path id="Layer" fill-rule="evenodd" class="s5" d="m9.9 10.4q0 0-0.1 0 0 0 0-0.1 0 0 0.1 0.1z"/>
	<path id="Layer" class="s4" d="m9.3 10.3h0.5q0 0 0 0h-0.5q0 0 0 0z"/>
	<path id="Layer" fill-rule="evenodd" class="s5" d="m9.9 10.3q0 0-0.1 0 0 0 0 0 0.1 0 0.1 0z"/>
	<path id="Layer" class="s4" d="m9.2 10.4h0.7v0.2h-0.7z"/>
	<path id="Layer" fill-rule="evenodd" class="s5" d="m9.2 10.6v-0.2h0.1v0.2zm0.7 0v-0.2h-0.1v0.2z"/>
	<path id="Layer" class="s8" d="m9.9 9.7q0.2 0 0.2 0 0 0.1-0.1 0.1c-0.1 0.1-0.1 0.1-0.1 0.1q0 0 0-0.1 0-0.1 0-0.1z"/>
	<path id="Layer" fill-rule="evenodd" class="s5" d="m9.9 9.9q0 0 0 0 0 0 0 0z"/>
	<path id="Layer" class="s7" d="m9.3 7.9h0.5v2.4h-0.5z"/>
	<path id="Layer" fill-rule="evenodd" class="s5" d="m9.8 7.9v2.4h-0.1v-2.4z"/>
	<path id="Layer" class="s8" d="m8.8 8.5q0.2-0.1 0.5-0.1 0.1 0 0.3 0c0.3 0.1 0.5 0.2 0.5 0.3 0 0-0.1 0.2-0.1 0.2 0.1 0-0.2-0.2-0.5-0.2q-0.1 0-0.2 0c-0.2 0-0.4 0-0.5 0z"/>
	<path id="Layer" fill-rule="evenodd" class="s5" d="m10 8.9q0 0-0.1-0.1-0.1-0.1-0.4-0.1 0.3 0 0.4 0.1 0.1 0.1 0.1 0.1c0.1 0 0.1-0.2 0.1-0.2 0 0 0 0.2-0.1 0.2z"/>
	<path id="Layer" class="s8" d="m9.8 8.8q0.1 0 0.1 0 0.2 0.1 0.1 0.1 0 0.1-0.2 0.2z"/>
	<path id="Layer" fill-rule="evenodd" class="s5" d="m9.9 9q0 0.1-0.1 0.1 0.1-0.1 0.1-0.1 0.1 0 0.1-0.1 0 0 0 0 0 0-0.1-0.1 0.1 0 0.1 0.1 0.1 0 0.1 0-0.1 0.1-0.2 0.1z"/>
	<path id="Layer" class="s8" d="m9.3 9.1c-0.1-0.1-0.2-0.2-0.2-0.2q0.1 0 0.2 0z"/>
	<path id="Layer" fill-rule="evenodd" class="s5" d="m9.3 8.9v0.2q-0.1 0-0.2-0.1 0.1 0 0.2 0.1v-0.2zm-0.2 0q0 0 0 0 0 0 0 0z"/>
	<path id="Layer" class="s8" d="m10.1 9.7c0 0-0.2-0.1-0.3-0.1-0.1-0.1-0.3-0.1-0.3-0.1-0.2-0.2-0.4-0.3-0.4-0.3v-0.3c0 0.1 0.2 0.2 0.4 0.3q0.2 0.1 0.3 0.1c0.2 0.1 0.3 0.2 0.3 0.2z"/>
	<path id="Layer" fill-rule="evenodd" class="s5" d="m10 9.4q0.1 0.1 0.1 0.1 0 0-0.1 0-0.1-0.1-0.2-0.2-0.1 0-0.1 0 0 0 0.1 0 0.1 0.1 0.2 0.1zm-0.7 0q-0.1-0.1-0.2-0.1 0.1 0 0.2 0 0.1 0.1 0.2 0.2-0.1-0.1-0.2-0.1zm-0.2-0.5q0 0 0.1 0.1-0.1 0-0.1-0.1c0 0.1 0 0.3 0 0.3 0-0.1 0-0.2 0-0.3zm0.4 0.3q-0.1 0-0.1 0 0.1 0 0.1 0 0 0 0 0zm-0.1-0.1q0 0-0.1 0 0.1 0.1 0.1 0.1 0 0 0-0.1z"/>
	<path id="Layer" fill-rule="evenodd" class="s4" d="m9.9 8.7q-0.1 0-0.1 0 0 0 0 0l0.1-0.1q0.1 0 0.1 0v0.2q-0.1 0-0.1 0v-0.1zm-0.2-0.2h0.1q0.1 0 0.1 0.1-0.1 0-0.1 0 0 0.1 0 0.1h-0.1q0 0 0 0 0 0 0 0 0 0 0 0 0 0 0-0.1 0 0 0 0 0-0.1 0-0.1zm-0.2 0.2v-0.2c0 0 0 0 0 0h0.1v0.1q0-0.1-0.1-0.1zm-0.2 0v-0.2zm-0.2 0.1q0-0.1-0.1-0.2 0 0 0.1 0 0 0.1 0 0.1 0.1 0 0.1-0.1 0 0.1-0.1 0.2zm0.8 0l0.1 0.1q0-0.1 0-0.1z"/>
	<path id="Layer" class="s7" d="m7.3 11c-0.4 0-0.8-0.1-1.1-0.3-0.3 0-0.4-0.3-0.4-0.6v-1h3v1c0 0.3-0.1 0.6-0.4 0.7-0.3 0.1-0.7 0.2-1.1 0.2z"/>
	<path id="Layer" class="s9" d="m7.3 11c-0.4 0-0.8-0.1-1.1-0.3-0.3 0-0.4-0.3-0.4-0.6v-1h3v1c0 0.3-0.1 0.6-0.4 0.7-0.3 0.1-0.7 0.2-1.1 0.2z"/>
	<path id="Layer" class="s8" d="m7.3 10.1c0 0.4-0.3 0.8-0.8 0.8-0.4 0-0.7-0.4-0.7-0.8v-1h1.5z"/>
	<path id="Layer" class="s4" d="m7.1 9.1h0.2v1.1c0 0.1-0.1 0.3-0.2 0.4z"/>
	<path id="Layer" class="s9" d="m7.1 9.1h0.2v1.1c0 0.1-0.1 0.3-0.2 0.4z"/>
	<path id="Layer" class="s7" d="m7.3 7.5h1.5v1.6h-1.5z"/>
	<path id="Layer" class="s4" d="m6.1 10.7v-1.6h0.2v1.7c0 0-0.1-0.1-0.2-0.1z"/>
	<path id="Layer" class="s9" d="m6.1 10.7v-1.6h0.2v1.7c0 0-0.1-0.1-0.2-0.1z"/>
	<path id="Layer" class="s4" d="m5.8 9.1h0.2v1.5c-0.1-0.1-0.2-0.3-0.2-0.5z"/>
	<path id="Layer" class="s10" d="m5.8 9.1h0.2v1.5c-0.1-0.1-0.2-0.3-0.2-0.5z"/>
	<path id="Layer" class="s11" d="m6.5 9.1h0.2v1.8q-0.2 0-0.2 0z"/>
	<path id="Layer" class="s9" d="m6.5 9.1h0.2v1.8q-0.2 0-0.2 0z"/>
	<path id="Layer" class="s4" d="m6.8 9.1h0.2v1.6c-0.1 0-0.1 0.1-0.2 0.1z"/>
	<path id="Layer" class="s9" d="m6.8 9.1h0.2v1.6c-0.1 0-0.1 0.1-0.2 0.1z"/>
	<path id="Layer" fill-rule="evenodd" class="s8" d="m5.8 7.5h1.5v1.6h-1.5zm3 1.7v1c0 0.4-0.3 0.7-0.7 0.7-0.4 0-0.8-0.3-0.8-0.7v-1z"/>
	<path id="Layer" class="s12" d="m8.1 10q-0.1 0-0.1-0.1 0-0.1 0.1-0.1 0 0 0 0.1 0 0.1 0 0.1z"/>
	<path id="Layer" class="s13" d="m8 7.9h-0.1q0 0 0-0.1h-0.1l0.1-0.1q0 0 0 0.1 0.1 0 0.1 0.1h0.1c0 0 0 0-0.1 0zm0.3 1h0.1c-0.1 0 0 0.1 0 0.1q0 0-0.1-0.1zm0 0c-0.1 0 0 0 0 0zm0-0.1q0 0-0.1 0v0.1-0.1h0.1zm-0.4-0.1q0 0.1 0 0.1v-0.1zm-0.2 0q0 0 0 0 0 0 0 0 0 0 0 0 0 0 0 0zm0.1-0.1c-0.1 0-0.1 0-0.1 0 0 0 0-0.1 0.1-0.1q0 0 0 0.1zm-0.2-0.3q0.1 0.1 0.1 0.1-0.1 0-0.1 0 0 0 0-0.1zm-0.1 0q0 0 0 0 0 0 0 0 0 0 0 0 0 0 0 0zm0-0.1q0 0 0 0c0 0 0 0 0 0zm0-0.3q0 0-0.1 0c0 0 0 0 0.1 0q0 0 0 0 0 0 0 0zm0-0.1h-0.1q0 0 0.1 0 0 0 0 0zm0.1-0.1c0 0 0 0 0.1 0q-0.1 0-0.1 0.1 0 0 0-0.1z"/>
	<path id="Layer" class="s14" d="m8.3 7.8q0 0 0 0.1 0 0 0 0 0 0 0 0 0 0 0 0.1 0 0 0 0 0 0.1 0 0.1c0 0 0-0.1 0-0.1v0.1q0 0 0 0 0 0 0 0-0.1 0-0.1 0c0 0 0.1 0 0.1 0l-0.1 0.1q0 0 0-0.1c0 0 0 0 0 0.1 0 0 0 0.1 0.1 0.1 0 0 0 0.1 0.1 0.1 0.1 0 0.1-0.1 0.1-0.2 0-0.1-0.1-0.1-0.1-0.1 0-0.1 0.1-0.2 0.1-0.2 0 0-0.1 0 0 0q0-0.1 0-0.1 0-0.1 0-0.1v0.1-0.1q0.1 0 0.1 0l-0.1 0.1q0 0 0.1 0 0 0-0.1 0.1c0 0 0 0 0 0 0 0 0 0 0 0.1v0.1 0.2c0 0 0 0.1 0 0.2h-0.1q-0.1 0-0.1 0c0 0.1 0 0.1 0.1 0.2q0.1 0 0.1 0c-0.1 0-0.1 0-0.1 0 0 0.1 0 0.1 0 0.1q0 0.1 0 0.1 0 0-0.1 0 0 0 0 0 0 0 0 0 0 0 0 0 0-0.1 0 0 0-0.1 0-0.1c0 0-0.1 0 0 0q0 0 0 0 0-0.1 0-0.1 0 0 0 0 0 0 0 0h-0.1q0 0 0 0c0-0.1-0.1-0.1 0-0.1q0 0 0-0.1h-0.1q0 0 0 0.1 0 0 0 0.1 0 0 0 0 0 0 0 0 0 0-0.1 0 0 0-0.1 0 0 0.1 0 0.1 0 0 0-0.1 0 0-0.1 0 0 0 0 0c0.1 0 0.1 0 0.1 0q0-0.1 0-0.1c0 0 0 0 0 0q0 0.1 0.1 0.1 0-0.1 0-0.1 0-0.1 0-0.1 0 0-0.1 0v0.1-0.1c0 0 0-0.1 0.1-0.1h0.1c0 0 0 0 0-0.1-0.1 0-0.1 0-0.1 0h-0.1q0 0 0 0c0 0 0 0 0 0q-0.1 0-0.1 0 0 0 0 0c-0.1 0-0.1 0-0.1 0q0 0 0 0.1 0 0 0 0 0 0 0-0.1 0 0-0.1 0 0 0 0 0h0.1q0 0-0.1 0 0 0 0-0.1 0 0 0.1 0c0 0.1 0 0 0 0h0.1v-0.1q0 0-0.1 0c0 0 0 0 0 0 0 0 0 0 0 0q0 0 0 0 0-0.1 0-0.1-0.1 0-0.1 0 0 0 0.1 0 0 0-0.1-0.1-0.1 0-0.1 0 0.1 0 0.1 0-0.1 0-0.1-0.1 0 0 0.1 0c0 0 0 0 0.1 0q0 0 0-0.1 0 0.1 0 0.1 0 0 0 0 0 0 0 0 0 0.1 0 0.1 0 0 0 0 0 0 0.1 0c0 0 0 0.1 0.1 0.1 0 0 0 0 0.1 0q0 0 0-0.1 0 0 0 0h0.1q0-0.1 0-0.1-0.1 0-0.1 0 0-0.1 0-0.1 0.1 0 0.1 0 0 0 0 0c0 0 0 0 0 0 0 0 0.1 0 0.1 0 0.1 0 0.1 0.1 0.1 0.1z"/>
	<path id="Layer" class="s15" d="m7.4 10.6q0.1 0 0.1 0.1c0 0.1-0.1 0.1-0.2 0.1-0.1 0-0.2 0-0.2-0.1 0 0 0.1-0.1 0.2-0.1q0 0 0-0.1-0.1 0-0.1 0 0.1 0 0.1 0 0 0 0 0 0 0 0.1 0 0 0.1 0 0.1z"/>
	<path id="Layer" class="s9" d="m7.4 10.6q0.1 0 0.1 0.1c0 0.1-0.1 0.1-0.2 0.1-0.1 0-0.2 0-0.2-0.1 0 0 0.1-0.1 0.2-0.1q0 0 0-0.1-0.1 0-0.1 0 0.1 0 0.1 0 0 0 0 0 0 0 0.1 0 0 0.1 0 0.1z"/>
	<path id="Layer" class="s12" d="m7.1 10.9c0 0-0.1 0-0.1 0l-0.1-0.1q0.1 0 0.2 0c0.1 0 0.2 0.1 0.2 0.1 0 0-0.1 0-0.2 0z"/>
	<path id="Layer" class="s9" d="m7.1 10.9c0 0-0.1 0-0.1 0l-0.1-0.1q0.1 0 0.2 0c0.1 0 0.2 0.1 0.2 0.1 0 0-0.1 0-0.2 0z"/>
	<path id="Layer" class="s12" d="m7.3 10.9c0 0 0.1-0.1 0.2-0.1 0.1 0 0.2 0 0.2 0.1-0.1 0-0.1 0-0.2 0 0 0-0.1 0-0.1 0q-0.1 0-0.1 0z"/>
	<path id="Layer" class="s9" d="m7.3 10.9c0 0 0.1-0.1 0.2-0.1 0.1 0 0.2 0 0.2 0.1-0.1 0-0.1 0-0.2 0 0 0-0.1 0-0.1 0q-0.1 0-0.1 0z"/>
	<path id="Layer" class="s8" d="m7.3 10.8q0-0.1 0-0.1 0-0.1 0-0.1 0 0 0 0.1 0 0 0 0.1z"/>
	<path id="Layer" class="s9" d="m7.3 10.8q0-0.1 0-0.1 0-0.1 0-0.1 0 0 0 0.1 0 0 0 0.1z"/>
	<path id="Layer" class="s12" d="m7.3 11c0 0 0-0.1 0-0.1q0-0.1 0-0.1v0.1c0 0 0 0 0 0q0 0.1 0 0.1z"/>
	<path id="Layer" class="s9" d="m7.3 11c0 0 0-0.1 0-0.1q0-0.1 0-0.1v0.1c0 0 0 0 0 0q0 0.1 0 0.1z"/>
	<path id="Layer" class="s4" d="m6.3 7.9v-0.1 0.1-0.1h0.1v0.1-0.1h0.1v0.1h-0.1v0.1h0.1-0.1 0.2-0.1v-0.3h0.1 0.1-0.1v0.3h0.1-0.1 0.1v-0.1-0.1 0.1-0.1h0.1v0.1-0.1h0.1v0.1h-0.1v0.1h-0.1 0.2v0.2 0.5h0.1v0.2h-0.3 0.3-0.6 0.3-0.6v-0.2h0.2v-0.5h-0.1v-0.2h0.2-0.1z"/>
	<path id="Layer" fill-rule="evenodd" class="s5" d="m6.7 7.7h-0.1v0.1h0.3v0.1h-0.1v0.1l0.1 0.1v0.1h-0.1v0.1h0.1v0.2h-0.2v0.1h0.2q-0.1 0-0.1 0.1h-0.1v0.1-0.1h0.1c0 0 0 0 0 0h-0.3v0.1h0.1l0.1 0.1v-0.1h-0.1l0.1 0.1h-0.1-0.1v-0.1 0.1h-0.4v-0.2h0.1v-0.7h0.1v-0.1h-0.1v-0.1h0.1v0.1-0.1h0.2v-0.1h0.2zm0.2 0.8q0 0 0 0.1zm-0.3-0.6h-0.1v0.1h0.1-0.1 0.1 0.1v-0.2h-0.1zm-0.2 0.1v-0.1h-0.1v0.2-0.1zm0.6-0.1zm-0.5-0.1v-0.1h-0.2v0.1zm0.7 0.1v0.1h-0.1v-0.1zm-0.2 0.2h-0.1zm0.2 0h-0.1zm-0.2 0.2v-0.1h0.1v0.1zm0 0.1v-0.1 0.1zm0.1 0.3h0.1-0.1zm0.1 0v-0.1zm0-0.1h-0.2 0.2zm0.2 0h-0.1zm0 0.1v0.1h-0.1v-0.1zm-0.6-0.6v-0.1 0.1zm0.3-0.7h0.1v0.1h-0.1zm0.1 0.3v-0.1h0.2v0.1zm-0.1-0.1h-0.1v0.1h0.1zm-0.5 0.2v0.1zm0 0.1zm0 0zm-0.2-0.2zm0.3 0h0.1zm0 0.1zm0 0.1h-0.1zm0.1-0.1h-0.1zm0.2 0.1h0.1zm0 0h-0.1zm0-0.2h-0.1zm-0.4-0.2h0.2zm0.1 0h-0.1zm-0.2 0.2h-0.2zm0.2-0.2v0.1zm0 0.1zm0 0.4zm0 0zm0.2-0.3zm0.2 0.2v0.1zm-0.1 0h0.1zm0 0h-0.2zm0 0h-0.2zm0 0h-0.2zm0 0.4zm0 0h0.2zm0 0h0.1zm-0.1 0zm0 0h0.1zm0.2 0v0.1zm-0.1 0zm0.2 0.1v0.1zm-0.5-0.8h0.1zm0 0h-0.1zm-0.1 0.3v-0.1zm0 0h0.1zm0 0h-0.1zm0.2 0h0.1zm0.1 0.3h-0.1zm-0.1 0h-0.2zm0 0h-0.1zm0.2 0.1h-0.1zm-0.1 0h-0.1zm0-0.8h0.1-0.1zm0.4 0.1h-0.2z"/>
	<path id="Layer" class="s5" d="m6.7 8.9v-0.2 0.2h-0.3v-0.2 0.2zm-0.3-0.2q0 0 0.1 0 0 0 0-0.1l0.1 0.1q-0.1 0-0.1 0 0 0-0.1 0zm0.2 0q0.1 0 0.1 0 0 0-0.1 0z"/>
	<path id="Layer" fill-rule="evenodd" class="s5" d="m6.6 8.7h0.1q0 0 0 0-0.1 0-0.1 0zm0 0h-0.1v-0.1q0 0 0 0 0.1 0 0.1 0zm-0.1-0.3v0.2h-0.1v-0.2q0-0.1-0.1-0.1 0.1 0 0.1 0 0.1 0.1 0.1 0.1zm-0.2-0.1q0 0 0 0 0 0 0 0.1 0 0 0 0 0-0.1 0-0.1 0 0 0 0zm0.5 0q0 0 0 0.1 0-0.1-0.1-0.1 0 0 0.1 0zm0 0.3h-0.1q0 0 0-0.1h0.1q0 0.1 0 0.1z"/>
	<path id="Layer" fill-rule="evenodd" class="s16" d="m6.7 8.9h-0.2v-0.1c0-0.1 0-0.1 0-0.1 0.2 0 0.2 0 0.2 0.1zm-0.4-0.4v-0.1q0-0.1 0.1-0.1 0 0 0.1 0.1v0.1zm0.3 0v-0.1q0-0.1 0.1-0.1 0 0 0 0.1v0.1z"/>
	<path id="Layer" fill-rule="evenodd" class="s4" d="m8.3 7.7q0 0 0 0h0.1-0.1 0.1-0.1q0 0.1 0.1 0.1h-0.1l0.1-0.1v0.1q0-0.1 0-0.1 0 0.1 0 0.1 0 0-0.1 0 0 0 0-0.1-0.1 0-0.2 0 0-0.1 0-0.1 0-0.1 0-0.1 0 0.1 0 0.1h0.1-0.1q0 0.1 0.1 0.1 0-0.1 0-0.1h0.1-0.1 0.1v0.1h-0.1q0 0 0.1 0zm0 0z"/>
	<path id="Layer" fill-rule="evenodd" class="s5" d="m8.4 7.7q0.1 0.1 0 0.1 0 0-0.1 0v-0.1c0-0.1 0 0 0 0h0.1c0 0 0 0 0 0zm-0.1 0.2q0 0 0 0 0 0.1 0 0.1 0 0 0 0 0 0.1 0 0.1 0 0 0 0-0.1 0-0.1 0 0 0 0 0 0 0 0-0.1 0.1 0 0.1 0c-0.1 0-0.2-0.1-0.2-0.1q0 0 0 0c0 0 0-0.1 0 0q0 0-0.1 0c0 0-0.1 0-0.1 0q0 0 0-0.1 0 0-0.1 0l0.1-0.1q0 0 0 0.1 0 0 0.1 0 0.1 0.1 0.1 0h-0.1v-0.1h0.1q0 0 0 0c0 0 0 0 0 0q0-0.1 0-0.1h0.2c0 0 0 0.1 0 0.1h-0.1-0.1q0.1 0 0 0 0.1 0 0.1 0.1h0.1q0 0.1 0 0.1 0 0 0 0zm0 0.4c0 0 0 0.1 0.1 0.1q0.1 0 0.1-0.1 0 0.1-0.1 0.2 0.1 0 0.1 0c0-0.1 0-0.2 0-0.2 0 0.1 0 0.2 0 0.2q0 0-0.1 0-0.1 0-0.1 0 0.1 0 0.1 0 0 0 0 0c-0.1 0-0.1-0.1-0.1-0.1v-0.1q-0.1 0-0.1-0.1 0 0 0.1 0.1zm-0.2-0.1c0 0 0 0.1 0 0.1q0 0 0 0c0 0 0 0 0 0q0 0 0-0.1 0 0 0 0zm-0.1 0.1q0 0 0 0.1 0 0 0.1 0v0.1c0 0 0.1 0 0.1 0h-0.1-0.1q-0.1 0-0.1 0 0 0 0 0c0 0 0-0.1 0.1-0.1q0 0 0.1 0 0 0 0 0c0 0 0 0 0-0.1q-0.1 0-0.1 0 0 0 0 0-0.1 0-0.1 0l0.1-0.1q0 0 0 0.1 0 0-0.1 0zm-0.1 0q0 0 0 0c0 0-0.1 0-0.1 0 0 0 0 0.1-0.1 0.1q0 0-0.1 0 0 0 0 0.1-0.1 0 0 0 0-0.1-0.1-0.1 0 0 0.1 0 0 0-0.1-0.1 0.1 0 0.1 0 0 0 0 0 0 0 0.1 0c0 0.1 0 0 0 0q0.1 0 0.1 0 0 0 0 0c0 0 0 0 0-0.1q0 0 0-0.1 0.1 0 0.1 0c0 0 0 0.1 0 0.2zm-0.1 0q-0.1 0-0.1 0 0 0 0 0 0 0 0 0v-0.1q0 0-0.1 0 0 0 0 0 0 0 0-0.1c0 0 0 0 0 0q-0.1 0-0.1 0 0 0-0.1 0 0 0 0 0 0 0 0-0.1 0.1 0 0.1 0 0-0.1-0.1-0.1 0 0 0.1 0 0 0 0.1 0 0 0 0 0.1 0 0 0 0 0 0.1 0 0.1 0.1 0 0.1 0 0 0 0.1 0-0.1 0-0.1 0 0 0-0.1 0v0.1q0 0 0 0 0 0.1 0 0.1 0 0 0 0c0 0 0.1 0 0.1 0q0 0 0.1-0.1 0 0 0 0.1zm-0.1 0q-0.1 0 0 0zm0.1-0.2q0 0 0-0.1c-0.1 0-0.1 0-0.1 0q0-0.1 0-0.1 0 0-0.1 0 0 0 0 0h-0.1c0 0 0 0 0.1 0q0-0.1 0-0.1 0-0.1 0-0.1 0 0 0 0 0.1 0 0.1 0 0 0 0 0h0.1q0 0 0 0h-0.1q0 0 0 0.1 0 0 0.1 0 0 0 0 0.1 0 0 0 0 0 0 0.1 0c0 0 0.1 0 0.1 0q0 0.1 0 0.1 0 0.1 0 0.1-0.1 0-0.1 0c0 0-0.1 0-0.1 0zm0.7 0q0 0-0.1 0 0-0.1 0-0.1 0 0 0 0 0 0.1 0.1 0.1c0.1 0 0.1 0.1 0.1 0.1v0.1c0 0-0.1-0.1-0.1-0.2zm-0.1-0.2q0.1 0 0.1 0-0.1 0-0.1-0.1 0 0 0.1 0 0 0.1 0 0.1 0 0 0 0 0 0.1 0 0.1-0.1 0-0.1 0 0-0.1 0-0.1zm0-0.1q0 0 0 0 0-0.1 0-0.1 0 0.1 0 0.1zm0.1-0.2c0 0 0 0 0.1 0.1q0 0 0 0 0 0 0 0 0 0 0 0 0 0 0 0-0.1 0-0.1 0zm0.1 0q0 0.1 0 0.1 0 0 0 0 0 0 0-0.1zm0 0.1v0.1q0 0 0 0 0 0 0 0 0 0 0 0.1 0 0-0.1 0 0 0 0.1-0.1 0 0 0 0 0 0 0 0 0-0.1 0-0.1zm-0.2 0.8q0 0.1 0 0.1 0.1 0 0.1 0 0 0 0 0 0 0-0.1 0 0 0 0 0c0 0 0 0 0-0.1q0 0 0-0.1 0 0.1 0 0.1zm0 0.4q0 0 0-0.1 0 0 0 0 0 0 0 0c0 0 0 0.1 0 0.1zm0-0.1q-0.1 0-0.1 0c0.1 0 0.1 0 0.1 0q0 0 0 0zm-0.2 0q0 0 0 0c0 0 0.1 0 0.1 0l-0.1-0.1q0 0.1 0 0.1v-0.1q0-0.1 0-0.1 0 0.1 0.1 0.1 0 0 0 0 0.1 0 0.1 0 0 0 0 0.1 0 0-0.1 0 0 0 0 0 0 0-0.1 0zm0 0.1q0-0.1 0-0.1zm0-0.3q0-0.1 0-0.1 0 0 0 0.1 0 0 0 0zm0-0.1q-0.1 0-0.1 0 0.1 0 0.1 0 0 0 0 0zm0 0.1q0 0.1 0 0.1 0 0-0.1 0 0.1 0 0.1 0 0 0-0.1 0 0 0-0.1 0 0 0 0 0 0 0 0 0 0-0.1-0.1-0.1 0 0 0 0.1-0.1 0-0.1 0 0 0 0 0 0.1 0 0.1 0 0 0 0 0 0 0-0.1 0 0 0 0 0v-0.1q0 0 0 0 0 0 0.1 0-0.1-0.1 0-0.1 0 0 0 0h-0.1q0.1 0 0.1 0 0 0 0 0 0.1 0 0.1 0 0 0.1 0 0.1 0 0 0 0 0 0 0 0.1 0.1 0 0.1 0 0-0.1 0-0.1 0-0.1 0-0.1 0 0 0.1 0.1zm0.1-0.7q0 0 0-0.1-0.1 0-0.1 0 0 0 0 0.1zm0.1 1.1q0 0 0 0.1 0 0-0.1 0 0-0.1 0-0.1 0 0 0.1 0zm-0.7-0.2q0 0 0 0 0-0.1 0-0.1 0 0 0 0.1zm-0.2-0.4q0 0 0 0zm0 0v0.1q0-0.1 0-0.1 0 0 0 0zm0.5-0.5v-0.1q0.1 0 0.1 0.1zm-0.8 2.4c0 0.2-0.1 0.4-0.2 0.5-0.2 0.1-0.4 0.2-0.6 0.2-0.2 0-0.4-0.1-0.5-0.2-0.1-0.1-0.2-0.3-0.2-0.5 0 0.2 0.1 0.3 0.2 0.4 0.1 0.2 0.3 0.3 0.5 0.3 0.2 0 0.4-0.1 0.6-0.3 0.1-0.1 0.2-0.2 0.2-0.4zm-1.5-2.8h1.5v0.1h-1.5zm2.6 1.2zm0.1-1q0 0 0 0.1 0-0.1 0-0.1zm0 0v-0.1zm-0.1 0h0.1zm0 0zm0 0h-0.1 0.1q0 0 0 0zm0 0q0 0 0 0zm0 0zm0 0.1zm-0.2-0.1zm0.1 0zm0.1 0zm-0.2 0.1zm0.1 0h0.1zm-0.1 0.1h0.1q0 0-0.1 0zm0-0.1zm0.1 0.1zm0 0zm0 0zm0.1 0zm-0.1 1.2zm-0.5-0.2zm0-0.2q0 0-0.1 0zm0 0q0 0 0 0.1zm-0.2-0.2q0 0.1 0 0.1 0-0.1 0-0.1zm0-0.1q-0.1 0-0.1 0 0 0 0.1 0zm-0.1-0.4q0 0 0-0.1 0 0.1 0 0.1zm0.1-0.1q0 0 0-0.1 0 0.1 0 0.1zm0.5-0.1z"/>
	<path id="Layer" fill-rule="evenodd" class="s5" d="m8.6 10.7c-0.1 0.1-0.3 0.2-0.5 0.2-0.2 0-0.4-0.1-0.6-0.2-0.1-0.2-0.2-0.4-0.2-0.6v-1 1c0 0.2 0.1 0.4 0.2 0.5 0.2 0.1 0.4 0.2 0.6 0.2 0.2 0 0.4-0.1 0.5-0.2 0.1-0.1 0.2-0.3 0.2-0.5 0 0.2-0.1 0.4-0.2 0.6z"/>
	<path id="Layer" fill-rule="evenodd" class="s5" d="m7.3 7.5v1.6z"/>
	<path id="Layer" fill-rule="evenodd" class="s4" d="m7.5 9.3q0.1 0 0.1 0h0.1 0.2 0.1q0 0 0.1 0 0 0 0 0h0.1 0.2 0.1q0 0 0 0c0.2 0 0.2 0.1 0.1 0.1v0.1h0.1v0.2h-0.1v0.1q0.1 0.1 0.1 0.1 0 0-0.1 0.1v0.1h0.1l-0.1 0.1q0 0.1-0.1 0.1 0.1 0.1 0 0.2 0 0 0 0-0.1 0-0.2 0 0 0 0 0v0.1q0-0.1 0.1-0.1v0.1q-0.1 0-0.1 0.1l-0.1-0.1q0 0 0.1 0l-0.1-0.1q0.1 0 0.1 0c0 0 0.1 0 0.2 0q-0.1-0.1-0.1-0.1 0.1 0 0.1 0-0.1 0-0.1 0 0 0 0.1-0.1l-0.2-0.1v-0.1h0.1v0.1l0.1 0.1q0 0 0 0 0 0 0-0.1h0.1q0-0.1 0-0.1h-0.1c0 0 0-0.1 0-0.2q0 0 0 0 0 0.1-0.1 0.1h-0.1v-0.1h-0.2l0.2 0.2v0.2l-0.2-0.3v0.2 0.1c0 0 0 0.3 0 0.3q0 0.1 0 0.1 0-0.1-0.1-0.1 0-0.1 0-0.1c0 0 0-0.6 0-0.6h-0.1v0.1h-0.1l-0.1-0.1q0 0.1-0.1 0.1v0.1h0.1v0.1h-0.1q0 0 0-0.1h-0.1q0 0.1 0 0.1h0.1q0 0.1 0.1 0.1 0 0.1 0 0.1 0 0 0 0 0 0.1 0 0.1h0.1q0.1 0 0.1 0 0 0.1 0.1 0.1-0.1 0-0.1 0v0.1q-0.1-0.1-0.2-0.1v-0.1q0 0 0 0-0.1 0-0.1 0-0.1-0.1-0.1-0.2 0 0 0-0.1v-0.1-0.1q0-0.1 0-0.1 0 0 0 0h0.1 0.1 0.1 0.1q0 0 0 0l-0.2-0.2v0.1l-0.1-0.1v-0.1l-0.1-0.1 0.2 0.1 0.1 0.1-0.1-0.1v0.1l0.2 0.2q0 0 0 0l0.2-0.2v-0.1h0.1l0.1-0.2v0.1h-0.2v-0.1h-0.1q0 0.1-0.1 0.1 0 0 0-0.1 0 0 0 0h-0.1l-0.1 0.1v-0.1h-0.2q0 0 0 0 0 0 0 0c-0.1-0.1 0-0.1 0-0.1zm0.9 0.6h0.1v-0.2h0.1v-0.1h-0.1v-0.2l-0.1 0.2v-0.1h-0.1v0.1 0.1l-0.2 0.2h0.2 0.1zm-0.1 0.1c0 0 0.1 0 0.1 0-0.1 0-0.1 0-0.1 0zm-0.8-0.1v-0.2h-0.1 0.1v0.1 0.1q0 0 0 0zm0.3 0.3l0.1 0.1h-0.2 0.1zm0 0h0.1v-0.1l-0.2 0.1zm0.3 0.4q0 0 0 0zm-0.2 0q0 0 0 0h-0.1q0.1 0 0.1 0zm0.5-0.8v-0.1l-0.1 0.1zm-0.3 0.8q0 0.1 0.1 0.1 0 0-0.1 0 0-0.1 0-0.1zm0.4-0.2q0 0 0 0.1 0 0 0 0-0.1-0.1 0-0.1 0 0 0 0zm-0.5-0.7v-0.1h0.1v0.1zm-0.3-0.3v0.1l-0.1-0.1zm0 0.2h-0.1v-0.1zm-0.1 0.4q0-0.1 0-0.1 0.1 0 0.1 0.1 0 0-0.1 0zm0.9-0.2l0.1-0.1v0.1zm0.1-0.3q0 0 0 0 0 0 0 0 0 0 0 0zm-1 0q0 0 0-0.1 0 0 0 0 0 0 0 0 0 0 0 0.1 0 0 0 0zm0.2 0.7zm0.8-0.1v0.1q0 0.1 0 0.1v-0.1c0 0.1 0-0.1 0-0.1zm-0.2-0.6h-0.1zm-0.7 0.2v0.1 0.1z"/>
</svg>