<svg width="28" height="26" viewBox="0 0 28 26" fill="none" xmlns="http://www.w3.org/2000/svg">
<path d="M27.0416 10.8906L21.2019 16.5831L22.581 24.6231C22.641 24.9747 22.4966 25.33 22.2078 25.54C22.0447 25.6591 21.8506 25.7191 21.6566 25.7191C21.5075 25.7191 21.3575 25.6834 21.2206 25.6112L14 21.8153L6.78034 25.6103C6.46534 25.7772 6.0819 25.75 5.79315 25.5391C5.5044 25.3291 5.36002 24.9738 5.42002 24.6222L6.79909 16.5822L0.958463 10.8906C0.703463 10.6413 0.61065 10.2681 0.721275 9.92969C0.8319 9.59125 1.12534 9.34281 1.47878 9.29125L9.54971 8.11938L13.1591 0.805002C13.475 0.16469 14.525 0.16469 14.841 0.805002L18.4503 8.11938L26.5213 9.29125C26.8747 9.34281 27.1681 9.59031 27.2788 9.92969C27.3894 10.2691 27.2966 10.6403 27.0416 10.8906Z" fill="white"/>
</svg>
