<svg width="20" height="20" viewBox="0 0 20 20" fill="none" xmlns="http://www.w3.org/2000/svg">
<path d="M15.4193 9.99967C15.4193 12.9912 12.9941 15.4163 10.0026 15.4163C7.01106 15.4163 4.58594 12.9912 4.58594 9.99967C4.58594 7.00813 7.01106 4.58301 10.0026 4.58301C12.9941 4.58301 15.4193 7.00813 15.4193 9.99967Z" fill="white" stroke="white" stroke-width="1.5" stroke-linecap="round" stroke-linejoin="round"/>
<path d="M15.8391 4.15963L15.9474 4.0513L15.8391 4.15963ZM4.0474 15.9513L4.15573 15.843L4.0474 15.9513ZM9.99739 1.73464V1.66797V1.73464ZM9.99739 18.3346V18.268V18.3346ZM1.73073 10.0013H1.66406H1.73073ZM18.3307 10.0013H18.2641H18.3307ZM4.15573 4.15963L4.0474 4.0513L4.15573 4.15963ZM15.9474 15.9513L15.8391 15.843Z" fill="white"/>
<path d="M15.9474 15.9513L15.8391 15.843M15.8391 4.15963L15.9474 4.0513L15.8391 4.15963ZM4.0474 15.9513L4.15573 15.843L4.0474 15.9513ZM9.99739 1.73464V1.66797V1.73464ZM9.99739 18.3346V18.268V18.3346ZM1.73073 10.0013H1.66406H1.73073ZM18.3307 10.0013H18.2641H18.3307ZM4.15573 4.15963L4.0474 4.0513L4.15573 4.15963Z" stroke="white" stroke-width="1.5" stroke-linecap="round" stroke-linejoin="round"/>
</svg>
