<svg width="20" height="20" viewBox="0 0 20 20" fill="none" xmlns="http://www.w3.org/2000/svg">
<g clip-path="url(#clip0_38_7817)">
<path d="M10 20C15.5228 20 20 15.5228 20 10C20 4.47715 15.5228 0 10 0C4.47715 0 0 4.47715 0 10C0 15.5228 4.47715 20 10 20Z" fill="#039BE5"/>
<path d="M4.57605 9.78338L14.2177 6.06588C14.6652 5.90422 15.0561 6.17505 14.9111 6.85172L14.9119 6.85088L13.2702 14.5851C13.1486 15.1334 12.8227 15.2667 12.3669 15.0084L9.86689 13.1659L8.66105 14.3276C8.52772 14.4609 8.41522 14.5734 8.15689 14.5734L8.33439 12.0292L12.9677 7.84338C13.1694 7.66588 12.9227 7.56588 12.6569 7.74255L6.93105 11.3476L4.46272 10.5776C3.92689 10.4076 3.91522 10.0417 4.57605 9.78338Z" fill="white"/>
</g>
<defs>
<clipPath id="clip0_38_7817">
<rect width="20" height="20" fill="white"/>
</clipPath>
</defs>
</svg>
