<svg width="44" height="44" viewBox="0 0 44 44" fill="none" xmlns="http://www.w3.org/2000/svg">
<g filter="url(#filter0_i_862_86316)">
<rect width="44" height="44" rx="8" fill="url(#paint0_radial_862_86316)"/>
</g>
<rect x="0.7" y="0.7" width="42.6" height="42.6" rx="7.3" stroke="white" stroke-opacity="0.24" stroke-width="1.4"/>
<path d="M12.5888 22.7374C14.3388 21.7749 16.3012 20.9624 18.1262 20.1499C21.2761 18.8249 24.426 17.5124 27.6258 16.2999C28.2508 16.0874 29.3633 15.8874 29.4758 16.8124C29.4133 18.1124 29.1758 19.4124 29.0008 20.6999C28.5758 23.5499 28.0758 26.3874 27.5884 29.2249C27.4259 30.1749 26.2384 30.6624 25.4759 30.0499C23.651 28.8249 21.826 27.5999 20.0261 26.3499C19.4386 25.7499 19.9886 24.8874 20.5136 24.4624C22.0135 22.9874 23.601 21.7249 25.0259 20.1749C25.4134 19.2499 24.276 20.0249 23.901 20.2624C21.851 21.6749 19.8511 23.1749 17.6762 24.4249C16.5762 25.0374 15.2762 24.5124 14.1763 24.1749C13.1888 23.7749 11.7389 23.3624 12.5888 22.7374Z" fill="#434548"/>
<defs>
<filter id="filter0_i_862_86316" x="0" y="0" width="44" height="46" filterUnits="userSpaceOnUse" color-interpolation-filters="sRGB">
<feFlood flood-opacity="0" result="BackgroundImageFix"/>
<feBlend mode="normal" in="SourceGraphic" in2="BackgroundImageFix" result="shape"/>
<feColorMatrix in="SourceAlpha" type="matrix" values="0 0 0 0 0 0 0 0 0 0 0 0 0 0 0 0 0 0 127 0" result="hardAlpha"/>
<feOffset dy="2"/>
<feGaussianBlur stdDeviation="6"/>
<feComposite in2="hardAlpha" operator="arithmetic" k2="-1" k3="1"/>
<feColorMatrix type="matrix" values="0 0 0 0 1 0 0 0 0 1 0 0 0 0 1 0 0 0 0.02 0"/>
<feBlend mode="normal" in2="shape" result="effect1_innerShadow_862_86316"/>
</filter>
<radialGradient id="paint0_radial_862_86316" cx="0" cy="0" r="1" gradientUnits="userSpaceOnUse" gradientTransform="translate(22 -16.0769) rotate(90) scale(60.0769)">
<stop stop-color="#FFFDDC"/>
<stop offset="0.0001" stop-color="#FEF6C0"/>
<stop offset="1" stop-color="#F3D37E"/>
</radialGradient>
</defs>
</svg>
