<svg width="82" height="82" viewBox="0 0 82 82" fill="none" xmlns="http://www.w3.org/2000/svg">
<path d="M81.952 38.902C81.952 38.886 81.952 38.886 81.952 38.902C81.9359 38.5977 81.9199 38.2934 81.8879 37.9891C81.8719 37.861 81.8719 37.7168 81.8559 37.5887C81.8398 37.4285 81.8238 37.2684 81.8078 37.1082C81.7758 36.836 81.7598 36.5637 81.7277 36.2754C81.7277 36.2594 81.7277 36.2434 81.7277 36.2274C80.8469 28.6199 77.884 21.6371 73.4156 15.8875C73.3996 15.8715 73.3836 15.8555 73.3676 15.8235C73.2395 15.6473 73.0953 15.4871 72.9672 15.327C72.9031 15.2629 72.8551 15.1828 72.791 15.1188C72.6629 14.9746 72.5508 14.8145 72.4227 14.6703C72.3426 14.5903 72.2785 14.4942 72.1984 14.4141L71.8461 13.9977C71.766 13.9176 71.6859 13.8215 71.6219 13.7414C71.4938 13.5973 71.3816 13.4692 71.2535 13.325C71.1895 13.2449 71.1254 13.1809 71.0613 13.1168C70.5809 12.6043 70.1004 12.1078 69.6039 11.6274C69.5559 11.5793 69.5078 11.5313 69.4598 11.4832C69.2996 11.3231 69.1395 11.1789 68.9793 11.0188C68.9313 10.9707 68.8832 10.9227 68.8352 10.8906C68.659 10.7305 68.4988 10.5703 68.3227 10.4262C68.2906 10.3942 68.2586 10.3621 68.2266 10.3461C62.0926 4.9008 54.309 1.28127 45.7246 0.288302C45.6605 0.288302 45.5805 0.272286 45.5004 0.272286C45.2922 0.256271 45.1 0.22424 44.8918 0.208224C44.7637 0.192208 44.6355 0.176193 44.5074 0.176193C44.3312 0.160177 44.1711 0.144161 43.9949 0.144161C43.8027 0.128146 43.6266 0.128146 43.4344 0.11213C43.3063 0.11213 43.1781 0.0961146 43.05 0.0961146C42.4414 0.0640834 41.8328 0.0480678 41.2242 0.0480678C41.1602 0.0480678 41.0801 0.0480678 41.016 0.0480678C18.3539 2.0884e-05 0 18.3539 0 41C0 46.8938 1.24922 52.4992 3.49141 57.5602C3.52344 57.6402 3.57148 57.7363 3.60352 57.8164C3.65156 57.9125 3.68359 57.9926 3.73164 58.0887C6.61445 64.3988 10.9867 69.716 16.3199 73.7199C16.384 73.768 16.448 73.816 16.5121 73.8641C16.6402 73.9602 16.7684 74.0402 16.8805 74.1363C17.0406 74.2484 17.2008 74.3766 17.3609 74.4887C17.393 74.5047 17.425 74.5367 17.457 74.5527C21.6371 77.4996 26.3937 79.6617 31.5348 80.8789C31.5988 80.8949 31.6469 80.9109 31.7109 80.927C31.791 80.943 31.8551 80.959 31.9352 80.975C36.1633 81.9359 40.5836 82.2402 45.068 81.7918C45.1961 81.7758 45.3082 81.7598 45.4363 81.7598C45.5965 81.7438 45.7727 81.7277 45.9328 81.7117C46.2051 81.6797 46.4934 81.6477 46.7656 81.5996C46.7816 81.5996 46.7977 81.5996 46.7977 81.5996C51.6984 80.9109 56.3109 79.3574 60.491 77.0832C60.507 77.0832 60.523 77.0672 60.523 77.0672C60.5871 77.0352 60.6512 76.9871 60.7152 76.9551C64.7191 74.7609 68.2586 71.9422 71.2535 68.675C71.2855 68.643 71.3176 68.5949 71.3656 68.5629C71.4938 68.4188 71.6219 68.2746 71.75 68.1305C71.8621 68.0023 71.9582 67.8902 72.0703 67.7621C72.1184 67.6981 72.1664 67.634 72.2305 67.5859C76.7949 62.2207 80.0141 55.6703 81.3273 48.4633C81.3273 48.4313 81.3434 48.3832 81.3434 48.3512C81.3754 48.207 81.3914 48.0629 81.4234 47.9188C81.4555 47.7106 81.5035 47.4863 81.5355 47.2781C81.5355 47.2621 81.5355 47.2621 81.5355 47.2461C81.952 44.4914 82.0961 41.7047 81.952 38.902ZM45.3402 50.7375C45.3082 50.7375 45.2762 50.7375 45.2441 50.7375V60.7793C45.2441 63.1176 43.3383 65.0234 41 65.0234C38.6617 65.0234 36.7559 63.1176 36.7559 60.7793V50.7375C36.7238 50.7375 36.6918 50.7375 36.6437 50.7375C29.1805 50.209 21.1887 48.111 21.1887 43.8348C21.1887 40.8879 25.2246 38.5496 32.2715 37.4285C33.0402 37.3324 33.7609 37.877 33.857 38.6457C33.9531 39.3824 33.4566 40.0711 32.7199 40.2152C26.2016 41.2563 24.0234 43.1301 24.0234 43.8348C24.0234 44.9559 28.2676 47.2942 36.7398 47.9188V31.1024H28.2516C25.9133 31.1024 24.0074 29.1965 24.0074 26.8582C24.0074 24.5199 25.8973 22.6141 28.2516 22.6141H53.7004C56.0387 22.6141 57.9445 24.5199 57.9445 26.8582C57.9445 29.1965 56.0547 31.1024 53.7004 31.1024H45.2121V47.9027C53.6844 47.2781 57.9285 44.9559 57.9285 43.8188C57.9285 43.1141 55.7344 41.2402 49.232 40.1992C48.4633 40.0551 47.9668 39.3184 48.1109 38.5496C48.2551 37.8129 48.9438 37.3164 49.6805 37.4125C56.7273 38.5336 60.7633 40.8719 60.7633 43.8188C60.7953 48.111 52.8035 50.193 45.3402 50.7375Z" fill="url(#paint0_linear_1_874)"/>
<defs>
<linearGradient id="paint0_linear_1_874" x1="82.0063" y1="41.0214" x2="1.002e-07" y2="41.0214" gradientUnits="userSpaceOnUse">
<stop stop-color="#7458DC"/>
<stop offset="1" stop-color="#9787D2"/>
</linearGradient>
</defs>
</svg>
