<svg width="95" height="23" viewBox="0 0 95 23" fill="none" xmlns="http://www.w3.org/2000/svg">
<mask id="mask0_3_3" style="mask-type:alpha" maskUnits="userSpaceOnUse" x="0" y="0" width="95" height="23">
<rect width="95" height="23" fill="#D9D9D9"/>
</mask>
<g mask="url(#mask0_3_3)">
<g filter="url(#filter0_i_3_3)">
<path fill-rule="evenodd" clip-rule="evenodd" d="M25.0747 12C29.9635 12 34.13 8.64872 37.9265 5.56855C40.6769 3.3371 44.1823 2 48 2C51.8177 2 55.3231 3.3371 58.0735 5.56855C61.87 8.64872 66.0365 12 70.9253 12H108C114.627 12 120 17.3726 120 24V36C120 42.6274 114.627 48 108 48H-12C-18.6274 48 -24 42.6274 -24 36V24C-24 17.3726 -18.6274 12 -12 12H25.0747Z" fill="#24242B"/>
</g>
</g>
<defs>
<filter id="filter0_i_3_3" x="-24" y="2" width="144" height="48" filterUnits="userSpaceOnUse" color-interpolation-filters="sRGB">
<feFlood flood-opacity="0" result="BackgroundImageFix"/>
<feBlend mode="normal" in="SourceGraphic" in2="BackgroundImageFix" result="shape"/>
<feColorMatrix in="SourceAlpha" type="matrix" values="0 0 0 0 0 0 0 0 0 0 0 0 0 0 0 0 0 0 127 0" result="hardAlpha"/>
<feOffset dy="2"/>
<feGaussianBlur stdDeviation="2"/>
<feComposite in2="hardAlpha" operator="arithmetic" k2="-1" k3="1"/>
<feColorMatrix type="matrix" values="0 0 0 0 1 0 0 0 0 1 0 0 0 0 1 0 0 0 0.02 0"/>
<feBlend mode="normal" in2="shape" result="effect1_innerShadow_3_3"/>
</filter>
</defs>
</svg>
