<svg width="20" height="20" viewBox="0 0 20 20" fill="none" xmlns="http://www.w3.org/2000/svg">
<path d="M10.0012 4.63257H18.3346" stroke="#757786" stroke-width="1.5" stroke-miterlimit="10" stroke-linecap="round" stroke-linejoin="round"/>
<path d="M11.8512 1.66699H16.4846C17.9679 1.66699 18.3346 2.03366 18.3346 3.50033V6.92533C18.3346 8.39199 17.9679 8.75866 16.4846 8.75866H11.8512C10.3679 8.75866 10.0012 8.39199 10.0012 6.92533V3.50033C10.0012 2.03366 10.3679 1.66699 11.8512 1.66699Z" stroke="#757786" stroke-width="1.5" stroke-linecap="round" stroke-linejoin="round"/>
<path d="M1.6675 14.2158H10.0008" stroke="#757786" stroke-width="1.5" stroke-miterlimit="10" stroke-linecap="round" stroke-linejoin="round"/>
<path d="M3.5175 11.25H8.15083C9.63416 11.25 10.0008 11.6167 10.0008 13.0833V16.5083C10.0008 17.975 9.63416 18.3417 8.15083 18.3417H3.5175C2.03416 18.3417 1.6675 17.975 1.6675 16.5083V13.0833C1.6675 11.6167 2.03416 11.25 3.5175 11.25Z" stroke="#757786" stroke-width="1.5" stroke-linecap="round" stroke-linejoin="round"/>
<path d="M18.3281 12.499C18.3281 15.724 15.7198 18.3324 12.4948 18.3324L13.3697 16.874" stroke="#757786" stroke-width="1.5" stroke-linecap="round" stroke-linejoin="round"/>
<path d="M1.66348 7.49935C1.66348 4.27435 4.27182 1.66602 7.49682 1.66602L6.62183 3.12435" stroke="#757786" stroke-width="1.5" stroke-linecap="round" stroke-linejoin="round"/>
</svg>
