<svg width="13" height="11" viewBox="0 0 13 11" fill="none" xmlns="http://www.w3.org/2000/svg">
<path d="M12.6539 1.47345C12.2103 1.67308 11.7223 1.80617 11.2122 1.87271C11.7445 1.56218 12.1437 1.07419 12.3212 0.475301C11.8332 0.763656 11.3009 0.985468 10.7242 1.09637C10.2584 0.608389 9.61517 0.297852 8.88322 0.297852C7.26405 0.297852 6.0663 1.82835 6.42119 3.40321C4.31405 3.29231 2.47307 2.29416 1.20879 0.763657C0.543373 1.8949 0.876079 3.38103 1.9851 4.13519C1.56367 4.11301 1.18661 4.0021 0.831722 3.82465C0.809542 5.00025 1.6524 6.08713 2.85014 6.33112C2.49526 6.41985 2.09601 6.44203 1.71894 6.37548C2.02947 7.37364 2.96105 8.10562 4.07007 8.1278C3.00541 8.97068 1.67458 9.32558 0.34375 9.17031C1.45277 9.88011 2.7836 10.3015 4.20314 10.3015C8.88322 10.3015 11.5449 6.3533 11.3674 2.80432C11.8776 2.42724 12.299 1.98362 12.6539 1.47345Z" fill="#434548"/>
</svg>
