<svg width="28" height="22" viewBox="0 0 28 22" fill="none" xmlns="http://www.w3.org/2000/svg">
<path d="M23.7032 2.09803C21.9186 1.27919 20.0049 0.675878 18.0039 0.330307C17.9675 0.323635 17.9311 0.340315 17.9123 0.37362C17.6662 0.811393 17.3936 1.38244 17.2027 1.83131C15.0505 1.5091 12.9094 1.5091 10.8014 1.83131C10.6105 1.37249 10.3279 0.811393 10.0807 0.37362C10.0619 0.341409 10.0255 0.324729 9.9891 0.330307C7.98928 0.674729 6.07555 1.27804 4.28978 2.09803C4.27431 2.1047 4.26107 2.1158 4.25227 2.13024C0.62233 7.55332 -0.372107 12.8431 0.115705 18.0673C0.117893 18.0929 0.132276 18.1173 0.152127 18.1329C2.54706 19.8917 4.86701 20.9594 7.14382 21.6672C7.18024 21.6783 7.21885 21.665 7.24203 21.635C7.7806 20.8995 8.2607 20.124 8.67233 19.3084C8.69661 19.2607 8.67342 19.2039 8.62377 19.1851C7.86225 18.8962 7.13714 18.544 6.43961 18.144C6.38443 18.1118 6.38 18.0329 6.4308 17.9951C6.57758 17.8852 6.72442 17.7707 6.86458 17.6551C6.88996 17.634 6.92528 17.6296 6.95509 17.6429C11.5375 19.7351 16.4984 19.7351 21.0267 17.6429C21.0565 17.6285 21.0919 17.6329 21.1183 17.654C21.2586 17.7695 21.4053 17.8851 21.5532 17.9951C21.604 18.0329 21.6006 18.1118 21.5455 18.144C20.848 18.5517 20.1229 18.8962 19.3602 19.1839C19.3106 19.2028 19.2885 19.2606 19.3128 19.3083C19.7333 20.1227 20.2134 20.8983 20.742 21.6338C20.7641 21.6649 20.8038 21.6783 20.8403 21.6671C23.1281 20.9594 25.4481 19.8916 27.843 18.1328C27.864 18.1173 27.8772 18.094 27.8794 18.0684C28.4633 12.0287 26.9015 6.78223 23.7396 2.13133C23.7319 2.1158 23.7187 2.1047 23.7032 2.09803ZM9.35675 14.8863C7.97714 14.8863 6.84036 13.6198 6.84036 12.0642C6.84036 10.5087 7.95505 9.24213 9.35675 9.24213C10.7694 9.24213 11.8952 10.5198 11.8731 12.0642C11.8731 13.6198 10.7583 14.8863 9.35675 14.8863ZM18.6606 14.8863C17.281 14.8863 16.1442 13.6198 16.1442 12.0642C16.1442 10.5087 17.2589 9.24213 18.6606 9.24213C20.0733 9.24213 21.199 10.5198 21.177 12.0642C21.177 13.6198 20.0733 14.8863 18.6606 14.8863Z" fill="#5865F2"/>
</svg>
