<svg version="1.2" xmlns="http://www.w3.org/2000/svg" viewBox="0 0 20 20" width="20" height="20">
	<title>uk-flag-svg</title>
	<style>
		.s0 { fill: #999999 } 
		.s1 { fill: #ffffff } 
		.s2 { fill: #fefefe } 
		.s3 { fill: #012169 } 
		.s4 { fill: #c8102e } 
	</style>
	<g id="Layer">
		<path id="Layer" class="s0" d="m10 0c2.7 0 5.3 1.1 7.1 2.9 1.8 1.8 2.9 4.4 2.9 7.1 0 2.7-1.1 5.3-2.9 7.1-1.8 1.8-4.4 2.9-7.1 2.9-2.7 0-5.3-1.1-7.1-2.9-1.8-1.8-2.9-4.4-2.9-7.1 0-2.7 1.1-5.3 2.9-7.1 1.8-1.8 4.4-2.9 7.1-2.9z"/>
		<path id="Layer" class="s1" d="m10 0.7c2.5 0 4.9 1.1 6.5 2.8h0.1c1.6 1.7 2.7 4 2.7 6.5 0 2.5-1.1 4.9-2.8 6.5v0.1c-1.7 1.6-4 2.7-6.5 2.7-2.5 0-4.9-1.1-6.5-2.8-1.7-1.6-2.8-4-2.8-6.5 0-2.5 1.1-4.9 2.8-6.5 1.6-1.7 4-2.8 6.5-2.8z"/>
		<path id="Layer" class="s2" d="m10 18.5c-4.7 0-8.5-3.8-8.5-8.5 0-4.7 3.8-8.5 8.5-8.5 4.7 0 8.5 3.8 8.5 8.5 0 4.7-3.8 8.5-8.5 8.5z"/>
		<path id="Layer" fill-rule="evenodd" class="s3" d="m3.2 5c0.9-1.3 2.3-2.4 4-3v5zm3.9 8v4.9c-1.6-0.5-3-1.6-3.9-2.9zm9.7 2c-1 1.3-2.4 2.4-4 3v-5zm-4-8v-5c1.6 0.6 3 1.7 4 3z"/>
		<path id="Layer" fill-rule="evenodd" class="s4" d="m1.7 11.7q-0.2-0.8-0.2-1.7 0-0.2 0-0.4 0.1-0.3 0.1-0.5 0-0.2 0.1-0.4 0-0.2 0-0.4h6.6v-6.6q0.8-0.2 1.7-0.2 0.2 0 0.4 0 0.3 0.1 0.5 0.1 0.2 0 0.4 0.1 0.2 0 0.4 0v6.6h6.6q0.2 0.8 0.2 1.7 0 0.9-0.2 1.7h-6.6v6.6q-0.8 0.2-1.7 0.2-0.9 0-1.7-0.2v-6.6zm15.8-5.5l-1.9 1h-1.9l3.4-1.7q0.2 0.4 0.4 0.7zm0.4 6.8q-0.2 0.4-0.4 0.8l-1.9-1h1.9zm-15.8-6q0.2-0.4 0.3-0.8l1.9 1h-1.8zm4.1 5.8l-3.4 1.7q-0.1-0.1-0.1-0.2 0-0.1-0.1-0.2-0.1 0-0.1-0.2 0 0-0.1-0.2l1.9-0.9z"/>
	</g>
</svg>