<svg version="1.2" xmlns="http://www.w3.org/2000/svg" viewBox="0 0 30 30" width="30" height="30">
	<title>uk-flag-round-circle-icon (1)-svg</title>
	<style>
		.s0 { fill: #999999 } 
		.s1 { fill: #ffffff } 
		.s2 { fill: #fefefe } 
		.s3 { fill: #012169 } 
		.s4 { fill: #c8102e } 
	</style>
	<g id="Layer">
		<path id="Layer" class="s0" d="m15 0c4.1 0 7.9 1.7 10.6 4.4 2.7 2.7 4.4 6.5 4.4 10.6 0 4.1-1.7 7.9-4.4 10.6-2.7 2.7-6.5 4.4-10.6 4.4-4.1 0-7.9-1.7-10.6-4.4-2.7-2.7-4.4-6.5-4.4-10.6 0-4.1 1.7-7.9 4.4-10.6 2.7-2.7 6.5-4.4 10.6-4.4z"/>
		<path id="Layer" class="s1" d="m15 1.1c3.8 0 7.3 1.6 9.8 4.1l0.1 0.1c2.4 2.5 4 5.9 4 9.7 0 3.8-1.6 7.3-4.1 9.8l-0.1 0.1c-2.5 2.4-5.9 4-9.7 4-3.8 0-7.3-1.6-9.8-4.1-2.5-2.5-4.1-6-4.1-9.8 0-3.8 1.6-7.3 4.1-9.8 2.5-2.5 6-4.1 9.8-4.1z"/>
		<path id="Layer" class="s2" d="m15 27.7c-7 0-12.7-5.7-12.7-12.7 0-7 5.7-12.7 12.7-12.7 7 0 12.7 5.7 12.7 12.7 0 7-5.7 12.7-12.7 12.7z"/>
		<path id="Layer" fill-rule="evenodd" class="s3" d="m4.8 7.5c1.4-2 3.5-3.6 6-4.5v7.5zm0 15c1.4 2 3.5 3.6 5.9 4.4v-7.4zm14.5-3v7.5c2.4-0.9 4.5-2.5 6-4.5zm6-12c-1.5-2-3.6-3.6-6-4.5v7.5z"/>
		<path id="Layer" fill-rule="evenodd" class="s4" d="m2.6 17.5q-0.3-1.2-0.3-2.5 0-0.3 0-0.6 0.1-0.4 0.1-0.7 0-0.3 0.1-0.6 0-0.3 0.1-0.6h9.8v-9.9q1.3-0.3 2.6-0.3 0.3 0 0.6 0 0.4 0.1 0.7 0.1 0.3 0 0.6 0.1 0.3 0 0.6 0.1v9.9h9.9q0.3 1.2 0.3 2.5 0 1.3-0.3 2.5h-9.9v9.9q-1.2 0.3-2.5 0.3-1.3 0-2.6-0.3v-9.9zm23.8-8.2l-2.9 1.5h-2.8l5.1-2.6q0.3 0.6 0.6 1.1zm0.5 10.2q-0.2 0.6-0.5 1.2l-2.9-1.5h2.8zm-23.7-9q0.3-0.6 0.5-1.2l2.9 1.5h-2.8zm6.2 8.7l-5.1 2.6q-0.1-0.2-0.1-0.3-0.1-0.2-0.2-0.3-0.1-0.1-0.2-0.3 0-0.1-0.1-0.3l2.8-1.4z"/>
	</g>
</svg>