<svg width="146" height="146" viewBox="0 0 146 146" fill="none" xmlns="http://www.w3.org/2000/svg">
<path d="M73.0071 137.826L101.93 130.522C118.439 116.813 128.955 96.1359 128.955 73.0003C128.955 37.3147 103.943 7.47109 70.4943 0.0424805C31.3378 1.36304 0 33.5218 0 73C0 93.278 8.26953 111.623 21.6183 124.852L73.0071 137.826Z" fill="#CBE2FF"/>
<path d="M127.44 73C127.44 96.9289 115.925 118.166 98.1363 131.48L124.38 124.852C137.729 111.624 146 93.2786 146 73C146 32.6832 113.317 0 73.0001 0C69.8565 0 66.7591 0.199039 63.7202 0.58457C99.6553 5.14365 127.44 35.827 127.44 73Z" fill="#BED8FB"/>
<path d="M91.142 27.6468C91.142 23.9184 88.1196 20.896 84.3912 20.896H61.1276C52.5469 20.896 45.5908 27.8521 45.5908 36.4327V53.6827H100.4V36.6774C100.4 32.949 97.378 29.9266 93.6496 29.9266H93.4221C92.1628 29.9266 91.142 28.906 91.142 27.6468Z" fill="#365E7D"/>
<path d="M93.6495 29.9264H93.422C92.1627 29.9264 91.1418 28.9055 91.1418 27.6463C91.1418 23.9179 88.1195 20.8955 84.391 20.8955H81.8403V53.6822H100.4V36.6769C100.4 32.9491 97.3776 29.9264 93.6495 29.9264Z" fill="#2B4D66"/>
<path d="M121.204 106.18C119.42 104.417 117.212 103.053 114.706 102.26L94.7758 95.9501L73.0047 95.1851L51.2245 95.9501L31.2946 102.26C24.5524 104.395 19.9702 110.652 19.9702 117.724V123.169C32.7421 136.664 50.6105 145.288 70.4951 145.958C92.7737 141.01 111.309 126.118 121.204 106.18Z" fill="#4A80AA"/>
<path d="M126.03 123.168V117.723C126.03 112.723 123.737 108.132 120.012 105.116C109.429 126.681 88.5242 142.262 63.7373 145.413C66.7292 145.792 69.7763 145.994 72.8697 146C75.8419 145.995 78.7747 145.823 81.6594 145.492C99.0627 143.435 114.591 135.256 126.03 123.168Z" fill="#407093"/>
<path d="M74.6528 144.907C79.0696 136.138 90.5708 111.24 87.2912 95.6867L73.0046 90.1265L58.7046 95.687C55.3238 111.72 67.6499 137.684 71.7308 145.672C72.7123 145.437 73.6867 145.181 74.6528 144.907Z" fill="#E4F6FF"/>
<path d="M82.1814 137.955L76.3887 115.167H69.6114L63.833 137.893L70.9785 145.848C72.7923 145.433 74.5811 144.951 76.3422 144.406L82.1814 137.955Z" fill="#E28086"/>
<path d="M71.09 145.973C71.6817 145.988 72.2746 145.999 72.8697 146C73.5583 145.999 74.2447 145.987 74.9291 145.968L78.6096 141.902C75.7127 142.918 72.7325 143.757 69.6816 144.405L71.09 145.973Z" fill="#DD636E"/>
<path d="M85.1971 93.5838V80.7329H60.7935V93.5838C60.7935 100.323 72.9953 107.684 72.9953 107.684C72.9953 107.684 85.1971 100.323 85.1971 93.5838Z" fill="#FFDDCE"/>
<path d="M100.4 51.4189H95.7355C93.1412 51.4189 91.0382 49.3159 91.0382 46.7216V44.1509C91.0382 40.7715 87.7318 38.3822 84.5232 39.4427C77.0398 41.9161 68.9597 41.9167 61.476 39.4444L61.4672 39.4415C58.2586 38.3816 54.9528 40.7709 54.9528 44.15V46.7218C54.9528 49.3162 52.8498 51.4192 50.2554 51.4192H45.5908V59.1008C45.5908 61.0635 47.182 62.655 49.145 62.655C49.7644 62.655 50.2682 63.14 50.3073 63.7582C51.0567 75.6401 60.9251 85.0463 72.9958 85.0463C85.0664 85.0463 94.9348 75.6401 95.6842 63.7582C95.7233 63.1403 96.2272 62.655 96.8465 62.655C98.8092 62.655 100.401 61.0638 100.401 59.1008V51.4189H100.4Z" fill="#FFDDCE"/>
<path d="M95.7353 51.419C93.141 51.419 91.038 49.316 91.038 46.7216V44.151C91.038 40.7716 87.7316 38.3822 84.523 39.4427C83.6367 39.7356 82.7416 39.9911 81.8405 40.2147V65.5856C81.7156 73.8403 77.1925 81.0245 70.5127 84.9072C71.3285 84.9959 72.156 85.0458 72.9953 85.0458C85.0659 85.0458 94.9343 75.6396 95.6837 63.7577C95.7228 63.1398 96.2267 62.6545 96.846 62.6545C98.8088 62.6545 100.4 61.0633 100.4 59.1003V51.4187H95.7353V51.419Z" fill="#FFCBBE"/>
<path d="M60.7939 90.1265L51.2246 97.9018L61.2598 110.31C62.4806 111.498 64.402 111.571 65.7097 110.479L73.2564 104.175L60.7939 90.1265Z" fill="#F4FBFF"/>
<path d="M85.2021 90.1265L73.2563 104.175L80.3493 110.24C81.6488 111.351 83.5793 111.295 84.8123 110.111L94.7757 97.9018L85.2021 90.1265Z" fill="#F4FBFF"/>
<path d="M60.7937 90.1265L46.7481 97.027C45.6787 97.5522 45.2493 98.8531 45.7954 99.9119L48.5471 105.247C49.2603 106.63 48.9971 108.314 47.8964 109.413C47.3298 109.979 46.7161 110.591 46.1843 111.122C45.2325 112.072 44.8906 113.476 45.3097 114.754C48.6321 124.882 64.622 140.369 70.6733 145.973C71.0802 145.983 71.4879 145.991 71.8966 145.995C67.5083 137.46 51.9579 105.031 60.7937 90.1265Z" fill="#365E7D"/>
<path d="M98.0995 109.413C96.9985 108.314 96.7356 106.629 97.4488 105.247L100.201 99.9116C100.747 98.8528 100.317 97.5519 99.2478 97.0267L85.2022 90.1265C94.0357 105.027 78.4961 137.442 74.103 145.989C74.5159 145.981 74.928 145.971 75.3392 145.957C81.403 140.341 97.3669 124.873 100.686 114.755C101.105 113.476 100.763 112.073 99.8116 111.123C99.2798 110.591 98.6661 109.978 98.0995 109.413Z" fill="#365E7D"/>
<path d="M73.2564 104.175L65.8252 110.381L69.6115 115.167H76.3888L80.1754 110.099L73.2564 104.175Z" fill="#DD636E"/>
</svg>
