<svg width="14" height="12" viewBox="0 0 14 12" fill="none" xmlns="http://www.w3.org/2000/svg">
<path d="M1.09848 5.54138C2.38177 4.83555 3.82089 4.23971 5.15918 3.64388C7.46911 2.67221 9.77903 1.70971 12.1256 0.820547C12.5839 0.664713 13.3997 0.518046 13.4822 1.19638C13.4364 2.14971 13.2623 3.10305 13.1339 4.04721C12.8223 6.13721 12.4556 8.21805 12.0981 10.2989C11.979 10.9955 11.1082 11.353 10.549 10.9039C9.21072 10.0055 7.87243 9.10721 6.55247 8.19055C6.12165 7.75055 6.52497 7.11805 6.90996 6.80638C8.00992 5.72471 9.17405 4.79888 10.219 3.66221C10.5032 2.98388 9.66903 3.55221 9.39404 3.72638C7.89076 4.76221 6.42414 5.86221 4.82919 6.77888C4.02255 7.22805 3.06925 6.84305 2.26261 6.59555C1.53846 6.30221 0.475163 5.99971 1.09848 5.54138Z" fill="#434548"/>
</svg>
