<svg width="19" height="17" viewBox="0 0 19 17" fill="none" xmlns="http://www.w3.org/2000/svg">
<path d="M13.0442 12.7474V17H15.8793C17.0536 17 18.0056 16.048 18.0056 14.8737V8.40902C18.0058 8.0408 17.8627 7.68697 17.6065 7.42241L11.5834 0.91092C10.5207 -0.238948 8.72701 -0.309548 7.57714 0.753208C7.52252 0.803708 7.4699 0.856301 7.41943 0.91092L1.40692 7.42029C1.14306 7.68594 0.995018 8.04522 0.995117 8.41965V14.8737C0.995117 16.048 1.94711 17 3.12143 17H5.95649V12.7474C5.96975 10.8147 7.53016 9.23645 9.41417 9.191C11.3612 9.14403 13.0294 10.7492 13.0442 12.7474Z" fill="#99A4B0"/>
</svg>
