<svg width="50" height="19" viewBox="0 0 50 19" fill="none" xmlns="http://www.w3.org/2000/svg">
<g clip-path="url(#clip0_1901_351)">
<g filter="url(#filter0_i_1901_351)">
<path fill-rule="evenodd" clip-rule="evenodd" d="M35.0735 3.56855C38.87 6.64872 43.0365 10 47.9253 10H183C189.627 10 195 15.3726 195 22V306C195 312.627 189.627 318 183 318H-133C-139.627 318 -145 312.627 -145 306V22C-145 15.3726 -139.627 10 -133 10H2.07467C6.96349 10 11.13 6.64872 14.9265 3.56855C17.6769 1.3371 21.1823 0 25 0C28.8177 0 32.3231 1.3371 35.0735 3.56855Z" fill="#F3F1EA"/>
</g>
</g>
<defs>
<filter id="filter0_i_1901_351" x="-145" y="0" width="340" height="320" filterUnits="userSpaceOnUse" color-interpolation-filters="sRGB">
<feFlood flood-opacity="0" result="BackgroundImageFix"/>
<feBlend mode="normal" in="SourceGraphic" in2="BackgroundImageFix" result="shape"/>
<feColorMatrix in="SourceAlpha" type="matrix" values="0 0 0 0 0 0 0 0 0 0 0 0 0 0 0 0 0 0 127 0" result="hardAlpha"/>
<feOffset dy="2"/>
<feGaussianBlur stdDeviation="2"/>
<feComposite in2="hardAlpha" operator="arithmetic" k2="-1" k3="1"/>
<feColorMatrix type="matrix" values="0 0 0 0 1 0 0 0 0 1 0 0 0 0 1 0 0 0 0.02 0"/>
<feBlend mode="normal" in2="shape" result="effect1_innerShadow_1901_351"/>
</filter>
<clipPath id="clip0_1901_351">
<rect width="50" height="19" fill="white"/>
</clipPath>
</defs>
</svg>
