<svg width="20" height="20" viewBox="0 0 20 20" fill="none" xmlns="http://www.w3.org/2000/svg">
<path d="M15.0359 11.2916C14.6859 11.6332 14.4859 12.1249 14.5359 12.6499C14.6109 13.5499 15.4359 14.2082 16.3359 14.2082H17.9193V15.1999C17.9193 16.9249 16.5109 18.3333 14.7859 18.3333H5.21927C3.49427 18.3333 2.08594 16.9249 2.08594 15.1999V9.59159C2.08594 7.86659 3.49427 6.45825 5.21927 6.45825H14.7859C16.5109 6.45825 17.9193 7.86659 17.9193 9.59159V10.7916H16.2359C15.7693 10.7916 15.3443 10.9749 15.0359 11.2916Z" fill="white" fill-opacity="0.24" stroke="white" stroke-width="1.54839" stroke-linecap="round" stroke-linejoin="round"/>
<path d="M2.08594 10.3416V6.5333C2.08594 5.54163 2.69427 4.65826 3.61927 4.30826L10.2359 1.80826C11.2693 1.41659 12.3776 2.18329 12.3776 3.29162V6.45828" stroke="white" stroke-width="1.54839" stroke-linecap="round" stroke-linejoin="round"/>
<path d="M18.7977 11.6421V13.3588C18.7977 13.8171 18.431 14.1921 17.9644 14.2088H16.331C15.431 14.2088 14.606 13.5504 14.531 12.6504C14.481 12.1254 14.681 11.6338 15.031 11.2921C15.3394 10.9754 15.7644 10.7921 16.231 10.7921H17.9644C18.431 10.8088 18.7977 11.1837 18.7977 11.6421Z" stroke="white" stroke-width="1.54839" stroke-linecap="round" stroke-linejoin="round"/>
<path d="M5.83594 10.0001H11.6693" stroke="white" stroke-width="1.54839" stroke-linecap="round" stroke-linejoin="round"/>
</svg>
