<svg width="72" height="72" viewBox="0 0 72 72" fill="none" xmlns="http://www.w3.org/2000/svg">
<g filter="url(#filter0_d_862_88205)">
<rect x="14" y="10" width="44" height="44" rx="22" fill="url(#paint0_radial_862_88205)"/>
<rect x="14.7" y="10.7" width="42.6" height="42.6" rx="21.3" stroke="white" stroke-opacity="0.12" stroke-width="1.4"/>
</g>
<path d="M41.0359 33.2923C40.6859 33.634 40.4859 34.1256 40.5359 34.6506C40.6109 35.5506 41.4359 36.209 42.3359 36.209H43.9193V37.2006C43.9193 38.9256 42.5109 40.334 40.7859 40.334H31.2193C29.4943 40.334 28.0859 38.9256 28.0859 37.2006V31.5923C28.0859 29.8673 29.4943 28.459 31.2193 28.459H40.7859C42.5109 28.459 43.9193 29.8673 43.9193 31.5923V32.7923H42.2359C41.7693 32.7923 41.3443 32.9756 41.0359 33.2923Z" fill="white" fill-opacity="0.24" stroke="white" stroke-width="1.54839" stroke-linecap="round" stroke-linejoin="round"/>
<path d="M28.0859 32.3421V28.5338C28.0859 27.5421 28.6943 26.6587 29.6193 26.3087L36.2359 23.8087C37.2693 23.4171 38.3776 24.1838 38.3776 25.2921V28.4588" stroke="white" stroke-width="1.54839" stroke-linecap="round" stroke-linejoin="round"/>
<path d="M44.7977 33.6429V35.3596C44.7977 35.818 44.431 36.1929 43.9644 36.2096H42.331C41.431 36.2096 40.606 35.5513 40.531 34.6513C40.481 34.1263 40.681 33.6346 41.031 33.2929C41.3394 32.9763 41.7644 32.793 42.231 32.793H43.9644C44.431 32.8096 44.7977 33.1846 44.7977 33.6429Z" stroke="white" stroke-width="1.54839" stroke-linecap="round" stroke-linejoin="round"/>
<path d="M31.8359 32H37.6693" stroke="white" stroke-width="1.54839" stroke-linecap="round" stroke-linejoin="round"/>
<defs>
<filter id="filter0_d_862_88205" x="0" y="0" width="72" height="72" filterUnits="userSpaceOnUse" color-interpolation-filters="sRGB">
<feFlood flood-opacity="0" result="BackgroundImageFix"/>
<feColorMatrix in="SourceAlpha" type="matrix" values="0 0 0 0 0 0 0 0 0 0 0 0 0 0 0 0 0 0 127 0" result="hardAlpha"/>
<feMorphology radius="2" operator="dilate" in="SourceAlpha" result="effect1_dropShadow_862_88205"/>
<feOffset dy="4"/>
<feGaussianBlur stdDeviation="6"/>
<feComposite in2="hardAlpha" operator="out"/>
<feColorMatrix type="matrix" values="0 0 0 0 0.755625 0 0 0 0 0.7125 0 0 0 0 1 0 0 0 0.44 0"/>
<feBlend mode="normal" in2="BackgroundImageFix" result="effect1_dropShadow_862_88205"/>
<feBlend mode="normal" in="SourceGraphic" in2="effect1_dropShadow_862_88205" result="shape"/>
</filter>
<radialGradient id="paint0_radial_862_88205" cx="0" cy="0" r="1" gradientUnits="userSpaceOnUse" gradientTransform="translate(36 -3.93333) rotate(90) scale(88.7333)">
<stop stop-color="#AAA8FF"/>
<stop offset="1" stop-color="#B477F1"/>
</radialGradient>
</defs>
</svg>
