<svg width="20" height="20" viewBox="0 0 20 20" fill="none" xmlns="http://www.w3.org/2000/svg">
<path fill-rule="evenodd" clip-rule="evenodd" d="M12.4454 11.7257C12.3423 12.015 11.8473 12.2788 11.6091 12.3144C11.396 12.3463 11.126 12.3594 10.8291 12.2657C10.6491 12.2082 10.4185 12.1319 10.1235 12.0044C8.88102 11.4682 8.06914 10.2175 8.00727 10.135C7.94539 10.0525 7.50164 9.46379 7.50164 8.85441C7.50164 8.24504 7.82164 7.94504 7.93539 7.82129C8.04852 7.69754 8.18289 7.66629 8.26539 7.66629C8.34789 7.66629 8.43039 7.66691 8.50289 7.67066C8.57914 7.67441 8.68102 7.64191 8.78164 7.88316C8.88477 8.13129 9.13227 8.74066 9.16352 8.80254C9.19414 8.86441 9.21477 8.93691 9.17352 9.01941C9.13227 9.10191 9.11164 9.15379 9.04977 9.22629C8.98789 9.29816 8.91977 9.38754 8.86414 9.44316C8.80227 9.50441 8.73727 9.57191 8.80977 9.69566C8.88227 9.81941 9.13039 10.225 9.49852 10.5532C9.97164 10.975 10.371 11.1057 10.4948 11.1682C10.6185 11.23 10.691 11.2194 10.7629 11.1369C10.8354 11.0544 11.0729 10.7757 11.1554 10.6513C11.2379 10.5275 11.3204 10.5482 11.4341 10.5894C11.5473 10.6307 12.1566 10.93 12.2804 10.9925C12.4041 11.0544 12.4866 11.085 12.5179 11.1369C12.5485 11.1888 12.5485 11.4363 12.4454 11.7257ZM10.0223 5.83691C7.74977 5.83691 5.90102 7.68441 5.90039 9.95504C5.90039 10.7332 6.11789 11.4913 6.53039 12.1469L6.62852 12.3025L6.21227 13.8225L7.77164 13.4138L7.92164 13.5025C8.55414 13.8782 9.27914 14.0769 10.0185 14.0769H10.0204C12.291 14.0769 14.1391 12.2294 14.1404 9.95816C14.1404 8.85754 13.7129 7.82316 12.9348 7.04441C12.1566 6.26629 11.1223 5.83691 10.0223 5.83691Z" fill="#67D449"/>
<path fill-rule="evenodd" clip-rule="evenodd" d="M10.0206 14.9137H10.0188C9.18875 14.9137 8.37375 14.7056 7.65 14.3106L5.02187 15L5.72563 12.4319C5.29188 11.6806 5.06313 10.8281 5.06375 9.95438C5.065 7.2225 7.28813 5 10.0206 5C11.3463 5 12.5912 5.51625 13.5269 6.45312C14.4625 7.38937 14.9781 8.63437 14.9775 9.95875C14.9763 12.6906 12.7525 14.9137 10.0206 14.9137ZM10 0C4.47688 0 0 4.47688 0 10C0 15.5225 4.47688 20 10 20C15.5225 20 20 15.5225 20 10C20 4.47688 15.5225 0 10 0Z" fill="#67D449"/>
</svg>
