<svg width="20" height="20" viewBox="0 0 20 20" fill="none" xmlns="http://www.w3.org/2000/svg">
<path d="M14.0433 1.87726C16.7509 1.98556 18.0144 3.2852 18.1588 5.99278C18.1949 7.03971 18.231 7.36462 18.231 10.0361C18.231 12.7076 18.231 13.0325 18.1588 14.0794C18.0505 16.787 16.787 18.0505 14.0433 18.1949C12.9964 18.231 12.6715 18.2672 9.99999 18.2672C7.32851 18.2672 7.00361 18.2671 5.95668 18.1949C3.2491 18.0866 1.98555 16.787 1.84115 14.0794C1.80505 13.0325 1.76895 12.7076 1.76895 10.0361C1.76895 7.36462 1.76894 7.03971 1.84115 5.99278C1.94945 3.2852 3.213 2.02166 5.95668 1.87726C7.00361 1.84115 7.32851 1.80505 9.99999 1.80505C12.6715 1.80505 12.9964 1.80505 14.0433 1.87726ZM9.99999 0C7.29241 0 6.9314 -1.10279e-06 5.88447 0.0722011C2.23826 0.252707 0.2166 2.23827 0.0721956 5.88448C0.0360945 6.96751 0 7.29242 0 10C0 12.7076 -6.61138e-06 13.0686 0.0721956 14.1155C0.252701 17.7617 2.23826 19.7834 5.88447 19.9278C6.96751 19.9639 7.29241 20 9.99999 20C12.7076 20 13.0686 20 14.1155 19.9278C17.7617 19.7473 19.7834 17.7617 19.9278 14.1155C19.9639 13.0325 20 12.7076 20 10C20 7.29242 20 6.93141 19.9278 5.88448C19.7473 2.23827 17.7617 0.216605 14.1155 0.0722011C13.0686 -1.10279e-06 12.7076 0 9.99999 0ZM9.99999 4.87365C7.14801 4.87365 4.87365 7.18412 4.87365 10C4.87365 12.852 7.18411 15.1264 9.99999 15.1264C12.852 15.1264 15.1264 12.8159 15.1264 10C15.1264 7.18412 12.8159 4.87365 9.99999 4.87365ZM9.99999 13.3574C8.15884 13.3574 6.6787 11.8773 6.6787 10.0361C6.6787 8.19495 8.15884 6.7148 9.99999 6.7148C11.8412 6.7148 13.3213 8.19495 13.3213 10.0361C13.3213 11.8412 11.8412 13.3574 9.99999 13.3574ZM15.343 3.46571C14.6931 3.46571 14.1516 4.00722 14.1516 4.65704C14.1516 5.30686 14.6931 5.84838 15.343 5.84838C15.9928 5.84838 16.5343 5.30686 16.5343 4.65704C16.5343 4.00722 15.9928 3.46571 15.343 3.46571Z" fill="#434548"/>
</svg>
