<svg width="20" height="17" viewBox="0 0 20 17" fill="none" xmlns="http://www.w3.org/2000/svg">
<path d="M0.299584 7.92071C2.34108 6.76844 4.63047 5.79575 6.75945 4.82306C10.4341 3.23683 14.1088 1.66556 17.8419 0.214008C18.571 -0.0403876 19.8688 -0.279819 20 0.827551C19.9271 2.38386 19.65 3.94016 19.4459 5.4815C18.9501 8.8934 18.3668 12.2903 17.7981 15.6873C17.6085 16.8246 16.2232 17.4082 15.3337 16.6749C13.2047 15.2084 11.0758 13.7419 8.97593 12.2454C8.29057 11.5271 8.93219 10.4946 9.54464 9.9858C11.2945 8.22 13.1464 6.70859 14.8088 4.85299C15.2608 3.74562 13.9338 4.67342 13.4964 4.95774C11.1049 6.64873 8.77178 8.44446 6.2345 9.94091C4.95127 10.6742 3.43474 10.0457 2.15151 9.64162C0.999525 9.16276 -0.691998 8.66893 0.299584 7.92071Z" fill="#434548"/>
</svg>
