<svg width="22" height="16" viewBox="0 0 22 16" fill="none" xmlns="http://www.w3.org/2000/svg">
<path d="M18.6238 1.32698C17.2214 0.713687 15.7181 0.260383 14.146 0.0026222C14.132 1.60717e-05 14.1175 0.00169555 14.1046 0.0074284C14.0916 0.0131612 14.0808 0.0226638 14.0736 0.0346201C13.8811 0.362599 13.6666 0.790126 13.5163 1.12788C11.849 0.88633 10.154 0.88633 8.4867 1.12788C8.31926 0.75356 8.13044 0.388574 7.92113 0.0346201C7.91403 0.0225166 7.9033 0.0127991 7.89036 0.00676426C7.87742 0.000729432 7.86289 -0.00133575 7.84871 0.000844454C6.27759 0.258605 4.7743 0.711909 3.37093 1.32609C3.35885 1.331 3.34862 1.33938 3.34159 1.35009C0.48901 5.41649 -0.292884 9.38245 0.0911879 13.2986C0.0922567 13.3082 0.0953271 13.3175 0.100212 13.3259C0.105097 13.3343 0.111695 13.3417 0.119604 13.3475C1.78458 14.5229 3.64164 15.4183 5.61303 15.9962C5.62677 16.0003 5.64147 16.0003 5.65521 15.9962C5.66894 15.9921 5.68108 15.984 5.69003 15.9731C6.11424 15.423 6.49016 14.8394 6.81383 14.2284C6.81832 14.22 6.82091 14.2108 6.82142 14.2014C6.82193 14.192 6.82035 14.1826 6.81679 14.1738C6.81322 14.1651 6.80776 14.1571 6.80076 14.1506C6.79377 14.1441 6.78541 14.139 6.77624 14.1359C6.1841 13.9197 5.61036 13.6588 5.06029 13.3555C5.05041 13.3501 5.04208 13.3423 5.03606 13.3329C5.03003 13.3236 5.02649 13.3129 5.02577 13.3019C5.02504 13.2909 5.02714 13.2799 5.03189 13.2698C5.03664 13.2598 5.04388 13.2511 5.05296 13.2444C5.16846 13.1618 5.28395 13.0755 5.39395 12.9893C5.40385 12.9816 5.41578 12.9766 5.4284 12.9751C5.44103 12.9735 5.45385 12.9754 5.46545 12.9804C9.06509 14.5483 12.9636 14.5483 16.521 12.9804C16.5327 12.9751 16.5456 12.973 16.5584 12.9744C16.5712 12.9758 16.5834 12.9807 16.5935 12.9884C16.7035 13.0755 16.818 13.1618 16.9345 13.2444C16.9436 13.2509 16.951 13.2595 16.9559 13.2695C16.9608 13.2794 16.9631 13.2904 16.9625 13.3014C16.962 13.3124 16.9586 13.3231 16.9528 13.3326C16.9469 13.342 16.9387 13.3499 16.929 13.3555C16.3808 13.6613 15.8106 13.9199 15.2121 14.135C15.2029 14.1383 15.1945 14.1434 15.1875 14.15C15.1805 14.1566 15.1751 14.1646 15.1715 14.1734C15.1679 14.1823 15.1664 14.1917 15.1669 14.2012C15.1674 14.2107 15.17 14.2199 15.1745 14.2284C15.5045 14.839 15.8821 15.4203 16.2974 15.9722C16.306 15.9836 16.318 15.992 16.3318 15.9965C16.3456 16.0009 16.3605 16.0012 16.3744 15.9971C18.3491 15.4208 20.2092 14.525 21.8761 13.3475C21.8842 13.342 21.891 13.3349 21.8961 13.3266C21.9011 13.3183 21.9043 13.3091 21.9054 13.2995C22.3637 8.77182 21.1372 4.83786 18.6522 1.35187C18.6461 1.34054 18.6361 1.33171 18.6238 1.32698ZM7.3519 10.9139C6.26843 10.9139 5.3747 9.96375 5.3747 8.79849C5.3747 7.63234 6.25101 6.68307 7.3519 6.68307C8.46103 6.68307 9.3465 7.64034 9.32909 8.79849C9.32909 9.96463 8.45278 10.9139 7.3519 10.9139ZM14.6621 10.9139C13.5777 10.9139 12.6849 9.96375 12.6849 8.79849C12.6849 7.63234 13.5603 6.68307 14.6621 6.68307C15.7712 6.68307 16.6567 7.64034 16.6393 8.79849C16.6393 9.96463 15.7722 10.9139 14.6621 10.9139Z" fill="#434548"/>
</svg>
