<svg width="18" height="22" viewBox="0 0 18 22" fill="none" xmlns="http://www.w3.org/2000/svg">
<path d="M18 9.02186C16.2306 9.02638 14.5046 8.43628 13.0658 7.3349V15.0162C13.0654 16.4389 12.6587 17.8275 11.9004 18.9963C11.142 20.1652 10.068 21.0586 8.82199 21.5571C7.576 22.0556 6.21739 22.1354 4.92784 21.7859C3.63828 21.4363 2.47925 20.6741 1.60571 19.6011C0.732175 18.5281 0.185777 17.1955 0.0395762 15.7814C-0.106624 14.3674 0.154342 12.9393 0.787581 11.6882C1.42082 10.437 2.39615 9.42241 3.58315 8.78004C4.77015 8.13767 6.11224 7.89815 7.42997 8.0935V11.9569C6.82698 11.7541 6.17947 11.7602 5.57991 11.9744C4.98036 12.1886 4.45942 12.5999 4.09148 13.1496C3.72355 13.6992 3.52745 14.3592 3.53117 15.0352C3.53489 15.7112 3.73826 16.3686 4.11222 16.9136C4.48618 17.4586 5.01161 17.8633 5.61348 18.07C6.21536 18.2766 6.86289 18.2745 7.46361 18.0641C8.06433 17.8537 8.58752 17.4457 8.95846 16.8983C9.3294 16.3509 9.52912 15.6922 9.52911 15.0162V0H13.0658C13.0634 0.319399 13.0884 0.638362 13.1406 0.952859C13.2635 1.65492 13.519 2.32279 13.8916 2.91562C14.2641 3.50845 14.7458 4.01378 15.3073 4.40068C16.106 4.96548 17.0424 5.26651 18 5.26629V9.02186Z" fill="#434548"/>
</svg>
