<svg width="22" height="18" viewBox="0 0 22 18" fill="none" xmlns="http://www.w3.org/2000/svg">
<path d="M22 2.1153C21.2072 2.4745 20.3351 2.71397 19.4234 2.8337C20.3748 2.27495 21.0883 1.3969 21.4054 0.319292C20.5333 0.838139 19.582 1.23725 18.5514 1.43681C17.7189 0.558761 16.5694 0 15.2613 0C12.3676 0 10.227 2.75388 10.8613 5.58758C7.09549 5.38803 3.8054 3.59202 1.54594 0.83814C0.356754 2.87362 0.951349 5.54767 2.93333 6.90466C2.18018 6.86475 1.50631 6.66518 0.872077 6.34589C0.832437 8.46119 2.33875 10.4168 4.47929 10.8559C3.84505 11.0155 3.13154 11.0554 2.45766 10.9357C3.01262 12.7317 4.67748 14.0488 6.65947 14.0887C4.75676 15.6053 2.37838 16.2439 0 15.9645C1.98198 17.2417 4.36036 18 6.89729 18C15.2613 18 20.018 10.8958 19.7009 4.50998C20.6126 3.83149 21.3658 3.03326 22 2.1153Z" fill="#434548"/>
</svg>
