<svg width="18" height="18" viewBox="0 0 18 18" fill="none" xmlns="http://www.w3.org/2000/svg">
<g clip-path="url(#clip0_1_72)">
<path d="M9.59477 7.8897L9.02699 6.68335L8.45905 7.8897C8.3955 8.02583 8.26791 8.12092 8.1192 8.14333L6.8067 8.34373L7.7716 9.33123C7.87162 9.43341 7.91718 9.57695 7.8939 9.71802L7.67125 11.0829L8.80846 10.455C8.9443 10.38 9.10935 10.38 9.24519 10.455L10.3824 11.0829L10.1597 9.71802C10.1366 9.57695 10.182 9.43341 10.2821 9.33123L11.247 8.34373L9.93445 8.14333C9.7859 8.12092 9.65832 8.02583 9.59477 7.8897V7.8897Z" fill="#7C8497"/>
<path d="M9.02765 3.59973C6.04053 3.59973 3.6192 6.01755 3.6192 8.99998C3.6192 11.9826 6.04053 14.4002 9.02765 14.4002C12.0146 14.4002 14.4361 11.9826 14.4361 8.99998C14.4328 6.01887 12.0133 3.60303 9.02765 3.59973V3.59973ZM12.5047 8.34571L11.0865 9.79729L11.4219 11.8527C11.4496 12.0228 11.3778 12.1937 11.2367 12.2929C11.0956 12.3923 10.9101 12.4023 10.7591 12.3189L9.02765 11.3629L7.29608 12.3188C7.14506 12.4022 6.95954 12.3921 6.81842 12.2929C6.67747 12.1935 6.6055 12.0226 6.63323 11.8525L6.96862 9.79713L5.55048 8.34555C5.43198 8.22508 5.39121 8.04841 5.44502 7.88822C5.49866 7.7282 5.63763 7.61168 5.80483 7.58663L7.74684 7.28999L8.61997 5.43365C8.70316 5.28698 8.8588 5.19634 9.02765 5.19634C9.19634 5.19634 9.35198 5.28698 9.43517 5.43365L10.3085 7.28999L12.2503 7.58663C12.4175 7.61168 12.5565 7.7282 12.6103 7.88838C12.6639 8.04841 12.6232 8.22508 12.5047 8.34555V8.34571Z" fill="#7C8497"/>
<path d="M17.2393 9.32335C17.1135 9.12625 17.1135 8.8741 17.2393 8.67683L17.8036 7.79844C18.0312 7.44345 18.0987 7.0092 17.9896 6.60197C17.8804 6.19491 17.6046 5.85245 17.2297 5.65864L16.3011 5.17956C16.0938 5.07162 15.9677 4.85391 15.9773 4.62055L16.0265 3.57768C16.0458 3.15645 15.8867 2.74642 15.5881 2.44813C15.2872 2.15395 14.8785 1.99607 14.4577 2.01123L13.4137 2.05952C13.1798 2.07073 12.9611 1.94465 12.8537 1.73717L12.3739 0.810154C12.1798 0.435723 11.8368 0.160338 11.4289 0.051239C11.0211 -0.0578603 10.5862 0.00954389 10.2305 0.236806L9.35126 0.799277C9.15385 0.925681 8.90083 0.925845 8.70326 0.799771L7.82386 0.236806C7.46817 0.00937911 7.03309 -0.0580251 6.62524 0.0510742C6.2174 0.160173 5.87425 0.435888 5.68032 0.810319L5.20067 1.73717C5.08992 1.94152 4.87354 2.06628 4.64081 2.05969L3.59669 2.01123C3.17581 1.99508 2.7668 2.15313 2.46641 2.44813C2.16783 2.74642 2.00872 3.15661 2.02803 3.57801L2.07738 4.61973C2.08712 4.85309 1.96085 5.07129 1.75338 5.1794L0.824958 5.65848C0.449958 5.85228 0.174155 6.19491 0.0650548 6.60213C-0.0442102 7.00936 0.0232964 7.44362 0.250904 7.79877L0.81522 8.67617C0.941155 8.87344 0.941155 9.12559 0.81522 9.32269L0.250739 10.2016C0.0231314 10.5566 -0.0443752 10.9908 0.0648897 11.3981C0.17399 11.8051 0.449793 12.1476 0.824793 12.3414L1.75338 12.8203C1.96069 12.9282 2.08679 13.1461 2.07738 13.3793L2.02803 14.4222C2.00855 14.8432 2.1675 15.2529 2.46591 15.5511C2.76433 15.849 3.17481 16.0079 3.59652 15.9885L4.64048 15.9402C4.87354 15.9318 5.09091 16.057 5.20034 16.2627L5.68015 17.1899C5.87425 17.5645 6.21723 17.8398 6.62524 17.9489C7.03325 18.058 7.46817 17.9905 7.82386 17.763L8.70309 17.2006C8.90066 17.0742 9.15352 17.074 9.35109 17.2001L10.2305 17.763C10.586 17.9905 11.0211 18.0579 11.4291 17.9488C11.837 17.8397 12.1799 17.5641 12.374 17.1895L12.8537 16.2625C12.9676 16.0611 13.182 15.9375 13.4135 15.9398L14.4577 15.9883C14.8794 16.0077 15.2899 15.8489 15.5883 15.5507C15.8869 15.2526 16.0456 14.8426 16.026 14.4215L15.977 13.3801C15.9672 13.1466 16.0935 12.9284 16.301 12.8203L17.2294 12.3412C17.6044 12.1474 17.8802 11.8048 17.9895 11.3976C18.0987 10.9903 18.0312 10.5561 17.8034 10.2011L17.2393 9.32335ZM9.02726 15.3004C5.54233 15.3004 2.71729 12.4796 2.71729 9.00001C2.71729 5.52054 5.54233 2.69978 9.02726 2.69978C12.512 2.69978 15.3371 5.52054 15.3371 9.00001C15.3329 12.478 12.5104 15.2963 9.02726 15.3004V15.3004Z" fill="#7C8497"/>
</g>
<defs>
<clipPath id="clip0_1_72">
<rect width="18" height="18" fill="white"/>
</clipPath>
</defs>
</svg>
