<svg width="20" height="16" viewBox="0 0 20 16" fill="none" xmlns="http://www.w3.org/2000/svg">
<path d="M15.2888 12.6876L15.0004 11.9663L14.7119 12.6876L15.0004 13.4088L15.2888 12.6876Z" fill="#7C8497"/>
<path d="M7.5 13.9375C4.22594 13.9375 1.5625 11.2741 1.5625 8.00002C1.5625 6.68377 2.00781 5.39815 2.8125 4.36159V3.40784C1.61375 4.63002 0.9375 6.26846 0.9375 8.00002C0.9375 11.6185 3.88156 14.5625 7.5 14.5625H12.5C12.6044 14.5625 12.7081 14.5535 12.8125 14.5485V13.9291C12.7084 13.9344 12.6044 13.9375 12.5 13.9375H7.5Z" fill="#7C8497"/>
<path d="M13.4375 15.1875H16.5625V10.1875H13.4375V15.1875ZM14.0847 12.5716L14.7097 11.0091C14.7575 10.8903 14.8722 10.8125 15 10.8125C15.1278 10.8125 15.2425 10.8903 15.2903 11.0091L15.9153 12.5716C15.945 12.6459 15.945 12.7291 15.9153 12.8034L15.2903 14.3659C15.2425 14.4847 15.1278 14.5625 15 14.5625C14.8722 14.5625 14.7575 14.4847 14.7097 14.3659L14.0847 12.8034C14.0553 12.7291 14.0553 12.6459 14.0847 12.5716Z" fill="#7C8497"/>
<path d="M12.5 1.4375H7.5C7.39563 1.4375 7.29187 1.44656 7.1875 1.45156V2.07094C7.29156 2.06563 7.39594 2.0625 7.5 2.0625H12.5C15.7741 2.0625 18.4375 4.72594 18.4375 8C18.4375 9.31594 17.9925 10.6019 17.1875 11.6384V12.5916C18.3862 11.3697 19.0625 9.73156 19.0625 8C19.0625 4.38125 16.1184 1.4375 12.5 1.4375Z" fill="#7C8497"/>
<path d="M4.71191 3.31256L5.00035 4.03381L5.28879 3.31256L5.00035 2.59131L4.71191 3.31256Z" fill="#7C8497"/>
<path d="M6.5625 0.8125H3.4375V5.8125H6.5625V0.8125ZM5.91531 3.42875L5.29031 4.99125C5.2425 5.10969 5.12781 5.1875 5 5.1875C4.87219 5.1875 4.7575 5.10969 4.70969 4.99125L4.08469 3.42875C4.055 3.35406 4.055 3.27125 4.08469 3.19656L4.70969 1.63406C4.7575 1.51531 4.87219 1.4375 5 1.4375C5.12781 1.4375 5.2425 1.51531 5.29031 1.63375L5.91531 3.19625C5.94469 3.27094 5.94469 3.35406 5.91531 3.42875Z" fill="#7C8497"/>
<path d="M10.2888 8.00006L10.0004 7.27881L9.71191 8.00006L10.0004 8.72131L10.2888 8.00006Z" fill="#7C8497"/>
<path d="M8.4375 10.5H11.5625V5.5H8.4375V10.5ZM9.08469 7.88375L9.70969 6.32125C9.7575 6.20281 9.87219 6.125 10 6.125C10.1278 6.125 10.2425 6.20281 10.2903 6.32125L10.9153 7.88375C10.945 7.95844 10.945 8.04125 10.9153 8.11594L10.2903 9.67844C10.2425 9.79719 10.1278 9.875 10 9.875C9.87219 9.875 9.7575 9.79719 9.70969 9.67844L9.08469 8.11594C9.05531 8.04156 9.05531 7.95844 9.08469 7.88375V7.88375Z" fill="#7C8497"/>
<path d="M17.1875 10.4922C17.5925 9.72906 17.8125 8.87219 17.8125 8C17.8125 5.07063 15.4294 2.6875 12.5 2.6875H7.5C7.39531 2.6875 7.29187 2.69875 7.1875 2.70469V6.125C7.1875 6.2975 7.04781 6.4375 6.875 6.4375H3.125C2.95219 6.4375 2.8125 6.2975 2.8125 6.125V5.50781C2.4075 6.27125 2.1875 7.12781 2.1875 8C2.1875 10.9294 4.57063 13.3125 7.5 13.3125H12.5C12.605 13.3125 12.7081 13.3012 12.8125 13.2953V9.875C12.8125 9.70219 12.9522 9.5625 13.125 9.5625H16.875C17.0478 9.5625 17.1875 9.70219 17.1875 9.875V10.4922ZM12.1875 10.8125C12.1875 10.9853 12.0478 11.125 11.875 11.125H8.125C7.95219 11.125 7.8125 10.9853 7.8125 10.8125V5.1875C7.8125 5.015 7.95219 4.875 8.125 4.875H11.875C12.0478 4.875 12.1875 5.015 12.1875 5.1875V10.8125Z" fill="#7C8497"/>
</svg>
