<svg width="16" height="16" viewBox="0 0 16 16" fill="none" xmlns="http://www.w3.org/2000/svg">
<g clip-path="url(#clip0_1_116)">
<path d="M8 0C3.58167 0 0 3.58167 0 8C0 12.4183 3.58167 16 8 16C12.4183 16 16 12.4183 16 8C15.995 3.58374 12.4163 0.00500487 8 0ZM8 15.4667C3.87622 15.4667 0.533325 12.1238 0.533325 8C0.533325 3.87622 3.87622 0.533325 8 0.533325C12.1238 0.533325 15.4667 3.87622 15.4667 8C15.4619 12.1218 12.1218 15.4619 8 15.4667Z" fill="#A0A0B0"/>
<path d="M8.80029 10.4C8.79883 10.0621 8.58545 9.76172 8.26697 9.64905V9.02881C8.64038 8.93164 8.93188 8.64014 9.02905 8.26672H9.64929C9.77917 8.63403 10.1548 8.85437 10.5388 8.78845C10.9229 8.72253 11.2036 8.38965 11.2036 8C11.2036 7.61035 10.9229 7.27747 10.5388 7.21155C10.1548 7.14563 9.77917 7.36597 9.64929 7.73328H9.02905C8.93188 7.35986 8.64038 7.06836 8.26697 6.97119V6.35095C8.63428 6.22107 8.85461 5.84546 8.7887 5.46143C8.72278 5.07739 8.38989 4.79663 8.00024 4.79663C7.6106 4.79663 7.27771 5.07739 7.21179 5.46143C7.14587 5.84546 7.36621 6.22107 7.73352 6.35095V6.97119C7.36011 7.06836 7.0686 7.35986 6.97144 7.73328H6.3512C6.22131 7.36597 5.8457 7.14563 5.46167 7.21155C5.07764 7.27747 4.79688 7.61035 4.79688 8C4.79688 8.38965 5.07764 8.72253 5.46167 8.78845C5.8457 8.85437 6.22131 8.63403 6.3512 8.26672H6.97144C7.0686 8.64014 7.36011 8.93164 7.73352 9.02881V9.64905C7.35107 9.78528 7.13159 10.187 7.22375 10.5825C7.3158 10.978 7.69006 11.2415 8.09338 11.1948C8.49683 11.1481 8.80103 10.8062 8.80029 10.4ZM10.4003 7.73328C10.5475 7.73328 10.6669 7.85278 10.6669 8C10.6669 8.14722 10.5475 8.26672 10.4003 8.26672C10.2529 8.26672 10.1335 8.14722 10.1335 8C10.1335 7.85278 10.2529 7.73328 10.4003 7.73328ZM8.00024 5.33337C8.14746 5.33337 8.26697 5.45276 8.26697 5.59998C8.26697 5.74731 8.14746 5.8667 8.00024 5.8667C7.85303 5.8667 7.73352 5.74731 7.73352 5.59998C7.73352 5.45276 7.85303 5.33337 8.00024 5.33337ZM5.60022 8.26672C5.453 8.26672 5.33362 8.14722 5.33362 8C5.33362 7.85278 5.453 7.73328 5.60022 7.73328C5.74756 7.73328 5.86694 7.85278 5.86694 8C5.86694 8.14722 5.74756 8.26672 5.60022 8.26672ZM7.46692 8C7.46692 7.70544 7.70569 7.46667 8.00024 7.46667C8.2948 7.46667 8.53357 7.70544 8.53357 8C8.53357 8.29456 8.2948 8.53333 8.00024 8.53333C7.70569 8.53333 7.46692 8.29456 7.46692 8ZM7.73352 10.4C7.73352 10.2527 7.85303 10.1333 8.00024 10.1333C8.14746 10.1333 8.26697 10.2527 8.26697 10.4C8.26697 10.5472 8.14746 10.6666 8.00024 10.6666C7.85303 10.6666 7.73352 10.5472 7.73352 10.4Z" fill="#A0A0B0"/>
<path d="M13.559 3.86084C13.1564 3.32178 12.6782 2.84375 12.1392 2.44128L12.136 2.43835H12.1344C9.68127 0.610229 6.31873 0.610229 3.8656 2.43835H3.86401L3.86084 2.44128C3.32178 2.84363 2.84363 3.32178 2.44128 3.86084L2.43835 3.86401V3.8656C0.610229 6.31873 0.610229 9.68127 2.43835 12.1344V12.136C2.44031 12.1392 2.44324 12.1416 2.44531 12.145L2.4491 12.1499C2.45911 12.1656 2.47058 12.1804 2.48352 12.1938C2.87695 12.7106 3.34058 13.1699 3.86084 13.5587L3.86401 13.5616H3.86584C6.31885 15.3895 9.68115 15.3895 12.1342 13.5616H12.136L12.1392 13.5587C12.6594 13.1699 13.123 12.7106 13.5165 12.1938C13.5294 12.1804 13.5409 12.1656 13.5509 12.1499L13.5547 12.145C13.5568 12.1416 13.5597 12.1392 13.5616 12.136V12.1344C15.3898 9.68127 15.3898 6.31873 13.5616 3.8656V3.86401L13.559 3.86084ZM13.9979 10.2312L12.5867 9.4165C12.6222 9.30212 12.6501 9.18457 12.6768 9.06665H14.3093C14.2428 9.46387 14.1384 9.85376 13.9979 10.2312ZM13.2533 11.6499L11.8579 10.8448C12.0709 10.5582 12.2513 10.2488 12.3958 9.92212L13.7891 10.7264C13.6365 11.0486 13.4573 11.3574 13.2533 11.6499ZM10.7269 13.7886L9.92261 12.3951C10.2493 12.2509 10.5588 12.0704 10.8453 11.8573L11.6499 13.2533C11.3574 13.457 11.0486 13.6361 10.7264 13.7886H10.7269ZM4.3501 13.2533L5.15515 11.8579C5.44177 12.0709 5.75122 12.2513 6.07788 12.3958L5.27356 13.7891C4.95142 13.6365 4.64258 13.4573 4.3501 13.2533ZM2.21143 10.7269L3.60486 9.92261C3.74915 10.2493 3.92957 10.5588 4.1427 10.8453L2.7467 11.6499C2.54297 11.3574 2.36389 11.0486 2.21143 10.7264V10.7269ZM2.00208 5.7688L3.41333 6.5835C3.37781 6.69788 3.34985 6.81543 3.32324 6.93335H1.69067C1.7572 6.53613 1.86157 6.14624 2.00208 5.7688ZM2.74719 4.3501L4.1427 5.15515C3.92957 5.44177 3.74915 5.75122 3.60486 6.07788L2.21143 5.27356C2.36389 4.95142 2.54297 4.64258 2.7467 4.3501H2.74719ZM5.27356 2.21143L6.07788 3.60486C5.75122 3.74915 5.44177 3.92957 5.15515 4.1427L4.3501 2.7467C4.64258 2.54297 4.95142 2.36389 5.27356 2.21143ZM6.5835 3.41333L5.7688 2.00208C6.14624 1.86157 6.53613 1.7572 6.93335 1.69067V3.32373C6.81543 3.35034 6.69788 3.37842 6.5835 3.41333ZM3.23145 7.46667C3.18945 7.82104 3.18945 8.17896 3.23145 8.53333H1.62402C1.60938 8.3573 1.59998 8.17969 1.59998 8C1.59998 7.82031 1.60938 7.6427 1.62402 7.46667H3.23145ZM1.69067 9.06665H3.32373C3.35034 9.18457 3.37842 9.30212 3.41382 9.4165L2.00208 10.2312C1.86157 9.85376 1.7572 9.46387 1.69067 9.06665ZM6.5835 12.5867C6.69788 12.6222 6.81543 12.6501 6.93335 12.6768V14.3093C6.53613 14.2428 6.14624 14.1384 5.7688 13.9979L6.5835 12.5867ZM3.73328 8C3.73267 7.00208 4.0835 6.03577 4.72424 5.27063C4.72852 5.26672 4.73169 5.26208 4.73572 5.25818C5.54443 4.29175 6.73987 3.7334 8 3.7334C9.26013 3.7334 10.4556 4.29175 11.2643 5.25818C11.2683 5.26208 11.2715 5.26672 11.2758 5.27063C12.483 6.71729 12.5985 8.78467 11.5597 10.3567C10.521 11.9287 8.57397 12.6333 6.76978 12.09C4.96558 11.5468 3.73132 9.88428 3.73328 8ZM11.6499 2.7467L10.8448 4.14209C10.5582 3.92908 10.2488 3.74866 9.92212 3.60425L10.7264 2.21094C11.0486 2.36353 11.3574 2.54272 11.6499 2.7467ZM9.4165 3.41333C9.30212 3.37781 9.18457 3.34985 9.06665 3.32324V1.69067C9.46387 1.7572 9.85376 1.86157 10.2312 2.00208L9.4165 3.41333ZM9.4165 12.5867L10.2312 13.9984C9.85376 14.1388 9.46387 14.2429 9.06665 14.3093V12.6763C9.18457 12.6497 9.30212 12.6216 9.4165 12.5867ZM12.7686 8.53333C12.8105 8.17896 12.8105 7.82104 12.7686 7.46667H14.376C14.3906 7.6427 14.4 7.82031 14.4 8C14.4 8.17969 14.3906 8.3573 14.376 8.53333H12.7686ZM14.3093 6.93335H12.6763C12.6497 6.81543 12.6229 6.69788 12.5862 6.5835L13.9979 5.7688C14.1384 6.14624 14.2428 6.53613 14.3093 6.93335ZM12.3951 6.07788C12.2509 5.75122 12.0704 5.44177 11.8573 5.15515L13.2533 4.3501C13.4573 4.64258 13.6365 4.95142 13.7891 5.27356L12.3951 6.07788ZM12.9286 3.92163L11.5117 4.73865C11.4312 4.65186 11.3478 4.56848 11.2614 4.48828L12.0784 3.07178C12.3875 3.328 12.672 3.61255 12.9282 3.92163H12.9286ZM8.53333 1.62402V3.23145C8.17896 3.18945 7.82104 3.18945 7.46667 3.23145V1.62402C7.6427 1.60938 7.82031 1.59998 8 1.59998C8.17969 1.59998 8.3573 1.60938 8.53333 1.62402ZM3.92163 3.07178L4.73865 4.48828C4.65186 4.56885 4.56848 4.65222 4.48828 4.73865L3.07178 3.92163C3.328 3.61255 3.61255 3.328 3.92163 3.07178ZM3.07178 12.0784L4.48828 11.2614C4.56885 11.3481 4.65222 11.4315 4.73865 11.5117L3.92163 12.9282C3.61255 12.672 3.328 12.3875 3.07178 12.0784ZM7.46667 14.376V12.7686C7.82104 12.8105 8.17896 12.8105 8.53333 12.7686V14.376C8.3573 14.3906 8.17969 14.4 8 14.4C7.82031 14.4 7.6427 14.3906 7.46667 14.376ZM12.0784 12.9282L11.2614 11.5117C11.3481 11.4312 11.4315 11.3478 11.5117 11.2614L12.9282 12.0784C12.672 12.3875 12.3875 12.672 12.0784 12.9282Z" fill="#A0A0B0"/>
</g>
<defs>
<clipPath id="clip0_1_116">
<rect width="16" height="16" fill="white"/>
</clipPath>
</defs>
</svg>
