<svg width="17" height="15" viewBox="0 0 17 15" fill="none" xmlns="http://www.w3.org/2000/svg">
<path d="M17 5.05875C17.0036 6.37257 16.4875 7.63544 15.5625 8.57638C15.5503 8.59687 15.5355 8.61574 15.5185 8.63254L9.51034 14.5888C9.37883 14.7192 9.22271 14.8226 9.05089 14.8931C8.87907 14.9637 8.69491 15 8.50893 15C8.32295 15 8.13879 14.9637 7.96697 14.8931C7.79515 14.8226 7.63903 14.7192 7.50752 14.5888L1.49893 8.63254C0.784221 7.92671 0.297003 7.02642 0.0990422 6.04577C-0.098919 5.06513 0.00129096 4.04829 0.386969 3.12417C0.772647 2.20005 1.42643 1.41026 2.26543 0.854913C3.10443 0.299566 4.09087 0.00367252 5.09971 0.00474233H5.10396C6.27692 0.00548901 7.41389 0.406399 8.32385 1.14012C8.37449 1.18082 8.4377 1.20303 8.50289 1.20303C8.56809 1.20303 8.6313 1.18082 8.68194 1.14012C9.42897 0.534735 10.3341 0.152127 11.2919 0.0368261C12.2498 -0.0784751 13.2209 0.0782729 14.0924 0.488826C14.9639 0.89938 15.6998 1.54685 16.2146 2.35589C16.7293 3.16492 17.0017 4.10224 17 5.05875V5.05875Z" fill="#A0A0B0"/>
</svg>
