<svg width="18" height="18" viewBox="0 0 18 18" fill="none" xmlns="http://www.w3.org/2000/svg">
<path d="M9.59667 7.88995L9.02888 6.68359L8.46094 7.88995C8.39739 8.02607 8.26981 8.12117 8.12109 8.14358L6.80859 8.34398L7.77349 9.33147C7.87351 9.43365 7.91907 9.57719 7.8958 9.71827L7.67314 11.0832L8.81035 10.4553C8.94619 10.3803 9.11125 10.3803 9.24708 10.4553L10.3843 11.0832L10.1616 9.71827C10.1385 9.57719 10.1839 9.43365 10.2839 9.33147L11.2488 8.34398L9.93634 8.14358C9.7878 8.12117 9.66021 8.02607 9.59667 7.88995Z" fill="#A0A0B0"/>
<path d="M9.02954 3.59961C6.04242 3.59961 3.62109 6.01743 3.62109 8.99986C3.62109 11.9824 6.04242 14.4001 9.02954 14.4001C12.0165 14.4001 14.438 11.9824 14.438 8.99986C14.4347 6.01874 12.0152 3.60291 9.02954 3.59961ZM12.5065 8.34559L11.0884 9.79717L11.4238 11.8526C11.4515 12.0227 11.3797 12.1936 11.2386 12.2928C11.0975 12.3921 10.912 12.4022 10.7609 12.3188L9.02954 11.3628L7.29798 12.3186C7.14695 12.402 6.96143 12.392 6.82031 12.2928C6.67936 12.1934 6.60739 12.0225 6.63512 11.8524L6.97051 9.797L5.55238 8.34542C5.43387 8.22495 5.3931 8.04829 5.44691 7.8881C5.50055 7.72808 5.63952 7.61156 5.80672 7.58651L7.74873 7.28987L8.62186 5.43353C8.70505 5.28686 8.8607 5.19622 9.02954 5.19622C9.19823 5.19622 9.35387 5.28686 9.43706 5.43353L10.3104 7.28987L12.2522 7.58651C12.4194 7.61156 12.5584 7.72808 12.6122 7.88826C12.6658 8.04829 12.6251 8.22495 12.5065 8.34542V8.34559Z" fill="#A0A0B0"/>
<path d="M17.2412 9.32335C17.1154 9.12625 17.1154 8.8741 17.2412 8.67683L17.8055 7.79844C18.0331 7.44345 18.1006 7.0092 17.9915 6.60197C17.8823 6.19491 17.6064 5.85245 17.2316 5.65864L16.303 5.17956C16.0957 5.07162 15.9696 4.85391 15.9792 4.62055L16.0284 3.57768C16.0477 3.15645 15.8886 2.74642 15.59 2.44813C15.2891 2.15395 14.8804 1.99607 14.4596 2.01123L13.4156 2.05952C13.1817 2.07073 12.963 1.94465 12.8556 1.73717L12.3758 0.810154C12.1817 0.435723 11.8387 0.160338 11.4308 0.051239C11.023 -0.0578603 10.5881 0.00954389 10.2324 0.236806L9.35315 0.799277C9.15574 0.925681 8.90272 0.925845 8.70515 0.799771L7.82575 0.236806C7.47006 0.00937911 7.03498 -0.0580251 6.62714 0.0510742C6.21929 0.160173 5.87615 0.435888 5.68221 0.810319L5.20257 1.73717C5.09181 1.94152 4.87543 2.06628 4.64271 2.05969L3.59858 2.01123C3.1777 1.99508 2.7687 2.15313 2.4683 2.44813C2.16972 2.74642 2.01061 3.15661 2.02992 3.57801L2.07927 4.61973C2.08901 4.85309 1.96274 5.07129 1.75527 5.1794L0.82685 5.65848C0.45185 5.85228 0.176047 6.19491 0.0669469 6.60213C-0.0423181 7.00936 0.0251885 7.44362 0.252796 7.79877L0.817112 8.67617C0.943047 8.87344 0.943047 9.12559 0.817112 9.32269L0.252631 10.2016C0.0250235 10.5566 -0.0424831 10.9908 0.0667818 11.3981C0.175882 11.8051 0.451685 12.1476 0.826685 12.3414L1.75527 12.8203C1.96258 12.9282 2.08868 13.1461 2.07927 13.3793L2.02992 14.4222C2.01044 14.8432 2.16939 15.2529 2.46781 15.5511C2.76622 15.849 3.17671 16.0079 3.59842 15.9885L4.64238 15.9402C4.87543 15.9318 5.0928 16.057 5.20223 16.2627L5.68204 17.1899C5.87615 17.5645 6.21913 17.8398 6.62714 17.9489C7.03515 18.058 7.47006 17.9905 7.82575 17.7631L8.70499 17.2006C8.90255 17.0742 9.15541 17.074 9.35298 17.2001L10.2324 17.7631C10.5879 17.9905 11.023 18.0579 11.431 17.9488C11.8388 17.8397 12.1818 17.5641 12.3759 17.1895L12.8556 16.2625C12.9695 16.0611 13.1839 15.9375 13.4154 15.9398L14.4596 15.9883C14.8813 16.0077 15.2917 15.8489 15.5902 15.5507C15.8887 15.2526 16.0475 14.8426 16.0279 14.4215L15.9789 13.3801C15.9691 13.1466 16.0954 12.9284 16.3029 12.8203L17.2313 12.3412C17.6063 12.1474 17.8821 11.8048 17.9914 11.3976C18.1006 10.9903 18.0331 10.5561 17.8053 10.2011L17.2412 9.32335ZM9.02915 15.3004C5.54422 15.3004 2.71918 12.4796 2.71918 9.00001C2.71918 5.52054 5.54422 2.69978 9.02915 2.69978C12.5139 2.69978 15.339 5.52054 15.339 9.00001C15.3348 12.478 12.5123 15.2963 9.02915 15.3004Z" fill="#A0A0B0"/>
</svg>
