<svg width="18" height="18" viewBox="0 0 18 18" fill="none" xmlns="http://www.w3.org/2000/svg">
<path d="M9.12872 6.16641C9.50697 5.78642 9.9807 5.51547 10.5 5.38209V1.5C10.5 1.10218 10.342 0.720644 10.0607 0.43934C9.77936 0.158035 9.39782 0 9 0L2.25 0C1.85218 0 1.47064 0.158035 1.18934 0.43934C0.908035 0.720644 0.75 1.10218 0.75 1.5V8.25C0.75 8.64782 0.908035 9.02936 1.18934 9.31066C1.47064 9.59196 1.85218 9.75 2.25 9.75H5.54513L9.12872 6.16641ZM7.5 2.25C7.64834 2.25 7.79334 2.29399 7.91668 2.3764C8.04001 2.45881 8.13614 2.57594 8.19291 2.71299C8.24968 2.85003 8.26453 3.00083 8.23559 3.14632C8.20665 3.2918 8.13522 3.42544 8.03033 3.53033C7.92544 3.63522 7.7918 3.70665 7.64632 3.73559C7.50083 3.76453 7.35003 3.74968 7.21299 3.69291C7.07594 3.63614 6.95881 3.54001 6.8764 3.41668C6.79399 3.29334 6.75 3.14834 6.75 3C6.75 2.80109 6.82902 2.61032 6.96967 2.46967C7.11032 2.32902 7.30109 2.25 7.5 2.25ZM7.5 5.25C7.64834 5.25 7.79334 5.29399 7.91668 5.3764C8.04001 5.45881 8.13614 5.57594 8.19291 5.71299C8.24968 5.85003 8.26453 6.00083 8.23559 6.14632C8.20665 6.2918 8.13522 6.42544 8.03033 6.53033C7.92544 6.63522 7.7918 6.70665 7.64632 6.73559C7.50083 6.76453 7.35003 6.74968 7.21299 6.69291C7.07594 6.63614 6.95881 6.54001 6.8764 6.41668C6.79399 6.29334 6.75 6.14834 6.75 6C6.75 5.80109 6.82902 5.61032 6.96967 5.46967C7.11032 5.32902 7.30109 5.25 7.5 5.25ZM3.75 2.25C3.89834 2.25 4.04334 2.29399 4.16668 2.3764C4.29001 2.45881 4.38614 2.57594 4.44291 2.71299C4.49968 2.85003 4.51453 3.00083 4.48559 3.14632C4.45665 3.2918 4.38522 3.42544 4.28033 3.53033C4.17544 3.63522 4.0418 3.70665 3.89632 3.73559C3.75083 3.76453 3.60003 3.74968 3.46299 3.69291C3.32594 3.63614 3.20881 3.54001 3.1264 3.41668C3.04399 3.29334 3 3.14834 3 3C3 2.80109 3.07902 2.61032 3.21967 2.46967C3.36032 2.32902 3.55109 2.25 3.75 2.25ZM3.75 7.5C3.60166 7.5 3.45666 7.45601 3.33332 7.3736C3.20999 7.29119 3.11386 7.17406 3.05709 7.03701C3.00032 6.89997 2.98547 6.74917 3.01441 6.60368C3.04335 6.4582 3.11478 6.32456 3.21967 6.21967C3.32456 6.11478 3.4582 6.04335 3.60368 6.01441C3.74917 5.98547 3.89997 6.00032 4.03701 6.05709C4.17406 6.11386 4.29119 6.20999 4.3736 6.33332C4.45601 6.45666 4.5 6.60166 4.5 6.75C4.5 6.94891 4.42098 7.13968 4.28033 7.28033C4.13968 7.42098 3.94891 7.5 3.75 7.5Z" fill="#A0A0B0"/>
<path d="M16.5546 10.4095L12.7169 6.57162C12.59 6.44431 12.4412 6.34087 12.2777 6.26628C11.3279 5.83568 10.3235 6.03387 9.66044 6.69753L5.8226 10.5349C5.69528 10.6618 5.59185 10.8106 5.51725 10.9741C5.08666 11.9239 5.28485 12.9282 5.9485 13.5913L9.78625 17.4292C9.91315 17.5565 10.0619 17.6599 10.2255 17.7345C11.1753 18.1651 12.1796 17.9669 12.8427 17.3033L16.6805 13.4655C16.8079 13.3386 16.9113 13.1899 16.9859 13.0263C17.4161 12.0769 17.2179 11.0723 16.5546 10.4095ZM11.2514 12.7504C11.103 12.7504 10.958 12.7064 10.8347 12.624C10.7114 12.5416 10.6152 12.4245 10.5585 12.2874C10.5017 12.1504 10.4869 11.9996 10.5158 11.8541C10.5447 11.7086 10.6162 11.575 10.721 11.4701C10.8259 11.3652 10.9596 11.2938 11.1051 11.2648C11.2505 11.2359 11.4013 11.2507 11.5384 11.3075C11.6754 11.3643 11.7926 11.4604 11.875 11.5837C11.9574 11.7071 12.0014 11.8521 12.0014 12.0004C12.0014 12.1993 11.9224 12.3901 11.7817 12.5307C11.6411 12.6714 11.4503 12.7504 11.2514 12.7504Z" fill="#A0A0B0"/>
</svg>
