<svg width="20" height="20" viewBox="0 0 20 20" fill="none" xmlns="http://www.w3.org/2000/svg">
<path d="M8.47135 7.64323C8.44976 7.46269 8.3907 7.28866 8.29794 7.13228C8.20518 6.9759 8.08078 6.84062 7.9327 6.73511C7.76515 6.61465 7.56576 6.54636 7.35954 6.53879C7.15332 6.53122 6.94946 6.58473 6.77353 6.69258C6.54612 6.83167 6.34536 7.01023 6.1807 7.21988C6.01602 7.01026 5.81527 6.8317 5.58788 6.69258C5.41194 6.58473 5.20807 6.53123 5.00184 6.53879C4.79561 6.54636 4.59621 6.61465 4.42864 6.73511C4.28057 6.84063 4.15618 6.97591 4.06342 7.13229C3.97066 7.28867 3.91159 7.4627 3.89 7.64323C3.88643 7.66946 3.88341 7.69537 3.88094 7.72093C3.85612 8.01432 3.90938 8.30905 4.03531 8.5752C4.16124 8.84134 4.35535 9.06942 4.59794 9.23629C5.11894 9.60211 5.683 10.0801 5.9767 10.3359C6.03321 10.3852 6.10567 10.4124 6.18067 10.4124C6.25568 10.4124 6.32814 10.3852 6.38464 10.3359C6.67835 10.0801 7.24241 9.60211 7.76341 9.23629C8.00601 9.06944 8.20013 8.84136 8.32606 8.57521C8.45199 8.30906 8.50524 8.01432 8.48041 7.72093C8.47798 7.69537 8.47496 7.66946 8.47135 7.64323Z" fill="#A0A0B0"/>
<path d="M11.5677 15.6719V1.38193C11.5673 1.11058 11.4594 0.850436 11.2675 0.658561C11.0756 0.466687 10.8155 0.358741 10.5441 0.358398H1.8165C1.54515 0.358756 1.28502 0.466707 1.09315 0.658579C0.901277 0.85045 0.793327 1.11058 0.792969 1.38193V15.6719C0.793327 15.9433 0.901277 16.2034 1.09315 16.3953C1.28502 16.5871 1.54515 16.6951 1.8165 16.6955H10.544C10.8154 16.6952 11.0755 16.5872 11.2674 16.3954C11.4594 16.2035 11.5673 15.9433 11.5677 15.6719ZM1.2045 15.6719V1.38193C1.20473 1.21975 1.26926 1.06428 1.38394 0.949603C1.49862 0.834925 1.65408 0.770397 1.81626 0.770163H10.544C10.7061 0.770397 10.8616 0.834925 10.9763 0.949603C11.091 1.06428 11.1555 1.21975 11.1557 1.38193V15.6719C11.1555 15.8341 11.091 15.9896 10.9763 16.1043C10.8616 16.2189 10.7061 16.2835 10.544 16.2837H1.8165C1.65428 16.2835 1.49876 16.219 1.38404 16.1043C1.26931 15.9896 1.20475 15.8341 1.2045 15.6719Z" fill="#A0A0B0"/>
<path d="M18.7314 6.6337L12.2137 2.90023C12.196 2.89006 12.1759 2.88472 12.1554 2.88477C12.1349 2.88481 12.1149 2.89023 12.0972 2.90049C12.0794 2.91074 12.0648 2.92547 12.0545 2.94319C12.0443 2.96091 12.0389 2.98101 12.0389 3.00147V3.09859C12.039 3.1521 12.0531 3.20467 12.08 3.25096C12.1068 3.29725 12.1454 3.33564 12.1919 3.36223L18.5272 6.99111C18.6504 7.06164 18.7405 7.1782 18.7777 7.31516C18.815 7.45212 18.7963 7.59827 18.7258 7.72147L12.2937 18.9606C12.2233 19.0837 12.1069 19.1737 11.9702 19.2111C11.8335 19.2484 11.6875 19.23 11.5643 19.1599L8.25841 17.2457C8.16823 17.1935 8.06586 17.166 7.96165 17.166H7.72336C7.69828 17.166 7.6739 17.1743 7.654 17.1895C7.6341 17.2048 7.61978 17.2262 7.61328 17.2504C7.60677 17.2746 7.60843 17.3003 7.61801 17.3235C7.62758 17.3467 7.64453 17.3661 7.66624 17.3786L11.359 19.5167C11.577 19.6413 11.8356 19.6743 12.0779 19.6084C12.3202 19.5424 12.5264 19.383 12.6512 19.1652L19.0828 7.92594C19.2075 7.70796 19.2406 7.44937 19.1747 7.20704C19.1088 6.96471 18.9493 6.75848 18.7314 6.6337Z" fill="#A0A0B0"/>
<path d="M9.89077 17.1659C9.85698 17.1659 9.82414 17.1772 9.79743 17.1979C9.77071 17.2186 9.75162 17.2475 9.74315 17.2802C9.73468 17.313 9.73732 17.3476 9.75064 17.3786C9.76397 17.4097 9.78723 17.4354 9.81677 17.4518L11.3379 18.3022C11.4643 18.3745 11.6142 18.3936 11.7547 18.3554C11.8952 18.3172 12.0148 18.2247 12.0872 18.0984L17.8899 7.95941C17.9257 7.89682 17.9488 7.82779 17.958 7.75626C17.9671 7.68473 17.9621 7.6121 17.9431 7.54252C17.9242 7.47294 17.8917 7.40777 17.8476 7.35074C17.8035 7.2937 17.7485 7.24592 17.6859 7.21012L12.4751 4.22865C12.4312 4.20389 12.3816 4.19105 12.3313 4.19141C12.2809 4.19178 12.2315 4.20533 12.188 4.23072C12.1445 4.25611 12.1085 4.29245 12.0834 4.33613C12.0583 4.3798 12.0451 4.42928 12.0451 4.47965L12.0382 15.6716C12.0382 16.0679 11.8808 16.4479 11.6006 16.7281C11.3204 17.0083 10.9404 17.1657 10.5441 17.1657L9.89077 17.1659Z" fill="#A0A0B0"/>
<path d="M3.65599 3.30497C3.30075 2.63073 3.09522 1.86279 3.04493 1.66191C3.04592 1.61455 3.03055 1.56831 3.00141 1.53096C2.97228 1.49362 2.93116 1.46747 2.88499 1.45691C2.85245 1.44926 2.81858 1.44926 2.78604 1.45691C2.73986 1.46747 2.69873 1.49363 2.6696 1.53099C2.64046 1.56834 2.6251 1.6146 2.6261 1.66197C2.57581 1.86285 2.3704 2.63073 2.01504 3.30497C1.96113 3.30679 1.9101 3.32973 1.87294 3.36884C1.83579 3.40795 1.8155 3.46009 1.81644 3.51402C1.81738 3.56796 1.83948 3.61936 1.87798 3.65715C1.91647 3.69494 1.96828 3.71608 2.02222 3.71602H2.3191C2.36121 3.71619 2.40235 3.70339 2.43693 3.67936C2.47151 3.65533 2.49786 3.62124 2.51238 3.58172C2.52691 3.54219 2.52892 3.49915 2.51814 3.45845C2.50735 3.41774 2.4843 3.38135 2.4521 3.3542C2.48175 3.29397 2.51022 3.23363 2.53751 3.1732H3.13351C3.16097 3.23348 3.18944 3.29381 3.21893 3.3542C3.18673 3.38135 3.16367 3.41775 3.15289 3.45846C3.14211 3.49917 3.14412 3.54222 3.15866 3.58174C3.17319 3.62127 3.19954 3.65536 3.23413 3.67939C3.26872 3.70341 3.30987 3.7162 3.35199 3.71602H3.64887C3.70281 3.71607 3.7546 3.69491 3.79308 3.65712C3.83157 3.61933 3.85366 3.56793 3.85459 3.514C3.85552 3.46007 3.83523 3.40793 3.79808 3.36883C3.76092 3.32973 3.70989 3.30679 3.65599 3.30497ZM2.66281 2.82608C2.72751 2.65767 2.78499 2.49561 2.83551 2.34467C2.8861 2.49561 2.94369 2.65767 3.00822 2.82608H2.66281Z" fill="#A0A0B0"/>
<path d="M10.3403 13.3359H10.0434C10.0013 13.3358 9.96014 13.3486 9.92556 13.3726C9.89098 13.3966 9.86464 13.4307 9.85011 13.4702C9.83558 13.5098 9.83357 13.5528 9.84436 13.5935C9.85514 13.6342 9.8782 13.6706 9.91039 13.6978C9.88074 13.758 9.85225 13.8183 9.82492 13.8788H9.22898C9.20153 13.8184 9.17304 13.7581 9.14351 13.6978C9.1757 13.6706 9.19875 13.6342 9.20954 13.5935C9.22032 13.5528 9.21832 13.5098 9.20379 13.4702C9.18926 13.4307 9.16292 13.3966 9.12834 13.3726C9.09376 13.3486 9.05262 13.3358 9.01051 13.3359H8.71357C8.65963 13.3359 8.60783 13.3571 8.56935 13.3948C8.53087 13.4326 8.50878 13.484 8.50784 13.538C8.50691 13.5919 8.52721 13.644 8.56436 13.6831C8.60151 13.7222 8.65254 13.7452 8.70645 13.747C9.06174 14.4212 9.26721 15.1891 9.31751 15.39C9.31652 15.4374 9.33189 15.4836 9.36102 15.5209C9.39016 15.5583 9.43128 15.5844 9.47745 15.595C9.50999 15.6026 9.54385 15.6026 9.57639 15.595C9.62256 15.5844 9.66368 15.5583 9.69282 15.5209C9.72195 15.4836 9.73732 15.4374 9.73633 15.39C9.78663 15.1891 9.99204 14.4212 10.3474 13.747C10.4013 13.7452 10.4523 13.7222 10.4895 13.6831C10.5266 13.644 10.5469 13.5919 10.546 13.5379C10.5451 13.484 10.523 13.4326 10.4845 13.3948C10.446 13.357 10.3942 13.3359 10.3402 13.3359H10.3403ZM9.52698 14.7073C9.47639 14.5564 9.4188 14.3942 9.35427 14.2259H9.69968C9.63515 14.3942 9.57751 14.5564 9.52698 14.7073Z" fill="#A0A0B0"/>
</svg>
