<svg width="19" height="19" viewBox="0 0 19 19" fill="none" xmlns="http://www.w3.org/2000/svg">
<g clip-path="url(#clip0_1_78)">
<path d="M9.41391 10.2748L12.9764 12.9467C13.2388 13.1435 13.6108 13.0904 13.8077 12.828C14.0045 12.5655 13.9513 12.1935 13.6889 11.9967L10.3906 9.5V4.45312C10.3906 4.12508 10.1249 3.85938 9.79688 3.85938C9.46883 3.85938 9.20312 4.12508 9.20312 4.45312V9.79688C9.20312 9.994 9.28566 10.1715 9.41391 10.2748Z" fill="#A0A0B0"/>
<path d="M10.0938 0.59375C5.74782 0.59375 2.03658 3.73053 1.31221 8.01562L1.08658 7.68016C0.902818 7.40792 0.533505 7.33608 0.261271 7.51984C-0.0109632 7.70361 -0.082807 8.07292 0.100959 8.34516L1.28846 10.1264C1.38613 10.2748 1.54526 10.3719 1.7219 10.3906H1.78127C1.93861 10.39 2.08913 10.3271 2.19986 10.2155L3.68424 8.73109C3.9161 8.49923 3.9161 8.1228 3.68424 7.89094C3.45238 7.65908 3.07594 7.65908 2.84408 7.89094L2.47596 8.26203C3.15966 4.05412 7.12502 1.19759 11.3326 1.8813C15.5402 2.565 18.3974 6.53006 17.7137 10.738C17.1066 14.4744 13.8792 17.2193 10.0938 17.2187C7.7063 17.2621 5.44827 16.1357 4.04643 14.2025C3.85613 13.9353 3.48533 13.8727 3.21815 14.063C2.95096 14.2533 2.88832 14.6241 3.07861 14.8912C4.70193 17.1392 7.32155 18.4517 10.0938 18.4062C15.0127 18.4062 19 14.4189 19 9.5C19 4.58108 15.0127 0.59375 10.0938 0.59375Z" fill="#A0A0B0"/>
</g>
<defs>
<clipPath id="clip0_1_78">
<rect width="19" height="19" fill="white"/>
</clipPath>
</defs>
</svg>
