<svg width="20" height="20" viewBox="0 0 20 20" fill="none" xmlns="http://www.w3.org/2000/svg">
<path d="M10 0L12.1412 2.70785L15.4064 1.58746L15.7437 5.02306L19.0963 5.84585L17.5226 8.91841L19.8982 11.4231L16.9132 13.1572L17.5575 16.5486L14.1089 16.3935L12.8173 19.5949L10 17.6L7.18267 19.5949L5.89113 16.3935L2.4425 16.5486L3.0868 13.1572L0.101786 11.4231L2.47736 8.91841L0.90368 5.84585L4.2563 5.02306L4.59359 1.58746L7.85883 2.70785L10 0Z" fill="#4D4D5B"/>
<path d="M8.30318 12H7.62518L5.53718 9.144V12H4.83518V7.998H5.55518L7.60118 10.776V7.998H8.30318V12ZM10.4735 12.072C10.0335 12.072 9.66954 11.932 9.38154 11.652C9.09754 11.368 8.95554 11 8.95554 10.548C8.95554 10.124 9.09354 9.766 9.36954 9.474C9.64954 9.178 10.0015 9.03 10.4255 9.03C10.8535 9.03 11.1975 9.178 11.4575 9.474C11.7215 9.77 11.8535 10.148 11.8535 10.608V10.758H9.61554C9.63954 10.986 9.73354 11.176 9.89754 11.328C10.0615 11.48 10.2755 11.556 10.5395 11.556C10.6875 11.556 10.8355 11.528 10.9835 11.472C11.1355 11.416 11.2615 11.338 11.3615 11.238L11.6495 11.652C11.3575 11.932 10.9655 12.072 10.4735 12.072ZM11.2415 10.314C11.2335 10.114 11.1595 9.936 11.0195 9.78C10.8835 9.624 10.6855 9.546 10.4255 9.546C10.1775 9.546 9.98354 9.624 9.84354 9.78C9.70354 9.932 9.62554 10.11 9.60954 10.314H11.2415ZM15.6614 12H15.0014L14.3294 9.876L13.6574 12H12.9974L12.0974 9.102H12.7514L13.3634 11.208L14.0534 9.102H14.6054L15.2954 11.208L15.9074 9.102H16.5614L15.6614 12Z" fill="white"/>
</svg>
