<svg width="19" height="13" viewBox="0 0 19 13" fill="none" xmlns="http://www.w3.org/2000/svg">
<path d="M13.6427 0.562388C13.1941 0.549694 12.7474 0.626459 12.3288 0.788205C11.9101 0.949952 11.5279 1.19344 11.2043 1.50447C10.9884 1.71381 10.733 1.87827 10.4531 1.98834C10.1732 2.0984 9.87423 2.1519 9.57351 2.14572H9.44684C9.14304 2.15552 8.84038 2.10415 8.55682 1.99467C8.27327 1.88519 8.01461 1.71984 7.79622 1.50843C7.19059 0.894888 6.33163 0.601971 5.12038 0.594054H5.09663C4.73074 0.595808 4.36896 0.671384 4.03297 0.816257C3.69697 0.96113 3.39367 1.17232 3.14122 1.43718C0.817674 3.72905 0.789965 10.1851 0.789965 10.4582C0.782748 10.7261 0.818837 10.9935 0.89684 11.2499C1.03699 11.6068 1.28336 11.9121 1.60263 12.1245C1.9219 12.3369 2.29869 12.4461 2.68205 12.4374H3.24017C3.51828 12.4368 3.79253 12.3722 4.04169 12.2487C4.29085 12.1251 4.50824 11.9459 4.67705 11.7249L5.75767 10.7076C6.70591 9.81247 7.95242 9.3008 9.25609 9.27155C10.5598 9.24231 11.828 9.69756 12.8154 10.5493L14.3552 11.8753C14.5211 12.0524 14.7216 12.1936 14.9442 12.2903C15.1668 12.387 15.4069 12.437 15.6495 12.4374H16.37C16.672 12.4425 16.9706 12.373 17.2392 12.2348C17.5079 12.0967 17.7382 11.8944 17.9098 11.6457C18.1068 11.2811 18.2089 10.8727 18.2066 10.4582C18.2066 10.1811 18.1789 3.87551 15.792 1.4926C15.5154 1.20008 15.1823 0.966802 14.8128 0.806902C14.4434 0.647003 14.0453 0.563816 13.6427 0.562388ZM6.72747 4.91655H5.9358V5.70822C5.9358 5.8132 5.89409 5.91388 5.81986 5.98812C5.74563 6.06235 5.64495 6.10405 5.53997 6.10405C5.43498 6.10405 5.3343 6.06235 5.26007 5.98812C5.18584 5.91388 5.14413 5.8132 5.14413 5.70822V4.91655H4.35247C4.24748 4.91655 4.1468 4.87485 4.07257 4.80062C3.99834 4.72638 3.95663 4.6257 3.95663 4.52072C3.95663 4.41574 3.99834 4.31506 4.07257 4.24082C4.1468 4.16659 4.24748 4.12489 4.35247 4.12489H5.14413V3.33322C5.14413 3.22824 5.18584 3.12756 5.26007 3.05332C5.3343 2.97909 5.43498 2.93739 5.53997 2.93739C5.64495 2.93739 5.74563 2.97909 5.81986 3.05332C5.89409 3.12756 5.9358 3.22824 5.9358 3.33322V4.12489H6.72747C6.83245 4.12489 6.93313 4.16659 7.00736 4.24082C7.0816 4.31506 7.1233 4.41574 7.1233 4.52072C7.1233 4.6257 7.0816 4.72638 7.00736 4.80062C6.93313 4.87485 6.83245 4.91655 6.72747 4.91655ZM13.4566 2.93739C13.6132 2.93739 13.7663 2.98382 13.8965 3.07081C14.0266 3.1578 14.1281 3.28144 14.188 3.4261C14.248 3.57075 14.2636 3.72993 14.2331 3.8835C14.2025 4.03707 14.1271 4.17813 14.0164 4.28885C13.9057 4.39956 13.7646 4.47496 13.6111 4.50551C13.4575 4.53606 13.2983 4.52038 13.1537 4.46046C13.009 4.40054 12.8854 4.29907 12.7984 4.16888C12.7114 4.03869 12.665 3.88563 12.665 3.72905C12.665 3.51909 12.7484 3.31773 12.8968 3.16926C13.0453 3.0208 13.2467 2.93739 13.4566 2.93739ZM11.4775 4.91655C11.4775 4.75998 11.5239 4.60692 11.6109 4.47673C11.6979 4.34654 11.8215 4.24507 11.9662 4.18515C12.1108 4.12523 12.27 4.10955 12.4236 4.1401C12.5771 4.17065 12.7182 4.24605 12.8289 4.35676C12.9396 4.46748 13.015 4.60854 13.0456 4.76211C13.0761 4.91568 13.0605 5.07485 13.0005 5.21951C12.9406 5.36417 12.8391 5.48781 12.709 5.5748C12.5788 5.66179 12.4257 5.70822 12.2691 5.70822C12.0592 5.70822 11.8578 5.62481 11.7093 5.47635C11.5609 5.32788 11.4775 5.12652 11.4775 4.91655ZM13.4566 6.89572C13.3001 6.89572 13.147 6.84929 13.0168 6.7623C12.8866 6.67531 12.7851 6.55167 12.7252 6.40701C12.6653 6.26235 12.6496 6.10318 12.6802 5.94961C12.7107 5.79604 12.7861 5.65498 12.8968 5.54426C13.0076 5.43355 13.1486 5.35815 13.3022 5.3276C13.4558 5.29705 13.6149 5.31273 13.7596 5.37265C13.9042 5.43257 14.0279 5.53404 14.1149 5.66423C14.2019 5.79442 14.2483 5.94748 14.2483 6.10405C14.2483 6.31402 14.1649 6.51538 14.0164 6.66385C13.868 6.81231 13.6666 6.89572 13.4566 6.89572ZM14.6441 5.70822C14.4876 5.70822 14.3345 5.66179 14.2043 5.5748C14.0741 5.48781 13.9726 5.36417 13.9127 5.21951C13.8528 5.07485 13.8371 4.91568 13.8677 4.76211C13.8982 4.60854 13.9736 4.46748 14.0843 4.35676C14.1951 4.24605 14.3361 4.17065 14.4897 4.1401C14.6433 4.10955 14.8024 4.12523 14.9471 4.18515C15.0917 4.24507 15.2154 4.34654 15.3024 4.47673C15.3894 4.60692 15.4358 4.75998 15.4358 4.91655C15.4358 5.12652 15.3524 5.32788 15.2039 5.47635C15.0555 5.62481 14.8541 5.70822 14.6441 5.70822Z" fill="#4D4D5B"/>
</svg>
