<svg width="16" height="16" viewBox="0 0 16 16" fill="none" xmlns="http://www.w3.org/2000/svg">
<path d="M8 0C3.58167 0 0 3.58167 0 8C0 12.4183 3.58167 16 8 16C12.4183 16 16 12.4183 16 8C15.995 3.58374 12.4163 0.00500487 8 0ZM8 15.4667C3.87622 15.4667 0.533325 12.1238 0.533325 8C0.533325 3.87622 3.87622 0.533325 8 0.533325C12.1238 0.533325 15.4667 3.87622 15.4667 8C15.4619 12.1218 12.1218 15.4619 8 15.4667Z" fill="#4D4D5B"/>
<path d="M8.80029 10.4C8.79883 10.0621 8.58545 9.76172 8.26697 9.64905V9.02881C8.64038 8.93164 8.93188 8.64014 9.02905 8.26672H9.64929C9.77917 8.63403 10.1548 8.85437 10.5388 8.78845C10.9229 8.72253 11.2036 8.38965 11.2036 8C11.2036 7.61035 10.9229 7.27747 10.5388 7.21155C10.1548 7.14563 9.77917 7.36597 9.64929 7.73328H9.02905C8.93188 7.35986 8.64038 7.06836 8.26697 6.97119V6.35095C8.63428 6.22107 8.85461 5.84546 8.7887 5.46143C8.72278 5.07739 8.38989 4.79663 8.00024 4.79663C7.6106 4.79663 7.27771 5.07739 7.21179 5.46143C7.14587 5.84546 7.36621 6.22107 7.73352 6.35095V6.97119C7.36011 7.06836 7.0686 7.35986 6.97144 7.73328H6.3512C6.22131 7.36597 5.8457 7.14563 5.46167 7.21155C5.07764 7.27747 4.79688 7.61035 4.79688 8C4.79688 8.38965 5.07764 8.72253 5.46167 8.78845C5.8457 8.85437 6.22131 8.63403 6.3512 8.26672H6.97144C7.0686 8.64014 7.36011 8.93164 7.73352 9.02881V9.64905C7.35107 9.78528 7.13159 10.187 7.22375 10.5825C7.3158 10.978 7.69006 11.2415 8.09338 11.1948C8.49683 11.1481 8.80103 10.8062 8.80029 10.4ZM10.4003 7.73328C10.5475 7.73328 10.6669 7.85278 10.6669 8C10.6669 8.14722 10.5475 8.26672 10.4003 8.26672C10.2529 8.26672 10.1335 8.14722 10.1335 8C10.1335 7.85278 10.2529 7.73328 10.4003 7.73328ZM8.00024 5.33337C8.14746 5.33337 8.26697 5.45276 8.26697 5.59998C8.26697 5.74731 8.14746 5.8667 8.00024 5.8667C7.85303 5.8667 7.73352 5.74731 7.73352 5.59998C7.73352 5.45276 7.85303 5.33337 8.00024 5.33337ZM5.60022 8.26672C5.453 8.26672 5.33362 8.14722 5.33362 8C5.33362 7.85278 5.453 7.73328 5.60022 7.73328C5.74756 7.73328 5.86694 7.85278 5.86694 8C5.86694 8.14722 5.74756 8.26672 5.60022 8.26672ZM7.46692 8C7.46692 7.70544 7.70569 7.46667 8.00024 7.46667C8.2948 7.46667 8.53357 7.70544 8.53357 8C8.53357 8.29456 8.2948 8.53333 8.00024 8.53333C7.70569 8.53333 7.46692 8.29456 7.46692 8ZM7.73352 10.4C7.73352 10.2527 7.85303 10.1333 8.00024 10.1333C8.14746 10.1333 8.26697 10.2527 8.26697 10.4C8.26697 10.5472 8.14746 10.6666 8.00024 10.6666C7.85303 10.6666 7.73352 10.5472 7.73352 10.4Z" fill="#4D4D5B"/>
<path d="M13.5581 3.86096C13.1555 3.3219 12.6774 2.84387 12.1383 2.44141L12.1351 2.43848H12.1335C9.68042 0.610352 6.31787 0.610352 3.86475 2.43848H3.86316L3.85999 2.44141C3.32092 2.84375 2.84277 3.3219 2.44043 3.86096L2.4375 3.86414V3.86572C0.609375 6.31885 0.609375 9.6814 2.4375 12.1345V12.1361C2.43945 12.1393 2.44238 12.1417 2.44446 12.1451L2.44824 12.15C2.45825 12.1658 2.46973 12.1805 2.48267 12.194C2.8761 12.7107 3.33972 13.17 3.85999 13.5588L3.86316 13.5618H3.86499C6.31799 15.3896 9.6803 15.3896 12.1333 13.5618H12.1351L12.1383 13.5588C12.6586 13.17 13.1222 12.7107 13.5156 12.194C13.5286 12.1805 13.54 12.1658 13.55 12.15L13.5538 12.1451C13.5559 12.1417 13.5588 12.1393 13.5608 12.1361V12.1345C15.3889 9.6814 15.3889 6.31885 13.5608 3.86572V3.86414L13.5581 3.86096ZM13.9971 10.2313L12.5858 9.41663C12.6213 9.30225 12.6493 9.18469 12.6759 9.06677H14.3085C14.2419 9.46399 14.1376 9.85388 13.9971 10.2313ZM13.2524 11.65L11.8571 10.845C12.0701 10.5583 12.2505 10.2489 12.3949 9.92224L13.7882 10.7266C13.6356 11.0487 13.4564 11.3575 13.2524 11.65ZM10.7261 13.7887L9.92175 12.3953C10.2484 12.251 10.558 12.0706 10.8445 11.8574L11.649 13.2534C11.3566 13.4572 11.0477 13.6362 10.7256 13.7887H10.7261ZM4.34924 13.2534L5.1543 11.858C5.44092 12.071 5.75037 12.2515 6.07703 12.3959L5.27271 13.7892C4.95056 13.6366 4.64172 13.4574 4.34924 13.2534ZM2.21057 10.7271L3.604 9.92273C3.74829 10.2494 3.92871 10.559 4.14185 10.8455L2.74585 11.65C2.54211 11.3575 2.36304 11.0487 2.21057 10.7266V10.7271ZM2.00122 5.76892L3.41248 6.58362C3.37695 6.698 3.349 6.81555 3.32239 6.93347H1.68982C1.75635 6.53625 1.86072 6.14636 2.00122 5.76892ZM2.74634 4.35022L4.14185 5.15527C3.92871 5.44189 3.74829 5.75134 3.604 6.078L2.21057 5.27368C2.36304 4.95154 2.54211 4.6427 2.74585 4.35022H2.74634ZM5.27271 2.21155L6.07703 3.60498C5.75037 3.74927 5.44092 3.92969 5.1543 4.14282L4.34924 2.74683C4.64172 2.54309 4.95056 2.36401 5.27271 2.21155ZM6.58264 3.41345L5.76794 2.0022C6.14539 1.86169 6.53528 1.75732 6.9325 1.6908V3.32385C6.81458 3.35046 6.69702 3.37854 6.58264 3.41345ZM3.23059 7.4668C3.1886 7.82117 3.1886 8.17908 3.23059 8.53345H1.62317C1.60852 8.35742 1.59912 8.17981 1.59912 8.00012C1.59912 7.82043 1.60852 7.64282 1.62317 7.4668H3.23059ZM1.68982 9.06677H3.32288C3.34949 9.18469 3.37756 9.30225 3.41296 9.41663L2.00122 10.2313C1.86072 9.85388 1.75635 9.46399 1.68982 9.06677ZM6.58264 12.5868C6.69702 12.6223 6.81458 12.6503 6.9325 12.6769V14.3094C6.53528 14.2429 6.14539 14.1385 5.76794 13.998L6.58264 12.5868ZM3.73242 8.00012C3.73181 7.0022 4.08264 6.03589 4.72339 5.27075C4.72766 5.26685 4.73083 5.26221 4.73486 5.2583C5.54358 4.29187 6.73901 3.73352 7.99915 3.73352C9.25928 3.73352 10.4547 4.29187 11.2634 5.2583C11.2675 5.26221 11.2706 5.26685 11.2749 5.27075C12.4822 6.71741 12.5977 8.78479 11.5588 10.3568C10.5201 11.9288 8.57312 12.6334 6.76892 12.0901C4.96472 11.5469 3.73047 9.8844 3.73242 8.00012ZM11.649 2.74683L10.844 4.14221C10.5574 3.9292 10.2479 3.74878 9.92126 3.60437L10.7256 2.21106C11.0477 2.36365 11.3566 2.54285 11.649 2.74683ZM9.41565 3.41345C9.30127 3.37793 9.18372 3.34998 9.0658 3.32336V1.6908C9.46301 1.75732 9.85291 1.86169 10.2303 2.0022L9.41565 3.41345ZM9.41565 12.5868L10.2303 13.9985C9.85291 14.1389 9.46301 14.243 9.0658 14.3094V12.6764C9.18372 12.6498 9.30127 12.6217 9.41565 12.5868ZM12.7677 8.53345C12.8097 8.17908 12.8097 7.82117 12.7677 7.4668H14.3751C14.3898 7.64282 14.3992 7.82043 14.3992 8.00012C14.3992 8.17981 14.3898 8.35742 14.3751 8.53345H12.7677ZM14.3085 6.93347H12.6754C12.6488 6.81555 12.6221 6.698 12.5853 6.58362L13.9971 5.76892C14.1376 6.14636 14.2419 6.53625 14.3085 6.93347ZM12.3943 6.078C12.25 5.75134 12.0696 5.44189 11.8564 5.15527L13.2524 4.35022C13.4564 4.6427 13.6356 4.95154 13.7882 5.27368L12.3943 6.078ZM12.9277 3.92175L11.5109 4.73877C11.4303 4.65198 11.3469 4.5686 11.2605 4.4884L12.0775 3.0719C12.3866 3.32812 12.6711 3.61267 12.9274 3.92175H12.9277ZM8.53247 1.62415V3.23157C8.1781 3.18958 7.82019 3.18958 7.46582 3.23157V1.62415C7.64185 1.6095 7.81946 1.6001 7.99915 1.6001C8.17883 1.6001 8.35645 1.6095 8.53247 1.62415ZM3.92078 3.0719L4.73779 4.4884C4.651 4.56897 4.56763 4.65234 4.48743 4.73877L3.07092 3.92175C3.32715 3.61267 3.61169 3.32812 3.92078 3.0719ZM3.07092 12.0785L4.48743 11.2615C4.56799 11.3483 4.65137 11.4316 4.73779 11.5118L3.92078 12.9283C3.61169 12.6721 3.32715 12.3876 3.07092 12.0785ZM7.46582 14.3761V12.7687C7.82019 12.8107 8.1781 12.8107 8.53247 12.7687V14.3761C8.35645 14.3907 8.17883 14.4001 7.99915 14.4001C7.81946 14.4001 7.64185 14.3907 7.46582 14.3761ZM12.0775 12.9283L11.2605 11.5118C11.3473 11.4313 11.4307 11.3479 11.5109 11.2615L12.9274 12.0785C12.6711 12.3876 12.3866 12.6721 12.0775 12.9283Z" fill="#4D4D5B"/>
</svg>
