<svg width="20" height="20" viewBox="0 0 20 20" fill="none" xmlns="http://www.w3.org/2000/svg">
<path d="M8.47135 7.64298C8.44976 7.46245 8.3907 7.28842 8.29794 7.13203C8.20518 6.97565 8.08078 6.84037 7.9327 6.73487C7.76515 6.61441 7.56576 6.54611 7.35954 6.53855C7.15332 6.53098 6.94946 6.58448 6.77353 6.69234C6.54612 6.83142 6.34536 7.00999 6.1807 7.21963C6.01602 7.01002 5.81527 6.83146 5.58788 6.69234C5.41194 6.58448 5.20807 6.53098 5.00184 6.53855C4.79561 6.54612 4.59621 6.61441 4.42864 6.73487C4.28057 6.84038 4.15618 6.97566 4.06342 7.13204C3.97066 7.28842 3.91159 7.46245 3.89 7.64298C3.88643 7.66922 3.88341 7.69512 3.88094 7.72069C3.85612 8.01408 3.90938 8.30881 4.03531 8.57495C4.16124 8.8411 4.35535 9.06918 4.59794 9.23604C5.11894 9.60187 5.683 10.0799 5.9767 10.3356C6.03321 10.385 6.10567 10.4121 6.18067 10.4121C6.25568 10.4121 6.32814 10.385 6.38464 10.3356C6.67835 10.0799 7.24241 9.60187 7.76341 9.23604C8.00601 9.06919 8.20013 8.84111 8.32606 8.57496C8.45199 8.30881 8.50524 8.01408 8.48041 7.72069C8.47798 7.69512 8.47496 7.66922 8.47135 7.64298Z" fill="#4D4D5B"/>
<path d="M11.5677 15.6719V1.38193C11.5673 1.11058 11.4594 0.850436 11.2675 0.658561C11.0756 0.466687 10.8155 0.358741 10.5441 0.358398H1.8165C1.54515 0.358756 1.28502 0.466707 1.09315 0.658579C0.901277 0.85045 0.793327 1.11058 0.792969 1.38193V15.6719C0.793327 15.9433 0.901277 16.2034 1.09315 16.3953C1.28502 16.5871 1.54515 16.6951 1.8165 16.6955H10.544C10.8154 16.6952 11.0755 16.5872 11.2674 16.3954C11.4594 16.2035 11.5673 15.9433 11.5677 15.6719ZM1.2045 15.6719V1.38193C1.20473 1.21975 1.26926 1.06428 1.38394 0.949603C1.49862 0.834925 1.65408 0.770397 1.81626 0.770163H10.544C10.7061 0.770397 10.8616 0.834925 10.9763 0.949603C11.091 1.06428 11.1555 1.21975 11.1557 1.38193V15.6719C11.1555 15.8341 11.091 15.9896 10.9763 16.1043C10.8616 16.2189 10.7061 16.2835 10.544 16.2837H1.8165C1.65428 16.2835 1.49876 16.219 1.38404 16.1043C1.26931 15.9896 1.20475 15.8341 1.2045 15.6719Z" fill="#4D4D5B"/>
<path d="M18.7314 6.63395L12.2137 2.90048C12.196 2.8903 12.1759 2.88497 12.1554 2.88501C12.1349 2.88505 12.1149 2.89048 12.0972 2.90073C12.0794 2.91098 12.0648 2.92571 12.0545 2.94343C12.0443 2.96116 12.0389 2.98125 12.0389 3.00171V3.09883C12.039 3.15235 12.0531 3.20491 12.08 3.25121C12.1068 3.2975 12.1454 3.33588 12.1919 3.36248L18.5272 6.99136C18.6504 7.06188 18.7405 7.17844 18.7777 7.3154C18.815 7.45236 18.7963 7.59851 18.7258 7.72171L12.2937 18.9609C12.2233 19.0839 12.1069 19.174 11.9702 19.2113C11.8335 19.2487 11.6875 19.2303 11.5643 19.1601L8.25841 17.2459C8.16823 17.1937 8.06586 17.1662 7.96165 17.1662H7.72336C7.69828 17.1662 7.6739 17.1745 7.654 17.1898C7.6341 17.205 7.61978 17.2264 7.61328 17.2507C7.60677 17.2749 7.60843 17.3006 7.61801 17.3238C7.62758 17.3469 7.64453 17.3663 7.66624 17.3789L11.359 19.5169C11.577 19.6416 11.8356 19.6745 12.0779 19.6086C12.3202 19.5427 12.5264 19.3833 12.6512 19.1654L19.0828 7.92618C19.2075 7.70821 19.2406 7.44962 19.1747 7.20728C19.1088 6.96495 18.9493 6.75872 18.7314 6.63395Z" fill="#4D4D5B"/>
<path d="M9.89077 17.1662C9.85698 17.1662 9.82414 17.1774 9.79743 17.1981C9.77071 17.2188 9.75162 17.2478 9.74315 17.2805C9.73468 17.3132 9.73732 17.3478 9.75064 17.3789C9.76397 17.4099 9.78723 17.4357 9.81677 17.4521L11.3379 18.3025C11.4643 18.3747 11.6142 18.3938 11.7547 18.3556C11.8952 18.3174 12.0148 18.225 12.0872 18.0987L17.8899 7.95965C17.9257 7.89707 17.9488 7.82804 17.958 7.7565C17.9671 7.68497 17.9621 7.61234 17.9431 7.54276C17.9242 7.47318 17.8917 7.40802 17.8476 7.35098C17.8035 7.29395 17.7485 7.24616 17.6859 7.21036L12.4751 4.22889C12.4312 4.20413 12.3816 4.19129 12.3313 4.19166C12.2809 4.19202 12.2315 4.20557 12.188 4.23096C12.1445 4.25636 12.1085 4.2927 12.0834 4.33637C12.0583 4.38005 12.0451 4.42953 12.0451 4.47989L12.0382 15.6718C12.0382 16.0681 11.8808 16.4481 11.6006 16.7283C11.3204 17.0085 10.9404 17.1659 10.5441 17.1659L9.89077 17.1662Z" fill="#4D4D5B"/>
<path d="M3.65599 3.30521C3.30075 2.63097 3.09522 1.86303 3.04493 1.66215C3.04592 1.6148 3.03055 1.56855 3.00141 1.53121C2.97228 1.49387 2.93116 1.46771 2.88499 1.45715C2.85245 1.4495 2.81858 1.4495 2.78604 1.45715C2.73986 1.46771 2.69873 1.49388 2.6696 1.53123C2.64046 1.56859 2.6251 1.61485 2.6261 1.66221C2.57581 1.86309 2.3704 2.63097 2.01504 3.30521C1.96113 3.30703 1.9101 3.32997 1.87294 3.36908C1.83579 3.40819 1.8155 3.46033 1.81644 3.51427C1.81738 3.5682 1.83948 3.61961 1.87798 3.6574C1.91647 3.69518 1.96828 3.71633 2.02222 3.71627H2.3191C2.36121 3.71644 2.40235 3.70363 2.43693 3.67961C2.47151 3.65558 2.49786 3.62148 2.51238 3.58196C2.52691 3.54244 2.52892 3.4994 2.51814 3.45869C2.50735 3.41799 2.4843 3.38159 2.4521 3.35445C2.48175 3.29421 2.51022 3.23388 2.53751 3.17345H3.13351C3.16097 3.23372 3.18944 3.29405 3.21893 3.35445C3.18673 3.38159 3.16367 3.418 3.15289 3.45871C3.14211 3.49942 3.14412 3.54246 3.15866 3.58199C3.17319 3.62151 3.19954 3.65561 3.23413 3.67963C3.26872 3.70366 3.30987 3.71645 3.35199 3.71627H3.64887C3.70281 3.71631 3.7546 3.69516 3.79308 3.65736C3.83157 3.61957 3.85366 3.56817 3.85459 3.51424C3.85552 3.46031 3.83523 3.40817 3.79808 3.36907C3.76092 3.32997 3.70989 3.30703 3.65599 3.30521ZM2.66281 2.82633C2.72751 2.65792 2.78499 2.49586 2.83551 2.34492C2.8861 2.49586 2.94369 2.65792 3.00822 2.82633H2.66281Z" fill="#4D4D5B"/>
<path d="M10.3403 13.3364H10.0434C10.0013 13.3363 9.96014 13.3491 9.92556 13.3731C9.89098 13.3971 9.86464 13.4312 9.85011 13.4707C9.83558 13.5103 9.83357 13.5533 9.84436 13.594C9.85514 13.6347 9.8782 13.6711 9.91039 13.6983C9.88074 13.7585 9.85225 13.8188 9.82492 13.8793H9.22898C9.20153 13.8189 9.17304 13.7586 9.14351 13.6983C9.1757 13.6711 9.19875 13.6347 9.20954 13.594C9.22032 13.5533 9.21832 13.5103 9.20379 13.4707C9.18926 13.4312 9.16292 13.3971 9.12834 13.3731C9.09376 13.3491 9.05262 13.3363 9.01051 13.3364H8.71357C8.65963 13.3364 8.60783 13.3575 8.56935 13.3953C8.53087 13.4331 8.50878 13.4845 8.50784 13.5385C8.50691 13.5924 8.52721 13.6445 8.56436 13.6836C8.60151 13.7227 8.65254 13.7457 8.70645 13.7475C9.06174 14.4217 9.26721 15.1896 9.31751 15.3905C9.31652 15.4378 9.33189 15.4841 9.36102 15.5214C9.39016 15.5588 9.43128 15.5849 9.47745 15.5955C9.50999 15.6031 9.54385 15.6031 9.57639 15.5955C9.62256 15.5849 9.66368 15.5588 9.69282 15.5214C9.72195 15.4841 9.73732 15.4378 9.73633 15.3905C9.78663 15.1895 9.99204 14.4217 10.3474 13.7475C10.4013 13.7457 10.4523 13.7227 10.4895 13.6836C10.5266 13.6445 10.5469 13.5924 10.546 13.5384C10.5451 13.4845 10.523 13.4331 10.4845 13.3953C10.446 13.3575 10.3942 13.3364 10.3402 13.3364H10.3403ZM9.52698 14.7078C9.47639 14.5568 9.4188 14.3947 9.35427 14.2264H9.69968C9.63515 14.3947 9.57751 14.5568 9.52698 14.7078Z" fill="#4D4D5B"/>
</svg>
